<?xml version="1.0" encoding="UTF-8" standalone="no"?>
<!-- Created with Inkscape (http://www.inkscape.org/) -->

<svg
   width="1500"
   height="800"
   viewBox="0 0 396.875 211.66667"
   version="1.1"
   id="svg5"
   inkscape:version="1.2 (56b05e47e7, 2022-06-09, custom)"
   sodipodi:docname="panel.svg"
   xmlns:inkscape="http://www.inkscape.org/namespaces/inkscape"
   xmlns:sodipodi="http://sodipodi.sourceforge.net/DTD/sodipodi-0.dtd"
   xmlns:xlink="http://www.w3.org/1999/xlink"
   xmlns="http://www.w3.org/2000/svg"
   xmlns:svg="http://www.w3.org/2000/svg">
  <sodipodi:namedview
     id="namedview7"
     pagecolor="#6c6c6c"
     bordercolor="#666666"
     borderopacity="1.0"
     inkscape:showpageshadow="2"
     inkscape:pageopacity="0"
     inkscape:pagecheckerboard="0"
     inkscape:deskcolor="#d1d1d1"
     inkscape:document-units="mm"
     showgrid="false"
     inkscape:zoom="0.84096521"
     inkscape:cx="398.3518"
     inkscape:cy="247.33485"
     inkscape:window-width="1243"
     inkscape:window-height="995"
     inkscape:window-x="2597"
     inkscape:window-y="0"
     inkscape:window-maximized="0"
     inkscape:current-layer="layer1" />
  <defs
     id="defs2">
    <linearGradient
       inkscape:collect="always"
       id="linearGradient2900">
      <stop
         style="stop-color:#f55c5c;stop-opacity:1;"
         offset="0"
         id="stop2896" />
      <stop
         style="stop-color:#e71717;stop-opacity:1;"
         offset="0.34249544"
         id="stop3028" />
      <stop
         style="stop-color:#a30a00;stop-opacity:1;"
         offset="1"
         id="stop2898" />
    </linearGradient>
    <linearGradient
       inkscape:collect="always"
       id="linearGradient8719">
      <stop
         style="stop-color:#f87540;stop-opacity:1;"
         offset="0"
         id="stop8715" />
      <stop
         style="stop-color:#de460c;stop-opacity:1;"
         offset="1"
         id="stop8717" />
    </linearGradient>
    <filter
       inkscape:collect="always"
       style="color-interpolation-filters:sRGB"
       id="filter8262"
       x="-0.40111008"
       y="-0.86383021"
       width="1.8022202"
       height="2.7276604">
      <feGaussianBlur
         inkscape:collect="always"
         stdDeviation="1.8249764"
         id="feGaussianBlur8264" />
    </filter>
    <filter
       inkscape:collect="always"
       style="color-interpolation-filters:sRGB"
       id="filter8690"
       x="-0.17304176"
       y="-0.37266254"
       width="1.3460835"
       height="1.7453251">
      <feGaussianBlur
         inkscape:collect="always"
         stdDeviation="0.78730793"
         id="feGaussianBlur8688" />
    </filter>
    <filter
       inkscape:collect="always"
       style="color-interpolation-filters:sRGB"
       id="filter1809"
       x="-0.055934032"
       y="-0.055934032"
       width="1.1118681"
       height="1.1118681">
      <feGaussianBlur
         inkscape:collect="always"
         stdDeviation="0.4167382"
         id="feGaussianBlur1811" />
    </filter>
    <filter
       inkscape:collect="always"
       style="color-interpolation-filters:sRGB"
       id="filter2037"
       x="-0.092467571"
       y="-0.093621889"
       width="1.1849351"
       height="1.1872438">
      <feGaussianBlur
         inkscape:collect="always"
         stdDeviation="0.3325838"
         id="feGaussianBlur2039" />
    </filter>
    <radialGradient
       inkscape:collect="always"
       xlink:href="#linearGradient2900"
       id="radialGradient3030"
       cx="92.041595"
       cy="191.26476"
       fx="92.041595"
       fy="191.26476"
       r="6.4311328"
       gradientUnits="userSpaceOnUse"
       gradientTransform="matrix(0.52271505,0,0,0.52271505,145.07869,-59.604134)" />
    <radialGradient
       inkscape:collect="always"
       xlink:href="#linearGradient2900"
       id="radialGradient4344"
       gradientUnits="userSpaceOnUse"
       gradientTransform="matrix(0.52271505,0,0,0.52271505,145.07869,-59.604134)"
       cx="92.041595"
       cy="191.26476"
       fx="92.041595"
       fy="191.26476"
       r="6.4311328" />
    <linearGradient
       inkscape:collect="always"
       xlink:href="#linearGradient8719"
       id="linearGradient4370"
       gradientUnits="userSpaceOnUse"
       gradientTransform="matrix(1.0342008,0,0,0.99123806,172.24066,23.141161)"
       x1="112.20081"
       y1="10.996829"
       x2="110.39369"
       y2="46.643829" />
    <filter
       inkscape:collect="always"
       style="color-interpolation-filters:sRGB"
       id="filter5994"
       x="-0.021606279"
       y="-0.12037742"
       width="1.0432126"
       height="1.2407548">
      <feGaussianBlur
         inkscape:collect="always"
         stdDeviation="1.5516616"
         id="feGaussianBlur5996" />
    </filter>
    <linearGradient
       inkscape:collect="always"
       xlink:href="#linearGradient8719"
       id="linearGradient6018"
       gradientUnits="userSpaceOnUse"
       gradientTransform="matrix(1.0342008,0,0,0.99123806,-18.729017,-12.178488)"
       x1="112.20081"
       y1="10.996829"
       x2="110.39369"
       y2="46.643829" />
  </defs>
  <g
     inkscape:label="Layer 1"
     inkscape:groupmode="layer"
     id="layer1">
    <path
       id="rect4913"
       style="opacity:1;fill:#cc9b1f;fill-opacity:1;stroke:#654d0f;stroke-width:2.013;stroke-dasharray:none;stroke-opacity:1"
       d="m 13.231717,21.756011 158.673423,4.224113 c 4.67868,0.124553 8.89756,3.789543 8.44827,8.448269 l -7.33909,76.099407 c -0.44929,4.65873 -3.77915,8.12437 -8.44827,8.44827 L 19.850821,129.01512 c -4.66912,0.3239 -8.106348,-3.78044 -8.448269,-8.44827 L 4.7834479,30.20428 c -0.341921,-4.667835 3.769586,-8.572823 8.4482691,-8.448269 z"
       sodipodi:nodetypes="sssssssss" />
    <path
       id="path8905"
       style="opacity:1;fill:#f1cc5e;fill-opacity:1;stroke-width:0.513001"
       d="m 12.186728,26.608988 c -1.819714,0.420085 -3.0853561,2.442903 -2.5864051,4.259886 2.2336091,30.076462 4.3658611,60.162623 6.6943051,90.230676 0.295981,1.64924 1.714813,3.37554 3.545107,3.08657 3.943382,-0.1401 7.918759,-0.5674 11.85902,-0.76885 44.392531,-3.08088 88.785735,-6.15214 133.175475,-9.27312 2.28666,-0.45271 3.6392,-2.90449 3.48033,-5.11321 2.42976,-25.112052 4.86694,-50.223398 7.25014,-75.339921 -0.27709,-2.044795 -2.55806,-3.128844 -4.44762,-2.94217 -52.8788,-1.447228 -105.759418,-2.827168 -158.640274,-4.196502 -0.110026,0.01888 -0.220052,0.03776 -0.330078,0.05664 z" />
    <ellipse
       style="opacity:0.853254;fill:#ffffff;fill-opacity:0.331348;stroke:none;stroke-width:0.528581;stroke-dasharray:none;filter:url(#filter8262)"
       id="path7792"
       cx="17.683926"
       cy="44.554928"
       rx="5.4597774"
       ry="2.5351877"
       transform="matrix(2.9590507,-1.2603628,1.4062485,2.6520755,-73.60175,-55.681806)" />
    <path
       id="path9992"
       style="opacity:1;mix-blend-mode:normal;fill:#bb8d1d;fill-opacity:0.174971;stroke:none;stroke-width:0.264583px;stroke-linecap:butt;stroke-linejoin:miter;stroke-opacity:1"
       d="m 173.13587,59.466483 c -15.43009,0.382914 -36.76244,1.541315 -49.79076,4.937683 -17.60275,4.588884 -21.546,25.162691 -39.728329,24.599021 -16.232479,-0.50323 -48.116368,-6.416397 -69.448474,3.96565 0.696893,9.378053 1.400465,18.755213 2.126485,28.130583 0.295981,1.64924 1.714711,3.3756 3.545004,3.08663 3.943378,-0.1401 7.91845,-0.56749 11.858707,-0.76894 44.392487,-3.08088 88.786157,-6.15185 133.175857,-9.27282 2.28665,-0.45271 3.63927,-2.90467 3.4804,-5.11339 1.59852,-16.520933 3.19366,-33.042417 4.78111,-49.564417 z"
       sodipodi:nodetypes="cssccccccc" />
    <path
       sodipodi:type="star"
       style="opacity:0.594687;fill:#865814;fill-opacity:1;stroke:none;stroke-width:1.313;stroke-linejoin:round;stroke-dasharray:none;stroke-opacity:1"
       id="path12559"
       inkscape:flatsided="false"
       sodipodi:sides="5"
       sodipodi:cx="139.04582"
       sodipodi:cy="156.18732"
       sodipodi:r1="19.767693"
       sodipodi:r2="11.597408"
       sodipodi:arg1="0.94072012"
       sodipodi:arg2="1.4885787"
       inkscape:rounded="0.26"
       inkscape:randomized="0"
       d="m 150.69307,172.15927 c -2.28018,1.96207 -7.68667,-4.41898 -10.69481,-4.41372 -3.46085,0.006 -9.58595,6.25194 -12.54347,4.45456 -2.57065,-1.56226 1.82739,-8.676 0.89282,-11.53528 -1.07522,-3.28959 -8.90817,-7.18482 -8.11269,-10.55301 0.69143,-2.9276 8.81606,-0.94309 11.24661,-2.71548 2.79632,-2.03913 4.08039,-10.69241 7.52955,-10.97669 2.99798,-0.24709 3.62124,8.09315 6.05796,9.85703 2.80344,2.02934 11.43,0.57655 12.76621,3.76905 1.16142,2.77489 -6.57801,5.94492 -7.50258,8.80746 -1.0637,3.29332 2.98373,11.04873 0.3604,13.30608 z"
       inkscape:transform-center-x="0.0081567103"
       inkscape:transform-center-y="-1.4260608"
       transform="matrix(0.7595798,0,0,0.7595798,-16.973541,-48.783208)" />
    <path
       sodipodi:type="star"
       style="opacity:1;fill:#00f1ba;fill-opacity:1;stroke:#fefefe;stroke-width:1.313;stroke-linejoin:round;stroke-dasharray:none;stroke-opacity:1"
       id="path11643"
       inkscape:flatsided="false"
       sodipodi:sides="5"
       sodipodi:cx="139.04582"
       sodipodi:cy="156.18732"
       sodipodi:r1="19.767693"
       sodipodi:r2="11.597408"
       sodipodi:arg1="0.94072012"
       sodipodi:arg2="1.4885787"
       inkscape:rounded="0.26"
       inkscape:randomized="0"
       d="m 150.69307,172.15927 c -2.28018,1.96207 -7.68667,-4.41898 -10.69481,-4.41372 -3.46085,0.006 -9.58595,6.25194 -12.54347,4.45456 -2.57065,-1.56226 1.82739,-8.676 0.89282,-11.53528 -1.07522,-3.28959 -8.90817,-7.18482 -8.11269,-10.55301 0.69143,-2.9276 8.81606,-0.94309 11.24661,-2.71548 2.79632,-2.03913 4.08039,-10.69241 7.52955,-10.97669 2.99798,-0.24709 3.62124,8.09315 6.05796,9.85703 2.80344,2.02934 11.43,0.57655 12.76621,3.76905 1.16142,2.77489 -6.57801,5.94492 -7.50258,8.80746 -1.0637,3.29332 2.98373,11.04873 0.3604,13.30608 z"
       inkscape:transform-center-x="0.0081567196"
       inkscape:transform-center-y="-1.4260615"
       transform="matrix(0.7595798,0,0,0.7595798,-18.179375,-50.390989)" />
    <path
       id="path12543"
       style="opacity:0.706482;fill:#ffffff;fill-opacity:1;stroke:none;stroke-width:1.10656;stroke-linejoin:round;stroke-dasharray:none;stroke-opacity:1"
       d="m 87.516011,53.226754 c -0.0347,-2.06e-4 -0.0696,9.87e-4 -0.10519,0.0039 -2.61991,0.215932 -3.595442,6.788718 -5.719473,8.337593 -1.84619,1.346277 -8.017693,-0.161034 -8.542887,2.062714 -0.604233,2.558404 5.345521,5.517025 6.16223,8.015725 0.109049,0.333631 0.122043,0.74394 0.07379,1.203088 a 11.442137,37.226909 67.639114 0 0 20.16081,-10.66995 c -2.40895,-0.597459 -6.04736,-0.386502 -7.53331,-1.462148 -1.82197,-1.318876 -2.30907,-7.477795 -4.49597,-7.490922 z" />
    <path
       sodipodi:type="star"
       style="opacity:0.594687;fill:#865814;fill-opacity:1;stroke:none;stroke-width:1.313;stroke-linejoin:round;stroke-dasharray:none;stroke-opacity:1"
       id="path12561"
       inkscape:flatsided="false"
       sodipodi:sides="5"
       sodipodi:cx="139.04582"
       sodipodi:cy="156.18732"
       sodipodi:r1="19.767693"
       sodipodi:r2="11.597408"
       sodipodi:arg1="0.94072012"
       sodipodi:arg2="1.4885787"
       inkscape:rounded="0.26"
       inkscape:randomized="0"
       d="m 150.69307,172.15927 c -2.28018,1.96207 -7.68667,-4.41898 -10.69481,-4.41372 -3.46085,0.006 -9.58595,6.25194 -12.54347,4.45456 -2.57065,-1.56226 1.82739,-8.676 0.89282,-11.53528 -1.07522,-3.28959 -8.90817,-7.18482 -8.11269,-10.55301 0.69143,-2.9276 8.81606,-0.94309 11.24661,-2.71548 2.79632,-2.03913 4.08039,-10.69241 7.52955,-10.97669 2.99798,-0.24709 3.62124,8.09315 6.05796,9.85703 2.80344,2.02934 11.43,0.57655 12.76621,3.76905 1.16142,2.77489 -6.57801,5.94492 -7.50258,8.80746 -1.0637,3.29332 2.98373,11.04873 0.3604,13.30608 z"
       inkscape:transform-center-x="0.0062047372"
       inkscape:transform-center-y="-1.0848372"
       transform="matrix(0.57782971,0,0,0.57782971,-27.990275,-9.9627566)" />
    <path
       sodipodi:type="star"
       style="opacity:1;fill:#00f1ba;fill-opacity:1;stroke:#fefefe;stroke-width:1.313;stroke-linejoin:round;stroke-dasharray:none;stroke-opacity:1"
       id="path12563"
       inkscape:flatsided="false"
       sodipodi:sides="5"
       sodipodi:cx="139.04582"
       sodipodi:cy="156.18732"
       sodipodi:r1="19.767693"
       sodipodi:r2="11.597408"
       sodipodi:arg1="0.94072012"
       sodipodi:arg2="1.4885787"
       inkscape:rounded="0.26"
       inkscape:randomized="0"
       d="m 150.69307,172.15927 c -2.28018,1.96207 -7.68667,-4.41898 -10.69481,-4.41372 -3.46085,0.006 -9.58595,6.25194 -12.54347,4.45456 -2.57065,-1.56226 1.82739,-8.676 0.89282,-11.53528 -1.07522,-3.28959 -8.90817,-7.18482 -8.11269,-10.55301 0.69143,-2.9276 8.81606,-0.94309 11.24661,-2.71548 2.79632,-2.03913 4.08039,-10.69241 7.52955,-10.97669 2.99798,-0.24709 3.62124,8.09315 6.05796,9.85703 2.80344,2.02934 11.43,0.57655 12.76621,3.76905 1.16142,2.77489 -6.57801,5.94492 -7.50258,8.80746 -1.0637,3.29332 2.98373,11.04873 0.3604,13.30608 z"
       inkscape:transform-center-x="0.0062052664"
       inkscape:transform-center-y="-1.0848377"
       transform="matrix(0.57782971,0,0,0.57782971,-28.907581,-11.185831)" />
    <path
       id="path12565"
       style="opacity:0.706482;fill:#ffffff;fill-opacity:1;stroke:none;stroke-width:0.841785;stroke-linejoin:round;stroke-dasharray:none;stroke-opacity:1"
       d="m 51.497311,67.638552 c -0.0264,-1.56e-4 -0.05295,7.51e-4 -0.08002,0.003 -1.993025,0.164265 -2.735132,5.164333 -4.350931,6.342598 -1.404439,1.024143 -6.099242,-0.122503 -6.498769,1.569153 -0.459654,1.946237 4.06646,4.196927 4.687749,6.097745 0.08296,0.253801 0.09284,0.565933 0.05613,0.915217 A 8.7042951,28.31936 67.639114 0 0 60.648256,74.44939 c -1.832544,-0.4545 -4.600365,-0.294021 -5.730761,-1.112289 -1.386015,-1.003299 -1.756563,-5.68853 -3.420188,-5.698516 z" />
    <path
       sodipodi:type="star"
       style="opacity:0.594687;fill:#865814;fill-opacity:1;stroke:none;stroke-width:1.313;stroke-linejoin:round;stroke-dasharray:none;stroke-opacity:1"
       id="path12567"
       inkscape:flatsided="false"
       sodipodi:sides="5"
       sodipodi:cx="139.04582"
       sodipodi:cy="156.18732"
       sodipodi:r1="19.767693"
       sodipodi:r2="11.597408"
       sodipodi:arg1="0.94072012"
       sodipodi:arg2="1.4885787"
       inkscape:rounded="0.26"
       inkscape:randomized="0"
       d="m 150.69307,172.15927 c -2.28018,1.96207 -7.68667,-4.41898 -10.69481,-4.41372 -3.46085,0.006 -9.58595,6.25194 -12.54347,4.45456 -2.57065,-1.56226 1.82739,-8.676 0.89282,-11.53528 -1.07522,-3.28959 -8.90817,-7.18482 -8.11269,-10.55301 0.69143,-2.9276 8.81606,-0.94309 11.24661,-2.71548 2.79632,-2.03913 4.08039,-10.69241 7.52955,-10.97669 2.99798,-0.24709 3.62124,8.09315 6.05796,9.85703 2.80344,2.02934 11.43,0.57655 12.76621,3.76905 1.16142,2.77489 -6.57801,5.94492 -7.50258,8.80746 -1.0637,3.29332 2.98373,11.04873 0.3604,13.30608 z"
       inkscape:transform-center-x="0.0062047372"
       inkscape:transform-center-y="-1.0848372"
       transform="matrix(0.57782971,0,0,0.57782971,45.588298,-9.9627566)" />
    <path
       sodipodi:type="star"
       style="opacity:1;fill:#00f1ba;fill-opacity:1;stroke:#fefefe;stroke-width:1.313;stroke-linejoin:round;stroke-dasharray:none;stroke-opacity:1"
       id="path12569"
       inkscape:flatsided="false"
       sodipodi:sides="5"
       sodipodi:cx="139.04582"
       sodipodi:cy="156.18732"
       sodipodi:r1="19.767693"
       sodipodi:r2="11.597408"
       sodipodi:arg1="0.94072012"
       sodipodi:arg2="1.4885787"
       inkscape:rounded="0.26"
       inkscape:randomized="0"
       d="m 150.69307,172.15927 c -2.28018,1.96207 -7.68667,-4.41898 -10.69481,-4.41372 -3.46085,0.006 -9.58595,6.25194 -12.54347,4.45456 -2.57065,-1.56226 1.82739,-8.676 0.89282,-11.53528 -1.07522,-3.28959 -8.90817,-7.18482 -8.11269,-10.55301 0.69143,-2.9276 8.81606,-0.94309 11.24661,-2.71548 2.79632,-2.03913 4.08039,-10.69241 7.52955,-10.97669 2.99798,-0.24709 3.62124,8.09315 6.05796,9.85703 2.80344,2.02934 11.43,0.57655 12.76621,3.76905 1.16142,2.77489 -6.57801,5.94492 -7.50258,8.80746 -1.0637,3.29332 2.98373,11.04873 0.3604,13.30608 z"
       inkscape:transform-center-x="0.0062052664"
       inkscape:transform-center-y="-1.0848377"
       transform="matrix(0.57782971,0,0,0.57782971,44.670992,-11.185831)" />
    <path
       id="path12571"
       style="opacity:0.706482;fill:#ffffff;fill-opacity:1;stroke:none;stroke-width:0.841785;stroke-linejoin:round;stroke-dasharray:none;stroke-opacity:1"
       d="m 125.07589,67.638552 c -0.0264,-1.56e-4 -0.0529,7.51e-4 -0.08,0.003 -1.99303,0.164265 -2.73514,5.164333 -4.35093,6.342598 -1.40444,1.024143 -6.09925,-0.122503 -6.49877,1.569153 -0.45966,1.946237 4.06646,4.196927 4.68775,6.097745 0.083,0.253801 0.0928,0.565933 0.0561,0.915217 a 8.7042951,28.31936 67.639114 0 0 15.33678,-8.116875 c -1.83254,-0.4545 -4.60036,-0.294021 -5.73076,-1.112289 -1.38601,-1.003299 -1.75656,-5.68853 -3.42019,-5.698516 z" />
    <g
       id="g3602"
       transform="matrix(1.1829292,0,0,1.1829292,-48.421521,-16.304958)">
      <circle
         style="opacity:1;fill:#730101;fill-opacity:1;stroke:#620d0d;stroke-width:0.268153;stroke-linejoin:round;stroke-dasharray:none;stroke-opacity:1"
         id="path1803"
         cx="193.79396"
         cy="41.075138"
         r="3.8777721" />
      <circle
         style="opacity:0.163581;fill:#000000;fill-opacity:1;stroke:none;stroke-width:0.618256;stroke-linejoin:round;stroke-dasharray:none;stroke-opacity:0.655068;filter:url(#filter1809)"
         id="circle1807"
         cx="93.196602"
         cy="192.60832"
         r="8.9406366"
         transform="matrix(0.52271505,0,0,0.52271505,145.07869,-59.604134)" />
      <circle
         style="opacity:1;fill:url(#radialGradient3030);fill-opacity:1;stroke:none;stroke-width:0.23221;stroke-linejoin:round;stroke-dasharray:none;stroke-opacity:0.655068"
         id="circle1805"
         cx="193.79396"
         cy="41.075138"
         r="3.36165" />
      <g
         id="g2043"
         transform="matrix(0.43099913,0,0,0.43099913,153.43775,-42.037908)">
        <path
           id="path2030"
           style="opacity:1;fill:#000000;fill-opacity:0.303297;stroke:none;stroke-width:0.412001;stroke-linejoin:round;stroke-dasharray:none;stroke-opacity:0.655068;filter:url(#filter2037)"
           d="m 96.914062,188.30664 c -1.024236,0.26066 -1.446006,1.57628 -2.517578,1.66211 -0.910079,-0.22757 -1.301326,-1.46929 -2.361712,-1.38591 -0.757014,0.1729 -1.439257,0.72252 -2.017034,1.2048 -0.549011,0.74955 0.375648,1.39314 0.936426,1.75282 0.653942,0.58474 -0.05558,1.47636 -0.719789,1.62165 -0.826718,0.35129 -1.227688,1.33267 -0.900391,2.16016 -0.119975,0.65422 0.143648,1.66473 0.994141,1.49023 0.705504,-0.23065 1.183846,-0.86321 1.851563,-1.1875 0.509087,-0.4429 1.406703,-0.83038 1.83789,-0.0742 0.356392,0.65009 1.127357,1.41306 1.881789,0.83986 0.713849,-0.35694 1.884312,-0.79618 1.64861,-1.78326 -0.274443,-0.73101 -1.318101,-1.24106 -1.063602,-2.11129 0.482297,-0.65885 1.573194,-1.1061 1.333984,-2.10156 -0.01597,-0.73147 0.146509,-2.05078 -0.904297,-2.08789 z" />
        <path
           id="path2023"
           style="opacity:1;fill:#ded304;fill-opacity:1;stroke:none;stroke-width:0.412001;stroke-linejoin:round;stroke-dasharray:none;stroke-opacity:0.655068"
           d="m 97.214221,188.67996 c -0.256201,0.12754 -0.490277,0.29663 -0.715202,0.47232 -0.328581,0.2584 -0.620545,0.55523 -0.927075,0.83871 -0.294846,0.2899 -0.574111,0.59448 -0.907438,0.84232 -0.0809,0.0638 -0.162278,0.12696 -0.243913,0.18966 -0.08437,-0.10853 -0.171483,-0.21493 -0.262516,-0.31833 -0.247856,-0.29827 -0.535561,-0.55119 -0.837675,-0.79323 -0.390477,-0.31249 -0.746645,-0.66889 -1.16582,-0.94672 l -2.012797,1.26608 c 0.411751,0.2852 0.779885,0.62363 1.163236,0.94361 0.289571,0.23425 0.572098,0.47224 0.814937,0.75551 0.118387,0.13398 0.229083,0.27408 0.336414,0.41651 -0.365158,0.2311 -0.729165,0.46391 -1.089856,0.70228 -0.535374,0.35672 -1.050675,0.74333 -1.60507,1.07022 l 0.155029,2.37298 c 0.54237,-0.33794 1.058801,-0.71387 1.590084,-1.06867 0.600771,-0.39633 1.206931,-0.78415 1.81746,-1.1653 0.09747,-0.0617 0.194431,-0.1245 0.290939,-0.18759 0.04766,0.0698 0.09557,0.13942 0.141593,0.21033 0.233643,0.37371 0.515577,0.71247 0.776697,1.0666 0.189433,0.26846 0.397439,0.52349 0.590662,0.7891 0.01519,0.0273 0.03029,0.0549 0.04548,0.0822 l 2.061373,-1.18649 c -0.01971,-0.035 -0.03972,-0.0704 -0.05943,-0.10542 -0.191138,-0.26813 -0.403522,-0.52073 -0.591695,-0.79116 -0.258186,-0.35042 -0.537667,-0.68535 -0.769979,-1.0542 -0.101127,-0.15645 -0.207687,-0.30917 -0.314193,-0.46199 0.08752,-0.0854 0.174321,-0.17154 0.261483,-0.25735 0.301261,-0.27912 0.587573,-0.57468 0.903821,-0.83716 0.211133,-0.17306 0.433671,-0.33281 0.670243,-0.46922 z" />
      </g>
    </g>
    <text
       xml:space="preserve"
       style="font-style:normal;font-weight:normal;font-size:16.9333px;line-height:1.25;font-family:sans-serif;fill:#845300;fill-opacity:1;stroke:#000000;stroke-width:0.264583;stroke-opacity:1"
       x="38.271519"
       y="105.86993"
       id="text3034"><tspan
         sodipodi:role="line"
         id="tspan3032"
         style="font-style:normal;font-variant:normal;font-weight:normal;font-stretch:normal;font-size:16.9333px;font-family:Nasalization;-inkscape-font-specification:Nasalization;fill:#845300;fill-opacity:1;stroke:#000000;stroke-width:0.264583;stroke-opacity:1"
         x="38.271519"
         y="105.86993"><tspan
   style="font-size:12.7px;fill:#845300;fill-opacity:1"
   id="tspan3036">Congratulations</tspan>!</tspan></text>
    <g
       id="g4342"
       transform="matrix(1.1829292,0,0,1.1829292,-4.848452,-31.225033)">
      <circle
         style="opacity:1;fill:#730101;fill-opacity:1;stroke:#620d0d;stroke-width:0.268153;stroke-linejoin:round;stroke-dasharray:none;stroke-opacity:1"
         id="circle4330"
         cx="193.79396"
         cy="41.075138"
         r="3.8777721" />
      <circle
         style="opacity:0.163581;fill:#000000;fill-opacity:1;stroke:none;stroke-width:0.618256;stroke-linejoin:round;stroke-dasharray:none;stroke-opacity:0.655068;filter:url(#filter1809)"
         id="circle4332"
         cx="93.196602"
         cy="192.60832"
         r="8.9406366"
         transform="matrix(0.52271505,0,0,0.52271505,145.07869,-59.604134)" />
      <circle
         style="opacity:1;fill:url(#radialGradient4344);fill-opacity:1;stroke:none;stroke-width:0.23221;stroke-linejoin:round;stroke-dasharray:none;stroke-opacity:0.655068"
         id="circle4334"
         cx="193.79396"
         cy="41.075138"
         r="3.36165" />
      <g
         id="g4340"
         transform="matrix(0.43099913,0,0,0.43099913,153.43775,-42.037908)">
        <path
           id="path4336"
           style="opacity:1;fill:#000000;fill-opacity:0.303297;stroke:none;stroke-width:0.412001;stroke-linejoin:round;stroke-dasharray:none;stroke-opacity:0.655068;filter:url(#filter2037)"
           d="m 96.914062,188.30664 c -1.024236,0.26066 -1.446006,1.57628 -2.517578,1.66211 -0.910079,-0.22757 -1.301326,-1.46929 -2.361712,-1.38591 -0.757014,0.1729 -1.439257,0.72252 -2.017034,1.2048 -0.549011,0.74955 0.375648,1.39314 0.936426,1.75282 0.653942,0.58474 -0.05558,1.47636 -0.719789,1.62165 -0.826718,0.35129 -1.227688,1.33267 -0.900391,2.16016 -0.119975,0.65422 0.143648,1.66473 0.994141,1.49023 0.705504,-0.23065 1.183846,-0.86321 1.851563,-1.1875 0.509087,-0.4429 1.406703,-0.83038 1.83789,-0.0742 0.356392,0.65009 1.127357,1.41306 1.881789,0.83986 0.713849,-0.35694 1.884312,-0.79618 1.64861,-1.78326 -0.274443,-0.73101 -1.318101,-1.24106 -1.063602,-2.11129 0.482297,-0.65885 1.573194,-1.1061 1.333984,-2.10156 -0.01597,-0.73147 0.146509,-2.05078 -0.904297,-2.08789 z" />
        <path
           id="path4338"
           style="opacity:1;fill:#ded304;fill-opacity:1;stroke:none;stroke-width:0.412001;stroke-linejoin:round;stroke-dasharray:none;stroke-opacity:0.655068"
           d="m 97.214221,188.67996 c -0.256201,0.12754 -0.490277,0.29663 -0.715202,0.47232 -0.328581,0.2584 -0.620545,0.55523 -0.927075,0.83871 -0.294846,0.2899 -0.574111,0.59448 -0.907438,0.84232 -0.0809,0.0638 -0.162278,0.12696 -0.243913,0.18966 -0.08437,-0.10853 -0.171483,-0.21493 -0.262516,-0.31833 -0.247856,-0.29827 -0.535561,-0.55119 -0.837675,-0.79323 -0.390477,-0.31249 -0.746645,-0.66889 -1.16582,-0.94672 l -2.012797,1.26608 c 0.411751,0.2852 0.779885,0.62363 1.163236,0.94361 0.289571,0.23425 0.572098,0.47224 0.814937,0.75551 0.118387,0.13398 0.229083,0.27408 0.336414,0.41651 -0.365158,0.2311 -0.729165,0.46391 -1.089856,0.70228 -0.535374,0.35672 -1.050675,0.74333 -1.60507,1.07022 l 0.155029,2.37298 c 0.54237,-0.33794 1.058801,-0.71387 1.590084,-1.06867 0.600771,-0.39633 1.206931,-0.78415 1.81746,-1.1653 0.09747,-0.0617 0.194431,-0.1245 0.290939,-0.18759 0.04766,0.0698 0.09557,0.13942 0.141593,0.21033 0.233643,0.37371 0.515577,0.71247 0.776697,1.0666 0.189433,0.26846 0.397439,0.52349 0.590662,0.7891 0.01519,0.0273 0.03029,0.0549 0.04548,0.0822 l 2.061373,-1.18649 c -0.01971,-0.035 -0.03972,-0.0704 -0.05943,-0.10542 -0.191138,-0.26813 -0.403522,-0.52073 -0.591695,-0.79116 -0.258186,-0.35042 -0.537667,-0.68535 -0.769979,-1.0542 -0.101127,-0.15645 -0.207687,-0.30917 -0.314193,-0.46199 0.08752,-0.0854 0.174321,-0.17154 0.261483,-0.25735 0.301261,-0.27912 0.587573,-0.57468 0.903821,-0.83716 0.211133,-0.17306 0.433671,-0.33281 0.670243,-0.46922 z" />
      </g>
    </g>
    <path
       sodipodi:type="star"
       style="opacity:0.594687;fill:#865814;fill-opacity:1;stroke:none;stroke-width:1.313;stroke-linejoin:round;stroke-dasharray:none;stroke-opacity:1"
       id="path4346"
       inkscape:flatsided="false"
       sodipodi:sides="5"
       sodipodi:cx="139.04582"
       sodipodi:cy="156.18732"
       sodipodi:r1="19.767693"
       sodipodi:r2="11.597408"
       sodipodi:arg1="0.94072012"
       sodipodi:arg2="1.4885787"
       inkscape:rounded="0.26"
       inkscape:randomized="0"
       d="m 150.69307,172.15927 c -2.28018,1.96207 -7.68667,-4.41898 -10.69481,-4.41372 -3.46085,0.006 -9.58595,6.25194 -12.54347,4.45456 -2.57065,-1.56226 1.82739,-8.676 0.89282,-11.53528 -1.07522,-3.28959 -8.90817,-7.18482 -8.11269,-10.55301 0.69143,-2.9276 8.81606,-0.94309 11.24661,-2.71548 2.79632,-2.03913 4.08039,-10.69241 7.52955,-10.97669 2.99798,-0.24709 3.62124,8.09315 6.05796,9.85703 2.80344,2.02934 11.43,0.57655 12.76621,3.76905 1.16142,2.77489 -6.57801,5.94492 -7.50258,8.80746 -1.0637,3.29332 2.98373,11.04873 0.3604,13.30608 z"
       inkscape:transform-center-x="0.0081567103"
       inkscape:transform-center-y="-1.4260608"
       transform="matrix(0.7595798,0,0,0.7595798,151.43139,-97.727693)" />
    <path
       sodipodi:type="star"
       style="opacity:1;fill:#00f1ba;fill-opacity:1;stroke:#fefefe;stroke-width:1.313;stroke-linejoin:round;stroke-dasharray:none;stroke-opacity:1"
       id="path4348"
       inkscape:flatsided="false"
       sodipodi:sides="5"
       sodipodi:cx="139.04582"
       sodipodi:cy="156.18732"
       sodipodi:r1="19.767693"
       sodipodi:r2="11.597408"
       sodipodi:arg1="0.94072012"
       sodipodi:arg2="1.4885787"
       inkscape:rounded="0.26"
       inkscape:randomized="0"
       d="m 150.69307,172.15927 c -2.28018,1.96207 -7.68667,-4.41898 -10.69481,-4.41372 -3.46085,0.006 -9.58595,6.25194 -12.54347,4.45456 -2.57065,-1.56226 1.82739,-8.676 0.89282,-11.53528 -1.07522,-3.28959 -8.90817,-7.18482 -8.11269,-10.55301 0.69143,-2.9276 8.81606,-0.94309 11.24661,-2.71548 2.79632,-2.03913 4.08039,-10.69241 7.52955,-10.97669 2.99798,-0.24709 3.62124,8.09315 6.05796,9.85703 2.80344,2.02934 11.43,0.57655 12.76621,3.76905 1.16142,2.77489 -6.57801,5.94492 -7.50258,8.80746 -1.0637,3.29332 2.98373,11.04873 0.3604,13.30608 z"
       inkscape:transform-center-x="0.0081567196"
       inkscape:transform-center-y="-1.4260615"
       transform="matrix(0.7595798,0,0,0.7595798,150.22556,-99.335474)" />
    <path
       id="path4350"
       style="opacity:0.706482;fill:#ffffff;fill-opacity:1;stroke:none;stroke-width:1.10656;stroke-linejoin:round;stroke-dasharray:none;stroke-opacity:1"
       d="m 255.92094,4.2822689 c -0.0347,-2.06e-4 -0.0696,9.87e-4 -0.10519,0.0039 -2.61991,0.215932 -3.59544,6.7887181 -5.71947,8.3375931 -1.84619,1.346277 -8.01769,-0.161034 -8.54289,2.062714 -0.60423,2.558404 5.34552,5.517025 6.16223,8.015725 0.10905,0.333631 0.12205,0.74394 0.0738,1.203088 a 11.442137,37.226909 67.639114 0 0 20.16081,-10.66995 c -2.40895,-0.597459 -6.04736,-0.386502 -7.53331,-1.462148 -1.82197,-1.318876 -2.30907,-7.4777951 -4.49597,-7.4909221 z" />
    <path
       id="path5992"
       style="opacity:1;mix-blend-mode:normal;fill:#000000;fill-opacity:0.418756;stroke-width:0.605258;filter:url(#filter5994)"
       d="m 363.85981,66.504125 c -5.39678,6.207172 -15.1412,-0.606614 -26.61911,2.920161 -5.56342,1.709456 -14.49092,10.597885 -19.50652,10.422382 -8.63251,-0.302064 -19.68206,-4.995093 -35.88092,-7.128141 -25.13799,-3.310139 -33.80559,1.769972 -50.4055,4.97303 -15.06092,2.9061 -36.95877,-2.305437 -36.72814,-10.717427 0.12436,-4.535975 3.64743,-12.296865 17.00286,-15.426263 15.37236,-3.601999 42.15494,-1.724988 66.96744,-2.246391 31.56204,-0.663238 66.03435,-1.055129 80.84311,3.874251 8.35448,2.780951 9.72354,7.121226 4.32678,13.328398 z"
       sodipodi:nodetypes="zssssssssz" />
    <path
       id="path4352"
       style="opacity:1;fill:#6b2103;fill-opacity:1;stroke-width:0.605258"
       d="m 364.36062,65.981796 c -5.39679,6.207172 -15.14118,-0.606614 -26.6191,2.920161 -5.56344,1.709456 -14.49093,10.597885 -19.50652,10.422385 -8.63252,-0.30207 -19.68206,-4.995096 -35.88094,-7.128144 -25.13797,-3.310139 -33.80557,1.769972 -50.40548,4.973029 -15.06092,2.906105 -36.95877,-2.305436 -36.72814,-10.717427 0.12436,-4.535975 3.64743,-12.296864 17.00286,-15.426262 15.37236,-3.601999 42.15494,-1.724988 66.96743,-2.246392 31.56205,-0.663237 66.03435,-1.055129 80.84312,3.874251 8.35447,2.780951 9.72355,7.121226 4.32677,13.328399 z"
       sodipodi:nodetypes="zssssssssz" />
    <path
       id="path4354"
       style="opacity:1;fill:#f87b47;fill-opacity:1;stroke-width:0.605258"
       d="m 363.90046,63.060738 c -5.39678,6.207172 -15.14119,-0.606613 -26.61909,2.920162 -5.56343,1.709455 -14.49094,10.597885 -19.50654,10.422382 -8.63251,-0.302066 -19.68205,-4.995094 -35.88091,-7.128141 -25.13798,-3.31014 -33.80559,1.76997 -50.40549,4.973029 -15.06093,2.906101 -36.95878,-2.305437 -36.72815,-10.717427 0.12437,-4.535976 3.64743,-12.296865 17.00287,-15.426262 15.37235,-3.601999 42.15493,-1.724989 66.96742,-2.246393 31.56204,-0.663237 66.03435,-1.055128 80.84311,3.874252 8.35449,2.780951 9.72356,7.121226 4.32678,13.328398 z"
       sodipodi:nodetypes="zssssssssz" />
    <path
       id="path4356"
       style="opacity:1;fill:url(#linearGradient4370);fill-opacity:1;stroke-width:0.605258"
       d="m 363.90046,64.508653 c -5.39678,6.207172 -15.14119,-0.606614 -26.61909,2.920161 -5.56343,1.709455 -14.49094,10.597885 -19.50654,10.422381 -8.63251,-0.302064 -19.68205,-4.995092 -35.88091,-7.128141 -25.13798,-3.310138 -33.80559,1.769972 -50.40549,4.973031 -15.06093,2.9061 -36.95878,-2.305437 -36.72815,-10.717428 0.12437,-4.535975 3.64743,-12.296864 17.00287,-15.426263 15.37235,-3.601999 42.15493,-1.724987 66.96742,-2.246391 31.56204,-0.663237 66.03435,-1.055129 80.84311,3.874251 8.35449,2.780951 9.72356,7.121226 4.32678,13.328399 z"
       sodipodi:nodetypes="zssssssssz" />
    <ellipse
       style="opacity:0.227621;mix-blend-mode:normal;fill:#161616;fill-opacity:0.331348;stroke:none;stroke-width:0.528581;stroke-dasharray:none;filter:url(#filter8690)"
       id="ellipse4358"
       cx="17.683926"
       cy="44.554928"
       rx="5.4597774"
       ry="2.5351877"
       transform="matrix(2.7870469,0.22007357,-0.24797322,2.594867,298.91621,-61.873929)" />
    <ellipse
       style="opacity:0.853254;fill:#ffffff;fill-opacity:0.324083;stroke:none;stroke-width:0.519408;stroke-dasharray:none"
       id="ellipse4360"
       cx="210.25009"
       cy="58.56134"
       rx="4.8061271"
       ry="4.0589538" />
    <ellipse
       style="opacity:0.853254;fill:#ffffff;fill-opacity:0.22104;stroke:none;stroke-width:0.313301;stroke-dasharray:none"
       id="ellipse4362"
       cx="211.00739"
       cy="66.388802"
       rx="2.8989995"
       ry="2.4483135" />
    <ellipse
       style="opacity:0.853254;fill:#ffffff;fill-opacity:0.22104;stroke:none;stroke-width:0.1001;stroke-dasharray:none"
       id="ellipse4364"
       cx="217.10649"
       cy="60.738167"
       rx="0.88977468"
       ry="0.81429958" />
    <text
       xml:space="preserve"
       style="font-style:normal;font-weight:normal;font-size:17.1449px;line-height:1.25;font-family:sans-serif;fill:#000000;fill-opacity:1;stroke:#000000;stroke-width:0.267888;stroke-opacity:1"
       x="258.71283"
       y="64.832695"
       id="text4368"
       transform="scale(1.0214414,0.97900869)"><tspan
         sodipodi:role="line"
         id="tspan4366"
         style="font-style:normal;font-variant:normal;font-weight:normal;font-stretch:normal;font-size:17.1449px;font-family:Nasalization;-inkscape-font-specification:Nasalization;fill:#ffffff;fill-opacity:1;stroke:#000000;stroke-width:0.267888;stroke-opacity:1"
         x="258.71283"
         y="64.832695">Title</tspan></text>
    <g
       id="g4445"
       transform="translate(14.170974,-18.247977)">
      <path
         id="path4372"
         style="opacity:1;fill:#cc9b1f;fill-opacity:1;stroke:#654d0f;stroke-width:2.013;stroke-dasharray:none;stroke-opacity:1"
         d="m 192.63778,109.50545 158.67342,4.22411 c 4.67868,0.12456 8.89756,3.78955 8.44827,8.44827 l -7.33909,76.09941 c -0.44929,4.65873 -3.77915,8.12437 -8.44827,8.44827 l -144.71523,10.03905 c -4.66912,0.3239 -8.10634,-3.78044 -8.44827,-8.44827 l -6.6191,-90.36257 c -0.34192,-4.66783 3.76959,-8.57282 8.44827,-8.44827 z"
         sodipodi:nodetypes="sssssssss" />
      <path
         id="path4374"
         style="opacity:1;fill:#f1cc5e;fill-opacity:1;stroke-width:0.513001"
         d="m 191.59279,114.35843 c -1.81971,0.42008 -3.08536,2.4429 -2.58641,4.25988 2.23361,30.07647 4.36587,60.16263 6.69431,90.23068 0.29598,1.64924 1.71481,3.37554 3.54511,3.08657 3.94338,-0.1401 7.91876,-0.5674 11.85902,-0.76885 44.39253,-3.08088 88.78573,-6.15214 133.17547,-9.27312 2.28666,-0.45271 3.6392,-2.90449 3.48033,-5.11321 2.42976,-25.11205 4.86694,-50.2234 7.25014,-75.33992 -0.27709,-2.0448 -2.55806,-3.12884 -4.44762,-2.94217 -52.8788,-1.44723 -105.75942,-2.82717 -158.64027,-4.1965 -0.11003,0.0189 -0.22005,0.0378 -0.33008,0.0566 z" />
      <path
         id="path4394"
         style="opacity:1;mix-blend-mode:normal;fill:#bb8d1d;fill-opacity:0.174971;stroke:none;stroke-width:0.264583px;stroke-linecap:butt;stroke-linejoin:miter;stroke-opacity:1"
         d="m 352.54193,147.21592 c -15.43009,0.38292 -36.76244,1.54132 -49.79076,4.93769 -17.60275,4.58888 -21.546,25.16269 -39.72833,24.59902 -16.23248,-0.50323 -48.11636,-6.4164 -69.44847,3.96565 0.69689,9.37805 1.40046,18.75521 2.12648,28.13058 0.29599,1.64924 1.71472,3.3756 3.54501,3.08663 3.94338,-0.1401 7.91845,-0.56749 11.85871,-0.76894 44.39248,-3.08088 88.78615,-6.15185 133.17585,-9.27282 2.28665,-0.45271 3.63927,-2.90467 3.4804,-5.11339 1.59852,-16.52093 3.19366,-33.04242 4.78111,-49.56442 z"
         sodipodi:nodetypes="cssccccccc" />
    </g>
    <path
       id="path5998"
       style="opacity:1;mix-blend-mode:normal;fill:#000000;fill-opacity:0.418756;stroke-width:0.605258;filter:url(#filter5994)"
       d="m 174.18256,31.184476 c -5.39678,6.207172 -15.1412,-0.606614 -26.61911,2.920161 -5.56342,1.709456 -14.49092,10.597885 -19.50652,10.422382 -8.63251,-0.302064 -19.68206,-4.995093 -35.880922,-7.128141 -25.13799,-3.310139 -33.80559,1.769972 -50.4055,4.97303 -15.06092,2.9061 -36.9587696,-2.305437 -36.7281396,-10.717427 0.12436,-4.535975 3.64743,-12.296865 17.0028596,-15.426263 15.37236,-3.601999 42.15494,-1.724988 66.96744,-2.246391 31.562042,-0.663238 66.034352,-1.055129 80.843112,3.874251 8.35448,2.780951 9.72354,7.121226 4.32678,13.328398 z"
       sodipodi:nodetypes="zssssssssz" />
    <path
       id="path6000"
       style="opacity:1;fill:#6b2103;fill-opacity:1;stroke-width:0.605258"
       d="m 173.39094,30.662147 c -5.39679,6.207172 -15.14118,-0.606614 -26.6191,2.920161 -5.56344,1.709456 -14.49093,10.597885 -19.50652,10.422385 -8.63252,-0.30207 -19.68206,-4.995096 -35.880937,-7.128144 -25.13797,-3.310139 -33.80557,1.769972 -50.40548,4.973029 -15.06092,2.906105 -36.9587697,-2.305436 -36.7281397,-10.717427 0.12436,-4.535975 3.64743,-12.296864 17.0028597,-15.426262 15.37236,-3.601999 42.15494,-1.724988 66.96743,-2.246392 31.562047,-0.663237 66.034347,-1.055129 80.843117,3.874251 8.35447,2.780951 9.72355,7.121226 4.32677,13.328399 z"
       sodipodi:nodetypes="zssssssssz" />
    <path
       id="path6002"
       style="opacity:1;fill:#f87b47;fill-opacity:1;stroke-width:0.605258"
       d="m 172.93078,27.741089 c -5.39678,6.207172 -15.14119,-0.606613 -26.61909,2.920162 -5.56343,1.709455 -14.49094,10.597885 -19.50654,10.422382 -8.63251,-0.302066 -19.68205,-4.995094 -35.880907,-7.128141 -25.13798,-3.31014 -33.80559,1.76997 -50.40549,4.973029 -15.06093,2.906101 -36.9587797,-2.305437 -36.7281497,-10.717427 0.12437,-4.535976 3.64743,-12.296865 17.0028697,-15.426262 15.37235,-3.601999 42.15493,-1.724989 66.96742,-2.246393 31.562037,-0.663237 66.034347,-1.055128 80.843107,3.874252 8.35449,2.780951 9.72356,7.121226 4.32678,13.328398 z"
       sodipodi:nodetypes="zssssssssz" />
    <path
       id="path6004"
       style="opacity:1;fill:url(#linearGradient6018);fill-opacity:1;stroke-width:0.605258"
       d="m 172.93078,29.189004 c -5.39678,6.207172 -15.14119,-0.606614 -26.61909,2.920161 -5.56343,1.709455 -14.49094,10.597885 -19.50654,10.422381 -8.63251,-0.302064 -19.68205,-4.995092 -35.880907,-7.128141 -25.13798,-3.310138 -33.80559,1.769972 -50.40549,4.973031 -15.06093,2.9061 -36.9587797,-2.305437 -36.7281497,-10.717428 0.12437,-4.535975 3.64743,-12.296864 17.0028697,-15.426263 15.37235,-3.601999 42.15493,-1.724987 66.96742,-2.246391 31.562037,-0.663237 66.034347,-1.055129 80.843107,3.874251 8.35449,2.780951 9.72356,7.121226 4.32678,13.328399 z"
       sodipodi:nodetypes="zssssssssz" />
    <ellipse
       style="opacity:0.227621;mix-blend-mode:normal;fill:#161616;fill-opacity:0.331348;stroke:none;stroke-width:0.528581;stroke-dasharray:none;filter:url(#filter8690)"
       id="ellipse6006"
       cx="17.683926"
       cy="44.554928"
       rx="5.4597774"
       ry="2.5351877"
       transform="matrix(2.7870469,0.22007357,-0.24797322,2.594867,107.94653,-97.193578)" />
    <ellipse
       style="opacity:0.853254;fill:#ffffff;fill-opacity:0.324083;stroke:none;stroke-width:0.519408;stroke-dasharray:none"
       id="ellipse6008"
       cx="19.280415"
       cy="23.241692"
       rx="4.8061271"
       ry="4.0589538" />
    <ellipse
       style="opacity:0.853254;fill:#ffffff;fill-opacity:0.22104;stroke:none;stroke-width:0.313301;stroke-dasharray:none"
       id="ellipse6010"
       cx="20.037708"
       cy="31.069153"
       rx="2.8989995"
       ry="2.4483135" />
    <ellipse
       style="opacity:0.853254;fill:#ffffff;fill-opacity:0.22104;stroke:none;stroke-width:0.1001;stroke-dasharray:none"
       id="ellipse6012"
       cx="26.136814"
       cy="25.418518"
       rx="0.88977468"
       ry="0.81429958" />
    <text
       xml:space="preserve"
       style="font-style:normal;font-weight:normal;font-size:17.1449px;line-height:1.25;font-family:sans-serif;fill:#000000;fill-opacity:1;stroke:#000000;stroke-width:0.267888;stroke-opacity:1"
       x="71.751854"
       y="28.755743"
       id="text6016"
       transform="scale(1.0214414,0.97900869)"><tspan
         sodipodi:role="line"
         id="tspan6014"
         style="font-style:normal;font-variant:normal;font-weight:normal;font-stretch:normal;font-size:17.1449px;font-family:Nasalization;-inkscape-font-specification:Nasalization;fill:#ffffff;fill-opacity:1;stroke:#000000;stroke-width:0.267888;stroke-opacity:1"
         x="71.751854"
         y="28.755743">Title</tspan></text>
  </g>
</svg>
