<?xml version="1.0" encoding="UTF-8" standalone="no"?>
<!-- Created with Inkscape (http://www.inkscape.org/) -->

<svg
   xmlns:dc="http://purl.org/dc/elements/1.1/"
   xmlns:cc="http://creativecommons.org/ns#"
   xmlns:rdf="http://www.w3.org/1999/02/22-rdf-syntax-ns#"
   xmlns:svg="http://www.w3.org/2000/svg"
   xmlns="http://www.w3.org/2000/svg"
   xmlns:sodipodi="http://sodipodi.sourceforge.net/DTD/sodipodi-0.dtd"
   xmlns:inkscape="http://www.inkscape.org/namespaces/inkscape"
   width="793.70081"
   height="400"
   viewBox="0 0 210 105.83334"
   version="1.1"
   id="svg5657"
   sodipodi:docname="wizard_face.svg"
   inkscape:version="0.92.4 (f8dce91, 2019-08-02)">
  <defs
     id="defs5651" />
  <sodipodi:namedview
     id="base"
     pagecolor="#ffffff"
     bordercolor="#666666"
     borderopacity="1.0"
     inkscape:pageopacity="0.0"
     inkscape:pageshadow="2"
     inkscape:zoom="1.979899"
     inkscape:cx="258.08586"
     inkscape:cy="226.6369"
     inkscape:document-units="mm"
     inkscape:current-layer="layer1"
     showgrid="false"
     units="px"
     inkscape:showpageshadow="false"
     inkscape:snap-global="false"
     showguides="true"
     inkscape:guide-bbox="true"
     inkscape:window-width="1920"
     inkscape:window-height="1025"
     inkscape:window-x="1920"
     inkscape:window-y="27"
     inkscape:window-maximized="1">
    <sodipodi:guide
       position="42.629489,78.309977"
       orientation="1,0"
       id="guide6333"
       inkscape:locked="false" />
    <sodipodi:guide
       position="52.117557,76.305455"
       orientation="1,0"
       id="guide6335"
       inkscape:locked="false" />
    <sodipodi:guide
       position="21.648831,76.973629"
       orientation="1,0"
       id="guide6337"
       inkscape:locked="false" />
    <sodipodi:guide
       position="18.174327,51.983926"
       orientation="0,1"
       id="guide6339"
       inkscape:locked="false" />
    <sodipodi:guide
       position="37.818637,46.638536"
       orientation="0,1"
       id="guide6341"
       inkscape:locked="false" />
    <sodipodi:guide
       position="48.776688,35.814119"
       orientation="0,1"
       id="guide6343"
       inkscape:locked="false" />
    <sodipodi:guide
       position="20.178849,45.034918"
       orientation="0,1"
       id="guide6345"
       inkscape:locked="false" />
    <sodipodi:guide
       position="44.767645,4.5435823"
       orientation="0,1"
       id="guide6347"
       inkscape:locked="false" />
  </sodipodi:namedview>
  <metadata
     id="metadata5654">
    <rdf:RDF>
      <cc:Work
         rdf:about="">
        <dc:format>image/svg+xml</dc:format>
        <dc:type
           rdf:resource="http://purl.org/dc/dcmitype/StillImage" />
        <dc:title></dc:title>
      </cc:Work>
    </rdf:RDF>
  </metadata>
  <g
     inkscape:label="Layer 1"
     inkscape:groupmode="layer"
     id="layer1"
     transform="translate(0,-191.16666)">
    <path
       style="display:inline;fill:#19203c;fill-opacity:1;stroke:none;stroke-width:0.05853369;stroke-linecap:butt;stroke-linejoin:miter;stroke-miterlimit:4;stroke-dasharray:none;stroke-opacity:1"
       d="m 9.9543859,247.81962 5.9565511,-16.50816 -7.3180531,-6.12674 19.0609741,-13.78516 2.552807,-10.04105 6.807495,-1.53169 8.679547,-2.89318 -3.744121,5.44599 -5.956558,3.91431 4.595056,4.59505 5.445992,8.84974 -4.254679,2.72299 8.168989,3.40375 9.870861,17.52929 z"
       id="path5477"
       inkscape:connector-curvature="0"
       sodipodi:nodetypes="ccccccccccccccc" />
    <path
       style="display:inline;fill:#83888b;fill-opacity:1;stroke:#000000;stroke-width:0.14858553;stroke-linecap:butt;stroke-linejoin:miter;stroke-miterlimit:4;stroke-dasharray:none;stroke-opacity:1"
       d="m 19.750948,250.39558 -3.178873,7.23901 4.424867,7.48824 3.06337,-10.89199 z"
       id="path5581"
       inkscape:connector-curvature="0"
       sodipodi:nodetypes="ccccc" />
    <path
       style="display:inline;fill:#d97871;fill-opacity:1;stroke:#000000;stroke-width:0.14858553;stroke-linecap:butt;stroke-linejoin:miter;stroke-miterlimit:4;stroke-dasharray:none;stroke-opacity:1"
       d="m 20.855252,255.08165 c 0,0 -3.911392,-3.17603 -5.2295,-5.27079 -1.240924,-1.9721 -2.343099,-6.5857 -2.343099,-6.5857 0,0 3.580703,0.93546 5.265481,1.68123 1.547809,0.68514 4.395669,2.54248 4.395669,2.54248 z"
       id="path5494"
       inkscape:connector-curvature="0"
       sodipodi:nodetypes="cacacc" />
    <path
       style="display:inline;opacity:1;fill:#cf7b70;fill-opacity:1;stroke:#000000;stroke-width:0.21972647;stroke-linecap:round;stroke-linejoin:round;stroke-miterlimit:4;stroke-dasharray:none;stroke-opacity:1"
       d="m 24.485036,245.68128 c 8.755771,-3.48998 17.947516,-3.05616 27.146996,-2.55281 -0.851909,1.8841 -2.286939,4.6429 -2.331199,5.31554 1.572278,1.61295 2.170051,2.2514 2.86716,2.98919 -2.105106,4.72196 -5.517584,7.26497 -8.279483,10.89228 -6.30393,-3.3367 -14.859717,-4.82102 -18.823267,-9.71298 0.437327,-2.05345 -0.185055,-4.66966 -0.580207,-6.93122 z"
       id="rect5314"
       inkscape:connector-curvature="0"
       sodipodi:nodetypes="ccccccc" />
    <path
       style="display:inline;fill:#ca6263;fill-opacity:1;stroke:none;stroke-width:0.23826213px;stroke-linecap:butt;stroke-linejoin:miter;stroke-opacity:1"
       d="m 41.308588,242.79462 c -5.708407,0.0567 -11.351181,0.70537 -16.823538,2.88661 0.09771,0.5592 0.209008,1.14055 0.315045,1.72925 0,0 2.069256,-1.28298 3.004337,-0.66778 0.935081,0.6152 0.08109,2.14236 0.861328,2.91206 0.780237,0.7697 1.914595,0.63097 2.712604,0.32998 0.79801,-0.30098 0.476145,-0.48447 1.36163,-0.85942 0.885485,-0.37495 2.375933,1.27087 3.573932,0.34017 1.197999,-0.93068 -0.699507,-4.88204 0.850673,-5.44605 1.550181,-0.56401 4.120621,0.0484 4.935563,0 0.814942,-0.0485 1.02099,4.25475 1.02099,4.25475 l 1.531953,1.1913 5.040732,-0.61473 c -0.152665,-0.1572 -0.21779,-0.22675 -0.393229,-0.40672 0.03305,-0.50254 0.842507,-2.16988 1.605011,-3.76658 l 0.134025,-1.57989 c -3.252087,-0.17627 -6.502121,-0.33505 -9.731056,-0.30295 z"
       id="path5569"
       inkscape:connector-curvature="0"
       sodipodi:nodetypes="scczzzzzzzccccccs" />
    <path
       style="display:inline;fill:#f8af8e;fill-opacity:1;stroke:none;stroke-width:0.23826213px;stroke-linecap:butt;stroke-linejoin:miter;stroke-opacity:1"
       d="m 50.021977,250.66911 c -1.613405,0.75685 -1.775021,1.31417 -4.680147,0.7443 l 0.08519,4.33997 3.447355,0.83067 c 1.236052,-1.48673 2.386626,-3.11617 3.29379,-5.15103 -0.285518,-0.30217 -0.579618,-0.61275 -0.905588,-0.95537 0,0 -0.752536,0.024 -1.240563,0.19146 z"
       id="path5433"
       inkscape:connector-curvature="0"
       sodipodi:nodetypes="ccccccc" />
    <path
       style="display:inline;opacity:1;fill:#acaba7;fill-opacity:1;stroke:#1d1d1d;stroke-width:0.23863734;stroke-linecap:butt;stroke-linejoin:miter;stroke-miterlimit:4;stroke-dasharray:none;stroke-opacity:1"
       d="m 60.267651,286.01332 c 1.950973,-2.86451 2.765843,-5.3525 2.935726,-8.63701 -1.338062,1.10602 -3.584657,3.06423 -4.509958,1.74442 -4.414188,-6.29618 -3.165592,-16.40814 -5.445993,-24.59206 -1.90356,-1.49838 -4.860205,-2.24145 -7.260906,-2.48017 0.308148,1.64517 -0.07726,3.42308 0.14954,5.34843 l 2.516309,0.49294 c 2.011966,2.94874 2.047032,6.32127 2.749175,9.76814 -0.748826,5.11622 -1.082522,9.55524 -1.45087,14.22097 3.783428,2.06581 6.95998,3.51931 10.316977,4.13434 z"
       id="path5357"
       inkscape:connector-curvature="0"
       sodipodi:nodetypes="ccsccccccc" />
    <path
       style="display:inline;opacity:1;fill:#a4a39f;fill-opacity:1;stroke:#1d1d1d;stroke-width:0.08014613;stroke-linecap:round;stroke-linejoin:round;stroke-miterlimit:4;stroke-dasharray:none;stroke-opacity:1"
       d="m 21.648677,246.96171 2.836359,-1.28043 c 1.443295,4.11198 0.648308,6.56452 0.580206,6.93122 0.981545,1.01156 2.443118,1.85384 3.20009,2.64083 -1.461907,4.53575 -1.472104,5.51905 -4.297602,13.87286 -4.219947,-4.56948 -5.594984,-7.11573 -5.830257,-8.86906 2.817449,-4.81276 3.622175,-9.14394 3.511204,-13.29542 z"
       id="rect5347"
       inkscape:connector-curvature="0"
       sodipodi:nodetypes="ccccccc" />
    <path
       style="display:inline;fill:#86898e;fill-opacity:1;stroke:none;stroke-width:0.14858553;stroke-linecap:butt;stroke-linejoin:miter;stroke-miterlimit:4;stroke-dasharray:none;stroke-opacity:1"
       d="m 22.555219,246.55237 -0.906514,0.40951 c 0.110974,4.15147 -0.693659,8.48246 -3.511109,13.29523 0.235274,1.75332 1.610031,4.29974 5.829977,8.86921 1.05284,-3.1128 1.883696,-7.07136 2.375509,-8.70255 -0.504654,0.47234 -1.216926,0.73707 -1.944446,0.98655 l 0.562659,-2.45557 c -0.383212,0.75269 -0.616165,1.60553 -1.922105,1.74304 1.006202,-1.47487 1.313352,-2.94973 1.361629,-4.4246 -0.995192,1.91252 -1.703181,2.38903 -2.382621,2.7228 1.596702,-5.2524 1.253959,-7.24449 0.537021,-12.44362 z"
       id="path5528"
       inkscape:connector-curvature="0"
       sodipodi:nodetypes="ccccccccccc" />
    <path
       style="display:inline;opacity:1;fill:#acaba7;fill-opacity:1;stroke:#1d1d1d;stroke-width:0.08014613;stroke-linecap:round;stroke-linejoin:round;stroke-miterlimit:4;stroke-dasharray:none;stroke-opacity:1"
       d="m 27.395206,255.5122 c 2.477788,-1.47202 5.627016,-2.70857 10.357382,-3.50481 2.284207,1.49434 4.828514,2.29789 5.82356,4.86653 -3.005219,0.79319 -3.778296,1.91731 -5.324756,2.71051 l -3.830163,21.12018 c -4.263553,4.17341 -8.585611,8.76885 -15.466843,11.63342 -2.286873,-3.9732 -4.564716,-7.95393 -5.521827,-13.03527 1.444332,1.11946 2.828645,2.539 4.487109,2.58778 6.087283,-8.40227 6.425939,-17.57103 9.475538,-26.37834 z"
       id="rect5349"
       inkscape:connector-curvature="0"
       sodipodi:nodetypes="ccccccccc" />
    <path
       style="display:inline;opacity:1;fill:#9a9fa3;fill-opacity:1;stroke:#000000;stroke-width:0.09005184;stroke-linecap:round;stroke-linejoin:round;stroke-miterlimit:4;stroke-dasharray:none;stroke-opacity:1"
       d="m 37.921533,259.57212 c 1.528584,-1.1725 3.667792,-2.41188 5.422731,-2.9053 1.264364,-0.0883 1.843622,0.0439 3.097243,0.17763 0.674785,0.20149 1.891097,0.65376 2.565883,1.36488 0.824649,1.48492 1.350417,2.87019 1.839678,4.24331 0.624653,2.01645 0.903292,3.51386 1.325869,5.22721 -0.433023,1.47542 -0.866047,3.53218 -1.299079,6.14217 -0.70787,6.31787 -0.579754,10.6416 -0.44283,15.61779 -6.275838,-0.49186 -11.765569,-3.14549 -16.226822,-8.62746 z"
       id="rect5351"
       inkscape:connector-curvature="0"
       sodipodi:nodetypes="cccccccccc" />
    <path
       style="display:inline;fill:#c1c5c4;fill-opacity:1;stroke:none;stroke-width:0.23826213px;stroke-linecap:butt;stroke-linejoin:miter;stroke-opacity:1"
       d="m 45.986349,252.04868 c 0.235224,1.25586 0.06808,2.58963 0.07582,4.00672 -0.0788,-0.70913 2.925135,-3.24336 5.283638,2.52947 2.358502,5.77286 2.355819,15.14844 2.166242,18.6526 -0.189586,3.50417 2.486619,6.0485 4.933696,6.01705 2.447087,-0.0314 4.237993,-5.44838 4.237993,-5.44838 -1.341007,1.10076 -3.176416,2.47568 -3.990422,1.31463 -4.414188,-6.29618 -3.165655,-16.40828 -5.446056,-24.5922 -1.90356,-1.49837 -4.860241,-2.24115 -7.260942,-2.47989 z"
       id="path5410"
       inkscape:connector-curvature="0"
       sodipodi:nodetypes="cczzzcscc" />
    <path
       style="display:inline;fill:#c3c5c4;fill-opacity:1;stroke:none;stroke-width:0.23826213px;stroke-linecap:butt;stroke-linejoin:miter;stroke-opacity:1"
       d="m 46.014265,258.74097 -1.106143,0.5105 c -0.752086,1.95016 0.338577,4.24181 -1.276475,5.00816 -1.5146,0.7187 -2.112544,-0.9713 -2.467313,-2.37052 -3.604283,5.00375 -2.775064,11.27465 -3.489242,17.10415 1.021336,-1.55968 1.442941,-4.19984 3.489242,-3.91458 -0.779389,3.14529 1.22231,5.69496 3.573933,8.16933 -0.925112,-3.1905 -1.213242,-10.13095 1.240824,-12.87089 0.575845,3.727 2.456794,8.93518 4.375087,9.9773 0.01117,-0.0614 0.02359,-0.12244 0.03494,-0.18381 0.07465,-1.93178 0.222014,-4.0021 0.484902,-6.34838 0.433033,-2.60999 0.865777,-4.66681 1.298809,-6.14223 -0.422586,-1.71335 -0.701144,-3.21089 -1.325797,-5.22735 -0.0616,-0.17281 -0.127081,-0.3469 -0.190334,-0.52026 -0.535862,0.43868 -1.198176,0.87786 -2.25977,1.31835 0.01234,-1.69588 -1.039423,-3.03968 -2.382618,-4.50977 z"
       id="path5397"
       inkscape:connector-curvature="0"
       sodipodi:nodetypes="ccsccccccccccccc" />
    <path
       style="display:inline;opacity:1;fill:#cf7b70;fill-opacity:1;stroke:#000000;stroke-width:0.18010367;stroke-miterlimit:4;stroke-dasharray:none;stroke-opacity:1"
       d="m 38.349062,250.04047 c -0.741914,0.1807 -0.769859,1.07537 -0.722045,2.04579 4.499782,2.03729 6.452115,5.13628 8.183164,9.02556 1.538193,-4.47445 0.943599,-11.28993 -3.189033,-13.17731 0.148784,-0.28298 0.08852,-0.84464 0,-1.44409"
       id="path5359"
       inkscape:connector-curvature="0"
       sodipodi:nodetypes="ccccc" />
    <path
       style="display:inline;fill:#88898e;fill-opacity:1;stroke:none;stroke-width:0.23826213px;stroke-linecap:butt;stroke-linejoin:miter;stroke-opacity:1"
       d="m 35.811343,271.6304 -1.607338,9.18193 c 1.255422,1.54266 2.592404,2.86132 4.005315,3.97089 -1.387005,-4.28184 -1.846114,-8.71428 -2.397977,-13.15282 z m 9.998919,-0.53021 c -0.329014,5.17457 2.944028,13.51545 4.613247,18.06482 -0.03143,-1.14188 -0.06133,-2.25479 -0.08006,-3.36499 -2.540515,-3.28883 -4.644847,-10.74796 -4.533209,-14.69983 z m -5.656219,5.17446 c -1.193205,3.21376 -0.437346,6.8458 0.133556,9.95629 1.009697,0.62108 2.053083,1.14853 3.129049,1.58733 -1.623581,-3.46809 -3.312422,-6.66171 -3.262605,-11.54362 z"
       id="path5405"
       inkscape:connector-curvature="0"
       sodipodi:nodetypes="cccccccccccc" />
    <path
       style="display:inline;fill:#f9ae8e;fill-opacity:1;stroke:none;stroke-width:0.23826213px;stroke-linecap:butt;stroke-linejoin:miter;stroke-opacity:1"
       d="m 41.996855,247.00935 c -0.890946,0.14652 -1.808097,1.14443 -2.083404,1.73112 -0.275297,0.58669 0.107027,0.72644 0,1.17968 -0.107017,0.45324 -0.933639,0.68055 -0.722224,1.444 0.211405,0.76346 1.75357,0.87132 2.647866,1.68505 0.894305,0.81373 1.896302,2.20997 2.52689,3.24911 0.715192,1.23362 1.20357,2.5783 1.718558,3.90342 1.16981,-4.4386 0.398075,-10.5038 -3.463186,-12.26725 0.07907,-0.15043 0.09705,-0.38256 0.08519,-0.65429 l -0.02512,-0.007 c 0,0 -0.44329,-0.30307 -0.684529,-0.26339 z"
       id="path5417"
       inkscape:connector-curvature="0"
       sodipodi:nodetypes="czzzzcccccac" />
    <path
       style="display:inline;fill:#fac498;fill-opacity:1;stroke:none;stroke-width:0.23826213px;stroke-linecap:butt;stroke-linejoin:miter;stroke-opacity:1"
       d="m 43.326371,248.3263 c -0.285717,-0.13382 -0.65347,-0.14937 -0.765513,-0.076 -0.112033,0.0734 -0.659044,0.28964 -0.06006,0.64698 0.599015,0.35732 1.85812,1.50795 1.985679,2.58737 0.03062,0.25882 0.46817,0.36077 0.721765,0.30062 0.222185,-0.0527 0.332895,-0.3151 0.446738,-0.51933 -0.528703,-1.2237 -1.293829,-2.25634 -2.328641,-2.93966 z"
       id="path5424"
       inkscape:connector-curvature="0"
       sodipodi:nodetypes="czzsacc" />
    <path
       style="display:inline;fill:#f8af8e;fill-opacity:1;stroke:none;stroke-width:0.23826213px;stroke-linecap:butt;stroke-linejoin:miter;stroke-opacity:1"
       d="m 26.698214,250.2825 c -0.348065,0.83977 -0.549004,2.02377 -7.62e-4,2.63875 0.252988,0.28378 0.962831,0.37466 1.702643,0.29698 1.015144,-0.13112 2.633802,-0.56394 2.762518,-1.05335 0.128716,-0.48941 0.08184,-0.57405 -0.08206,-0.81871 -0.265189,-0.38133 -1.993054,-0.61764 -3.099474,-0.73935 -0.738247,-0.0812 -0.927576,-0.7573 -1.282853,-0.32432 z"
       id="path5431"
       inkscape:connector-curvature="0"
       sodipodi:nodetypes="csczcscc" />
    <path
       style="display:inline;fill:#86898e;fill-opacity:0.96022728;stroke:none;stroke-width:0.23826213px;stroke-linecap:butt;stroke-linejoin:miter;stroke-opacity:1"
       d="m 13.609222,280.15572 c 1.040157,4.67871 3.187895,8.43422 5.345075,12.18208 6.278948,-2.61384 10.425055,-6.66585 14.342263,-10.52635 l -13.359432,8.06183 z"
       id="path5504"
       inkscape:connector-curvature="0" />
    <path
       style="display:inline;fill:#c3c5c4;fill-opacity:1;stroke:none;stroke-width:0.23826213px;stroke-linecap:butt;stroke-linejoin:miter;stroke-opacity:1"
       d="m 28.360795,263.1576 c 0,0 -0.396976,-4.04887 0.722041,-5.53567 1.20996,-1.60763 5.535667,-2.40682 5.535667,-2.40682 -1.034339,0.91804 -2.626035,1.61313 -2.16613,3.12886 1.86869,-2.12301 3.229455,-1.70642 4.813622,-2.40681 -1.006605,0.78033 -2.286387,1.42407 -1.444087,3.12886 l 2.406809,-1.68477 c 0,0 -1.265431,2.18587 -1.684766,3.36954 -2.112527,5.96311 -4.091578,18.53245 -4.091578,18.53245 -0.492273,-4.76309 1.380952,-16.63529 0.240681,-17.20871 -1.14027,-0.57341 -1.946641,1.95709 -1.925449,4.45261 -0.3328,-1.42329 -1.377976,-2.56162 -0.24068,-4.57294 -0.920991,-1.19044 -1.56145,-0.13665 -2.16613,1.2034 z"
       id="path5509"
       inkscape:connector-curvature="0"
       sodipodi:nodetypes="cacccccaczccc" />
    <path
       style="display:inline;fill:#edefee;fill-opacity:1;stroke:none;stroke-width:0.18183361px;stroke-linecap:butt;stroke-linejoin:miter;stroke-opacity:1"
       d="m 29.823057,258.98612 c 0.01806,-0.41638 -0.05861,-0.91046 0.259763,-1.2988 0.318366,-0.38834 1.107629,-1.15677 1.558573,-0.64941 0.450943,0.50736 -0.891824,1.55609 -1.16893,2.0781 -0.277106,0.52202 -0.135941,1.10747 -0.519524,1.03906 -0.383583,-0.0684 -0.147952,-0.75255 -0.129882,-1.16895 z"
       id="path5511"
       inkscape:connector-curvature="0"
       sodipodi:nodetypes="zzzzzz" />
    <path
       sodipodi:nodetypes="zzczzz"
       inkscape:connector-curvature="0"
       id="path5522"
       d="m 33.156712,259.58808 c 0.02116,-0.53484 -0.06858,-1.16947 0.30401,-1.66829 0.3726,-0.49882 1.824062,-0.83414 1.824062,-0.83414 0,0 -1.043736,1.99875 -1.368044,2.66926 -0.324309,0.6705 -0.159098,1.4225 -0.608021,1.33463 -0.448922,-0.0878 -0.173153,-0.96662 -0.152007,-1.50146 z"
       style="display:inline;fill:#edefee;fill-opacity:1;stroke:none;stroke-width:0.22294208px;stroke-linecap:butt;stroke-linejoin:miter;stroke-opacity:1" />
    <path
       style="display:inline;fill:#828a8d;fill-opacity:1;stroke:none;stroke-width:0.23826213px;stroke-linecap:butt;stroke-linejoin:miter;stroke-opacity:1"
       d="m 26.435347,270.8594 -4.813625,12.27474 -4.332258,0.48136 5.294983,0.48135 z"
       id="path5524"
       inkscape:connector-curvature="0" />
    <path
       style="display:inline;fill:#828a8d;fill-opacity:1;stroke:none;stroke-width:0.23826213px;stroke-linecap:butt;stroke-linejoin:miter;stroke-opacity:1"
       d="m 32.933736,263.03725 -0.601702,1.20342 -2.406812,14.92223 -2.527151,2.28647 1.925449,-2.64749 2.406811,-15.04258 z"
       id="path5526"
       inkscape:connector-curvature="0"
       sodipodi:nodetypes="ccccccc" />
    <path
       sodipodi:nodetypes="ccczczzc"
       inkscape:connector-curvature="0"
       id="path5535"
       d="m 15.546113,246.01201 c 0,0 1.700802,0.11605 2.382621,0.51056 0.68182,0.3945 1.531685,1.70187 1.531685,1.70187 0,0 -1.401613,0.3684 -1.361499,1.05032 0.04011,0.68193 1.652029,1.12082 1.652029,1.12082 0,0 -1.918079,-0.24766 -2.48697,-0.83043 -0.56889,-0.58276 0.100393,-1.3291 -0.120341,-2.04578 -0.220733,-0.71669 -1.597525,-1.50736 -1.597525,-1.50736 z"
       style="display:inline;fill:#cc575f;fill-opacity:1;stroke:none;stroke-width:0.41874102;stroke-linecap:butt;stroke-linejoin:miter;stroke-miterlimit:4;stroke-dasharray:none;stroke-opacity:1" />
    <path
       style="display:inline;fill:none;stroke:#000000;stroke-width:0.41874102;stroke-linecap:butt;stroke-linejoin:miter;stroke-miterlimit:4;stroke-dasharray:none;stroke-opacity:1"
       d="m 15.550951,245.89167 c 0,0 1.700802,0.11606 2.382621,0.51056 0.681819,0.39451 1.531684,1.70187 1.531684,1.70187 0,0 -1.401612,0.36839 -1.361499,1.05033 0.04011,0.68192 1.652029,1.12081 1.652029,1.12081"
       id="path5533"
       inkscape:connector-curvature="0"
       sodipodi:nodetypes="ccczc" />
    <path
       style="display:inline;fill:#fab08b;fill-opacity:1;stroke:none;stroke-width:0.23826213px;stroke-linecap:butt;stroke-linejoin:miter;stroke-opacity:1"
       d="m 13.282541,243.22507 c 0,0 0.04785,0.18494 0.06142,0.24013 2.97493,0.71329 7.906702,4.26164 8.208535,6.18068 0.06638,-0.4746 0.254494,-1.87145 0.337284,-2.79861 -0.464661,-0.25807 -2.969703,-1.77618 -3.341745,-1.94087 -1.684778,-0.74576 -5.2655,-1.68133 -5.2655,-1.68133 z"
       id="path5537"
       inkscape:connector-curvature="0"
       sodipodi:nodetypes="ccccccc" />
    <rect
       style="display:inline;opacity:1;fill:#d77c89;fill-opacity:1;stroke:#000000;stroke-width:0.10134882;stroke-miterlimit:4;stroke-dasharray:none;stroke-opacity:1"
       id="rect5542"
       width="2.804801"
       height="4.1412926"
       x="46.108513"
       y="244.10124"
       ry="2.0706463"
       rx="1.4024005" />
    <path
       style="display:inline;opacity:1;fill:#ffffff;fill-opacity:1;stroke:#000000;stroke-width:0.1838509;stroke-miterlimit:4;stroke-dasharray:none;stroke-opacity:1"
       d="m 47.630497,244.62347 c -0.47731,0 -0.913323,0.12348 -1.252495,0.32875 -0.168829,0.34193 -0.269534,0.76224 -0.269534,1.21962 0,0.32023 0.05025,0.62174 0.137383,0.89189 0.354012,0.25732 0.842858,0.41618 1.384646,0.41618 0.399632,0 0.770232,-0.0868 1.079461,-0.23537 0.128233,-0.31277 0.203463,-0.6789 0.203463,-1.0727 0,-0.53182 -0.135564,-1.0141 -0.357209,-1.38005 -0.275405,-0.10733 -0.590398,-0.16832 -0.925715,-0.16832 z"
       id="rect5546"
       inkscape:connector-curvature="0" />
    <rect
       style="display:inline;opacity:1;fill:#561921;fill-opacity:1;stroke:#000000;stroke-width:0;stroke-miterlimit:4;stroke-dasharray:none;stroke-opacity:1"
       id="rect5553"
       width="2.495806"
       height="2.9032538"
       x="46.155121"
       y="244.6252"
       rx="2.2618148"
       ry="2.9032538" />
    <path
       style="display:inline;opacity:1;fill:#000000;fill-opacity:1;stroke:#000000;stroke-width:0;stroke-miterlimit:4;stroke-dasharray:none;stroke-opacity:1"
       id="path5555"
       sodipodi:type="arc"
       sodipodi:cx="47.339821"
       sodipodi:cy="246.00331"
       sodipodi:rx="0.37919906"
       sodipodi:ry="0.44110441"
       sodipodi:start="0"
       sodipodi:end="6.282173"
       d="m 47.71902,246.00331 a 0.37919906,0.44110441 0 0 1 -0.379103,0.44111 0.37919906,0.44110441 0 0 1 -0.379295,-0.44089 0.37919906,0.44110441 0 0 1 0.378911,-0.44132 0.37919906,0.44110441 0 0 1 0.379487,0.44065 l -0.379199,4.5e-4 z" />
    <rect
       style="display:inline;opacity:1;fill:#ffffff;fill-opacity:1;stroke:#000000;stroke-width:0;stroke-miterlimit:4;stroke-dasharray:none;stroke-opacity:1"
       id="rect5557"
       width="0.66541284"
       height="0.2898787"
       x="201.27803"
       y="122.77865"
       rx="0.8528102"
       ry="0.2898787"
       transform="matrix(0.64119069,0.76738159,-0.6625066,0.74905607,0,0)" />
    <rect
       rx="1.4024005"
       ry="2.0706463"
       y="245.8031"
       x="28.919609"
       height="4.1412926"
       width="2.804801"
       id="rect5559"
       style="display:inline;opacity:1;fill:#d77c89;fill-opacity:1;stroke:#000000;stroke-width:0.10134882;stroke-miterlimit:4;stroke-dasharray:none;stroke-opacity:1" />
    <path
       inkscape:connector-curvature="0"
       id="path5561"
       d="m 30.441585,246.32534 c -0.477311,0 -0.913322,0.12348 -1.252497,0.32875 -0.16883,0.34193 -0.269537,0.76224 -0.269537,1.21962 0,0.32023 0.05021,0.62174 0.137385,0.89189 0.354013,0.25732 0.842859,0.41619 1.384649,0.41619 0.399633,0 0.770234,-0.0868 1.079458,-0.23538 0.128234,-0.31277 0.203461,-0.6789 0.203461,-1.0727 0,-0.53182 -0.135558,-1.0141 -0.357202,-1.38005 -0.275409,-0.10733 -0.590402,-0.16832 -0.925717,-0.16832 z"
       style="display:inline;opacity:1;fill:#ffffff;fill-opacity:1;stroke:#000000;stroke-width:0.1838509;stroke-miterlimit:4;stroke-dasharray:none;stroke-opacity:1" />
    <rect
       ry="2.9032538"
       rx="2.2618148"
       y="246.32707"
       x="28.966209"
       height="2.9032538"
       width="2.495806"
       id="rect5563"
       style="display:inline;opacity:1;fill:#561921;fill-opacity:1;stroke:#000000;stroke-width:0;stroke-miterlimit:4;stroke-dasharray:none;stroke-opacity:1" />
    <path
       d="m 30.530116,247.70517 a 0.37919906,0.44110441 0 0 1 -0.379103,0.4411 0.37919906,0.44110441 0 0 1 -0.379295,-0.44088 0.37919906,0.44110441 0 0 1 0.378911,-0.44132 0.37919906,0.44110441 0 0 1 0.379487,0.44065 l -0.379199,4.5e-4 z"
       sodipodi:end="6.282173"
       sodipodi:start="0"
       sodipodi:ry="0.44110441"
       sodipodi:rx="0.37919906"
       sodipodi:cy="247.70517"
       sodipodi:cx="30.150917"
       sodipodi:type="arc"
       id="path5565"
       style="display:inline;opacity:1;fill:#000000;fill-opacity:1;stroke:#000000;stroke-width:0;stroke-miterlimit:4;stroke-dasharray:none;stroke-opacity:1" />
    <rect
       transform="matrix(0.64119069,0.76738159,-0.6625066,0.74905607,0,0)"
       ry="0.2898787"
       rx="0.8528102"
       y="137.2238"
       x="189.39561"
       height="0.2898787"
       width="0.66541284"
       id="rect5567"
       style="display:inline;opacity:1;fill:#ffffff;fill-opacity:1;stroke:#000000;stroke-width:0;stroke-miterlimit:4;stroke-dasharray:none;stroke-opacity:1" />
    <path
       style="display:inline;fill:#c3c5c4;fill-opacity:1;stroke:none;stroke-width:0.23826213px;stroke-linecap:butt;stroke-linejoin:miter;stroke-opacity:1"
       d="m 25.549452,246.70006 c -0.198553,-0.59115 -0.397104,-1.25272 -0.595656,-1.95715 l 1.957153,-2.38263 1.786966,-1.78696 c 4.739019,1.14155 8.513118,2.22862 9.317753,4.85033 0.804635,2.62172 -0.532463,2.87793 -3.020823,3.06337 -2.488362,0.18544 -5.742411,-2.67814 -7.573333,-2.89318 -0.936031,-0.0851 -1.87206,1.10622 -1.87206,1.10622 z"
       id="path5395"
       inkscape:connector-curvature="0"
       sodipodi:nodetypes="cccczzcc" />
    <path
       style="display:inline;fill:#c3c5c4;fill-opacity:1;stroke:none;stroke-width:0.23826213px;stroke-linecap:butt;stroke-linejoin:miter;stroke-opacity:1"
       d="m 42.227946,243.21748 c 0.774806,-2.21344 7.299601,-3.69087 10.211229,-1.36149 l -0.726313,1.55232 -0.935143,2.13589 c -0.659495,-1.44303 -1.149395,-1.56356 -1.912476,-1.40101 -2.012604,0.28587 -3.833633,4.33426 -5.105615,3.58426 -1.271982,-0.75002 -2.306488,-2.29654 -1.531682,-4.50997 z"
       id="path5393"
       inkscape:connector-curvature="0"
       sodipodi:nodetypes="zcccczz" />
    <path
       style="display:inline;fill:#28384f;fill-opacity:1;stroke:none;stroke-width:0.23826213px;stroke-linecap:butt;stroke-linejoin:miter;stroke-opacity:1"
       d="m 28.995743,206.23814 -1.36163,5.44606 c -4.375959,4.03704 -8.822792,7.64884 -12.763779,14.29573 4.708402,-1.94822 9.416806,-5.22923 14.125209,-4.25468 -4.1121,6.71566 -5.8055,15.24534 -6.296528,24.67681 l 1.739965,0.13217 35.380069,-3.1393 -9.870663,-17.52948 -10.211103,-4.08436 c 1.885271,-0.32398 4.443392,-1.93424 4.59512,-4.42514 l -3.744184,-6.46704 -0.51561,-0.51562 z"
       id="path5576"
       inkscape:connector-curvature="0"
       sodipodi:nodetypes="ccccccccccccc" />
    <path
       style="display:inline;fill:#31455d;fill-opacity:1;stroke:none;stroke-width:0.23826213px;stroke-linecap:butt;stroke-linejoin:miter;stroke-opacity:1"
       d="m 45.693707,196.93364 -2.869726,4.17414 c 0,0 -8.88981,2.51814 -9.168203,5.00839 -0.278392,2.49026 3.822157,2.43134 4.091578,4.09159 0.269423,1.66024 -2.418353,1.92695 -1.925448,3.85089 0.492906,1.92393 6.22506,2.11728 6.257713,4.33226 0.03269,2.21497 -4.381833,1.69403 -4.572945,3.36953 -0.191113,1.67551 1.578938,2.17119 2.888175,3.36954 1.309236,1.19836 4.042219,2.18745 5.054303,3.61022 1.012083,1.42276 1.375992,2.86987 1.203407,4.09158 -0.172593,1.22169 -2.411119,0.91757 -1.68477,2.64748 0.726349,1.72992 6.509721,0.32407 7.942481,1.68477 1.432752,1.36071 2.952683,1.39584 0.962717,3.61022 -1.989956,2.21439 -9.281498,-1.92672 -13.959502,-2.16614 -4.678,-0.2394 -12.192442,3.29322 -13.959504,0.72205 -1.767062,-2.57116 0.564252,-2.95162 1.925448,-4.33226 1.361197,-1.38064 4.96325,-1.56756 6.25771,-2.88817 1.294462,-1.32061 1.877173,-2.39242 1.684767,-3.85089 -0.192407,-1.45847 -2.004516,-2.52801 -2.888173,-3.61023 -0.883656,-1.0822 -2.695675,-1.68477 -2.40681,-2.88817 0.288864,-1.2034 2.8416,-0.77155 3.369534,-1.44408 0.527936,-0.67253 0.02032,-0.86197 0.240682,-1.44409 0.220357,-0.58212 1.484767,-0.73359 1.203405,-1.92545 -0.281361,-1.19186 -3.613339,-1.61847 -4.332261,-2.64749 -0.718922,-1.02901 -0.699519,-1.51018 -0.48136,-2.40681 0.218158,-0.89662 2.005848,-1.14289 1.925448,-2.40681 -0.0804,-1.26392 -3.245651,-3.14095 -3.245651,-3.14095 -0.504428,-0.67571 0.740812,-3.94204 0.999943,-4.98625 z"
       id="path5574"
       inkscape:connector-curvature="0"
       sodipodi:nodetypes="cczzzzzzzzzzzzzzzzzzzzzzzzccc" />
  </g>
  <g
     inkscape:groupmode="layer"
     id="layer5"
     inkscape:label="Layer 2">
    <path
       style="fill:#ca7a6a;fill-opacity:1;stroke:#000000;stroke-width:0.26458332px;stroke-linecap:butt;stroke-linejoin:miter;stroke-opacity:1"
       d="m 103.16603,48.50402 0.26728,10.958051 12.6953,8.686257 6.81537,-1.202711 5.74629,-10.824416 -1.73724,-2.939964 1.33634,-4.810852 z"
       id="path6317"
       inkscape:connector-curvature="0"
       sodipodi:nodetypes="cccccccc" />
    <path
       style="fill:#a4a39f;fill-opacity:1;stroke:#000000;stroke-width:0.26458332px;stroke-linecap:butt;stroke-linejoin:miter;stroke-opacity:1"
       d="m 103.1875,48.664434 c 1.13461,6.582109 -0.92466,10.22588 -2.98861,13.964972 1.20177,2.415652 5.04584,5.827567 6.95736,6.823718 l 3.2128,-8.504465 -4.06325,-3.685267 c 1.1842,-2.992311 0.43677,-5.984623 -0.0945,-8.976934 z"
       id="path6321"
       inkscape:connector-curvature="0"
       sodipodi:nodetypes="ccccccc" />
    <path
       style="fill:#acaba7;fill-opacity:1;stroke:#000000;stroke-width:0.38923523px;stroke-linecap:butt;stroke-linejoin:miter;stroke-opacity:1"
       d="m 119.64164,57.404781 c -3.34866,0.858585 -6.80005,2.103495 -10.53206,4.403579 -3.13622,9.63283 -3.24615,20.891271 -9.408649,28.898488 -2.262156,0.851488 -3.504581,-0.69349 -5.055392,-1.51373 2.050587,3.133622 4.112547,6.262492 9.549071,7.981487 5.05242,-2.609661 6.91111,-7.02066 10.25121,-10.59611 l 1.40427,-18.715213 8.38888,-6.672768 z"
       id="path6323"
       inkscape:connector-curvature="0"
       sodipodi:nodetypes="ccccccccc" />
    <path
       style="fill:#c1c5c4;fill-opacity:1;stroke:#000000;stroke-width:0.37128308px;stroke-linecap:butt;stroke-linejoin:miter;stroke-opacity:1"
       d="m 123.18367,56.977274 c 4.50226,1.173307 4.86183,-0.711172 9.36409,2.05708 2.8647,9.118336 3.45911,21.983605 7.3895,26.238752 1.23422,1.3362 5.06503,-2.030806 5.06503,-2.030806 -1.12398,3.909405 -3.16784,6.668958 -5.7144,8.80014 -3.72566,-1.089123 -7.11707,-2.345375 -10.13007,-3.790827 z"
       id="path6327"
       inkscape:connector-curvature="0"
       sodipodi:nodetypes="ccscccc" />
    <path
       style="fill:#acaba7;fill-opacity:1;stroke:#000000;stroke-width:0.37128308px;stroke-linecap:butt;stroke-linejoin:miter;stroke-opacity:1"
       d="m 124.24752,59.922597 c -3.09887,-0.387882 -6.45457,2.549749 -9.14,5.677482 l -1.38028,20.991883 c 4.17327,7.508844 10.93419,8.009587 17.505,9.520052 -0.92278,-7.429226 0.0188,-16.802861 1.59659,-26.15744 -1.46869,-3.476432 -1.37992,-6.212704 -2.43395,-8.022623 z"
       id="path6329"
       inkscape:connector-curvature="0"
       sodipodi:nodetypes="ccccccc" />
    <path
       style="fill:#2d2e5b;stroke:#000000;stroke-width:0.26458332px;stroke-linecap:butt;stroke-linejoin:miter;stroke-opacity:1;fill-opacity:1"
       d="m 95.415221,48.637655 39.021349,-0.53454 -5.47903,-16.83798 -5.21175,-3.474503 3.87541,-3.34087 -5.7463,-10.156242 -3.74177,-2.539061 6.01356,-3.207234 2.53907,-4.2763122 -14.83346,5.2117556 2.00452,9.4880686 -20.446122,10.824415 9.621702,7.483546 z"
       id="path6331"
       inkscape:connector-curvature="0" />
    <path
       style="fill:#ca7a6a;stroke:#000000;stroke-width:0.26458332px;stroke-linecap:butt;stroke-linejoin:miter;stroke-opacity:1;fill-opacity:1"
       d="m 105.60388,50.665104 c -1.6907,-2.453979 -5.40819,-2.933238 -7.815658,-3.953691 1.2387,2.84222 2.141476,5.474975 6.352398,7.301275 z"
       id="path6319"
       inkscape:connector-curvature="0"
       sodipodi:nodetypes="cccc" />
    <path
       style="fill:#cf7b70;fill-opacity:1;stroke:#000000;stroke-width:0.26458332px;stroke-linecap:butt;stroke-linejoin:miter;stroke-opacity:1"
       d="m 119.06857,56.254836 c -1.02026,0.577361 -1.24044,1.154723 -1.19814,1.732084 4.33226,3.396793 5.44149,4.981451 8.16564,8.659874 0.11007,-4.409722 2.9933,-8.284905 -2.95503,-12.694627 0.18057,-0.52072 0.55041,-0.852164 0.26385,-1.840009"
       id="path6325"
       inkscape:connector-curvature="0"
       sodipodi:nodetypes="ccccc" />
    <path
       style="fill:none;stroke:#000000;stroke-width:0.26458332px;stroke-linecap:butt;stroke-linejoin:miter;stroke-opacity:1"
       d="m 109.31324,61.73386 9.22079,-4.009043 7.48355,-0.534538 6.68174,1.603616 7.34991,26.860587 5.07812,-2.672694 -6.01356,9.087162 -8.01809,-3.073598 -13.0962,-7.216277 -13.76439,15.768901 -9.755334,-8.018086 5.746294,1.069078 c 4.74375,-8.886835 6.73886,-18.951655 9.08717,-28.865108 z"
       id="path6349"
       inkscape:connector-curvature="0"
       sodipodi:nodetypes="ccccccccccccc" />
  </g>
</svg>
