<?xml version="1.0" encoding="UTF-8" standalone="no"?>
<!-- Created with Inkscape (http://www.inkscape.org/) -->

<svg
   width="300"
   height="300"
   viewBox="0 0 79.374998 79.375"
   version="1.1"
   id="svg1"
   inkscape:version="1.3.2 (1:1.3.2+202404261509+091e20ef0f)"
   sodipodi:docname="parchment_small.svg"
   xmlns:inkscape="http://www.inkscape.org/namespaces/inkscape"
   xmlns:sodipodi="http://sodipodi.sourceforge.net/DTD/sodipodi-0.dtd"
   xmlns="http://www.w3.org/2000/svg"
   xmlns:svg="http://www.w3.org/2000/svg">
  <sodipodi:namedview
     id="namedview1"
     pagecolor="#1e4072"
     bordercolor="#000000"
     borderopacity="0.25"
     inkscape:showpageshadow="2"
     inkscape:pageopacity="0.0"
     inkscape:pagecheckerboard="0"
     inkscape:deskcolor="#1f4273"
     inkscape:document-units="px"
     inkscape:zoom="1.9044743"
     inkscape:cx="106.06602"
     inkscape:cy="107.64126"
     inkscape:window-width="1920"
     inkscape:window-height="1011"
     inkscape:window-x="1920"
     inkscape:window-y="32"
     inkscape:window-maximized="1"
     inkscape:current-layer="layer1" />
  <defs
     id="defs1" />
  <g
     inkscape:label="Layer 1"
     inkscape:groupmode="layer"
     id="layer1">
    <path
       id="rect1"
       style="fill:#efd287;stroke-width:0.178329;fill-opacity:1"
       d="M 5.3629801 6.198588 C 6.6528052 14.078527 7.4082294 22.001264 7.696171 29.960962 C 7.7220068 30.675156 8.9495771 31.164917 8.9679279 31.879707 C 8.9849762 32.543764 9.019272 32.798509 9.0299397 33.463073 C 9.0403551 34.111926 7.8219904 35.395497 7.8263956 36.044828 C 7.9057849 47.746884 7.0151116 59.525769 5.3629801 71.365669 C 10.124944 70.804515 14.84821 70.393544 19.538859 70.111482 C 20.12219 70.076404 20.869081 69.290984 21.451404 69.259854 C 22.176978 69.221067 22.73809 69.938093 23.462133 69.905293 C 33.734391 69.439985 43.854261 69.569351 53.879915 70.069107 C 54.785079 70.114228 55.783832 69.251239 56.687495 69.302229 C 57.694513 69.359052 58.606598 70.330472 59.611864 70.394152 C 63.876086 70.664276 68.124818 70.993735 72.363024 71.365669 C 71.894348 66.018641 71.425387 60.671955 71.042174 55.321687 C 70.977216 54.414779 68.85386 51.620293 68.79425 50.713183 C 68.724253 49.648086 70.719082 50.47016 70.657702 49.404736 C 69.831099 35.055646 69.847874 20.674365 72.363024 6.198588 C 70.389612 6.3899847 68.416384 6.5672192 66.442972 6.7293049 C 65.942917 6.7703769 65.844902 7.4989071 65.344848 7.5380411 C 64.997995 7.5651859 64.248895 6.9036055 63.902042 6.9298095 C 47.833251 8.1437452 31.764474 8.3433833 15.695683 7.156669 C 14.816024 7.0917043 13.595678 8.225293 12.71602 8.1519571 C 12.038077 8.0954381 11.701042 6.8337513 11.0231 6.7721964 C 9.1363723 6.6008865 7.2497076 6.4097244 5.3629801 6.198588 z M 10.785905 14.139705 A 1.0100884 1.7773426 34.950307 0 1 11.180196 14.250293 A 1.0100884 1.7773426 34.950307 0 1 10.98951 16.285827 A 1.0100884 1.7773426 34.950307 0 1 9.1436278 17.16381 A 1.0100884 1.7773426 34.950307 0 1 9.3337971 15.128275 A 1.0100884 1.7773426 34.950307 0 1 10.785905 14.139705 z " />
    <path
       d="m 5.3629801,6.198588 c 0.087926,0.5371663 0.1671305,1.0752616 0.2501139,1.6128214 1.8033561,0.2001002 3.6066497,0.384547 5.410006,0.5482869 0.677942,0.061555 1.014977,1.3232418 1.69292,1.3797608 0.879658,0.073336 2.100004,-1.0602528 2.979663,-0.9952881 16.068791,1.1867143 32.137568,0.9870761 48.206359,-0.2268595 0.346853,-0.026204 1.095953,0.6353763 1.442806,0.6082316 0.500054,-0.039134 0.598069,-0.7676642 1.098124,-0.8087362 1.885897,-0.1548977 3.771639,-0.3252513 5.657536,-0.5069458 0.08654,-0.5369592 0.169175,-1.0740542 0.262516,-1.6112711 -1.973412,0.1913967 -3.94664,0.3686312 -5.920052,0.5307169 -0.500055,0.041072 -0.59807,0.7696022 -1.098124,0.8087362 C 64.997995,7.5651859 64.248895,6.9036055 63.902042,6.9298095 47.833251,8.1437452 31.764474,8.3433833 15.695683,7.156669 14.816024,7.0917043 13.595678,8.225293 12.71602,8.1519571 12.038077,8.0954381 11.701042,6.8337513 11.0231,6.7721964 9.1363723,6.6008865 7.2497076,6.4097244 5.3629801,6.198588 Z"
       style="fill:#efefef;stroke-width:0.178329;fill-opacity:0.31195897"
       id="path3" />
    <path
       d="m 72.27104,70.299584 c -4.207736,-0.36864 -8.425766,-0.695593 -12.659176,-0.963765 -1.005266,-0.06368 -1.917351,-1.0351 -2.924369,-1.091923 -0.903663,-0.05099 -1.902416,0.811999 -2.80758,0.766878 -10.025654,-0.499757 -20.145524,-0.629122 -30.417782,-0.163814 -0.724043,0.0328 -1.285155,-0.684226 -2.010729,-0.645439 -0.582323,0.03113 -1.329214,0.81655 -1.912545,0.851628 -4.644233,0.27927 -9.32071,0.686022 -14.0348023,1.238684 -0.048581,0.358072 -0.091096,0.715652 -0.1410766,1.073836 4.7619639,-0.561154 9.4852299,-0.972125 14.1758789,-1.254187 0.583331,-0.03508 1.330222,-0.820498 1.912545,-0.851628 0.725574,-0.03879 1.286686,0.678239 2.010729,0.645439 10.272258,-0.465308 20.392128,-0.335942 30.417782,0.163814 0.905164,0.04512 1.903917,-0.817868 2.80758,-0.766878 1.007018,0.05682 1.919103,1.028243 2.924369,1.091923 4.264222,0.270124 8.512954,0.599583 12.75116,0.971517 -0.03115,-0.355353 -0.06086,-0.710731 -0.09198,-1.066085 z"
       style="fill:#000000;stroke-width:0.178329;fill-opacity:0.50137395"
       id="path6" />
  </g>
</svg>
