<?xml version="1.0" encoding="UTF-8" standalone="no"?>
<!-- Created with Inkscape (http://www.inkscape.org/) -->

<svg
   xmlns:dc="http://purl.org/dc/elements/1.1/"
   xmlns:cc="http://creativecommons.org/ns#"
   xmlns:rdf="http://www.w3.org/1999/02/22-rdf-syntax-ns#"
   xmlns:svg="http://www.w3.org/2000/svg"
   xmlns="http://www.w3.org/2000/svg"
   xmlns:sodipodi="http://sodipodi.sourceforge.net/DTD/sodipodi-0.dtd"
   xmlns:inkscape="http://www.inkscape.org/namespaces/inkscape"
   width="210mm"
   height="297mm"
   viewBox="0 0 210 297"
   version="1.1"
   id="svg8"
   inkscape:version="0.92.3 (2405546, 2018-03-11)"
   sodipodi:docname="rectangular.svg">
  <defs
     id="defs2" />
  <sodipodi:namedview
     id="base"
     pagecolor="#ffffff"
     bordercolor="#666666"
     borderopacity="1.0"
     inkscape:pageopacity="0.0"
     inkscape:pageshadow="2"
     inkscape:zoom="0.35"
     inkscape:cx="37.480996"
     inkscape:cy="740.66983"
     inkscape:document-units="mm"
     inkscape:current-layer="layer1"
     showgrid="false"
     inkscape:window-width="1920"
     inkscape:window-height="1027"
     inkscape:window-x="-8"
     inkscape:window-y="-8"
     inkscape:window-maximized="1" />
  <metadata
     id="metadata5">
    <rdf:RDF>
      <cc:Work
         rdf:about="">
        <dc:format>image/svg+xml</dc:format>
        <dc:type
           rdf:resource="http://purl.org/dc/dcmitype/StillImage" />
        <dc:title></dc:title>
      </cc:Work>
    </rdf:RDF>
  </metadata>
  <g
     inkscape:label="Layer 1"
     inkscape:groupmode="layer"
     id="layer1">
    <path
       style="opacity:1;fill:#00c169;fill-opacity:1;stroke:none;stroke-width:0.77522796;stroke-miterlimit:4;stroke-dasharray:none"
       d="m 90.894334,98.348009 a 21.037887,12.428033 67.305352 0 0 0.17686,21.205061 21.037887,12.428033 67.305352 0 0 14.974416,15.02482 z"
       id="path4690-7-5"
       inkscape:connector-curvature="0" />
    <path
       inkscape:connector-curvature="0"
       style="opacity:1;fill:#009551;fill-opacity:1;stroke:none;stroke-width:0.77522796;stroke-miterlimit:4;stroke-dasharray:none"
       d="m 90.894334,98.348008 a 21.037887,12.428033 67.305352 0 1 14.971526,15.017932 21.037887,12.428033 67.305352 0 1 0.17975,21.21195 z"
       id="path4690-9-5-7" />
    <path
       style="opacity:1;fill:#00c169;fill-opacity:1;stroke:none;stroke-width:0.77522796;stroke-miterlimit:4;stroke-dasharray:none"
       d="m 125.9443,94.918202 a 12.428033,21.037887 15 0 0 -12.82595,16.887298 12.428033,21.037887 15 0 0 2.66199,21.045 z"
       id="path4690-7"
       inkscape:connector-curvature="0" />
    <path
       inkscape:connector-curvature="0"
       style="opacity:1;fill:#009551;fill-opacity:1;stroke:none;stroke-width:0.77522796;stroke-miterlimit:4;stroke-dasharray:none"
       d="m 125.9443,94.918201 a 12.428033,21.037887 15 0 1 2.66392,21.037789 12.428033,21.037887 15 0 1 -12.82788,16.89451 z"
       id="path4690-9-5" />
    <path
       style="opacity:1;fill:#00c169;fill-opacity:1;stroke:none;stroke-width:0.77522796;stroke-miterlimit:4;stroke-dasharray:none"
       d="m 110.80811,93.719983 a 12.428033,21.037887 0 0 0 -8.01811,19.631467 12.428033,21.037887 0 0 0 8.01811,19.63894 z"
       id="path4690"
       inkscape:connector-curvature="0" />
    <path
       inkscape:connector-curvature="0"
       style="opacity:1;fill:#009551;fill-opacity:1;stroke:none;stroke-width:0.77522796;stroke-miterlimit:4;stroke-dasharray:none"
       d="m 110.80811,93.719982 a 12.428033,21.037887 0 0 1 8.01812,19.631468 12.428033,21.037887 0 0 1 -8.01812,19.63894 z"
       id="path4690-9" />
    <path
       inkscape:connector-curvature="0"
       style="fill:#ffb380;stroke:none;stroke-width:0.61663902;stroke-miterlimit:4;stroke-dasharray:none"
       d="m 81.914936,135.65947 h 54.428574 l -5.29167,41.49043 H 87.206596 Z"
       id="rect4521-5-5-0" />
    <path
       style="fill:#d38d5f;stroke:none;stroke-width:0.45328718;stroke-miterlimit:4;stroke-dasharray:none"
       d="m 81.914788,135.65947 0.745175,3.1576 h 52.938367 l 0.74518,-3.1576 z"
       id="rect4521-6-5"
       inkscape:connector-curvature="0" />
    <path
       style="fill:#ffb380;stroke:none;stroke-width:0.62313372;stroke-miterlimit:4;stroke-dasharray:none"
       d="m 77.127162,129.81559 v 5.84358 h 64.946418 v -5.84358 z"
       id="rect4524-8-9"
       inkscape:connector-curvature="0" />
    <path
       style="opacity:0.122;fill:#000000;fill-opacity:1;stroke:none;stroke-width:0.61663884;stroke-miterlimit:4;stroke-dasharray:none"
       d="m 111.33728,129.81538 v 47.33458 h 19.71456 l 5.29167,-41.49049 h 5.72988 v -5.84409 z"
       id="rect4521-5-5"
       inkscape:connector-curvature="0" />
  </g>
</svg>
