<?xml version="1.0" encoding="UTF-8" standalone="no"?>
<!-- Created with Inkscape (http://www.inkscape.org/) -->

<svg
   xmlns:dc="http://purl.org/dc/elements/1.1/"
   xmlns:cc="http://creativecommons.org/ns#"
   xmlns:rdf="http://www.w3.org/1999/02/22-rdf-syntax-ns#"
   xmlns:svg="http://www.w3.org/2000/svg"
   xmlns="http://www.w3.org/2000/svg"
   xmlns:sodipodi="http://sodipodi.sourceforge.net/DTD/sodipodi-0.dtd"
   xmlns:inkscape="http://www.inkscape.org/namespaces/inkscape"
   width="210mm"
   height="297mm"
   viewBox="0 0 210 297"
   version="1.1"
   id="svg4732"
   inkscape:version="0.92.2 5c3e80d, 2017-08-06"
   sodipodi:docname="grass1.svg">
  <defs
     id="defs4726" />
  <sodipodi:namedview
     id="base"
     pagecolor="#ffffff"
     bordercolor="#666666"
     borderopacity="1.0"
     inkscape:pageopacity="0.0"
     inkscape:pageshadow="2"
     inkscape:zoom="1.4142136"
     inkscape:cx="287.7079"
     inkscape:cy="527.86036"
     inkscape:document-units="mm"
     inkscape:current-layer="layer1"
     showgrid="false"
     inkscape:snap-global="false"
     inkscape:window-width="2560"
     inkscape:window-height="1342"
     inkscape:window-x="1440"
     inkscape:window-y="1"
     inkscape:window-maximized="1" />
  <metadata
     id="metadata4729">
    <rdf:RDF>
      <cc:Work
         rdf:about="">
        <dc:format>image/svg+xml</dc:format>
        <dc:type
           rdf:resource="http://purl.org/dc/dcmitype/StillImage" />
        <dc:title></dc:title>
      </cc:Work>
    </rdf:RDF>
  </metadata>
  <g
     inkscape:label="Layer 1"
     inkscape:groupmode="layer"
     id="layer1">
    <path
       style="fill:#20ae11;fill-opacity:1;stroke:none;stroke-width:0.26458332px;stroke-linecap:butt;stroke-linejoin:miter;stroke-opacity:1"
       d="m 71.040236,170.52805 c 0,0 0.20483,-7.48396 0.13364,-11.22532 -0.0679,-3.5674 -0.86869,-7.13842 -0.53454,-10.69078 0.40776,-4.33489 3.23674,-8.34434 3.0736,-12.69531 -0.11402,-3.04064 -2.80633,-8.68625 -2.80633,-8.68625 0,0 3.94785,4.81587 4.54358,7.75082 1.02764,5.06281 -1.97546,10.20201 -2.00452,15.36799 -0.0174,3.09659 0.82341,6.14037 1.09784,9.22483 0.3202,3.59887 0.63941,10.82039 0.63941,10.82039 z"
       id="path4738"
       inkscape:connector-curvature="0"
       sodipodi:nodetypes="caaacaaacc" />
    <path
       style="fill:#20ae11;stroke:none;stroke-width:0.26458332px;stroke-linecap:butt;stroke-linejoin:miter;stroke-opacity:1;fill-opacity:1"
       d="m 68.821902,170.44788 c 0,0 0.175093,-9.01554 -1.336346,-12.82894 -1.270859,-3.20641 -2.129642,-5.15834 -6.013564,-10.95805 -0.724075,-1.08123 -2.212601,-3.98444 -3.739493,-7.08188 -2.29636,-4.65839 -1.338629,-11.49336 -1.338629,-11.49336 0,0 0.444751,6.51719 3.46811,11.05143 1.449575,2.17398 1.945929,4.06859 3.213628,5.78656 3.726506,5.05012 4.140786,7.65441 6.280833,10.95804 2.450354,3.78267 2.806331,14.83347 2.806331,14.83347 z"
       id="path4734"
       inkscape:connector-curvature="0"
       sodipodi:nodetypes="cssscssscc" />
    <path
       style="fill:#198d0e;fill-opacity:1;stroke:none;stroke-width:0.26458332px;stroke-linecap:butt;stroke-linejoin:miter;stroke-opacity:1"
       d="m 71.565678,128.7122 c 0.804275,1.8796 2.06938,5.1301 2.147157,7.20421 0.16314,4.35097 -2.665955,8.36046 -3.073715,12.69535 -0.33415,3.55236 0.466953,7.12342 0.534853,10.69082 0.07119,3.74136 -0.133842,11.22567 -0.133842,11.22567 l 1.924428,-0.062 v -3.86695 l -0.748273,-14.0317 0.374136,-7.10964 1.870687,-5.42551 V 134.794 l -1.870687,-4.67724 z"
       id="path5337"
       inkscape:connector-curvature="0" />
    <path
       sodipodi:nodetypes="cssscssscc"
       inkscape:connector-curvature="0"
       id="path4736"
       d="m 77.641796,170.63496 c 0,0 -0.17509,-9.01554 1.33635,-12.82894 1.27086,-3.20641 2.12964,-5.15834 6.01356,-10.95805 0.72408,-1.08123 2.21261,-3.98444 3.7395,-7.08188 2.29636,-4.65839 1.33863,-11.49336 1.33863,-11.49336 0,0 -0.44475,6.51719 -3.46811,11.05143 -1.44958,2.17398 -1.94593,4.06859 -3.21363,5.78656 -3.72651,5.05012 -4.14079,7.65441 -6.28083,10.95804 -2.45036,3.78267 -2.80634,14.83347 -2.80634,14.83347 z"
       style="fill:#198d0e;fill-opacity:1;stroke:none;stroke-width:0.26458332px;stroke-linecap:butt;stroke-linejoin:miter;stroke-opacity:1" />
    <path
       style="fill:#0c9300;fill-opacity:1;stroke:none;stroke-width:0.99999994px;stroke-linecap:butt;stroke-linejoin:miter;stroke-opacity:1"
       d="m 212.56055,490.79102 c -0.47661,8.84361 -0.29293,24.71517 5.64062,36.75195 5.77093,11.70686 11.39811,22.67909 14.13477,26.76562 14.67939,21.92017 17.92527,29.2973 22.72851,41.41602 5.71253,14.41285 5.05078,48.48828 5.05078,48.48828 l 7.06874,-0.72695 -3.53474,-41.19454 -25.75861,-49.49843 -19.69726,-33.83985 z"
       transform="scale(0.26458333)"
       id="path5308"
       inkscape:connector-curvature="0"
       sodipodi:nodetypes="cccscccccc" />
    <path
       style="fill:#a4d49e;fill-opacity:1;stroke:none;stroke-width:0.26458332px;stroke-linecap:butt;stroke-linejoin:miter;stroke-opacity:1"
       d="m 89.965105,129.25975 c -0.24896,1.97989 -1.047782,6.59136 -3.363619,10.0645 -1.44958,2.17398 -1.945542,4.06876 -3.213243,5.78673 -3.726508,5.05012 -4.140713,7.65435 -6.280753,10.95798 -2.450359,3.78268 -2.806546,14.83321 -2.806546,14.83321 l 0.771011,-0.0615 0.32453,-3.68039 1.309998,-8.04447 3.180167,-6.73551 4.303096,-7.8574 5.23844,-10.10274 0.561205,-5.05137 z"
       id="path5343"
       inkscape:connector-curvature="0" />
    <ellipse
       style="opacity:0.68699999;fill:#dca300;fill-opacity:1;stroke:none;stroke-width:0.34497446;stroke-opacity:1"
       id="path5316"
       cx="73.499123"
       cy="170.90224"
       rx="17.773424"
       ry="0.45435819" />
  </g>
</svg>
