<?xml version="1.0" encoding="UTF-8" standalone="no"?>
<!-- Created with Inkscape (http://www.inkscape.org/) -->

<svg
   width="210mm"
   height="297mm"
   viewBox="0 0 210 297"
   version="1.1"
   id="svg30335"
   inkscape:version="1.2.1 (ef4d3fba62, 2022-07-19, custom)"
   sodipodi:docname="wood1.svg"
   xmlns:inkscape="http://www.inkscape.org/namespaces/inkscape"
   xmlns:sodipodi="http://sodipodi.sourceforge.net/DTD/sodipodi-0.dtd"
   xmlns:xlink="http://www.w3.org/1999/xlink"
   xmlns="http://www.w3.org/2000/svg"
   xmlns:svg="http://www.w3.org/2000/svg">
  <sodipodi:namedview
     id="namedview30337"
     pagecolor="#ffffff"
     bordercolor="#666666"
     borderopacity="1.0"
     inkscape:showpageshadow="2"
     inkscape:pageopacity="0.0"
     inkscape:pagecheckerboard="0"
     inkscape:deskcolor="#d1d1d1"
     inkscape:document-units="mm"
     showgrid="false"
     inkscape:zoom="1.6819304"
     inkscape:cx="395.97358"
     inkscape:cy="307.38489"
     inkscape:window-width="1920"
     inkscape:window-height="995"
     inkscape:window-x="1920"
     inkscape:window-y="0"
     inkscape:window-maximized="1"
     inkscape:current-layer="layer1" />
  <defs
     id="defs30332">
    <linearGradient
       inkscape:collect="always"
       id="linearGradient34691">
      <stop
         style="stop-color:#ffffff;stop-opacity:1;"
         offset="0"
         id="stop34687" />
      <stop
         style="stop-color:#575757;stop-opacity:1;"
         offset="1"
         id="stop34689" />
    </linearGradient>
    <inkscape:perspective
       sodipodi:type="inkscape:persp3d"
       inkscape:vp_x="0.46430757 : 136.57334 : 1"
       inkscape:vp_y="-75.977334 : 997.10954 : 0"
       inkscape:vp_z="209.85731 : 152.52858 : 1"
       inkscape:persp3d-origin="108.92169 : 95.194038 : 1"
       id="perspective32090" />
    <inkscape:path-effect
       effect="fillet_chamfer"
       id="path-effect32030"
       is_visible="true"
       lpeversion="1"
       nodesatellites_param="F,0,0,1,0,71.4375,0,1 @ F,0,0,1,0,71.4375,0,1 @ F,0,0,1,0,71.4375,0,1 @ F,0,0,1,0,71.4375,0,1"
       unit="px"
       method="bezier"
       mode="F"
       radius="270"
       chamfer_steps="1"
       flexible="false"
       use_knot_distance="true"
       apply_no_radius="true"
       apply_with_radius="true"
       only_selected="false"
       hide_knots="false" />
    <radialGradient
       inkscape:collect="always"
       xlink:href="#linearGradient34691"
       id="radialGradient34693"
       cx="95.958916"
       cy="115.19997"
       fx="95.958916"
       fy="115.19997"
       r="2.0301422"
       gradientUnits="userSpaceOnUse"
       gradientTransform="matrix(0.71692012,0,0,0.71692012,8.4889098,23.972672)" />
    <radialGradient
       inkscape:collect="always"
       xlink:href="#linearGradient34691"
       id="radialGradient34753"
       gradientUnits="userSpaceOnUse"
       gradientTransform="matrix(0.71692012,0,0,0.71692012,8.6917579,12.801722)"
       cx="95.958916"
       cy="115.19997"
       fx="95.958916"
       fy="115.19997"
       r="2.0301422" />
    <radialGradient
       inkscape:collect="always"
       xlink:href="#linearGradient34691"
       id="radialGradient34759"
       gradientUnits="userSpaceOnUse"
       gradientTransform="matrix(0.71692012,0,0,0.71692012,8.7454742,2.2848521)"
       cx="95.958916"
       cy="115.19997"
       fx="95.958916"
       fy="115.19997"
       r="2.0301422" />
    <radialGradient
       inkscape:collect="always"
       xlink:href="#linearGradient34691"
       id="radialGradient34765"
       gradientUnits="userSpaceOnUse"
       gradientTransform="matrix(0.71692012,0,0,0.71692012,8.6498821,-9.1155254)"
       cx="95.958916"
       cy="115.19997"
       fx="95.958916"
       fy="115.19997"
       r="2.0301422" />
    <radialGradient
       inkscape:collect="always"
       xlink:href="#linearGradient34691"
       id="radialGradient34771"
       gradientUnits="userSpaceOnUse"
       gradientTransform="matrix(0.71692012,0,0,0.71692012,8.370696,-18.99702)"
       cx="95.958916"
       cy="115.19997"
       fx="95.958916"
       fy="115.19997"
       r="2.0301422" />
    <radialGradient
       inkscape:collect="always"
       xlink:href="#linearGradient34691"
       id="radialGradient34777"
       gradientUnits="userSpaceOnUse"
       gradientTransform="matrix(0.71692012,0,0,0.71692012,8.5295365,-29.753179)"
       cx="95.958916"
       cy="115.19997"
       fx="95.958916"
       fy="115.19997"
       r="2.0301422" />
    <radialGradient
       inkscape:collect="always"
       xlink:href="#linearGradient34691"
       id="radialGradient34803"
       gradientUnits="userSpaceOnUse"
       gradientTransform="matrix(0.71692012,0,0,0.71692012,89.197909,-30.103081)"
       cx="95.958916"
       cy="115.19997"
       fx="95.958916"
       fy="115.19997"
       r="2.0301422" />
    <radialGradient
       inkscape:collect="always"
       xlink:href="#linearGradient34691"
       id="radialGradient34805"
       gradientUnits="userSpaceOnUse"
       gradientTransform="matrix(0.71692012,0,0,0.71692012,89.039068,-19.346922)"
       cx="95.958916"
       cy="115.19997"
       fx="95.958916"
       fy="115.19997"
       r="2.0301422" />
    <radialGradient
       inkscape:collect="always"
       xlink:href="#linearGradient34691"
       id="radialGradient34807"
       gradientUnits="userSpaceOnUse"
       gradientTransform="matrix(0.71692012,0,0,0.71692012,89.318255,-9.4654282)"
       cx="95.958916"
       cy="115.19997"
       fx="95.958916"
       fy="115.19997"
       r="2.0301422" />
    <radialGradient
       inkscape:collect="always"
       xlink:href="#linearGradient34691"
       id="radialGradient34809"
       gradientUnits="userSpaceOnUse"
       gradientTransform="matrix(0.71692012,0,0,0.71692012,89.413847,1.9349496)"
       cx="95.958916"
       cy="115.19997"
       fx="95.958916"
       fy="115.19997"
       r="2.0301422" />
    <radialGradient
       inkscape:collect="always"
       xlink:href="#linearGradient34691"
       id="radialGradient34811"
       gradientUnits="userSpaceOnUse"
       gradientTransform="matrix(0.71692012,0,0,0.71692012,89.36013,12.45182)"
       cx="95.958916"
       cy="115.19997"
       fx="95.958916"
       fy="115.19997"
       r="2.0301422" />
    <radialGradient
       inkscape:collect="always"
       xlink:href="#linearGradient34691"
       id="radialGradient34813"
       gradientUnits="userSpaceOnUse"
       gradientTransform="matrix(0.71692012,0,0,0.71692012,89.157282,23.62277)"
       cx="95.958916"
       cy="115.19997"
       fx="95.958916"
       fy="115.19997"
       r="2.0301422" />
  </defs>
  <g
     inkscape:label="Layer 1"
     inkscape:groupmode="layer"
     id="layer1">
    <rect
       style="opacity:1;fill:#a47200;fill-opacity:1;stroke:none;stroke-width:1.812;stroke-linecap:square;stroke-miterlimit:3.5;stroke-dasharray:none;stroke-opacity:1;paint-order:fill markers stroke"
       id="rect33618"
       width="4.3820033"
       height="71.428001"
       x="75.350609"
       y="45.371307" />
    <rect
       style="opacity:1;fill:#b47e00;fill-opacity:1;stroke:none;stroke-width:1.812;stroke-linecap:square;stroke-miterlimit:3.5;stroke-dasharray:none;stroke-opacity:1;paint-order:fill markers stroke"
       id="rect33616"
       width="4.3820033"
       height="71.428001"
       x="155.66592"
       y="45.5257" />
    <rect
       style="opacity:1;fill:#ae7900;fill-opacity:1;stroke:none;stroke-width:1.812;stroke-linecap:square;stroke-miterlimit:3.5;stroke-dasharray:none;stroke-opacity:1;paint-order:fill markers stroke"
       id="rect33614"
       width="4.3820033"
       height="71.428001"
       x="155.66592"
       y="44.996532" />
    <rect
       style="opacity:1;fill:#ae7900;fill-opacity:1;stroke:none;stroke-width:1.812;stroke-linecap:square;stroke-miterlimit:3.5;stroke-dasharray:none;stroke-opacity:1;paint-order:fill markers stroke"
       id="rect32416"
       width="4.3820033"
       height="71.428001"
       x="75.350609"
       y="44.84214" />
    <rect
       style="fill:#735000;fill-opacity:1;stroke-width:0.674935;stroke-linecap:square;stroke-miterlimit:3.5;stroke-dasharray:none;paint-order:fill markers stroke"
       id="rect32332"
       width="118.3204"
       height="9.647604"
       x="56.015747"
       y="48.868233" />
    <path
       sodipodi:type="spiral"
       style="opacity:0.25503812;fill:none;fill-opacity:1;fill-rule:evenodd;stroke:#000000;stroke-width:0.872328;stroke-dasharray:none;stroke-opacity:1"
       id="path33620"
       sodipodi:cx="109.80677"
       sodipodi:cy="116.34641"
       sodipodi:expansion="1"
       sodipodi:revolution="17.0142"
       sodipodi:radius="25.962433"
       sodipodi:argument="-38.027264"
       sodipodi:t0="0"
       d="m 109.80677,116.34641 c 0.21728,-0.074 0.20691,0.25639 0.12295,0.36113 -0.22753,0.28384 -0.66088,0.13424 -0.8452,-0.11523 -0.3297,-0.44624 -0.0893,-1.06553 0.3534,-1.32927 0.64976,-0.38707 1.47664,-0.0458 1.81335,0.59158 0.44878,0.84957 0.003,1.89018 -0.82975,2.29742 -1.04805,0.51248 -2.30491,-0.0392 -2.7815,-1.06793 -0.57722,-1.24588 0.0813,-2.72032 1.30611,-3.26558 1.44335,-0.64257 3.13614,0.12326 3.74965,1.54429 0.70832,1.64064 -0.16507,3.55225 -1.78247,4.23372 -1.83778,0.77434 -3.96855,-0.20681 -4.7178,-2.02063 -0.84054,-2.03484 0.24851,-4.38501 2.25882,-5.20188 2.23182,-0.90689 4.80156,0.29015 5.68595,2.49699 0.97333,2.42877 -0.33177,5.2182 -2.73517,6.17003 -2.62567,1.03986 -5.6349,-0.37337 -6.6541,-2.97335 -1.10645,-2.82255 0.41495,-6.05166 3.21152,-7.13817 3.01941,-1.17309 6.46846,0.45651 7.62225,3.44969 1.23977,3.21625 -0.49806,6.8853 -3.68787,8.10633 -3.41307,1.30649 -7.30217,-0.5396 -8.5904,-3.92605 -1.37323,-3.60987 0.58113,-7.71905 4.16422,-9.07448 3.80668,-1.44 8.13597,0.62266 9.55856,4.40241 1.50678,4.00346 -0.66418,8.55289 -4.64058,10.04262 -4.20025,1.5736 -8.96984,-0.70568 -10.52671,-4.87875 -1.64041,-4.39703 0.74719,-9.3868 5.11694,-11.01078 4.5938,-1.70725 9.80376,0.78869 11.49485,5.35511 1.7741,4.79057 -0.83019,10.22075 -5.59329,11.97893 -4.98733,1.84095 -10.63773,-0.87169 -12.463,-5.83147 -1.90782,-5.18408 0.91318,-11.05473 6.06964,-12.94707 5.38085,-1.9747 11.47174,0.95467 13.43115,6.30781 2.04158,5.5776 -0.99616,11.88875 -6.54599,13.91523 -5.77435,2.10846 -12.30577,-1.03765 -14.399304,-6.78417 -2.175354,-5.9711 1.079134,-12.72279 7.022344,-14.88338 6.16785,-2.24225 13.13982,1.12062 15.36746,7.26052 2.30915,6.3646 -1.1621,13.55686 -7.4987,15.85153 -6.56134,2.37607 -13.973889,-1.20358 -16.335607,-7.73687 -2.442975,-6.75808 1.245061,-14.39093 7.975047,-16.81968 6.95482,-2.50989 14.80797,1.28654 17.30376,8.21323 2.57681,7.15155 -1.32802,15.22501 -8.45141,17.78783 -7.34829,2.64373 -15.64206,-1.3695 -18.271901,-8.68958 -2.710652,-7.54503 1.410969,-16.05912 8.927761,-18.75598 7.74176,-2.777583 16.47617,1.45244 19.24005,9.16593 2.84451,7.9385 -1.49391,16.89323 -9.40411,19.72413 -8.13523,2.91144 -17.310284,-1.53539 -20.208204,-9.64229 -2.978372,-8.33196 1.576863,-17.72734 9.880464,-20.69228 8.5287,-3.045305 18.14441,1.61834 21.17636,10.11864 3.11224,8.72543 -1.65981,18.56148 -10.35682,21.66043 -8.92216,3.17919 -18.97854,-1.70127 -22.144507,-10.59499 -3.246124,-9.11889 1.742747,-19.39561 10.833167,-22.628581 9.31562,-3.313065 19.81268,1.784221 23.11266,11.071351 3.38001,9.51234 -1.82569,20.22974 -11.30952,23.59673 -9.70908,3.44695 -20.646819,-1.86716 -24.08081,-11.5477 -3.513898,-9.9058 1.908624,-21.06389 11.78588,-24.564884 10.10253,-3.580844 21.48096,1.950093 25.04895,12.024054 3.64779,10.29926 -1.99156,21.89803 -12.26223,25.53303 -10.49598,3.71474 -22.315107,-2.03303 -26.017104,-12.5004 -3.78169,-10.69272 2.074496,-22.73219 12.738584,-26.501187 10.88944,-3.848641 23.14926,2.115963 26.98526,12.976757 3.91559,11.08616 -2.15743,23.56634 -13.21494,27.46933 -11.28289,3.98255 -23.98342,-2.19889 -27.953407,-13.45311 -4.049497,-11.47961 2.240363,-24.400498 13.691287,-28.43748 11.67634,-4.116452 24.81758,2.281829 28.92156,13.92946 4.1834,11.87307 -2.3233,25.23467 -14.16764,29.40564 -12.06979,4.25036 -25.651745,-2.36476 -29.88971,-14.40582 -4.317316,-12.26651 2.406226,-26.068825 14.64399,-30.373784 12.46324,-4.384272 26.48591,2.447692 30.85786,14.882174 4.45123,12.65996 -2.48915,26.90299 -15.12034,31.34193 -12.85669,4.51819 -27.320079,-2.53062 -31.826013,-15.35852 -4.585145,-13.05341 2.572086,-27.737162 15.596703,-32.310087 13.25012,-4.652103 28.15424,2.613551 32.79416,15.834877 0.25559,0.72831 0.47865,1.46803 0.66833,2.21622"
       transform="matrix(-0.00164359,1.3822073,-0.08256474,-0.00730295,87.381033,-69.88911)" />
    <path
       sodipodi:type="spiral"
       style="opacity:1;fill:none;fill-opacity:1;fill-rule:evenodd;stroke:#825a00;stroke-width:0.872328;stroke-dasharray:none;stroke-opacity:1"
       id="path33622"
       sodipodi:cx="109.80677"
       sodipodi:cy="116.34641"
       sodipodi:expansion="1"
       sodipodi:revolution="17.0142"
       sodipodi:radius="25.962433"
       sodipodi:argument="-38.027264"
       sodipodi:t0="0"
       d="m 109.80677,116.34641 c 0.21728,-0.074 0.20691,0.25639 0.12295,0.36113 -0.22753,0.28384 -0.66088,0.13424 -0.8452,-0.11523 -0.3297,-0.44624 -0.0893,-1.06553 0.3534,-1.32927 0.64976,-0.38707 1.47664,-0.0458 1.81335,0.59158 0.44878,0.84957 0.003,1.89018 -0.82975,2.29742 -1.04805,0.51248 -2.30491,-0.0392 -2.7815,-1.06793 -0.57722,-1.24588 0.0813,-2.72032 1.30611,-3.26558 1.44335,-0.64257 3.13614,0.12326 3.74965,1.54429 0.70832,1.64064 -0.16507,3.55225 -1.78247,4.23372 -1.83778,0.77434 -3.96855,-0.20681 -4.7178,-2.02063 -0.84054,-2.03484 0.24851,-4.38501 2.25882,-5.20188 2.23182,-0.90689 4.80156,0.29015 5.68595,2.49699 0.97333,2.42877 -0.33177,5.2182 -2.73517,6.17003 -2.62567,1.03986 -5.6349,-0.37337 -6.6541,-2.97335 -1.10645,-2.82255 0.41495,-6.05166 3.21152,-7.13817 3.01941,-1.17309 6.46846,0.45651 7.62225,3.44969 1.23977,3.21625 -0.49806,6.8853 -3.68787,8.10633 -3.41307,1.30649 -7.30217,-0.5396 -8.5904,-3.92605 -1.37323,-3.60987 0.58113,-7.71905 4.16422,-9.07448 3.80668,-1.44 8.13597,0.62266 9.55856,4.40241 1.50678,4.00346 -0.66418,8.55289 -4.64058,10.04262 -4.20025,1.5736 -8.96984,-0.70568 -10.52671,-4.87875 -1.64041,-4.39703 0.74719,-9.3868 5.11694,-11.01078 4.5938,-1.70725 9.80376,0.78869 11.49485,5.35511 1.7741,4.79057 -0.83019,10.22075 -5.59329,11.97893 -4.98733,1.84095 -10.63773,-0.87169 -12.463,-5.83147 -1.90782,-5.18408 0.91318,-11.05473 6.06964,-12.94707 5.38085,-1.9747 11.47174,0.95467 13.43115,6.30781 2.04158,5.5776 -0.99616,11.88875 -6.54599,13.91523 -5.77435,2.10846 -12.30577,-1.03765 -14.399304,-6.78417 -2.175354,-5.9711 1.079134,-12.72279 7.022344,-14.88338 6.16785,-2.24225 13.13982,1.12062 15.36746,7.26052 2.30915,6.3646 -1.1621,13.55686 -7.4987,15.85153 -6.56134,2.37607 -13.973889,-1.20358 -16.335607,-7.73687 -2.442975,-6.75808 1.245061,-14.39093 7.975047,-16.81968 6.95482,-2.50989 14.80797,1.28654 17.30376,8.21323 2.57681,7.15155 -1.32802,15.22501 -8.45141,17.78783 -7.34829,2.64373 -15.64206,-1.3695 -18.271901,-8.68958 -2.710652,-7.54503 1.410969,-16.05912 8.927761,-18.75598 7.74176,-2.777583 16.47617,1.45244 19.24005,9.16593 2.84451,7.9385 -1.49391,16.89323 -9.40411,19.72413 -8.13523,2.91144 -17.310284,-1.53539 -20.208204,-9.64229 -2.978372,-8.33196 1.576863,-17.72734 9.880464,-20.69228 8.5287,-3.045305 18.14441,1.61834 21.17636,10.11864 3.11224,8.72543 -1.65981,18.56148 -10.35682,21.66043 -8.92216,3.17919 -18.97854,-1.70127 -22.144507,-10.59499 -3.246124,-9.11889 1.742747,-19.39561 10.833167,-22.628581 9.31562,-3.313065 19.81268,1.784221 23.11266,11.071351 3.38001,9.51234 -1.82569,20.22974 -11.30952,23.59673 -9.70908,3.44695 -20.646819,-1.86716 -24.08081,-11.5477 -3.513898,-9.9058 1.908624,-21.06389 11.78588,-24.564884 10.10253,-3.580844 21.48096,1.950093 25.04895,12.024054 3.64779,10.29926 -1.99156,21.89803 -12.26223,25.53303 -10.49598,3.71474 -22.315107,-2.03303 -26.017104,-12.5004 -3.78169,-10.69272 2.074496,-22.73219 12.738584,-26.501187 10.88944,-3.848641 23.14926,2.115963 26.98526,12.976757 3.91559,11.08616 -2.15743,23.56634 -13.21494,27.46933 -11.28289,3.98255 -23.98342,-2.19889 -27.953407,-13.45311 -4.049497,-11.47961 2.240363,-24.400498 13.691287,-28.43748 11.67634,-4.116452 24.81758,2.281829 28.92156,13.92946 4.1834,11.87307 -2.3233,25.23467 -14.16764,29.40564 -12.06979,4.25036 -25.651745,-2.36476 -29.88971,-14.40582 -4.317316,-12.26651 2.406226,-26.068825 14.64399,-30.373784 12.46324,-4.384272 26.48591,2.447692 30.85786,14.882174 4.45123,12.65996 -2.48915,26.90299 -15.12034,31.34193 -12.85669,4.51819 -27.320079,-2.53062 -31.826013,-15.35852 -4.585145,-13.05341 2.572086,-27.737162 15.596703,-32.310087 13.25012,-4.652103 28.15424,2.613551 32.79416,15.834877 0.25559,0.72831 0.47865,1.46803 0.66833,2.21622"
       transform="matrix(-0.00164359,1.3822073,-0.08256474,-0.00730295,167.66694,-69.996841)" />
    <rect
       style="fill:#d19200;fill-opacity:1;stroke-width:0.674935;stroke-linecap:square;stroke-miterlimit:3.5;stroke-dasharray:none;paint-order:fill markers stroke"
       id="rect32330"
       width="118.3204"
       height="9.647604"
       x="56.015747"
       y="48.273376" />
    <path
       sodipodi:type="spiral"
       style="opacity:0.0940779;fill:none;fill-opacity:1;fill-rule:evenodd;stroke:#fffff6;stroke-width:4.28331;stroke-dasharray:none;stroke-opacity:1"
       id="path32276"
       sodipodi:cx="54.793034"
       sodipodi:cy="83.197571"
       sodipodi:expansion="1"
       sodipodi:revolution="5.9970603"
       sodipodi:radius="50.042439"
       sodipodi:argument="-24.537615"
       sodipodi:t0="0"
       d="m 54.793034,83.197571 c 1.039352,0.703648 -0.435724,1.748181 -1.169509,1.727472 -1.988514,-0.05612 -2.765517,-2.439662 -2.285436,-4.06649 0.858751,-2.910014 4.352637,-3.904474 6.963472,-2.843399 3.831504,1.557169 5.070823,6.289264 3.401362,9.860453 -2.225129,4.759833 -8.233985,6.248463 -12.757434,3.959326 -5.6923,-2.880646 -7.431865,-10.18249 -4.51729,-15.654416 3.529941,-6.627236 12.133112,-8.618589 18.551397,-5.075253 7.563728,4.175699 9.807397,14.085051 5.633217,21.448379 C 63.793557,101.0549 52.574944,103.55124 44.267453,98.744822 34.827954,93.283469 32.078689,80.753517 37.51831,71.502481 43.620743,61.124217 57.463504,58.121839 67.657632,64.195374 78.975047,70.93815 82.230681,86.094797 75.522702,97.231678 68.140136,109.48854 51.668788,112.99754 39.589417,105.65471 26.392879,97.632778 22.630421,79.846099 30.60842,66.824445 39.269391,52.688048 58.371899,48.672062 72.335668,57.285485 87.412074,66.585228 91.681647,87.003965 82.432592,101.90971 72.494292,117.92625 50.758998,122.44946 34.911381,112.5646 17.954617,101.98792 13.17773,78.9358 23.698531,62.146409 34.913446,44.249332 59.282619,39.218731 77.013704,50.375595 95.851167,62.228621 101.13551,87.915038 89.342481,106.58775 76.85145,126.36566 49.847627,131.90377 30.233345,119.47449 9.5149377,106.34554 3.7230356,78.024175 16.788641,57.468373 30.555427,35.809422 60.194463,29.763709 81.69174,43.465706 c 22.30001,14.213643 28.79149,44.611726 15.051405,67.016174"
       transform="matrix(1.2607525,0,0,0.09490421,42.840232,45.599167)" />
    <rect
       style="fill:#735000;fill-opacity:1;stroke-width:0.674935;stroke-linecap:square;stroke-miterlimit:3.5;stroke-dasharray:none;paint-order:fill markers stroke"
       id="rect32334"
       width="118.3204"
       height="9.647604"
       x="56.045292"
       y="59.445297" />
    <rect
       style="fill:#d19200;fill-opacity:1;stroke-width:0.674935;stroke-linecap:square;stroke-miterlimit:3.5;stroke-dasharray:none;paint-order:fill markers stroke"
       id="rect32336"
       width="118.3204"
       height="9.647604"
       x="56.045292"
       y="58.850441" />
    <path
       sodipodi:type="spiral"
       style="opacity:0.0940779;fill:none;fill-opacity:1;fill-rule:evenodd;stroke:#fffff6;stroke-width:4.28331;stroke-dasharray:none;stroke-opacity:1"
       id="path32338"
       sodipodi:cx="54.793034"
       sodipodi:cy="83.197571"
       sodipodi:expansion="1"
       sodipodi:revolution="5.9970603"
       sodipodi:radius="50.042439"
       sodipodi:argument="-24.537615"
       sodipodi:t0="0"
       d="m 54.793034,83.197571 c 1.039352,0.703648 -0.435724,1.748181 -1.169509,1.727472 -1.988514,-0.05612 -2.765517,-2.439662 -2.285436,-4.06649 0.858751,-2.910014 4.352637,-3.904474 6.963472,-2.843399 3.831504,1.557169 5.070823,6.289264 3.401362,9.860453 -2.225129,4.759833 -8.233985,6.248463 -12.757434,3.959326 -5.6923,-2.880646 -7.431865,-10.18249 -4.51729,-15.654416 3.529941,-6.627236 12.133112,-8.618589 18.551397,-5.075253 7.563728,4.175699 9.807397,14.085051 5.633217,21.448379 C 63.793557,101.0549 52.574944,103.55124 44.267453,98.744822 34.827954,93.283469 32.078689,80.753517 37.51831,71.502481 43.620743,61.124217 57.463504,58.121839 67.657632,64.195374 78.975047,70.93815 82.230681,86.094797 75.522702,97.231678 68.140136,109.48854 51.668788,112.99754 39.589417,105.65471 26.392879,97.632778 22.630421,79.846099 30.60842,66.824445 39.269391,52.688048 58.371899,48.672062 72.335668,57.285485 87.412074,66.585228 91.681647,87.003965 82.432592,101.90971 72.494292,117.92625 50.758998,122.44946 34.911381,112.5646 17.954617,101.98792 13.17773,78.9358 23.698531,62.146409 34.913446,44.249332 59.282619,39.218731 77.013704,50.375595 95.851167,62.228621 101.13551,87.915038 89.342481,106.58775 76.85145,126.36566 49.847627,131.90377 30.233345,119.47449 9.5149377,106.34554 3.7230356,78.024175 16.788641,57.468373 30.555427,35.809422 60.194463,29.763709 81.69174,43.465706 c 22.30001,14.213643 28.79149,44.611726 15.051405,67.016174"
       transform="matrix(1.2607525,0,0,0.09490421,42.869779,56.17623)" />
    <rect
       style="fill:#735000;fill-opacity:1;stroke-width:0.674935;stroke-linecap:square;stroke-miterlimit:3.5;stroke-dasharray:none;paint-order:fill markers stroke"
       id="rect32340"
       width="118.3204"
       height="9.647604"
       x="56.169861"
       y="70.053177" />
    <rect
       style="fill:#d19200;fill-opacity:1;stroke-width:0.674935;stroke-linecap:square;stroke-miterlimit:3.5;stroke-dasharray:none;paint-order:fill markers stroke"
       id="rect32342"
       width="118.3204"
       height="9.647604"
       x="56.169861"
       y="69.458321" />
    <path
       sodipodi:type="spiral"
       style="opacity:0.0940779;fill:none;fill-opacity:1;fill-rule:evenodd;stroke:#fffff6;stroke-width:4.28331;stroke-dasharray:none;stroke-opacity:1"
       id="path32344"
       sodipodi:cx="54.793034"
       sodipodi:cy="83.197571"
       sodipodi:expansion="1"
       sodipodi:revolution="5.9970603"
       sodipodi:radius="50.042439"
       sodipodi:argument="-24.537615"
       sodipodi:t0="0"
       d="m 54.793034,83.197571 c 1.039352,0.703648 -0.435724,1.748181 -1.169509,1.727472 -1.988514,-0.05612 -2.765517,-2.439662 -2.285436,-4.06649 0.858751,-2.910014 4.352637,-3.904474 6.963472,-2.843399 3.831504,1.557169 5.070823,6.289264 3.401362,9.860453 -2.225129,4.759833 -8.233985,6.248463 -12.757434,3.959326 -5.6923,-2.880646 -7.431865,-10.18249 -4.51729,-15.654416 3.529941,-6.627236 12.133112,-8.618589 18.551397,-5.075253 7.563728,4.175699 9.807397,14.085051 5.633217,21.448379 C 63.793557,101.0549 52.574944,103.55124 44.267453,98.744822 34.827954,93.283469 32.078689,80.753517 37.51831,71.502481 43.620743,61.124217 57.463504,58.121839 67.657632,64.195374 78.975047,70.93815 82.230681,86.094797 75.522702,97.231678 68.140136,109.48854 51.668788,112.99754 39.589417,105.65471 26.392879,97.632778 22.630421,79.846099 30.60842,66.824445 39.269391,52.688048 58.371899,48.672062 72.335668,57.285485 87.412074,66.585228 91.681647,87.003965 82.432592,101.90971 72.494292,117.92625 50.758998,122.44946 34.911381,112.5646 17.954617,101.98792 13.17773,78.9358 23.698531,62.146409 34.913446,44.249332 59.282619,39.218731 77.013704,50.375595 95.851167,62.228621 101.13551,87.915038 89.342481,106.58775 76.85145,126.36566 49.847627,131.90377 30.233345,119.47449 9.5149377,106.34554 3.7230356,78.024175 16.788641,57.468373 30.555427,35.809422 60.194463,29.763709 81.69174,43.465706 c 22.30001,14.213643 28.79149,44.611726 15.051405,67.016174"
       transform="matrix(1.2607525,0,0,0.09490421,42.994348,66.784113)" />
    <rect
       style="fill:#735000;fill-opacity:1;stroke-width:0.674935;stroke-linecap:square;stroke-miterlimit:3.5;stroke-dasharray:none;paint-order:fill markers stroke"
       id="rect32346"
       width="118.3204"
       height="9.647604"
       x="56.170433"
       y="80.69986" />
    <rect
       style="fill:#d19200;fill-opacity:1;stroke-width:0.674935;stroke-linecap:square;stroke-miterlimit:3.5;stroke-dasharray:none;paint-order:fill markers stroke"
       id="rect32348"
       width="118.3204"
       height="9.647604"
       x="56.170433"
       y="80.104996" />
    <path
       sodipodi:type="spiral"
       style="opacity:0.0940779;fill:none;fill-opacity:1;fill-rule:evenodd;stroke:#fffff6;stroke-width:4.28331;stroke-dasharray:none;stroke-opacity:1"
       id="path32350"
       sodipodi:cx="54.793034"
       sodipodi:cy="83.197571"
       sodipodi:expansion="1"
       sodipodi:revolution="5.9970603"
       sodipodi:radius="50.042439"
       sodipodi:argument="-24.537615"
       sodipodi:t0="0"
       d="m 54.793034,83.197571 c 1.039352,0.703648 -0.435724,1.748181 -1.169509,1.727472 -1.988514,-0.05612 -2.765517,-2.439662 -2.285436,-4.06649 0.858751,-2.910014 4.352637,-3.904474 6.963472,-2.843399 3.831504,1.557169 5.070823,6.289264 3.401362,9.860453 -2.225129,4.759833 -8.233985,6.248463 -12.757434,3.959326 -5.6923,-2.880646 -7.431865,-10.18249 -4.51729,-15.654416 3.529941,-6.627236 12.133112,-8.618589 18.551397,-5.075253 7.563728,4.175699 9.807397,14.085051 5.633217,21.448379 C 63.793557,101.0549 52.574944,103.55124 44.267453,98.744822 34.827954,93.283469 32.078689,80.753517 37.51831,71.502481 43.620743,61.124217 57.463504,58.121839 67.657632,64.195374 78.975047,70.93815 82.230681,86.094797 75.522702,97.231678 68.140136,109.48854 51.668788,112.99754 39.589417,105.65471 26.392879,97.632778 22.630421,79.846099 30.60842,66.824445 39.269391,52.688048 58.371899,48.672062 72.335668,57.285485 87.412074,66.585228 91.681647,87.003965 82.432592,101.90971 72.494292,117.92625 50.758998,122.44946 34.911381,112.5646 17.954617,101.98792 13.17773,78.9358 23.698531,62.146409 34.913446,44.249332 59.282619,39.218731 77.013704,50.375595 95.851167,62.228621 101.13551,87.915038 89.342481,106.58775 76.85145,126.36566 49.847627,131.90377 30.233345,119.47449 9.5149377,106.34554 3.7230356,78.024175 16.788641,57.468373 30.555427,35.809422 60.194463,29.763709 81.69174,43.465706 c 22.30001,14.213643 28.79149,44.611726 15.051405,67.016174"
       transform="matrix(1.2607525,0,0,0.09490421,42.994917,77.430785)" />
    <rect
       style="fill:#735000;fill-opacity:1;stroke-width:0.674935;stroke-linecap:square;stroke-miterlimit:3.5;stroke-dasharray:none;paint-order:fill markers stroke"
       id="rect32352"
       width="118.3204"
       height="9.647604"
       x="56.199978"
       y="91.276917" />
    <rect
       style="fill:#d19200;fill-opacity:1;stroke-width:0.674935;stroke-linecap:square;stroke-miterlimit:3.5;stroke-dasharray:none;paint-order:fill markers stroke"
       id="rect32354"
       width="118.3204"
       height="9.647604"
       x="56.199978"
       y="90.682053" />
    <path
       sodipodi:type="spiral"
       style="opacity:0.0940779;fill:none;fill-opacity:1;fill-rule:evenodd;stroke:#fffff6;stroke-width:4.28331;stroke-dasharray:none;stroke-opacity:1"
       id="path32356"
       sodipodi:cx="54.793034"
       sodipodi:cy="83.197571"
       sodipodi:expansion="1"
       sodipodi:revolution="5.9970603"
       sodipodi:radius="50.042439"
       sodipodi:argument="-24.537615"
       sodipodi:t0="0"
       d="m 54.793034,83.197571 c 1.039352,0.703648 -0.435724,1.748181 -1.169509,1.727472 -1.988514,-0.05612 -2.765517,-2.439662 -2.285436,-4.06649 0.858751,-2.910014 4.352637,-3.904474 6.963472,-2.843399 3.831504,1.557169 5.070823,6.289264 3.401362,9.860453 -2.225129,4.759833 -8.233985,6.248463 -12.757434,3.959326 -5.6923,-2.880646 -7.431865,-10.18249 -4.51729,-15.654416 3.529941,-6.627236 12.133112,-8.618589 18.551397,-5.075253 7.563728,4.175699 9.807397,14.085051 5.633217,21.448379 C 63.793557,101.0549 52.574944,103.55124 44.267453,98.744822 34.827954,93.283469 32.078689,80.753517 37.51831,71.502481 43.620743,61.124217 57.463504,58.121839 67.657632,64.195374 78.975047,70.93815 82.230681,86.094797 75.522702,97.231678 68.140136,109.48854 51.668788,112.99754 39.589417,105.65471 26.392879,97.632778 22.630421,79.846099 30.60842,66.824445 39.269391,52.688048 58.371899,48.672062 72.335668,57.285485 87.412074,66.585228 91.681647,87.003965 82.432592,101.90971 72.494292,117.92625 50.758998,122.44946 34.911381,112.5646 17.954617,101.98792 13.17773,78.9358 23.698531,62.146409 34.913446,44.249332 59.282619,39.218731 77.013704,50.375595 95.851167,62.228621 101.13551,87.915038 89.342481,106.58775 76.85145,126.36566 49.847627,131.90377 30.233345,119.47449 9.5149377,106.34554 3.7230356,78.024175 16.788641,57.468373 30.555427,35.809422 60.194463,29.763709 81.69174,43.465706 c 22.30001,14.213643 28.79149,44.611726 15.051405,67.016174"
       transform="matrix(1.2607525,0,0,0.09490421,43.024464,88.007845)" />
    <rect
       style="fill:#735000;fill-opacity:1;stroke-width:0.674935;stroke-linecap:square;stroke-miterlimit:3.5;stroke-dasharray:none;paint-order:fill markers stroke"
       id="rect32358"
       width="118.3204"
       height="9.647604"
       x="56.324547"
       y="101.8848" />
    <rect
       style="fill:#d19200;fill-opacity:1;stroke-width:0.674935;stroke-linecap:square;stroke-miterlimit:3.5;stroke-dasharray:none;paint-order:fill markers stroke"
       id="rect32360"
       width="118.3204"
       height="9.647604"
       x="56.324547"
       y="101.28994" />
    <path
       sodipodi:type="spiral"
       style="opacity:0.0940779;fill:none;fill-opacity:1;fill-rule:evenodd;stroke:#fffff6;stroke-width:4.28331;stroke-dasharray:none;stroke-opacity:1"
       id="path32362"
       sodipodi:cx="54.793034"
       sodipodi:cy="83.197571"
       sodipodi:expansion="1"
       sodipodi:revolution="5.9970603"
       sodipodi:radius="50.042439"
       sodipodi:argument="-24.537615"
       sodipodi:t0="0"
       d="m 54.793034,83.197571 c 1.039352,0.703648 -0.435724,1.748181 -1.169509,1.727472 -1.988514,-0.05612 -2.765517,-2.439662 -2.285436,-4.06649 0.858751,-2.910014 4.352637,-3.904474 6.963472,-2.843399 3.831504,1.557169 5.070823,6.289264 3.401362,9.860453 -2.225129,4.759833 -8.233985,6.248463 -12.757434,3.959326 -5.6923,-2.880646 -7.431865,-10.18249 -4.51729,-15.654416 3.529941,-6.627236 12.133112,-8.618589 18.551397,-5.075253 7.563728,4.175699 9.807397,14.085051 5.633217,21.448379 C 63.793557,101.0549 52.574944,103.55124 44.267453,98.744822 34.827954,93.283469 32.078689,80.753517 37.51831,71.502481 43.620743,61.124217 57.463504,58.121839 67.657632,64.195374 78.975047,70.93815 82.230681,86.094797 75.522702,97.231678 68.140136,109.48854 51.668788,112.99754 39.589417,105.65471 26.392879,97.632778 22.630421,79.846099 30.60842,66.824445 39.269391,52.688048 58.371899,48.672062 72.335668,57.285485 87.412074,66.585228 91.681647,87.003965 82.432592,101.90971 72.494292,117.92625 50.758998,122.44946 34.911381,112.5646 17.954617,101.98792 13.17773,78.9358 23.698531,62.146409 34.913446,44.249332 59.282619,39.218731 77.013704,50.375595 95.851167,62.228621 101.13551,87.915038 89.342481,106.58775 76.85145,126.36566 49.847627,131.90377 30.233345,119.47449 9.5149377,106.34554 3.7230356,78.024175 16.788641,57.468373 30.555427,35.809422 60.194463,29.763709 81.69174,43.465706 c 22.30001,14.213643 28.79149,44.611726 15.051405,67.016174"
       transform="matrix(1.2607525,0,0,0.09490421,43.149033,98.615735)" />
    <circle
       style="opacity:1;fill:url(#radialGradient34693);fill-opacity:1;stroke:#000000;stroke-width:0.071692;stroke-linecap:square;stroke-miterlimit:3.5;stroke-dasharray:none;stroke-opacity:1;paint-order:fill markers stroke"
       id="path34402"
       cx="77.323349"
       cy="106.79105"
       r="1.4196038" />
    <path
       sodipodi:type="star"
       style="opacity:1;fill:#3c3c3c;fill-opacity:1;stroke:#000000;stroke-width:0.1;stroke-linecap:square;stroke-miterlimit:3.5;stroke-dasharray:none;stroke-opacity:1;paint-order:fill markers stroke"
       id="path34747"
       inkscape:flatsided="false"
       sodipodi:sides="4"
       sodipodi:cx="107.9462"
       sodipodi:cy="116.76013"
       sodipodi:r1="1.0265721"
       sodipodi:r2="0.43647546"
       sodipodi:arg1="1.5307344"
       sodipodi:arg2="2.3161325"
       inkscape:rounded="0.19"
       inkscape:randomized="0"
       d="m 107.98731,117.78588 c -0.14836,0.006 -0.22803,-0.6043 -0.33714,-0.705 -0.10911,-0.1007 -0.72377,-0.13127 -0.72972,-0.27963 -0.006,-0.14836 0.6043,-0.22803 0.705,-0.33714 0.1007,-0.10912 0.13127,-0.72378 0.27963,-0.72973 0.14836,-0.006 0.22803,0.6043 0.33714,0.705 0.10911,0.1007 0.72378,0.13128 0.72973,0.27964 0.006,0.14836 -0.6043,0.22803 -0.705,0.33714 -0.10071,0.10911 -0.13128,0.72377 -0.27964,0.72972 z"
       inkscape:transform-center-y="-1.1688599e-06"
       transform="matrix(0.83727452,0,0,0.83727452,-13.009385,8.9997434)" />
    <circle
       style="opacity:1;fill:url(#radialGradient34753);fill-opacity:1;stroke:#000000;stroke-width:0.071692;stroke-linecap:square;stroke-miterlimit:3.5;stroke-dasharray:none;stroke-opacity:1;paint-order:fill markers stroke"
       id="circle34749"
       cx="77.526199"
       cy="95.620102"
       r="1.4196038" />
    <path
       sodipodi:type="star"
       style="opacity:1;fill:#3c3c3c;fill-opacity:1;stroke:#000000;stroke-width:0.1;stroke-linecap:square;stroke-miterlimit:3.5;stroke-dasharray:none;stroke-opacity:1;paint-order:fill markers stroke"
       id="path34751"
       inkscape:flatsided="false"
       sodipodi:sides="4"
       sodipodi:cx="107.9462"
       sodipodi:cy="116.76013"
       sodipodi:r1="1.0265721"
       sodipodi:r2="0.43647546"
       sodipodi:arg1="1.5307344"
       sodipodi:arg2="2.3161325"
       inkscape:rounded="0.19"
       inkscape:randomized="0"
       d="m 107.98731,117.78588 c -0.14836,0.006 -0.22803,-0.6043 -0.33714,-0.705 -0.10911,-0.1007 -0.72377,-0.13127 -0.72972,-0.27963 -0.006,-0.14836 0.6043,-0.22803 0.705,-0.33714 0.1007,-0.10912 0.13127,-0.72378 0.27963,-0.72973 0.14836,-0.006 0.22803,0.6043 0.33714,0.705 0.10911,0.1007 0.72378,0.13128 0.72973,0.27964 0.006,0.14836 -0.6043,0.22803 -0.705,0.33714 -0.10071,0.10911 -0.13128,0.72377 -0.27964,0.72972 z"
       inkscape:transform-center-y="-1.1688599e-06"
       transform="matrix(0.83727452,0,0,0.83727452,-12.806537,-2.1712062)" />
    <circle
       style="opacity:1;fill:url(#radialGradient34759);fill-opacity:1;stroke:#000000;stroke-width:0.071692;stroke-linecap:square;stroke-miterlimit:3.5;stroke-dasharray:none;stroke-opacity:1;paint-order:fill markers stroke"
       id="circle34755"
       cx="77.579918"
       cy="85.103233"
       r="1.4196038" />
    <path
       sodipodi:type="star"
       style="opacity:1;fill:#3c3c3c;fill-opacity:1;stroke:#000000;stroke-width:0.1;stroke-linecap:square;stroke-miterlimit:3.5;stroke-dasharray:none;stroke-opacity:1;paint-order:fill markers stroke"
       id="path34757"
       inkscape:flatsided="false"
       sodipodi:sides="4"
       sodipodi:cx="107.9462"
       sodipodi:cy="116.76013"
       sodipodi:r1="1.0265721"
       sodipodi:r2="0.43647546"
       sodipodi:arg1="1.5307344"
       sodipodi:arg2="2.3161325"
       inkscape:rounded="0.19"
       inkscape:randomized="0"
       d="m 107.98731,117.78588 c -0.14836,0.006 -0.22803,-0.6043 -0.33714,-0.705 -0.10911,-0.1007 -0.72377,-0.13127 -0.72972,-0.27963 -0.006,-0.14836 0.6043,-0.22803 0.705,-0.33714 0.1007,-0.10912 0.13127,-0.72378 0.27963,-0.72973 0.14836,-0.006 0.22803,0.6043 0.33714,0.705 0.10911,0.1007 0.72378,0.13128 0.72973,0.27964 0.006,0.14836 -0.6043,0.22803 -0.705,0.33714 -0.10071,0.10911 -0.13128,0.72377 -0.27964,0.72972 z"
       inkscape:transform-center-y="-1.1688599e-06"
       transform="matrix(0.83727452,0,0,0.83727452,-12.752821,-12.688076)" />
    <circle
       style="opacity:1;fill:url(#radialGradient34765);fill-opacity:1;stroke:#000000;stroke-width:0.071692;stroke-linecap:square;stroke-miterlimit:3.5;stroke-dasharray:none;stroke-opacity:1;paint-order:fill markers stroke"
       id="circle34761"
       cx="77.484329"
       cy="73.702858"
       r="1.4196038" />
    <path
       sodipodi:type="star"
       style="opacity:1;fill:#3c3c3c;fill-opacity:1;stroke:#000000;stroke-width:0.1;stroke-linecap:square;stroke-miterlimit:3.5;stroke-dasharray:none;stroke-opacity:1;paint-order:fill markers stroke"
       id="path34763"
       inkscape:flatsided="false"
       sodipodi:sides="4"
       sodipodi:cx="107.9462"
       sodipodi:cy="116.76013"
       sodipodi:r1="1.0265721"
       sodipodi:r2="0.43647546"
       sodipodi:arg1="1.5307344"
       sodipodi:arg2="2.3161325"
       inkscape:rounded="0.19"
       inkscape:randomized="0"
       d="m 107.98731,117.78588 c -0.14836,0.006 -0.22803,-0.6043 -0.33714,-0.705 -0.10911,-0.1007 -0.72377,-0.13127 -0.72972,-0.27963 -0.006,-0.14836 0.6043,-0.22803 0.705,-0.33714 0.1007,-0.10912 0.13127,-0.72378 0.27963,-0.72973 0.14836,-0.006 0.22803,0.6043 0.33714,0.705 0.10911,0.1007 0.72378,0.13128 0.72973,0.27964 0.006,0.14836 -0.6043,0.22803 -0.705,0.33714 -0.10071,0.10911 -0.13128,0.72377 -0.27964,0.72972 z"
       inkscape:transform-center-y="-1.1688599e-06"
       transform="matrix(0.83727452,0,0,0.83727452,-12.848413,-24.088454)" />
    <circle
       style="opacity:1;fill:url(#radialGradient34771);fill-opacity:1;stroke:#000000;stroke-width:0.071692;stroke-linecap:square;stroke-miterlimit:3.5;stroke-dasharray:none;stroke-opacity:1;paint-order:fill markers stroke"
       id="circle34767"
       cx="77.205147"
       cy="63.821365"
       r="1.4196038" />
    <path
       sodipodi:type="star"
       style="opacity:1;fill:#3c3c3c;fill-opacity:1;stroke:#000000;stroke-width:0.1;stroke-linecap:square;stroke-miterlimit:3.5;stroke-dasharray:none;stroke-opacity:1;paint-order:fill markers stroke"
       id="path34769"
       inkscape:flatsided="false"
       sodipodi:sides="4"
       sodipodi:cx="107.9462"
       sodipodi:cy="116.76013"
       sodipodi:r1="1.0265721"
       sodipodi:r2="0.43647546"
       sodipodi:arg1="1.5307344"
       sodipodi:arg2="2.3161325"
       inkscape:rounded="0.19"
       inkscape:randomized="0"
       d="m 107.98731,117.78588 c -0.14836,0.006 -0.22803,-0.6043 -0.33714,-0.705 -0.10911,-0.1007 -0.72377,-0.13127 -0.72972,-0.27963 -0.006,-0.14836 0.6043,-0.22803 0.705,-0.33714 0.1007,-0.10912 0.13127,-0.72378 0.27963,-0.72973 0.14836,-0.006 0.22803,0.6043 0.33714,0.705 0.10911,0.1007 0.72378,0.13128 0.72973,0.27964 0.006,0.14836 -0.6043,0.22803 -0.705,0.33714 -0.10071,0.10911 -0.13128,0.72377 -0.27964,0.72972 z"
       inkscape:transform-center-y="-1.1688599e-06"
       transform="matrix(0.83727452,0,0,0.83727452,-13.127599,-33.969948)" />
    <circle
       style="opacity:1;fill:url(#radialGradient34777);fill-opacity:1;stroke:#000000;stroke-width:0.071692;stroke-linecap:square;stroke-miterlimit:3.5;stroke-dasharray:none;stroke-opacity:1;paint-order:fill markers stroke"
       id="circle34773"
       cx="77.363991"
       cy="53.065205"
       r="1.4196038" />
    <path
       sodipodi:type="star"
       style="opacity:1;fill:#3c3c3c;fill-opacity:1;stroke:#000000;stroke-width:0.1;stroke-linecap:square;stroke-miterlimit:3.5;stroke-dasharray:none;stroke-opacity:1;paint-order:fill markers stroke"
       id="path34775"
       inkscape:flatsided="false"
       sodipodi:sides="4"
       sodipodi:cx="107.9462"
       sodipodi:cy="116.76013"
       sodipodi:r1="1.0265721"
       sodipodi:r2="0.43647546"
       sodipodi:arg1="1.5307344"
       sodipodi:arg2="2.3161325"
       inkscape:rounded="0.19"
       inkscape:randomized="0"
       d="m 107.98731,117.78588 c -0.14836,0.006 -0.22803,-0.6043 -0.33714,-0.705 -0.10911,-0.1007 -0.72377,-0.13127 -0.72972,-0.27963 -0.006,-0.14836 0.6043,-0.22803 0.705,-0.33714 0.1007,-0.10912 0.13127,-0.72378 0.27963,-0.72973 0.14836,-0.006 0.22803,0.6043 0.33714,0.705 0.10911,0.1007 0.72378,0.13128 0.72973,0.27964 0.006,0.14836 -0.6043,0.22803 -0.705,0.33714 -0.10071,0.10911 -0.13128,0.72377 -0.27964,0.72972 z"
       inkscape:transform-center-y="-1.1688599e-06"
       transform="matrix(0.83727452,0,0,0.83727452,-12.968759,-44.726107)" />
    <circle
       style="opacity:1;fill:url(#radialGradient34813);fill-opacity:1;stroke:#000000;stroke-width:0.071692;stroke-linecap:square;stroke-miterlimit:3.5;stroke-dasharray:none;stroke-opacity:1;paint-order:fill markers stroke"
       id="circle34779"
       cx="157.99173"
       cy="106.44115"
       r="1.4196038" />
    <path
       sodipodi:type="star"
       style="opacity:1;fill:#3c3c3c;fill-opacity:1;stroke:#000000;stroke-width:0.1;stroke-linecap:square;stroke-miterlimit:3.5;stroke-dasharray:none;stroke-opacity:1;paint-order:fill markers stroke"
       id="path34781"
       inkscape:flatsided="false"
       sodipodi:sides="4"
       sodipodi:cx="107.9462"
       sodipodi:cy="116.76013"
       sodipodi:r1="1.0265721"
       sodipodi:r2="0.43647546"
       sodipodi:arg1="1.5307344"
       sodipodi:arg2="2.3161325"
       inkscape:rounded="0.19"
       inkscape:randomized="0"
       d="m 107.98731,117.78588 c -0.14836,0.006 -0.22803,-0.6043 -0.33714,-0.705 -0.10911,-0.1007 -0.72377,-0.13127 -0.72972,-0.27963 -0.006,-0.14836 0.6043,-0.22803 0.705,-0.33714 0.1007,-0.10912 0.13127,-0.72378 0.27963,-0.72973 0.14836,-0.006 0.22803,0.6043 0.33714,0.705 0.10911,0.1007 0.72378,0.13128 0.72973,0.27964 0.006,0.14836 -0.6043,0.22803 -0.705,0.33714 -0.10071,0.10911 -0.13128,0.72377 -0.27964,0.72972 z"
       inkscape:transform-center-y="-1.1688599e-06"
       transform="matrix(0.83727452,0,0,0.83727452,67.658987,8.6498409)" />
    <circle
       style="opacity:1;fill:url(#radialGradient34811);fill-opacity:1;stroke:#000000;stroke-width:0.071692;stroke-linecap:square;stroke-miterlimit:3.5;stroke-dasharray:none;stroke-opacity:1;paint-order:fill markers stroke"
       id="circle34783"
       cx="158.19458"
       cy="95.270195"
       r="1.4196038" />
    <path
       sodipodi:type="star"
       style="opacity:1;fill:#3c3c3c;fill-opacity:1;stroke:#000000;stroke-width:0.1;stroke-linecap:square;stroke-miterlimit:3.5;stroke-dasharray:none;stroke-opacity:1;paint-order:fill markers stroke"
       id="path34785"
       inkscape:flatsided="false"
       sodipodi:sides="4"
       sodipodi:cx="107.9462"
       sodipodi:cy="116.76013"
       sodipodi:r1="1.0265721"
       sodipodi:r2="0.43647546"
       sodipodi:arg1="1.5307344"
       sodipodi:arg2="2.3161325"
       inkscape:rounded="0.19"
       inkscape:randomized="0"
       d="m 107.98731,117.78588 c -0.14836,0.006 -0.22803,-0.6043 -0.33714,-0.705 -0.10911,-0.1007 -0.72377,-0.13127 -0.72972,-0.27963 -0.006,-0.14836 0.6043,-0.22803 0.705,-0.33714 0.1007,-0.10912 0.13127,-0.72378 0.27963,-0.72973 0.14836,-0.006 0.22803,0.6043 0.33714,0.705 0.10911,0.1007 0.72378,0.13128 0.72973,0.27964 0.006,0.14836 -0.6043,0.22803 -0.705,0.33714 -0.10071,0.10911 -0.13128,0.72377 -0.27964,0.72972 z"
       inkscape:transform-center-y="-1.1688599e-06"
       transform="matrix(0.83727452,0,0,0.83727452,67.861835,-2.5211087)" />
    <circle
       style="opacity:1;fill:url(#radialGradient34809);fill-opacity:1;stroke:#000000;stroke-width:0.071692;stroke-linecap:square;stroke-miterlimit:3.5;stroke-dasharray:none;stroke-opacity:1;paint-order:fill markers stroke"
       id="circle34787"
       cx="158.24829"
       cy="84.753326"
       r="1.4196038" />
    <path
       sodipodi:type="star"
       style="opacity:1;fill:#3c3c3c;fill-opacity:1;stroke:#000000;stroke-width:0.1;stroke-linecap:square;stroke-miterlimit:3.5;stroke-dasharray:none;stroke-opacity:1;paint-order:fill markers stroke"
       id="path34789"
       inkscape:flatsided="false"
       sodipodi:sides="4"
       sodipodi:cx="107.9462"
       sodipodi:cy="116.76013"
       sodipodi:r1="1.0265721"
       sodipodi:r2="0.43647546"
       sodipodi:arg1="1.5307344"
       sodipodi:arg2="2.3161325"
       inkscape:rounded="0.19"
       inkscape:randomized="0"
       d="m 107.98731,117.78588 c -0.14836,0.006 -0.22803,-0.6043 -0.33714,-0.705 -0.10911,-0.1007 -0.72377,-0.13127 -0.72972,-0.27963 -0.006,-0.14836 0.6043,-0.22803 0.705,-0.33714 0.1007,-0.10912 0.13127,-0.72378 0.27963,-0.72973 0.14836,-0.006 0.22803,0.6043 0.33714,0.705 0.10911,0.1007 0.72378,0.13128 0.72973,0.27964 0.006,0.14836 -0.6043,0.22803 -0.705,0.33714 -0.10071,0.10911 -0.13128,0.72377 -0.27964,0.72972 z"
       inkscape:transform-center-y="-1.1688599e-06"
       transform="matrix(0.83727452,0,0,0.83727452,67.915551,-13.037978)" />
    <circle
       style="opacity:1;fill:url(#radialGradient34807);fill-opacity:1;stroke:#000000;stroke-width:0.071692;stroke-linecap:square;stroke-miterlimit:3.5;stroke-dasharray:none;stroke-opacity:1;paint-order:fill markers stroke"
       id="circle34791"
       cx="158.15271"
       cy="73.352951"
       r="1.4196038" />
    <path
       sodipodi:type="star"
       style="opacity:1;fill:#3c3c3c;fill-opacity:1;stroke:#000000;stroke-width:0.1;stroke-linecap:square;stroke-miterlimit:3.5;stroke-dasharray:none;stroke-opacity:1;paint-order:fill markers stroke"
       id="path34793"
       inkscape:flatsided="false"
       sodipodi:sides="4"
       sodipodi:cx="107.9462"
       sodipodi:cy="116.76013"
       sodipodi:r1="1.0265721"
       sodipodi:r2="0.43647546"
       sodipodi:arg1="1.5307344"
       sodipodi:arg2="2.3161325"
       inkscape:rounded="0.19"
       inkscape:randomized="0"
       d="m 107.98731,117.78588 c -0.14836,0.006 -0.22803,-0.6043 -0.33714,-0.705 -0.10911,-0.1007 -0.72377,-0.13127 -0.72972,-0.27963 -0.006,-0.14836 0.6043,-0.22803 0.705,-0.33714 0.1007,-0.10912 0.13127,-0.72378 0.27963,-0.72973 0.14836,-0.006 0.22803,0.6043 0.33714,0.705 0.10911,0.1007 0.72378,0.13128 0.72973,0.27964 0.006,0.14836 -0.6043,0.22803 -0.705,0.33714 -0.10071,0.10911 -0.13128,0.72377 -0.27964,0.72972 z"
       inkscape:transform-center-y="-1.1688599e-06"
       transform="matrix(0.83727452,0,0,0.83727452,67.819959,-24.438356)" />
    <circle
       style="opacity:1;fill:url(#radialGradient34805);fill-opacity:1;stroke:#000000;stroke-width:0.071692;stroke-linecap:square;stroke-miterlimit:3.5;stroke-dasharray:none;stroke-opacity:1;paint-order:fill markers stroke"
       id="circle34795"
       cx="157.87352"
       cy="63.471466"
       r="1.4196038" />
    <path
       sodipodi:type="star"
       style="opacity:1;fill:#3c3c3c;fill-opacity:1;stroke:#000000;stroke-width:0.1;stroke-linecap:square;stroke-miterlimit:3.5;stroke-dasharray:none;stroke-opacity:1;paint-order:fill markers stroke"
       id="path34797"
       inkscape:flatsided="false"
       sodipodi:sides="4"
       sodipodi:cx="107.9462"
       sodipodi:cy="116.76013"
       sodipodi:r1="1.0265721"
       sodipodi:r2="0.43647546"
       sodipodi:arg1="1.5307344"
       sodipodi:arg2="2.3161325"
       inkscape:rounded="0.19"
       inkscape:randomized="0"
       d="m 107.98731,117.78588 c -0.14836,0.006 -0.22803,-0.6043 -0.33714,-0.705 -0.10911,-0.1007 -0.72377,-0.13127 -0.72972,-0.27963 -0.006,-0.14836 0.6043,-0.22803 0.705,-0.33714 0.1007,-0.10912 0.13127,-0.72378 0.27963,-0.72973 0.14836,-0.006 0.22803,0.6043 0.33714,0.705 0.10911,0.1007 0.72378,0.13128 0.72973,0.27964 0.006,0.14836 -0.6043,0.22803 -0.705,0.33714 -0.10071,0.10911 -0.13128,0.72377 -0.27964,0.72972 z"
       inkscape:transform-center-y="-1.1688599e-06"
       transform="matrix(0.83727452,0,0,0.83727452,67.540773,-34.31985)" />
    <circle
       style="opacity:1;fill:url(#radialGradient34803);fill-opacity:1;stroke:#000000;stroke-width:0.071692;stroke-linecap:square;stroke-miterlimit:3.5;stroke-dasharray:none;stroke-opacity:1;paint-order:fill markers stroke"
       id="circle34799"
       cx="158.03236"
       cy="52.715305"
       r="1.4196038" />
    <path
       sodipodi:type="star"
       style="opacity:1;fill:#3c3c3c;fill-opacity:1;stroke:#000000;stroke-width:0.1;stroke-linecap:square;stroke-miterlimit:3.5;stroke-dasharray:none;stroke-opacity:1;paint-order:fill markers stroke"
       id="path34801"
       inkscape:flatsided="false"
       sodipodi:sides="4"
       sodipodi:cx="107.9462"
       sodipodi:cy="116.76013"
       sodipodi:r1="1.0265721"
       sodipodi:r2="0.43647546"
       sodipodi:arg1="1.5307344"
       sodipodi:arg2="2.3161325"
       inkscape:rounded="0.19"
       inkscape:randomized="0"
       d="m 107.98731,117.78588 c -0.14836,0.006 -0.22803,-0.6043 -0.33714,-0.705 -0.10911,-0.1007 -0.72377,-0.13127 -0.72972,-0.27963 -0.006,-0.14836 0.6043,-0.22803 0.705,-0.33714 0.1007,-0.10912 0.13127,-0.72378 0.27963,-0.72973 0.14836,-0.006 0.22803,0.6043 0.33714,0.705 0.10911,0.1007 0.72378,0.13128 0.72973,0.27964 0.006,0.14836 -0.6043,0.22803 -0.705,0.33714 -0.10071,0.10911 -0.13128,0.72377 -0.27964,0.72972 z"
       inkscape:transform-center-y="-1.1688599e-06"
       transform="matrix(0.83727452,0,0,0.83727452,67.699613,-45.076009)" />
  </g>
</svg>
