<?xml version="1.0" encoding="UTF-8" standalone="no"?>
<!-- Created with Inkscape (http://www.inkscape.org/) -->

<svg
   xmlns:dc="http://purl.org/dc/elements/1.1/"
   xmlns:cc="http://creativecommons.org/ns#"
   xmlns:rdf="http://www.w3.org/1999/02/22-rdf-syntax-ns#"
   xmlns:svg="http://www.w3.org/2000/svg"
   xmlns="http://www.w3.org/2000/svg"
   xmlns:sodipodi="http://sodipodi.sourceforge.net/DTD/sodipodi-0.dtd"
   xmlns:inkscape="http://www.inkscape.org/namespaces/inkscape"
   width="210mm"
   height="297mm"
   viewBox="0 0 210 297"
   version="1.1"
   id="svg24"
   inkscape:version="0.92.2 5c3e80d, 2017-08-06"
   sodipodi:docname="leaves1.svg">
  <defs
     id="defs18" />
  <sodipodi:namedview
     id="base"
     pagecolor="#ffffff"
     bordercolor="#666666"
     borderopacity="1.0"
     inkscape:pageopacity="0.0"
     inkscape:pageshadow="2"
     inkscape:zoom="2.8"
     inkscape:cx="180.46714"
     inkscape:cy="600.88286"
     inkscape:document-units="mm"
     inkscape:current-layer="layer1"
     showgrid="false"
     inkscape:snap-global="false"
     inkscape:window-width="2560"
     inkscape:window-height="1342"
     inkscape:window-x="1440"
     inkscape:window-y="1"
     inkscape:window-maximized="1" />
  <metadata
     id="metadata21">
    <rdf:RDF>
      <cc:Work
         rdf:about="">
        <dc:format>image/svg+xml</dc:format>
        <dc:type
           rdf:resource="http://purl.org/dc/dcmitype/StillImage" />
        <dc:title></dc:title>
      </cc:Work>
    </rdf:RDF>
  </metadata>
  <g
     inkscape:label="Layer 1"
     inkscape:groupmode="layer"
     id="layer1">
    <path
       style="fill:#d85a00;fill-opacity:1;stroke:none;stroke-width:0.20453145px;stroke-linecap:butt;stroke-linejoin:miter;stroke-opacity:1"
       d="m 46.593777,143.06732 c 0,0 0.411406,-7.52492 3.150772,-7.59285 1.48593,-0.0369 0.470854,3.66148 1.911124,4.02886 2.866493,0.73118 4.739525,-6.88937 7.179627,-5.21685 0.71995,0.49347 -1.355493,1.98877 -0.671475,2.53095 2.553305,2.02387 6.662381,-7.19704 8.625883,-4.59703 1.973975,2.61388 -8.293292,4.15183 -6.818064,7.07632 0.477068,0.94574 2.842115,-1.4265 3.150772,-0.41321 0.834648,2.74004 -7.942154,0.96848 -7.696146,3.82225 0.11416,1.32428 3.93115,-0.18839 3.822247,1.13634 -0.305672,3.71825 -11.105179,1.3946 -11.105179,1.3946 l -1.807819,-0.36156 z"
       id="path28"
       inkscape:connector-curvature="0"
       sodipodi:nodetypes="caaaaaaaaac" />
    <path
       style="fill:none;stroke:#a02d00;stroke-width:0.20453145px;stroke-linecap:butt;stroke-linejoin:miter;stroke-opacity:1"
       d="m 36.728248,148.95565 c 0,0 9.119037,-3.78802 13.532822,-5.99164 2.717087,-1.35652 5.408184,-2.78693 7.954406,-4.44207 2.959282,-1.92364 8.470927,-6.35319 8.470927,-6.35319"
       id="path30"
       inkscape:connector-curvature="0"
       sodipodi:nodetypes="caac" />
    <path
       sodipodi:nodetypes="caaaaaaaaac"
       inkscape:connector-curvature="0"
       id="path4592"
       d="m 87.552832,142.53278 c 0,0 0.411406,-7.52492 3.150772,-7.59285 1.48593,-0.0369 0.470854,3.66148 1.911124,4.02886 2.866493,0.73118 4.739525,-6.88937 7.179627,-5.21685 0.719945,0.49347 -1.355493,1.98877 -0.671475,2.53095 2.5533,2.02387 6.66238,-7.19704 8.62588,-4.59703 1.97398,2.61388 -8.293289,4.15183 -6.81806,7.07632 0.47706,0.94574 2.84211,-1.4265 3.15077,-0.41321 0.83465,2.74004 -7.942153,0.96848 -7.696145,3.82225 0.11416,1.32428 3.931145,-0.18839 3.822245,1.13634 -0.30567,3.71825 -11.105177,1.3946 -11.105177,1.3946 l -1.807819,-0.36156 z"
       style="fill:#84c600;fill-opacity:1;stroke:none;stroke-width:0.20453145px;stroke-linecap:butt;stroke-linejoin:miter;stroke-opacity:1" />
    <path
       sodipodi:nodetypes="caac"
       inkscape:connector-curvature="0"
       id="path4594"
       d="m 77.687303,148.42111 c 0,0 9.119037,-3.78802 13.532822,-5.99164 2.717087,-1.35652 5.408184,-2.78693 7.954406,-4.44207 2.959279,-1.92364 8.470929,-6.35319 8.470929,-6.35319"
       style="fill:none;stroke:#678a00;stroke-width:0.20453145px;stroke-linecap:butt;stroke-linejoin:miter;stroke-opacity:1" />
    <path
       style="fill:#84c600;fill-opacity:1;stroke:#83b000;stroke-width:0.20453145px;stroke-linecap:butt;stroke-linejoin:miter;stroke-opacity:1"
       d="m 91.628692,116.87491 c 0,0 0.411406,-7.52492 3.150772,-7.59285 1.48593,-0.0369 0.470854,3.66148 1.911124,4.02886 2.866493,0.73118 4.739522,-6.88937 7.179622,-5.21685 0.71995,0.49347 -1.35549,1.98877 -0.67147,2.53095 2.5533,2.02387 6.66238,-7.19704 8.62588,-4.59703 1.97398,2.61388 -8.29329,4.15183 -6.81806,7.07632 0.47706,0.94574 2.84211,-1.4265 3.15077,-0.41321 0.83465,2.74004 -7.94215,0.96848 -7.69615,3.82225 0.11416,1.32428 3.93115,-0.18839 3.82225,1.13634 -0.30567,3.71825 -11.105177,1.3946 -11.105177,1.3946 l -1.807819,-0.36156 z"
       id="path4617"
       inkscape:connector-curvature="0"
       sodipodi:nodetypes="caaaaaaaaac" />
    <path
       style="fill:none;stroke:#678a00;stroke-width:0.20453145px;stroke-linecap:butt;stroke-linejoin:miter;stroke-opacity:1"
       d="m 81.763163,122.76324 c 0,0 9.119037,-3.78802 13.532822,-5.99164 2.717087,-1.35652 5.408185,-2.78693 7.954405,-4.44207 2.95928,-1.92364 8.47093,-6.35319 8.47093,-6.35319"
       id="path4619"
       inkscape:connector-curvature="0"
       sodipodi:nodetypes="caac" />
    <path
       sodipodi:nodetypes="caaaaaaaaac"
       inkscape:connector-curvature="0"
       id="path4621"
       d="m 47.79649,117.00854 c 0,0 0.411406,-7.52492 3.150772,-7.59285 1.48593,-0.0369 0.470854,3.66148 1.911124,4.02886 2.866493,0.73118 4.739525,-6.88937 7.179627,-5.21685 0.71995,0.49347 -1.355493,1.98877 -0.671475,2.53095 2.553305,2.02387 6.662381,-7.19704 8.625883,-4.59703 1.973975,2.61388 -8.293292,4.15183 -6.818064,7.07632 0.477068,0.94574 2.842115,-1.4265 3.150772,-0.41321 0.834648,2.74004 -7.942154,0.96848 -7.696146,3.82225 0.11416,1.32428 3.93115,-0.18839 3.822247,1.13634 -0.305672,3.71825 -11.105179,1.3946 -11.105179,1.3946 l -1.807819,-0.36156 z"
       style="fill:#d85a00;fill-opacity:1;stroke:#b34b00;stroke-width:0.20453145px;stroke-linecap:butt;stroke-linejoin:miter;stroke-opacity:1" />
    <path
       sodipodi:nodetypes="caac"
       inkscape:connector-curvature="0"
       id="path4623"
       d="m 37.930961,122.89687 c 0,0 9.119037,-3.78802 13.532822,-5.99164 2.717087,-1.35652 5.408184,-2.78693 7.954406,-4.44207 2.959282,-1.92364 8.470927,-6.35319 8.470927,-6.35319"
       style="fill:none;stroke:#a02d00;stroke-width:0.20453145px;stroke-linecap:butt;stroke-linejoin:miter;stroke-opacity:1" />
    <path
       style="fill:#84c600;fill-opacity:1;stroke:none;stroke-width:0.20453145px;stroke-linecap:butt;stroke-linejoin:miter;stroke-opacity:1"
       d="m 109.32466,157.61297 c -2.1368,-0.005 -5.56228,6.83363 -7.79642,5.06274 -0.68402,-0.54218 1.39174,-2.03764 0.67179,-2.53111 -1.11026,-0.76101 -2.10437,0.40665 -3.126934,1.83141 l 0.228409,0.7829 -0.419095,-0.51522 c -0.461946,0.65272 -0.930658,1.333 -1.421619,1.8986 l 0.103354,0.35398 -0.200506,-0.2465 c -0.720434,0.80145 -1.48744,1.33045 -2.343526,1.11208 -1.44027,-0.36738 -0.425064,-4.06611 -1.910995,-4.02921 -1.601338,0.0397 -2.404087,2.62381 -2.797244,4.76715 0.518702,0.7251 0.152955,1.09967 -0.199988,1.27796 -0.116554,0.90348 -0.15348,1.54771 -0.15348,1.54771 l -0.258381,1.80815 1.807641,0.36122 c 0,0 2.918793,0.6228 5.765022,0.70332 l -0.522965,-1.01079 1.22835,1.02422 c 2.364287,-0.0154 4.501287,-0.48627 4.634857,-2.11098 0.1089,-1.32473 -3.707826,0.18792 -3.821989,-1.13636 -0.246007,-2.85377 8.530819,-1.08247 7.696169,-3.82251 -0.30865,-1.01329 -2.67416,1.35915 -3.15123,0.41341 -1.47523,-2.92449 8.79216,-4.46269 6.81819,-7.07657 -0.24544,-0.325 -0.52415,-0.46495 -0.82941,-0.4656 z"
       id="path4625"
       inkscape:connector-curvature="0" />
    <path
       style="fill:none;stroke:#678a00;stroke-width:0.20453145px;stroke-linecap:butt;stroke-linejoin:miter;stroke-opacity:1"
       d="m 80.092729,174.81398 c 0,0 9.119037,-3.78802 13.532822,-5.99164 2.717087,-1.35652 5.408184,-2.78693 7.954399,-4.44207 2.95929,-1.92364 8.47093,-6.35319 8.47093,-6.35319"
       id="path4627"
       inkscape:connector-curvature="0"
       sodipodi:nodetypes="caac" />
    <path
       id="path4663"
       d="m 67.831071,160.21885 c -2.136804,-0.005 -5.56228,6.83362 -7.796421,5.06274 -0.68402,-0.54218 1.391742,-2.03765 0.671792,-2.53111 -1.110263,-0.76101 -2.104374,0.40665 -3.126941,1.83141 l 0.22841,0.7829 -0.419095,-0.51522 c -0.461946,0.65272 -0.930658,1.333 -1.421619,1.8986 l 0.103354,0.35398 -0.200507,-0.2465 c -0.720434,0.80145 -1.487439,1.33045 -2.343525,1.11208 -1.44027,-0.36738 -0.425064,-4.06611 -1.910996,-4.02921 -1.601337,0.0397 -2.404086,2.62381 -2.797243,4.76715 0.518702,0.7251 0.152955,1.09967 -0.199988,1.27796 -0.116555,0.90348 -0.15348,1.5477 -0.15348,1.5477 l -0.258381,1.80816 1.807641,0.36122 c 0,0 2.918793,0.6228 5.765022,0.70332 l -0.522965,-1.01079 1.228349,1.02422 c 2.364293,-0.0154 4.501293,-0.48627 4.63486,-2.11098 0.108902,-1.32473 -3.707828,0.18792 -3.821991,-1.13636 -0.246007,-2.85377 8.53082,-1.08247 7.696171,-3.82251 -0.308647,-1.01329 -2.67416,1.35915 -3.151227,0.41341 -1.47523,-2.92449 8.792162,-4.46269 6.818188,-7.07657 -0.245438,-0.325 -0.52415,-0.46496 -0.829408,-0.4656 z"
       style="fill:#d85a00;fill-opacity:1;stroke:none;stroke-width:0.20453145px;stroke-linecap:butt;stroke-linejoin:miter;stroke-opacity:1"
       inkscape:connector-curvature="0" />
    <path
       sodipodi:nodetypes="caac"
       inkscape:connector-curvature="0"
       id="path4665"
       d="m 38.599135,177.41986 c 0,0 9.119037,-3.78802 13.532822,-5.99164 2.717087,-1.35652 5.408184,-2.78693 7.954406,-4.44207 2.959282,-1.92364 8.470927,-6.35319 8.470927,-6.35319"
       style="fill:none;stroke:#a02d00;stroke-width:0.20453145px;stroke-linecap:butt;stroke-linejoin:miter;stroke-opacity:1" />
    <path
       style="fill:#62c600;fill-opacity:1;stroke:none;stroke-width:0.20453145px;stroke-linecap:butt;stroke-linejoin:miter;stroke-opacity:1"
       d="m 128.51188,143.66868 c 0,0 0.41141,-7.52492 3.15078,-7.59285 1.48593,-0.0369 0.47085,3.66148 1.91112,4.02886 2.86649,0.73118 4.73953,-6.88937 7.17963,-5.21685 0.71995,0.49347 -1.3555,1.98877 -0.67148,2.53095 2.55331,2.02387 6.66238,-7.19704 8.62589,-4.59703 1.97397,2.61388 -8.2933,4.15183 -6.81807,7.07632 0.47707,0.94574 2.84212,-1.4265 3.15077,-0.41321 0.83465,2.74004 -7.94215,0.96848 -7.69614,3.82225 0.11416,1.32428 3.93115,-0.18839 3.82224,1.13634 -0.30567,3.71825 -11.10517,1.3946 -11.10517,1.3946 l -1.80782,-0.36156 z"
       id="path4667"
       inkscape:connector-curvature="0"
       sodipodi:nodetypes="caaaaaaaaac" />
    <path
       style="fill:none;stroke:#678a00;stroke-width:0.20453145px;stroke-linecap:butt;stroke-linejoin:miter;stroke-opacity:1"
       d="m 118.64636,149.55701 c 0,0 9.11903,-3.78802 13.53282,-5.99164 2.71708,-1.35652 5.40818,-2.78693 7.9544,-4.44207 2.95929,-1.92364 8.47093,-6.35319 8.47093,-6.35319"
       id="path4669"
       inkscape:connector-curvature="0"
       sodipodi:nodetypes="caac" />
    <path
       sodipodi:nodetypes="caaaaaaaaac"
       inkscape:connector-curvature="0"
       id="path4671"
       d="m 132.58774,118.01081 c 0,0 0.41141,-7.52492 3.15078,-7.59285 1.48593,-0.0369 0.47085,3.66148 1.91112,4.02886 2.86649,0.73118 4.73953,-6.88937 7.17963,-5.21685 0.71995,0.49347 -1.3555,1.98877 -0.67148,2.53095 2.55331,2.02387 6.66238,-7.19704 8.62588,-4.59703 1.97398,2.61388 -8.29329,4.15183 -6.81806,7.07632 0.47707,0.94574 2.84212,-1.4265 3.15077,-0.41321 0.83465,2.74004 -7.94215,0.96848 -7.69614,3.82225 0.11416,1.32428 3.93115,-0.18839 3.82224,1.13634 -0.30567,3.71825 -11.10517,1.3946 -11.10517,1.3946 l -1.80782,-0.36156 z"
       style="fill:#62c600;fill-opacity:1;stroke:#83b000;stroke-width:0.20453145px;stroke-linecap:butt;stroke-linejoin:miter;stroke-opacity:1" />
    <path
       sodipodi:nodetypes="caac"
       inkscape:connector-curvature="0"
       id="path4673"
       d="m 122.72222,123.89914 c 0,0 9.11903,-3.78802 13.53282,-5.99164 2.71708,-1.35652 5.40818,-2.78693 7.9544,-4.44207 2.95929,-1.92364 8.47093,-6.35319 8.47093,-6.35319"
       style="fill:none;stroke:#678a00;stroke-width:0.20453145px;stroke-linecap:butt;stroke-linejoin:miter;stroke-opacity:1" />
    <path
       id="path4675"
       d="m 150.28372,158.74886 c -2.13681,-0.005 -5.56228,6.83363 -7.79642,5.06275 -0.68402,-0.54219 1.39174,-2.03765 0.67179,-2.53112 -1.11026,-0.761 -2.10438,0.40666 -3.12694,1.83142 l 0.22841,0.78289 -0.4191,-0.51521 c -0.46194,0.65272 -0.93066,1.333 -1.42162,1.89859 l 0.10336,0.35399 -0.20051,-0.2465 c -0.72043,0.80145 -1.48744,1.33044 -2.34352,1.11208 -1.44027,-0.36738 -0.42507,-4.06612 -1.911,-4.02921 -1.60134,0.0397 -2.40409,2.62381 -2.79724,4.76714 0.5187,0.72511 0.15295,1.09967 -0.19999,1.27796 -0.11656,0.90349 -0.15348,1.54771 -0.15348,1.54771 l -0.25838,1.80816 1.80764,0.36122 c 0,0 2.91879,0.6228 5.76502,0.70331 l -0.52296,-1.01079 1.22834,1.02423 c 2.3643,-0.0154 4.5013,-0.48628 4.63486,-2.11098 0.10891,-1.32473 -3.70782,0.18791 -3.82199,-1.13637 -0.246,-2.85377 8.53082,-1.08246 7.69617,-3.8225 -0.30864,-1.01329 -2.67416,1.35915 -3.15122,0.41341 -1.47523,-2.92449 8.79216,-4.46269 6.81819,-7.07657 -0.24544,-0.325 -0.52415,-0.46496 -0.82941,-0.46561 z"
       style="fill:#62c600;fill-opacity:1;stroke:none;stroke-width:0.20453145px;stroke-linecap:butt;stroke-linejoin:miter;stroke-opacity:1"
       inkscape:connector-curvature="0" />
    <path
       sodipodi:nodetypes="caac"
       inkscape:connector-curvature="0"
       id="path4677"
       d="m 121.05178,175.94988 c 0,0 9.11904,-3.78802 13.53282,-5.99164 2.71709,-1.35652 5.40819,-2.78693 7.95441,-4.44207 2.95928,-1.92364 8.47093,-6.35319 8.47093,-6.35319"
       style="fill:none;stroke:#678a00;stroke-width:0.20453145px;stroke-linecap:butt;stroke-linejoin:miter;stroke-opacity:1" />
    <path
       style="opacity:0.68699999;fill:#c013c6;fill-opacity:0.94312798;stroke:none;stroke-width:0.26458332px;stroke-linecap:butt;stroke-linejoin:miter;stroke-opacity:1"
       d="m 129.50301,142.91436 c -0.81856,-1.16122 0.12395,-2.89714 0.66818,-4.2095 0.23209,-0.55966 0.46561,-1.52387 1.06908,-1.46998 0.76399,0.0682 0.90726,1.31022 1.00226,2.07134 0.10982,0.87988 -0.12541,1.81919 -0.53454,2.60587 -0.25444,0.48923 -0.61147,1.03224 -1.1359,1.20272 -0.34481,0.11209 -0.86018,0.0959 -1.06908,-0.20045 z"
       id="path4679"
       inkscape:connector-curvature="0"
       sodipodi:nodetypes="aaaaaaa" />
    <path
       sodipodi:nodetypes="aaaaaaa"
       inkscape:connector-curvature="0"
       id="path4681"
       d="m 132.89683,144.19961 c 0.95977,-1.04754 2.85684,-0.49722 4.25512,-0.24562 0.5963,0.1073 1.58813,0.12965 1.66428,0.73072 0.0964,0.76094 -1.0864,1.16599 -1.80971,1.42124 -0.83617,0.29507 -1.80404,0.26574 -2.65992,0.0339 -0.53226,-0.14417 -1.13896,-0.37708 -1.41743,-0.85304 -0.1831,-0.31295 -0.27728,-0.8199 -0.0323,-1.08723 z"
       style="opacity:0.68699999;fill:#c013c6;fill-opacity:0.94312798;stroke:none;stroke-width:0.26458332px;stroke-linecap:butt;stroke-linejoin:miter;stroke-opacity:1" />
    <path
       sodipodi:nodetypes="aaaaaaa"
       inkscape:connector-curvature="0"
       id="path4683"
       d="m 137.1793,138.91056 c -0.35839,-0.67783 0.51213,-1.50784 1.06098,-2.14957 0.23406,-0.27368 0.52932,-0.75925 0.91306,-0.67994 0.48581,0.10038 0.39377,0.76342 0.34204,1.17035 -0.0598,0.47042 -0.35248,0.94279 -0.7353,1.32045 -0.23807,0.23488 -0.55076,0.48925 -0.9166,0.53422 -0.24054,0.0297 -0.57272,-0.0225 -0.66418,-0.19551 z"
       style="opacity:0.68699999;fill:#c013c6;fill-opacity:0.94312798;stroke:none;stroke-width:0.15716222px;stroke-linecap:butt;stroke-linejoin:miter;stroke-opacity:1" />
    <path
       style="opacity:0.68699999;fill:#c013c6;fill-opacity:0.94312798;stroke:none;stroke-width:0.10335457px;stroke-linecap:butt;stroke-linejoin:miter;stroke-opacity:1"
       d="m 139.05111,140.22321 c 0.25955,-0.4009 1.12395,-0.25717 1.74042,-0.20624 0.26291,0.0217 0.67926,0.002 0.79157,0.21465 0.1422,0.2691 -0.29646,0.44673 -0.56368,0.55804 -0.30893,0.12869 -0.71624,0.14516 -1.104,0.0862 -0.24115,-0.0367 -0.52523,-0.10296 -0.70508,-0.26521 -0.11834,-0.10663 -0.22549,-0.28513 -0.15923,-0.38744 z"
       id="path4685"
       inkscape:connector-curvature="0"
       sodipodi:nodetypes="aaaaaaa" />
    <path
       style="fill:#e21ee7;fill-opacity:0.53554508;stroke:none;stroke-width:0.04882448px;stroke-linecap:butt;stroke-linejoin:miter;stroke-opacity:1"
       d="m 133.76718,140.60873 c -0.22119,0.0717 -0.46357,0.50813 -0.39271,0.83038 0.0708,0.32194 0.43652,0.45014 0.64446,0.31706 0.16431,-0.10517 0.28404,-0.46864 0.2316,-0.7247 -0.0548,-0.26734 -0.30104,-0.48185 -0.48335,-0.42274 z"
       id="path4687"
       inkscape:connector-curvature="0"
       sodipodi:nodetypes="aaaaa" />
    <path
       sodipodi:nodetypes="aaaaa"
       inkscape:connector-curvature="0"
       id="path4689"
       d="m 136.78312,141.67362 c -0.12135,0.0371 -0.2477,0.23782 -0.20244,0.38027 0.0452,0.14231 0.25042,0.19124 0.36329,0.12697 0.0892,-0.0508 0.14887,-0.21604 0.11505,-0.32933 -0.0353,-0.11828 -0.17588,-0.20852 -0.2759,-0.17791 z"
       style="fill:#e21ee7;fill-opacity:0.53554508;stroke:none;stroke-width:0.02433365px;stroke-linecap:butt;stroke-linejoin:miter;stroke-opacity:1" />
    <path
       sodipodi:nodetypes="caaaaaaaaac"
       inkscape:connector-curvature="0"
       id="path4691"
       d="M 30.455078 132.30078 C 30.202992 132.39227 29.968885 132.52487 29.748044 132.67591 C 29.519627 132.82924 29.309359 133.00767 29.101562 133.1875 C 28.569334 133.72524 28.038512 134.26436 27.513638 134.80929 C 27.125795 135.20768 26.741554 135.60966 26.351879 136.00621 C 26.071634 136.27765 25.792176 136.55103 25.4847 136.79203 C 25.273003 136.96361 25.049705 137.12143 24.810703 137.25283 C 24.587415 137.37616 24.352099 137.48396 24.101091 137.53582 C 23.825822 137.60695 23.533696 137.55222 23.274021 137.44942 C 23.038845 137.3567 22.827214 137.10617 22.911071 136.8415 C 22.964803 136.59718 23.132127 136.40065 23.249988 136.18539 C 23.426307 135.89645 23.609398 135.61151 23.775391 135.31641 C 23.883625 135.07202 23.760278 134.75793 23.509252 134.66046 C 23.267499 134.55116 22.988423 134.50459 22.726562 134.55859 C 22.455945 134.62792 22.215313 134.77912 21.997567 134.95007 C 21.60543 135.26543 21.277193 135.65094 20.976337 136.05221 C 20.51332 136.65743 20.061651 137.27123 19.60261 137.87946 C 19.414267 138.12837 19.231646 138.38221 19.023438 138.61523 C 18.849319 138.81815 18.686745 139.03246 18.488281 139.21289 C 18.298903 139.39575 18.091069 139.55882 17.867737 139.69824 C 17.626142 139.83506 17.368129 139.95778 17.089719 139.99173 C 16.830094 140.02196 16.548335 140.01448 16.314222 139.88572 C 16.123808 139.77594 15.985356 139.59148 15.90625 139.38867 C 15.808932 139.16222 15.748172 138.92226 15.707749 138.67963 C 15.622859 138.21267 15.558114 137.74228 15.479281 137.27427 C 15.439228 137.00316 15.374486 136.73486 15.279916 136.47752 C 15.200504 136.24123 15.019791 136.03137 14.767578 135.97852 C 14.514069 135.92445 14.250092 135.99175 14.018683 136.09749 C 13.779938 136.21813 13.571691 136.3924 13.39171 136.58893 C 13.096566 136.9074 12.885311 137.29194 12.698912 137.68122 C 12.492967 138.10585 12.349832 138.55721 12.212891 139.00781 C 12.093719 139.40151 11.998849 139.80213 11.910773 140.20374 C 11.825912 140.6482 11.732923 141.09158 11.677734 141.54102 C 11.532143 142.62807 11.391122 143.71573 11.253591 144.80383 C 11.230259 144.98511 11.206926 145.16638 11.183594 145.34766 C 12.230336 145.54972 13.277863 145.74763 14.326172 145.94141 C 14.873747 146.02746 15.421923 146.1095 15.970703 146.1875 C 16.674182 146.25518 17.376724 146.33801 18.083072 146.36993 C 18.513372 146.39313 18.944139 146.40562 19.375 146.41211 C 19.853172 146.39619 20.332462 146.3923 20.808445 146.33908 C 21.094728 146.30806 21.38094 146.2719 21.664016 146.2189 C 21.928691 146.17095 22.189534 146.102 22.443866 146.01465 C 22.702545 145.92723 22.953667 145.81523 23.184494 145.66869 C 23.411548 145.53084 23.61778 145.35588 23.777344 145.14258 C 23.932271 144.90524 24.055199 144.63469 24.083226 144.35017 C 24.107062 144.13336 23.964848 143.93057 23.777344 143.83398 C 23.539774 143.73923 23.276326 143.74978 23.024825 143.74084 C 22.372724 143.73208 21.719904 143.76985 21.068359 143.72852 C 20.805858 143.71092 20.506229 143.63702 20.365404 143.39232 C 20.231356 143.16521 20.265008 142.87743 20.361328 142.64258 C 20.462825 142.40197 20.656171 142.21034 20.876816 142.0761 C 21.105956 141.93564 21.354569 141.8277 21.609268 141.7426 C 21.889199 141.64235 22.181458 141.58475 22.471878 141.52434 C 22.863269 141.44125 23.260577 141.3919 23.655303 141.32782 C 24.403036 141.2105 25.151931 141.10082 25.900391 140.98828 C 26.201634 140.92813 26.505814 140.87763 26.79889 140.7833 C 27.057511 140.70443 27.312479 140.6064 27.543356 140.46408 C 27.783788 140.33105 27.964217 140.08895 28.006615 139.81568 C 28.043018 139.61993 28.015506 139.39741 27.878906 139.24414 C 27.712234 139.06423 27.436531 139.10456 27.234455 139.19586 C 26.801671 139.37626 26.376905 139.57527 25.947538 139.7636 C 25.711368 139.86575 25.472689 140.00689 25.205078 139.97852 C 24.985857 139.96663 24.816566 139.79481 24.751953 139.59375 C 24.662742 139.31674 24.670754 139.00553 24.783772 138.73642 C 24.883639 138.49642 25.059224 138.2992 25.230469 138.10742 C 25.415618 137.91488 25.620175 137.74211 25.84123 137.59214 C 26.074459 137.43101 26.311712 137.27526 26.553603 137.12738 C 26.998567 136.86349 27.456938 136.6233 27.914286 136.3818 C 28.589547 136.02551 29.261171 135.66239 29.933594 135.30078 C 30.178513 135.16018 30.421452 135.01565 30.658753 134.86257 C 30.960149 134.66333 31.253281 134.44513 31.495589 134.17526 C 31.64562 134.00943 31.782004 133.82139 31.84375 133.60352 C 31.900825 133.39063 31.885804 133.15472 31.781104 132.95869 C 31.653104 132.69764 31.45968 132.45646 31.193359 132.32812 C 30.962362 132.23527 30.689328 132.20156 30.455078 132.30078 z "
       style="fill:#d85a00;fill-opacity:1;stroke:none;stroke-width:0.20453145px;stroke-linecap:butt;stroke-linejoin:miter;stroke-opacity:1" />
    <path
       sodipodi:nodetypes="caac"
       inkscape:connector-curvature="0"
       id="path4693"
       d="m 1.5764617,149.42812 c 0,0 9.1190373,-3.78802 13.5328223,-5.99164 2.717087,-1.35652 5.408184,-2.78693 7.954406,-4.44207 2.959282,-1.92364 8.470927,-6.35319 8.470927,-6.35319"
       style="fill:none;stroke:#a02d00;stroke-width:0.20453145px;stroke-linecap:butt;stroke-linejoin:miter;stroke-opacity:1" />
    <path
       style="fill:#d85a00;fill-opacity:1;stroke:#b34b00;stroke-width:0.77303225px;stroke-linecap:butt;stroke-linejoin:miter;stroke-opacity:1"
       d="M 120.44141 401.53125 C 119.32367 401.78326 118.36591 402.44249 117.40234 403.0293 C 114.30312 405.44962 111.49543 408.21016 108.64143 410.90772 C 106.37294 413.08106 104.10444 415.25439 101.83594 417.42773 C 100.89909 418.1862 99.96224 418.94466 99.025391 419.70312 C 97.997443 420.19007 96.984743 420.73071 95.918406 421.12267 C 94.920367 421.38883 93.885235 421.15087 92.890625 420.99023 C 92.092097 420.7735 91.519475 420.00548 91.451172 419.19336 C 91.426415 418.31781 91.877587 417.52138 92.242809 416.75397 C 92.811917 415.63712 93.408881 414.53253 93.914062 413.38477 C 94.288434 412.66963 94.273368 411.76889 93.75 411.12891 C 93.163196 410.34213 92.103889 410.18728 91.189187 410.2564 C 89.734642 410.37029 88.422938 411.17698 87.423991 412.20532 C 86.186443 413.42674 85.072467 414.76414 83.93533 416.07762 C 81.268846 419.24903 78.649885 422.45996 76.003906 425.64844 C 74.855469 426.76042 73.707031 427.8724 72.558594 428.98438 C 71.568519 429.47915 70.548782 429.91015 69.535156 430.35352 C 68.417006 430.56286 67.23254 430.44827 66.193359 429.97656 C 65.158867 429.04787 64.535684 427.73494 64.279297 426.38281 C 63.675781 423.64974 63.072266 420.91667 62.46875 418.18359 C 62.197769 417.20196 61.563931 416.28844 60.638672 415.82617 C 59.363962 415.53329 57.958648 415.79562 56.917969 416.60156 C 56.072777 417.25107 55.311379 418.00015 54.582031 418.77539 C 53.597691 420.46254 52.705637 422.20997 52.041867 424.04983 C 50.747288 427.47492 49.986013 431.07212 49.364741 434.67215 C 48.614791 438.87224 47.977874 443.09112 47.322266 447.30664 C 47.257282 448.27286 46.810166 449.23931 47.115234 450.20703 C 47.715911 451.06864 48.849863 451.11955 49.787134 451.31364 C 53.222447 451.96046 56.660351 452.59327 60.099609 453.21875 C 63.537793 453.61572 66.977898 453.99526 70.419922 454.35742 C 73.101391 454.45731 75.785014 454.48851 78.467929 454.51208 C 79.94437 454.50024 81.415586 454.35592 82.886968 454.24734 C 85.196838 454.03583 87.530508 453.7543 89.720316 452.95031 C 90.899769 452.51347 92.070442 451.98166 93.033203 451.15625 C 93.749117 450.48378 94.301316 449.66602 94.837891 448.84961 C 95.400226 447.93237 95.534149 446.6162 94.731572 445.79332 C 94.004191 445.05503 92.892685 445.02932 91.923828 444.9707 C 89.398179 444.86226 86.871675 444.77451 84.345703 444.67383 C 83.378298 444.56692 82.392502 444.1405 81.826172 443.31836 C 81.366465 442.53973 81.38251 441.54141 81.76606 440.73636 C 82.260234 439.67836 83.220603 438.91928 84.224609 438.36914 C 85.169088 437.8606 86.19567 437.53565 87.231346 437.27089 C 89.431592 436.70918 91.665131 436.28789 93.884766 435.81055 C 97.464377 435.08042 101.04713 434.36589 104.62891 433.64648 C 105.87419 433.34937 107.08211 432.91535 108.25391 432.40234 C 109.30202 431.84273 110.04917 430.78543 110.27148 429.62305 C 110.36133 428.73289 109.72204 427.75189 108.79777 427.65234 C 107.77572 427.56387 106.81667 428.0508 105.88686 428.4078 C 104.41221 429.00168 102.93755 429.59557 101.46289 430.18945 C 100.48242 430.49725 99.266664 430.3107 98.613281 429.45898 C 98.006713 428.63509 97.989794 427.5136 98.301017 426.57173 C 98.774225 425.03949 99.857383 423.76542 101.12271 422.81309 C 102.5691 421.66152 104.15136 420.69744 105.71103 419.70994 C 109.2094 417.58107 112.76121 415.54172 116.29429 413.47131 C 117.23788 412.90703 118.20662 412.38185 119.13563 411.7949 C 120.38626 410.92072 121.62382 410.02834 122.85352 409.125 C 123.68158 408.48743 124.19445 407.53398 124.5067 406.55409 C 124.90041 405.78108 124.81176 404.8505 124.42969 404.0918 C 123.92384 403.17358 123.22101 402.30789 122.25586 401.84961 C 121.68982 401.60885 121.05892 401.45206 120.44141 401.53125 z M 56.726562 429.72852 C 57.572029 430.23063 57.684778 431.53135 58.726562 431.75781 C 59.524955 431.12346 60.703111 432.29318 60.110068 433.11463 C 59.712844 434.02637 58.673968 434.45093 57.739736 434.54882 C 56.975421 434.52192 56.278716 434.1074 55.511719 434.05078 C 54.593063 433.64774 54.729662 432.40753 55.349609 431.79492 C 55.818639 431.26197 56.090461 430.60932 56.236328 429.93359 C 56.338664 429.78167 56.538322 429.64364 56.726562 429.72852 z "
       transform="scale(0.26458333)"
       id="path4695" />
    <path
       style="fill:none;stroke:#a02d00;stroke-width:0.20453145px;stroke-linecap:butt;stroke-linejoin:miter;stroke-opacity:1"
       d="m 2.7791746,123.36934 c 0,0 9.1190374,-3.78802 13.5328224,-5.99164 2.717087,-1.35652 5.408184,-2.78693 7.954406,-4.44207 2.959282,-1.92364 8.470927,-6.35319 8.470927,-6.35319"
       id="path4697"
       inkscape:connector-curvature="0"
       sodipodi:nodetypes="caac" />
    <path
       inkscape:connector-curvature="0"
       style="fill:#d85a00;fill-opacity:1;stroke:none;stroke-width:0.20453145px;stroke-linecap:butt;stroke-linejoin:miter;stroke-opacity:1"
       d="m 32.679285,160.69132 c -2.136804,-0.005 -5.56228,6.83362 -7.796421,5.06274 -0.68402,-0.54218 1.391742,-2.03765 0.671792,-2.53111 -1.110263,-0.76101 -2.104374,0.40665 -3.126941,1.83141 l 0.22841,0.7829 -0.419095,-0.51522 c -0.461946,0.65272 -0.930658,1.333 -1.421619,1.8986 l 0.103354,0.35398 -0.200507,-0.2465 c -0.720434,0.80145 -1.487439,1.33045 -2.343525,1.11208 -1.44027,-0.36738 -0.425064,-4.06611 -1.910996,-4.02921 -1.601337,0.0397 -2.404086,2.62381 -2.797243,4.76715 0.518702,0.7251 0.152955,1.09967 -0.199988,1.27796 -0.116555,0.90348 -0.15348,1.5477 -0.15348,1.5477 l -0.258381,1.80816 1.807641,0.36122 c 0,0 2.918793,0.6228 5.765022,0.70332 l -0.522965,-1.01079 1.228349,1.02422 c 2.364293,-0.0154 4.501293,-0.48627 4.63486,-2.11098 0.108902,-1.32473 -3.707828,0.18792 -3.821991,-1.13636 -0.246007,-2.85377 8.53082,-1.08247 7.696171,-3.82251 -0.308647,-1.01329 -2.67416,1.35915 -3.151227,0.41341 -1.47523,-2.92449 8.792162,-4.46269 6.818188,-7.07657 -0.245438,-0.325 -0.52415,-0.46496 -0.829408,-0.4656 z"
       id="path4699" />
    <path
       style="fill:none;stroke:#a02d00;stroke-width:0.20453145px;stroke-linecap:butt;stroke-linejoin:miter;stroke-opacity:1"
       d="m 3.4473486,177.89233 c 0,0 9.1190374,-3.78802 13.5328224,-5.99164 2.717087,-1.35652 5.408184,-2.78693 7.954406,-4.44207 2.959282,-1.92364 8.470927,-6.35319 8.470927,-6.35319"
       id="path4701"
       inkscape:connector-curvature="0"
       sodipodi:nodetypes="caac" />
  </g>
</svg>
