<?xml version="1.0" encoding="UTF-8" standalone="no"?>
<!-- Created with Inkscape (http://www.inkscape.org/) -->

<svg
   width="126.68313"
   height="161.30322"
   viewBox="0 0 33.518243 42.678145"
   version="1.1"
   id="svg40514"
   sodipodi:docname="upgrade.svg"
   inkscape:version="1.2 (56b05e47e7, 2022-06-09, custom)"
   xmlns:inkscape="http://www.inkscape.org/namespaces/inkscape"
   xmlns:sodipodi="http://sodipodi.sourceforge.net/DTD/sodipodi-0.dtd"
   xmlns="http://www.w3.org/2000/svg"
   xmlns:svg="http://www.w3.org/2000/svg">
  <sodipodi:namedview
     id="namedview40516"
     pagecolor="#636363"
     bordercolor="#666666"
     borderopacity="1.0"
     inkscape:showpageshadow="2"
     inkscape:pageopacity="0"
     inkscape:pagecheckerboard="0"
     inkscape:deskcolor="#d1d1d1"
     inkscape:document-units="mm"
     showgrid="false"
     inkscape:zoom="0.84096521"
     inkscape:cx="232.47097"
     inkscape:cy="258.03683"
     inkscape:window-width="960"
     inkscape:window-height="995"
     inkscape:window-x="1920"
     inkscape:window-y="0"
     inkscape:window-maximized="0"
     inkscape:current-layer="layer1" />
  <defs
     id="defs40511">
    <filter
       inkscape:collect="always"
       style="color-interpolation-filters:sRGB"
       id="filter76742"
       x="-0.045222348"
       y="-0.034834908"
       width="1.0905188"
       height="1.0696698">
      <feGaussianBlur
         inkscape:collect="always"
         stdDeviation="0.54898392"
         id="feGaussianBlur76744" />
    </filter>
  </defs>
  <g
     inkscape:label="Layer 1"
     inkscape:groupmode="layer"
     id="layer1"
     transform="translate(-10.578485,-5.7271091)">
    <path
       id="path76740"
       style="opacity:0.995382;fill:#000000;fill-opacity:1;stroke:#000000;stroke-width:0.144593;stroke-linejoin:round;stroke-dasharray:none;stroke-opacity:0.479569;filter:url(#filter76742)"
       inkscape:transform-center-x="-0.43695294"
       inkscape:transform-center-y="-2.4069245"
       d="m 27.286593,7.1171072 c -0.06051,-5.05e-4 -0.120346,2.98e-4 -0.180408,0.00334 C 23.011473,7.3355313 18.457334,15.171094 16.44874,18.745788 14.563205,22.101491 10.452699,29.7998 12.549495,33.02773 c 1.246991,1.9197 4.622387,2.775143 8.074395,3.148608 v 7.101886 c 0,2.070749 1.666421,3.737172 3.737168,3.73717 h 5.913267 c 2.070746,0 3.738302,-1.666421 3.738302,-3.73717 V 36.102769 C 37.566339,35.688021 41.202581,34.764454 42.26407,32.680574 44.125157,29.026912 39.615976,21.165622 37.524496,17.638784 35.591825,14.379733 31.093231,7.1495582 27.286659,7.1170004 Z" />
    <path
       id="path38862"
       style="opacity:0.995382;fill:#87df06;fill-opacity:1;stroke:#000000;stroke-width:0.144593;stroke-linejoin:round;stroke-dasharray:none;stroke-opacity:0.479569"
       inkscape:transform-center-x="-0.43695294"
       inkscape:transform-center-y="-2.4069245"
       d="m 27.286593,7.1171072 c -0.06051,-5.05e-4 -0.120346,2.98e-4 -0.180408,0.00334 C 23.011473,7.3355313 18.457334,15.171094 16.44874,18.745788 14.563205,22.101491 10.452699,29.7998 12.549495,33.02773 c 1.246991,1.9197 4.622387,2.775143 8.074395,3.148608 v 7.101886 c 0,2.070749 1.666421,3.737172 3.737168,3.73717 h 5.913267 c 2.070746,0 3.738302,-1.666421 3.738302,-3.73717 V 36.102769 C 37.566339,35.688021 41.202581,34.764454 42.26407,32.680574 44.125157,29.026912 39.615976,21.165622 37.524496,17.638784 35.591825,14.379733 31.093231,7.1495582 27.286659,7.1170004 Z" />
    <path
       id="path41791"
       style="opacity:0.995382;fill:#ffffff;fill-opacity:0.248257;stroke:none;stroke-width:0.144593;stroke-linejoin:round;stroke-dasharray:none;stroke-opacity:0.479569"
       inkscape:transform-center-x="-0.43695294"
       inkscape:transform-center-y="-2.4069245"
       d="m 27.286707,7.1168783 c -0.06051,-5.05e-4 -0.120289,5.753e-4 -0.180351,0.00362 -4.094708,0.2150839 -8.649156,8.0504397 -10.657748,11.6251307 -1.885533,3.355699 -5.99578,11.054405 -3.898986,14.282332 1.246989,1.919698 4.622438,2.774664 8.074442,3.148128 v 7.101893 c 0,2.070746 1.666495,3.737241 3.73724,3.737239 h 5.912817 c 0.337481,0 0.664028,-0.0451 0.974618,-0.128157 h -4.402832 c -2.070745,2e-6 -3.73724,-1.666493 -3.73724,-3.73724 V 36.047929 C 19.656662,35.674464 16.281214,34.818982 15.034224,32.899284 12.937431,29.671357 17.047678,21.973168 18.933211,18.617468 20.73498,15.410861 24.585181,8.7766497 28.314551,7.2889608 27.968037,7.1804607 27.624594,7.1197682 27.286707,7.1168783 Z" />
    <path
       id="path42159"
       style="opacity:0.995382;fill:#000000;fill-opacity:0.0834569;stroke:none;stroke-width:0.144593;stroke-linejoin:round;stroke-dasharray:none;stroke-opacity:0.479569"
       inkscape:transform-center-x="-0.43695294"
       inkscape:transform-center-y="-2.4069245"
       d="m 27.612785,7.1375488 c 3.299052,1.749248 6.708193,7.2472082 8.32404,9.9720012 2.091477,3.526834 6.600847,11.388318 4.739762,15.041976 -1.061488,2.083878 -4.697984,3.007266 -8.251693,3.422013 v 7.175273 c 0,2.070747 -1.667529,3.737239 -3.738273,3.737239 h -5.912817 c -0.123088,10e-7 -0.24487,-0.0061 -0.364836,-0.01757 0.567485,0.346881 1.235674,0.546738 1.952336,0.546737 h 5.912817 c 2.070744,0 3.738273,-1.666493 3.738273,-3.737239 V 36.102706 C 37.566103,35.687958 41.202599,34.76457 42.264087,32.680693 44.125172,29.027034 39.615802,21.165551 37.524325,17.638717 35.646584,14.472295 31.346827,7.5579178 27.612785,7.1375488 Z M 15.178402,34.960657 c 1.120173,0.461407 2.455537,0.781405 3.858162,1.004073 v -0.31781 c -1.337961,-0.144751 -2.662687,-0.362798 -3.858162,-0.686263 z" />
    <path
       id="path42273"
       style="opacity:0.995382;fill:#ffffff;fill-opacity:0.216776;stroke:none;stroke-width:0.0649999;stroke-linejoin:round;stroke-opacity:0.479569"
       d="m 19.649112,20.226881 c -0.05149,-0.03179 -0.103176,-0.06184 -0.156121,-0.09036 -3.613481,-1.937954 -11.569026,2.40314 -15.1393115,4.419551 -3.3515563,1.892888 -10.8563839,6.347299 -10.7358186,10.194573 0.053388,1.703765 1.422396,3.514033 3.2569666,5.198151 a 50.163738,18.561802 -180 0 0 16.8676575,1.088631 50.163738,18.561802 -180 0 0 8.914051,-0.29612 c 0.239221,-2.35309 0.281029,-4.643869 0.295883,-6.210368 0.03593,-3.78884 -0.06459,-12.303627 -3.303307,-14.304058 z"
       transform="rotate(-31.211974)" />
  </g>
</svg>
