<?xml version="1.0" encoding="UTF-8" standalone="no"?>
<!-- Created with Inkscape (http://www.inkscape.org/) -->

<svg
   xmlns:dc="http://purl.org/dc/elements/1.1/"
   xmlns:cc="http://creativecommons.org/ns#"
   xmlns:rdf="http://www.w3.org/1999/02/22-rdf-syntax-ns#"
   xmlns:svg="http://www.w3.org/2000/svg"
   xmlns="http://www.w3.org/2000/svg"
   xmlns:sodipodi="http://sodipodi.sourceforge.net/DTD/sodipodi-0.dtd"
   xmlns:inkscape="http://www.inkscape.org/namespaces/inkscape"
   width="2000"
   height="1400"
   viewBox="0 0 529.16664 370.41669"
   version="1.1"
   id="svg8"
   inkscape:version="0.92.3 (2405546, 2018-03-11)"
   sodipodi:docname="first_try.svg">
  <defs
     id="defs2" />
  <sodipodi:namedview
     id="base"
     pagecolor="#ffffff"
     bordercolor="#666666"
     borderopacity="1.0"
     inkscape:pageopacity="0.0"
     inkscape:pageshadow="2"
     inkscape:zoom="0.25"
     inkscape:cx="1795.3483"
     inkscape:cy="1040.65"
     inkscape:document-units="mm"
     inkscape:current-layer="layer1"
     showgrid="false"
     units="px"
     inkscape:showpageshadow="false"
     inkscape:snap-global="true"
     inkscape:object-paths="true"
     inkscape:window-width="1109"
     inkscape:window-height="1025"
     inkscape:window-x="0"
     inkscape:window-y="27"
     inkscape:window-maximized="0" />
  <metadata
     id="metadata5">
    <rdf:RDF>
      <cc:Work
         rdf:about="">
        <dc:format>image/svg+xml</dc:format>
        <dc:type
           rdf:resource="http://purl.org/dc/dcmitype/StillImage" />
        <dc:title></dc:title>
      </cc:Work>
    </rdf:RDF>
  </metadata>
  <g
     inkscape:label="Layer 1"
     inkscape:groupmode="layer"
     id="layer1"
     transform="translate(0,73.416684)">
    <path
       style="fill:#a17737;fill-opacity:1;stroke:none;stroke-width:0.21053021px;stroke-linecap:butt;stroke-linejoin:miter;stroke-opacity:1"
       d="m 174.625,73.713942 v 10e-7 l 21.80716,31.325287 106.70474,1.46075 20.03275,-18.187874 -26.45834,-19.863074 10.96129,-16.273359 -21.54462,-11.965709 0.37796,-5.743538 -19.27678,-3.589712 -6.04761,3.589712 -68.03572,4.068339 z"
       id="path1106"
       inkscape:connector-curvature="0"
       sodipodi:nodetypes="ccccccccccccc" />
    <path
       style="fill:#473418;fill-opacity:0.13559325;stroke:none;stroke-width:0.22677849px;stroke-linecap:butt;stroke-linejoin:miter;stroke-opacity:1"
       d="m 193.14583,38.534765 2.64583,4.376692 65.38989,-8.445031 z"
       id="path1110"
       inkscape:connector-curvature="0" />
    <path
       style="fill:#473418;fill-opacity:0.32768363;stroke:none;stroke-width:0.22677849px;stroke-linecap:butt;stroke-linejoin:miter;stroke-opacity:1"
       d="m 286.50594,34.466426 -0.37796,5.743538 -2.07888,1.174259 z"
       id="path1112"
       inkscape:connector-curvature="0" />
    <path
       style="fill:#473418;fill-opacity:0.19209038;stroke:none;stroke-width:0.22677849px;stroke-linecap:butt;stroke-linejoin:miter;stroke-opacity:1"
       d="m 286.12798,40.209964 -2.07888,1.174259 23.6235,10.79145 z"
       id="path1114"
       inkscape:connector-curvature="0" />
    <path
       style="fill:#473418;fill-opacity:0.19209038;stroke:none;stroke-width:0.22677849px;stroke-linecap:butt;stroke-linejoin:miter;stroke-opacity:1"
       d="m 267.22916,30.876712 19.27678,3.589714 -0.007,0.01922 -18.02689,-1.564707 z"
       id="path1116"
       inkscape:connector-curvature="0"
       sodipodi:nodetypes="ccccc" />
    <path
       style="fill:#473418;fill-opacity:0.2824859;stroke:none;stroke-width:0.22677849px;stroke-linecap:butt;stroke-linejoin:miter;stroke-opacity:1"
       d="m 268.47204,32.920943 -1.24288,-2.044231 -6.04761,3.589714 z"
       id="path1118"
       inkscape:connector-curvature="0" />
    <path
       style="fill:#d5b382;fill-opacity:0.36158196;stroke:none;stroke-width:0.22677849px;stroke-linecap:butt;stroke-linejoin:miter;stroke-opacity:1"
       d="M 195.79166,42.911457 261.18155,34.466426 256.31147,69.1473 203.92664,55.402883 Z"
       id="path1120"
       inkscape:connector-curvature="0"
       sodipodi:nodetypes="ccccc" />
    <path
       style="fill:#cea76e;fill-opacity:0.19209038;stroke:none;stroke-width:0.22677849px;stroke-linecap:butt;stroke-linejoin:miter;stroke-opacity:1"
       d="M 195.79166,42.911457 203.92664,55.402881 174.625,73.713942 Z"
       id="path1122"
       inkscape:connector-curvature="0"
       sodipodi:nodetypes="cccc" />
    <path
       style="fill:#7f5e2b;fill-opacity:0.60451977;stroke:none;stroke-width:0.22677849px;stroke-linecap:butt;stroke-linejoin:miter;stroke-opacity:1"
       d="M 203.92664,55.402881 174.625,73.713942 v 10e-7 l 32.05033,-11.771208 z"
       id="path1126"
       inkscape:connector-curvature="0"
       sodipodi:nodetypes="ccccc" />
    <path
       style="fill:#d0a770;fill-opacity:0.32203393;stroke:none;stroke-width:0.22677849px;stroke-linecap:butt;stroke-linejoin:miter;stroke-opacity:1"
       d="m 256.31147,69.147296 51.36113,-16.971623 -21.54462,-11.965709 0.37095,-5.724315 -19.26977,-3.608937 -6.04761,3.589714 z"
       id="path1130"
       inkscape:connector-curvature="0" />
    <path
       style="fill:#7d5c2b;fill-opacity:0.27118644;stroke:none;stroke-width:0.22677849px;stroke-linecap:butt;stroke-linejoin:miter;stroke-opacity:1"
       d="M 256.31147,69.147296 307.6726,52.175673 296.71131,68.449032 Z"
       id="path1132"
       inkscape:connector-curvature="0" />
    <path
       style="fill:#cca568;fill-opacity:0.53672312;stroke:none;stroke-width:0.22677849px;stroke-linecap:butt;stroke-linejoin:miter;stroke-opacity:1"
       d="m 256.31147,69.147298 2.49814,14.947532 48.28485,-7.850853 -10.38315,-7.794945 z"
       id="path1134"
       inkscape:connector-curvature="0" />
    <path
       style="fill:#a17637;fill-opacity:0.31073447;stroke:none;stroke-width:0.22677849px;stroke-linecap:butt;stroke-linejoin:miter;stroke-opacity:1"
       d="m 258.80961,84.094828 3.65145,21.848312 40.67584,0.55684 20.03275,-18.187875 -16.07519,-12.068128 z"
       id="path1136"
       inkscape:connector-curvature="0" />
    <path
       style="fill:#a17637;fill-opacity:0.31073447;stroke:none;stroke-width:0.22677849px;stroke-linecap:butt;stroke-linejoin:miter;stroke-opacity:1"
       d="m 206.67533,61.942735 -32.05033,11.771208 21.80716,31.325287 40.3683,0.55262 z"
       id="path1138"
       inkscape:connector-curvature="0"
       sodipodi:nodetypes="ccccc" />
    <path
       style="fill:#8a672e;fill-opacity:0.61016947;stroke:none;stroke-width:0.22677849px;stroke-linecap:butt;stroke-linejoin:miter;stroke-opacity:1"
       d="m 203.92664,55.402881 2.74869,6.539852 49.63614,7.204565 z"
       id="path1140"
       inkscape:connector-curvature="0" />
    <path
       style="fill:#d5b582;fill-opacity:0.21468925;stroke:none;stroke-width:0.22677849px;stroke-linecap:butt;stroke-linejoin:miter;stroke-opacity:1"
       d="m 206.67533,61.942733 49.63614,7.204563 6.14959,36.795844 -25.6606,-0.35129 z"
       id="path1142"
       inkscape:connector-curvature="0" />
    <path
       style="fill:#694e24;fill-opacity:0.3559322;stroke:none;stroke-width:0.22677849px;stroke-linecap:butt;stroke-linejoin:miter;stroke-opacity:1"
       d="m 193.14583,38.534765 2.64583,4.376692 -21.16666,30.802482 z"
       id="path1144"
       inkscape:connector-curvature="0" />
    <path
       id="path1148"
       style="fill:#d7d7d7;fill-opacity:1;stroke:none;stroke-width:0.22677849px;stroke-linecap:butt;stroke-linejoin:miter;stroke-opacity:1"
       d="M 203.92664,55.402881 174.625,73.713938 203.37597,54.557316 Z m -8.13498,-12.491424 8.13498,12.491424 52.38483,13.744415 -51.65626,-14.934297 z"
       inkscape:connector-curvature="0" />
    <path
       style="fill:#d5d5d5;fill-opacity:1;stroke:none;stroke-width:0.22677849px;stroke-linecap:butt;stroke-linejoin:miter;stroke-opacity:1"
       d="m 206.67533,61.942733 30.12513,43.649117 1.92171,0.0263 z"
       id="path1151"
       inkscape:connector-curvature="0" />
    <path
       style="fill:#8a672e;fill-opacity:0.61016947;stroke:none;stroke-width:0.22677849px;stroke-linecap:butt;stroke-linejoin:miter;stroke-opacity:1"
       d="m 261.18155,34.466426 -4.87008,34.680872 v -2e-6 l -0.21004,-0.05511 z"
       id="path1153"
       inkscape:connector-curvature="0" />
    <path
       style="fill:#8a672e;fill-opacity:0.49717515;stroke:none;stroke-width:0.22677849px;stroke-linecap:butt;stroke-linejoin:miter;stroke-opacity:1"
       d="m 206.67533,61.942731 49.63614,7.204567 -49.26832,-6.671625 z"
       id="path1155"
       inkscape:connector-curvature="0"
       sodipodi:nodetypes="cccc" />
    <path
       style="fill:#f0e2d2;fill-opacity:1;stroke:none;stroke-width:0.22677849px;stroke-linecap:butt;stroke-linejoin:miter;stroke-opacity:1"
       d="M 256.31147,69.147296 307.6726,52.175673 307.14881,51.884766 Z"
       id="path1157"
       inkscape:connector-curvature="0" />
    <path
       style="fill:#f0e2d2;fill-opacity:1;stroke:none;stroke-width:0.22677849px;stroke-linecap:butt;stroke-linejoin:miter;stroke-opacity:1"
       d="m 256.31147,69.147298 2.49814,14.947528 -3.47309,-15.07955 z"
       id="path1159"
       inkscape:connector-curvature="0"
       sodipodi:nodetypes="cccc" />
    <path
       style="fill:#fcfde1;fill-opacity:0.21468925;stroke:none;stroke-width:0.22677849px;stroke-linecap:butt;stroke-linejoin:miter;stroke-opacity:1"
       d="m 230.11871,93.892821 c 0,0 3.75748,-3.710264 5.88962,-2.942872 1.26968,0.456977 -0.88293,2.503207 0.26458,3.110006 2.22243,1.175213 6.78626,0.270251 7.9375,-1.555003 0.77954,-1.235936 -3.50716,-2.61085 -2.38125,-3.693133 1.52323,-1.464213 5.47393,-0.201414 7.40834,0.971877 1.89455,1.149111 0.46377,4.224378 2.64583,5.053761 2.58351,0.981971 8.45792,-1.57808 8.45792,-1.57808 l 2.11981,12.683763 -23.73889,-0.32499 z"
       id="path1161"
       inkscape:connector-curvature="0"
       sodipodi:nodetypes="csssssscccc" />
    <path
       style="fill:#fcfde1;fill-opacity:0.21468925;stroke:none;stroke-width:0.22677849px;stroke-linecap:butt;stroke-linejoin:miter;stroke-opacity:1"
       d="m 238.59463,66.748188 -10.31881,-1.397313 -0.52599,13.665752 3.34513,-5.230659 1.50615,2.195623 z"
       id="path1163"
       inkscape:connector-curvature="0"
       sodipodi:nodetypes="cccccc" />
    <path
       style="fill:#a88a08;fill-opacity:1;stroke:none;stroke-width:0.22754833;stroke-linecap:butt;stroke-linejoin:miter;stroke-miterlimit:4;stroke-dasharray:none;stroke-opacity:1"
       d="m 359.60832,-49.969488 11.9737,14.070296 -15.71546,19.036286 -8.2319,32.83069 127.96864,0.82766 14.9671,-28.96825 -26.94077,-39.176123 1.12252,-9.380197 -19.83139,-6.897204 -9.35443,7.724869 z"
       id="path1165"
       inkscape:connector-curvature="0"
       sodipodi:nodetypes="ccccccccccc" />
    <path
       style="fill:#6f5f2f;fill-opacity:0.41242939;stroke:none;stroke-width:0.22719054px;stroke-linecap:butt;stroke-linejoin:miter;stroke-opacity:1"
       d="m 359.60832,-49.96949 75.95801,-9.931971 1.21608,1.7243 z"
       id="path1167"
       inkscape:connector-curvature="0" />
    <path
       style="fill:#6f5f2f;fill-opacity:0.72881356;stroke:none;stroke-width:0.22719054px;stroke-linecap:butt;stroke-linejoin:miter;stroke-opacity:1"
       d="m 461.89634,-50.646339 28.67406,38.473523 -26.94077,-39.176113 z"
       id="path1175"
       inkscape:connector-curvature="0" />
    <path
       style="fill:#6f5f2f;fill-opacity:0.57062151;stroke:none;stroke-width:0.22719054px;stroke-linecap:butt;stroke-linejoin:miter;stroke-opacity:1"
       d="m 445.30157,-65.499901 -8.51916,7.32274 -1.21608,-1.7243 9.35443,-7.724871 z"
       id="path1177"
       inkscape:connector-curvature="0" />
    <path
       style="fill:#6f5f2f;fill-opacity:0.22598871;stroke:none;stroke-width:0.22719054px;stroke-linecap:butt;stroke-linejoin:miter;stroke-opacity:1"
       d="m 444.92076,-67.626332 0.38081,2.126431 17.45467,5.782232 1.99591,-1.011457 z"
       id="path1179"
       inkscape:connector-curvature="0" />
    <path
       style="fill:#6f5f2f;fill-opacity:0.53107348;stroke:none;stroke-width:0.22719054px;stroke-linecap:butt;stroke-linejoin:miter;stroke-opacity:1"
       d="m 462.75624,-59.71767 -0.8599,9.071331 1.73329,-0.70259 1.12252,-9.380197 z"
       id="path1181"
       inkscape:connector-curvature="0" />
    <path
       style="fill:#ffffff;fill-opacity:0.41242939;stroke:none;stroke-width:0.22719054px;stroke-linecap:butt;stroke-linejoin:miter;stroke-opacity:1"
       d="m 359.60832,-49.96949 77.17409,-8.207671 13.00266,33.313495 -78.20305,-11.035526 z"
       id="path1183"
       inkscape:connector-curvature="0" />
    <path
       style="fill:#ffffff;fill-opacity:0.2768362;stroke:none;stroke-width:0.22719054px;stroke-linecap:butt;stroke-linejoin:miter;stroke-opacity:1"
       d="m 436.78241,-58.177161 13.00266,33.313493 40.78533,12.690852 -28.67406,-38.473523 z"
       id="path1185"
       inkscape:connector-curvature="0" />
    <path
       style="fill:none;stroke:#000000;stroke-width:0.22719054px;stroke-linecap:butt;stroke-linejoin:miter;stroke-opacity:1"
       d="m 436.78241,-58.177161 8.51916,-7.32274 17.45467,5.782231 -0.8599,9.071331 z"
       id="path1187"
       inkscape:connector-curvature="0" />
    <path
       style="fill:#786306;fill-opacity:0.61016947;stroke:none;stroke-width:0.22719054px;stroke-linecap:butt;stroke-linejoin:miter;stroke-opacity:1"
       d="m 371.58202,-35.899196 -15.71546,19.03628 -8.2319,32.8307 69.22076,0.4477 -26.74204,-49.699648 z"
       id="path1191"
       inkscape:connector-curvature="0" />
    <path
       style="fill:#977c07;fill-opacity:1;stroke:none;stroke-width:0.22719054px;stroke-linecap:butt;stroke-linejoin:miter;stroke-opacity:1"
       d="m 390.11338,-33.284165 26.74204,49.699649 58.74788,0.37996 14.9671,-28.96826 -40.78533,-12.690852 z"
       id="path1193"
       inkscape:connector-curvature="0" />
    <path
       style="fill:#977c07;fill-opacity:1;stroke:none;stroke-width:0.26458332px;stroke-linecap:butt;stroke-linejoin:miter;stroke-opacity:1"
       d="m 395.87961,119.63992 c -7.30823,6.43927 -5.83,11.12124 -6.52554,16.23797 1.19818,15.42415 -12.62843,25.38004 -11.27423,38.40075 0.86875,8.35304 -4.53847,16.40242 -14.37947,25.43524 v 0 l 97.30775,3.08433 -9.75027,-100.37045 c -12.49421,5.63496 -25.84011,5.78669 -39.33326,7.07599 -5.89651,0.56343 -10.81927,5.53181 -16.04498,10.13617 z"
       id="path1195"
       inkscape:connector-curvature="0"
       sodipodi:nodetypes="scsccccss" />
    <path
       style="fill:#c6a309;fill-opacity:1;stroke:none;stroke-width:0.26458332px;stroke-linecap:butt;stroke-linejoin:miter;stroke-opacity:1"
       d="m 451.25785,102.42776 12.72204,130.96207 22.00763,-4.26639 c -3.52586,-32.50328 3.78737,-65.00656 -12.27901,-97.50984 -2.16288,3.8486 -3.93854,3.0505 -5.39602,-1.5657 -1.61146,-6.9437 -9.22491,-17.22184 -17.05464,-27.62014 z"
       id="path1197"
       inkscape:connector-curvature="0"
       sodipodi:nodetypes="cccccc" />
    <path
       style="fill:#766106;fill-opacity:1;stroke:none;stroke-width:0.26458332px;stroke-linecap:butt;stroke-linejoin:miter;stroke-opacity:1"
       d="m 363.70037,199.71388 86.64826,2.74646 10.65949,0.33787 2.97177,30.59162 -90.55092,0.74835 z"
       id="path1199"
       inkscape:connector-curvature="0"
       sodipodi:nodetypes="cccccc" />
    <path
       style="fill:#977c07;fill-opacity:1;stroke:none;stroke-width:0.26458332px;stroke-linecap:butt;stroke-linejoin:miter;stroke-opacity:1"
       d="m 461.00812,202.79821 2.97177,30.59162 22.00763,-4.26639 -1.16938,-28.86522 z"
       id="path1201"
       inkscape:connector-curvature="0"
       sodipodi:nodetypes="ccccc" />
  </g>
</svg>
