<?xml version="1.0" encoding="UTF-8" standalone="no"?>
<!-- Created with Inkscape (http://www.inkscape.org/) -->

<svg
   xmlns:dc="http://purl.org/dc/elements/1.1/"
   xmlns:cc="http://creativecommons.org/ns#"
   xmlns:rdf="http://www.w3.org/1999/02/22-rdf-syntax-ns#"
   xmlns:svg="http://www.w3.org/2000/svg"
   xmlns="http://www.w3.org/2000/svg"
   xmlns:sodipodi="http://sodipodi.sourceforge.net/DTD/sodipodi-0.dtd"
   xmlns:inkscape="http://www.inkscape.org/namespaces/inkscape"
   width="802.85712"
   height="728.57141"
   viewBox="0 0 212.42261 192.76786"
   version="1.1"
   id="svg8"
   inkscape:version="0.92.3 (2405546, 2018-03-11)"
   sodipodi:docname="first_try.svg">
  <defs
     id="defs2">
    <filter
       inkscape:collect="always"
       style="color-interpolation-filters:sRGB"
       id="filter1333"
       x="-0.036826599"
       width="1.0736532"
       y="-0.0352097"
       height="1.0704194">
      <feGaussianBlur
         inkscape:collect="always"
         stdDeviation="1.1570948"
         id="feGaussianBlur1335" />
    </filter>
    <filter
       inkscape:collect="always"
       style="color-interpolation-filters:sRGB"
       id="filter1481"
       x="-0.084701166"
       width="1.1694022"
       y="-0.080982305"
       height="1.1619647">
      <feGaussianBlur
         inkscape:collect="always"
         stdDeviation="2.6613177"
         id="feGaussianBlur1483" />
    </filter>
  </defs>
  <sodipodi:namedview
     id="base"
     pagecolor="#ffffff"
     bordercolor="#666666"
     borderopacity="1.0"
     inkscape:pageopacity="0.0"
     inkscape:pageshadow="2"
     inkscape:zoom="0.7"
     inkscape:cx="463.36641"
     inkscape:cy="292.64401"
     inkscape:document-units="mm"
     inkscape:current-layer="layer1"
     showgrid="false"
     inkscape:snap-global="false"
     units="px"
     fit-margin-top="0"
     fit-margin-left="0"
     fit-margin-right="0"
     fit-margin-bottom="0"
     inkscape:showpageshadow="false"
     inkscape:window-width="1151"
     inkscape:window-height="1025"
     inkscape:window-x="0"
     inkscape:window-y="27"
     inkscape:window-maximized="0" />
  <metadata
     id="metadata5">
    <rdf:RDF>
      <cc:Work
         rdf:about="">
        <dc:format>image/svg+xml</dc:format>
        <dc:type
           rdf:resource="http://purl.org/dc/dcmitype/StillImage" />
        <dc:title></dc:title>
      </cc:Work>
    </rdf:RDF>
  </metadata>
  <g
     inkscape:label="Layer 1"
     inkscape:groupmode="layer"
     id="layer1"
     transform="translate(7.5595236,-46.779762)">
    <rect
       style="opacity:1;fill:#000000;fill-opacity:1;stroke:none;stroke-width:1.39999998;stroke-miterlimit:4;stroke-dasharray:none;stroke-opacity:1"
       id="rect1485"
       width="212.42261"
       height="192.76785"
       x="-7.5595236"
       y="46.779762" />
    <path
       style="color:#000000;font-style:normal;font-variant:normal;font-weight:normal;font-stretch:normal;font-size:medium;line-height:normal;font-family:sans-serif;font-variant-ligatures:normal;font-variant-position:normal;font-variant-caps:normal;font-variant-numeric:normal;font-variant-alternates:normal;font-feature-settings:normal;text-indent:0;text-align:start;text-decoration:none;text-decoration-line:none;text-decoration-style:solid;text-decoration-color:#000000;letter-spacing:normal;word-spacing:normal;text-transform:none;writing-mode:lr-tb;direction:ltr;text-orientation:mixed;dominant-baseline:auto;baseline-shift:baseline;text-anchor:start;white-space:normal;shape-padding:0;clip-rule:nonzero;display:inline;overflow:visible;visibility:visible;opacity:1;isolation:auto;mix-blend-mode:normal;color-interpolation:sRGB;color-interpolation-filters:linearRGB;solid-color:#000000;solid-opacity:1;vector-effect:none;fill:#ff2ad4;fill-opacity:1;fill-rule:nonzero;stroke:#aa0088;stroke-width:1.39999998;stroke-linecap:butt;stroke-linejoin:miter;stroke-miterlimit:4;stroke-dasharray:none;stroke-dashoffset:0;stroke-opacity:1;filter:url(#filter1333);color-rendering:auto;image-rendering:auto;shape-rendering:auto;text-rendering:auto;enable-background:accumulate"
       d="m 85.135745,109.06446 -2.980469,10.09375 -11.08789,-4.45313 7.226562,17.53125 -1.136719,3.84766 -9.382812,2.15429 6.054688,9.125 -6.533204,22.125 13.863282,-11.07617 5.802734,8.7461 1.554688,-1.03125 -5.894532,-8.88282 4.498047,-3.59375 7.371094,17.87891 -6.712891,4.21289 0.990235,1.57813 6.441406,-4.04297 6.042966,14.6582 36.27539,-29.52734 -7.44726,-7.01367 12.62304,-7.91993 -28.51367,-11.45117 4.59961,-3.67383 -0.79102,-1.63867 -10.84179,2.48828 -1.1211,-0.45117 z M 86.065433,112.5 101.2959,126.84571 83.893558,119.85547 Z m -11.587891,5.58594 7.146484,2.86914 -2.488281,8.43164 z m 8.886719,3.56836 20.609369,8.27539 -22.486322,5.16211 -1.21875,-2.95508 z m 31.068359,7.78906 -2.23047,1.78125 -2.01172,-0.80664 z m -8.34375,1.91602 2.73047,2.57031 -20.921876,16.71289 -5.689453,-13.80273 z m 3.66797,0.89258 0.77148,0.31054 -0.23828,0.19141 z m 2.75976,1.10937 26.09766,10.47852 -9.93555,6.23437 -17.01758,-16.02929 z m -33.089839,1.625 0.21875,0.52735 -0.400391,0.0918 z m 30.763669,0.23438 16.85742,15.87695 -30.955074,19.42578 -7.455078,-18.08594 z m -29.824216,2.04297 6.013672,14.59179 -4.791016,3.82813 -5.724609,-8.62696 2.773437,-9.39648 z m -3.814453,0.875 -2.033203,6.88867 -3.697266,-5.57227 z m -1.376953,11.2539 4.949218,7.46094 -9.359375,7.47852 z m 53.275392,3.02735 6.25,5.88476 -32.67969,26.59961 -5.207031,-12.63281 z"
       id="path849"
       inkscape:connector-curvature="0" />
    <path
       style="color:#000000;font-style:normal;font-variant:normal;font-weight:normal;font-stretch:normal;font-size:medium;line-height:normal;font-family:sans-serif;font-variant-ligatures:normal;font-variant-position:normal;font-variant-caps:normal;font-variant-numeric:normal;font-variant-alternates:normal;font-feature-settings:normal;text-indent:0;text-align:start;text-decoration:none;text-decoration-line:none;text-decoration-style:solid;text-decoration-color:#000000;letter-spacing:normal;word-spacing:normal;text-transform:none;writing-mode:lr-tb;direction:ltr;text-orientation:mixed;dominant-baseline:auto;baseline-shift:baseline;text-anchor:start;white-space:normal;shape-padding:0;clip-rule:nonzero;display:inline;overflow:visible;visibility:visible;opacity:1;isolation:auto;mix-blend-mode:normal;color-interpolation:sRGB;color-interpolation-filters:linearRGB;solid-color:#000000;solid-opacity:1;vector-effect:none;fill:#ff80e5;fill-opacity:1;fill-rule:nonzero;stroke:none;stroke-width:1.86500001;stroke-linecap:butt;stroke-linejoin:miter;stroke-miterlimit:4;stroke-dasharray:none;stroke-dashoffset:0;stroke-opacity:1;filter:url(#filter1481);color-rendering:auto;image-rendering:auto;shape-rendering:auto;text-rendering:auto;enable-background:accumulate"
       d="m 85.135745,109.06445 -2.98047,10.09375 -11.087889,-4.45313 7.226559,17.53125 -1.13672,3.84766 -9.382808,2.15429 6.054688,9.125 -6.533204,22.125 13.863284,-11.07617 5.80273,8.7461 1.55469,-1.03125 -5.89453,-8.88282 4.49804,-3.59375 7.3711,17.87891 -6.71289,4.21289 0.99023,1.57813 6.44141,-4.04297 6.042955,14.6582 36.27539,-29.52734 -7.44726,-7.01367 12.62305,-7.91993 -28.51368,-11.45117 4.59961,-3.67383 -0.79101,-1.63867 -10.8418,2.48828 -1.12109,-0.45117 z m 0.92969,3.43554 15.230455,14.34571 -17.402335,-6.99024 z m -11.58789,5.58594 7.14648,2.86914 -2.48828,8.43164 z m 8.88672,3.56836 20.609365,8.27539 -22.486325,5.16211 -1.21875,-2.95508 z m 31.068345,7.78906 -2.23047,1.78125 -2.01172,-0.80664 z m -8.34375,1.91602 2.73047,2.57031 -20.921865,16.71289 -5.68945,-13.80273 z m 3.66797,0.89258 0.77148,0.31054 -0.23828,0.19141 z m 2.75977,1.10937 26.09765,10.47852 -9.93554,6.23437 -17.01758,-16.02929 z m -33.089835,1.625 0.21875,0.52735 -0.4004,0.0918 z m 30.763655,0.23438 16.85743,15.87695 -30.955075,19.42578 -7.45508,-18.08594 z m -29.824205,2.04297 6.01367,14.59179 -4.79102,3.82813 -5.7246,-8.62696 2.77343,-9.39648 z m -3.81445,0.875 -2.03321,6.88867 -3.697263,-5.57227 z m -1.37696,11.2539 4.94922,7.46094 -9.359374,7.47852 z m 53.275385,3.02735 6.25,5.88476 -32.67969,26.59961 -5.207025,-12.63281 z"
       id="path855"
       inkscape:connector-curvature="0" />
    <path
       inkscape:connector-curvature="0"
       id="path853"
       d="m 85.135741,109.06446 -2.980469,10.09375 -11.08789,-4.45313 7.226562,17.53124 -1.136719,3.84766 -9.382812,2.15429 6.054688,9.125 -6.533204,22.125 13.863282,-11.07617 5.802734,8.7461 1.554691,-1.03125 -5.894535,-8.88282 4.498047,-3.59375 7.371098,17.87891 -6.712895,4.21289 0.990235,1.57813 6.44141,-4.04297 6.042956,14.6582 36.27539,-29.52734 -7.44726,-7.01367 12.62305,-7.91993 -28.51368,-11.45117 4.59961,-3.67383 -0.79101,-1.63867 -10.8418,2.48828 -1.12109,-0.45117 z m 0.929688,3.43554 15.230461,14.3457 -17.402336,-6.99023 z m -11.587891,5.58594 7.146484,2.86914 -2.488281,8.43163 z m 8.886719,3.56836 20.609373,8.27538 -22.486326,5.16211 -1.21875,-2.95508 z m 31.068353,7.78905 -2.23047,1.78125 -2.01172,-0.80664 z m -8.34375,1.91602 2.73047,2.57031 -20.92187,16.71289 -5.689453,-13.80273 z m 3.66797,0.89258 0.77148,0.31054 -0.23828,0.19141 z m 2.75977,1.10937 26.09765,10.47852 -9.93554,6.23437 -17.01758,-16.02929 z m -33.089843,1.625 0.21875,0.52735 -0.400391,0.0918 z m 30.763663,0.23438 16.85743,15.87695 -30.955076,19.42578 -7.45508,-18.08594 z m -29.82421,2.04297 6.013672,14.59179 -4.791016,3.82813 -5.724609,-8.62696 2.773437,-9.39648 z m -3.814453,0.875 -2.033203,6.88867 -3.697266,-5.57227 z m -1.376953,11.2539 4.949218,7.46094 -9.359375,7.47852 z m 53.275386,3.02735 6.25,5.88476 -32.67969,26.59961 -5.207026,-12.63281 z"
       style="color:#000000;font-style:normal;font-variant:normal;font-weight:normal;font-stretch:normal;font-size:medium;line-height:normal;font-family:sans-serif;font-variant-ligatures:normal;font-variant-position:normal;font-variant-caps:normal;font-variant-numeric:normal;font-variant-alternates:normal;font-feature-settings:normal;text-indent:0;text-align:start;text-decoration:none;text-decoration-line:none;text-decoration-style:solid;text-decoration-color:#000000;letter-spacing:normal;word-spacing:normal;text-transform:none;writing-mode:lr-tb;direction:ltr;text-orientation:mixed;dominant-baseline:auto;baseline-shift:baseline;text-anchor:start;white-space:normal;shape-padding:0;clip-rule:nonzero;display:inline;overflow:visible;visibility:visible;opacity:0.50199998;isolation:auto;mix-blend-mode:normal;color-interpolation:sRGB;color-interpolation-filters:linearRGB;solid-color:#000000;solid-opacity:1;vector-effect:none;fill:#ffffff;fill-opacity:1;fill-rule:nonzero;stroke:none;stroke-width:1.86500001;stroke-linecap:butt;stroke-linejoin:miter;stroke-miterlimit:4;stroke-dasharray:none;stroke-dashoffset:0;stroke-opacity:1;color-rendering:auto;image-rendering:auto;shape-rendering:auto;text-rendering:auto;enable-background:accumulate" />
  </g>
</svg>
