<?xml version="1.0" encoding="UTF-8" standalone="no"?>
<!-- Created with Inkscape (http://www.inkscape.org/) -->

<svg
   xmlns:dc="http://purl.org/dc/elements/1.1/"
   xmlns:cc="http://creativecommons.org/ns#"
   xmlns:rdf="http://www.w3.org/1999/02/22-rdf-syntax-ns#"
   xmlns:svg="http://www.w3.org/2000/svg"
   xmlns="http://www.w3.org/2000/svg"
   xmlns:sodipodi="http://sodipodi.sourceforge.net/DTD/sodipodi-0.dtd"
   xmlns:inkscape="http://www.inkscape.org/namespaces/inkscape"
   width="334.71826"
   height="304.61554"
   viewBox="0 0 88.560871 80.596197"
   version="1.1"
   id="svg2107"
   inkscape:version="0.92.3 (2405546, 2018-03-11)"
   sodipodi:docname="boy2.svg">
  <defs
     id="defs2101" />
  <sodipodi:namedview
     id="base"
     pagecolor="#ffffff"
     bordercolor="#666666"
     borderopacity="1.0"
     inkscape:pageopacity="0.0"
     inkscape:pageshadow="2"
     inkscape:zoom="0.7"
     inkscape:cx="-125.79523"
     inkscape:cy="237.77235"
     inkscape:document-units="mm"
     inkscape:current-layer="layer1"
     showgrid="false"
     inkscape:snap-global="false"
     inkscape:object-paths="true"
     fit-margin-top="5"
     units="px"
     fit-margin-right="5"
     fit-margin-bottom="5"
     fit-margin-left="5"
     inkscape:showpageshadow="false"
     inkscape:window-width="1920"
     inkscape:window-height="1025"
     inkscape:window-x="0"
     inkscape:window-y="27"
     inkscape:window-maximized="1" />
  <metadata
     id="metadata2104">
    <rdf:RDF>
      <cc:Work
         rdf:about="">
        <dc:format>image/svg+xml</dc:format>
        <dc:type
           rdf:resource="http://purl.org/dc/dcmitype/StillImage" />
        <dc:title></dc:title>
      </cc:Work>
    </rdf:RDF>
  </metadata>
  <g
     inkscape:label="Layer 1"
     inkscape:groupmode="layer"
     id="layer1"
     transform="translate(-36.597141,-68.055785)">
    <path
       style="fill:#ef965a;fill-opacity:1;stroke:none;stroke-width:0.84193265px;stroke-linecap:butt;stroke-linejoin:miter;stroke-opacity:1"
       d="m 43.790847,86.94494 c -4.947643,13.029236 -5.435527,36.17812 -3.401922,39.97259 -0.531478,5.83614 32.183581,20.41121 41.673536,20.41153 6.161767,-1.01331 40.859499,-13.70899 41.673549,-17.86009 0.7382,-5.24462 -2.67477,-30.050295 -9.35529,-45.075444 L 69.305264,76.739185 Z"
       id="path2652"
       inkscape:connector-curvature="0"
       sodipodi:nodetypes="ccccccc" />
    <path
       style="fill:#000000;fill-opacity:1;stroke:none;stroke-width:0.84193265px;stroke-linecap:butt;stroke-linejoin:miter;stroke-opacity:1"
       d="M 41.915064,93.156732 43.790847,86.94494 69.305264,76.739185 114.38072,84.393526 119.40548,99.445182 118.79424,80.804926 59.257565,69.378702 38.810622,82.007677 Z"
       id="path2654"
       inkscape:connector-curvature="0"
       sodipodi:nodetypes="ccccccccc" />
    <path
       style="opacity:1;fill:#e9e9e9;fill-opacity:1;stroke:none;stroke-width:0.8432585;stroke-miterlimit:4;stroke-dasharray:none;stroke-opacity:1"
       d="m 71.285168,101.55253 c -1.653821,1.22534 -4.442598,3.30758 -9.922779,3.30758 -5.480182,0 -7.968265,-1.48086 -9.922776,-3.30758 1.202731,-1.52604 4.442556,-3.307607 9.922776,-3.307607 5.48022,0 7.968322,1.631212 9.922779,3.307607 z"
       id="path2656"
       inkscape:connector-curvature="0"
       sodipodi:nodetypes="cscsc" />
    <path
       style="opacity:1;fill:#000000;fill-opacity:1;stroke:none;stroke-width:0.8432585;stroke-miterlimit:4;stroke-dasharray:none;stroke-opacity:1"
       d="m 61.362394,98.24483 a 9.9227778,3.3075927 0 0 0 -2.900719,0.147995 5.1117341,4.2096632 0 0 0 -2.211723,3.459825 5.1117341,4.2096632 0 0 0 1.244814,2.74615 9.9227778,3.3075927 0 0 0 3.867628,0.26145 9.9227778,3.3075927 0 0 0 3.880788,-0.26804 5.1117341,4.2096632 0 0 0 1.231655,-2.73956 5.1117341,4.2096632 0 0 0 -2.20679,-3.461467 9.9227778,3.3075927 0 0 0 -2.905653,-0.146353 z"
       id="path2658"
       inkscape:connector-curvature="0" />
    <path
       sodipodi:nodetypes="cscsc"
       inkscape:connector-curvature="0"
       id="path2664"
       d="m 109.02179,101.70289 c -1.65382,1.22533 -4.44259,3.30758 -9.922775,3.30758 -5.480182,0 -7.968265,-1.48086 -9.922777,-3.30758 1.202732,-1.52605 4.442557,-3.307613 9.922777,-3.307613 5.480215,0 7.968325,1.631213 9.922775,3.307613 z"
       style="opacity:1;fill:#f3f3f3;fill-opacity:1;stroke:none;stroke-width:0.8432585;stroke-miterlimit:4;stroke-dasharray:none;stroke-opacity:1" />
    <path
       id="path2666"
       d="m 99.099021,98.395182 a 9.9227779,3.3075926 0 0 0 -2.90072,0.147968 5.1117342,4.2096632 0 0 0 -2.211724,3.45981 5.1117342,4.2096632 0 0 0 1.244815,2.74616 9.9227779,3.3075926 0 0 0 3.867629,0.26157 9.9227779,3.3075926 0 0 0 3.880789,-0.26794 5.1117342,4.2096632 0 0 0 1.23165,-2.73957 5.1117342,4.2096632 0 0 0 -2.20679,-3.461462 9.9227779,3.3075926 0 0 0 -2.905649,-0.146377 z"
       style="opacity:1;fill:#000000;fill-opacity:1;stroke:none;stroke-width:0.8432585;stroke-miterlimit:4;stroke-dasharray:none;stroke-opacity:1"
       inkscape:connector-curvature="0" />
    <path
       style="fill:#030303;fill-opacity:1;stroke:none;stroke-width:0.84193265px;stroke-linecap:butt;stroke-linejoin:miter;stroke-opacity:1"
       d="M 49.485133,97.944277 62.264465,94.03528 68.428619,95.689085 68.578973,94.03528 61.81344,91.028379 49.334801,96.440827 Z"
       id="path2668"
       inkscape:connector-curvature="0" />
    <path
       inkscape:connector-curvature="0"
       id="path2670"
       d="m 109.77355,98.395309 -12.779334,-3.908997 -6.164153,1.653805 -0.150355,-1.653805 6.765534,-3.006901 12.478638,5.412448 z"
       style="fill:#030303;fill-opacity:1;stroke:none;stroke-width:0.84193265px;stroke-linecap:butt;stroke-linejoin:miter;stroke-opacity:1" />
    <ellipse
       style="opacity:1;fill:#030303;fill-opacity:0.3446328;stroke:none;stroke-width:0.8432585;stroke-miterlimit:4;stroke-dasharray:none;stroke-opacity:1"
       id="path2672"
       cx="73.98291"
       cy="123.72823"
       rx="2.5514414"
       ry="0.85048044" />
    <ellipse
       ry="0.85048044"
       rx="2.5514414"
       cy="123.94085"
       cx="84.188683"
       id="ellipse2676"
       style="opacity:1;fill:#030303;fill-opacity:0.3446328;stroke:none;stroke-width:0.8432585;stroke-miterlimit:4;stroke-dasharray:none;stroke-opacity:1" />
    <path
       style="fill:#030303;fill-opacity:0.05649719;stroke:none;stroke-width:0.84193265px;stroke-linecap:butt;stroke-linejoin:miter;stroke-opacity:1"
       d="m 80.574129,105.44291 -2.701679,-0.62849 -0.700242,8.2828 -0.212629,7.86697 -3.401918,0.21256 -4.465019,1.91359 2.764055,3.1893 5.52813,-0.21256 1.700957,-1.70097 2.126202,1.27574 5.953364,0.63786 0.850472,-4.25241 -3.192217,-1.46368 -3.186375,0.18806 0.01846,-7.6767 z"
       id="path2678"
       inkscape:connector-curvature="0"
       sodipodi:nodetypes="cccccccccccccccc" />
    <path
       style="opacity:1;fill:#d36266;fill-opacity:1;stroke:none;stroke-width:0.8432585;stroke-miterlimit:4;stroke-dasharray:none;stroke-opacity:1"
       d="m 93.11872,134.14664 c -1.700947,1.62173 -5.80678,3.82715 -12.969825,3.82715 -7.163046,0 -10.843637,-1.56753 -12.969826,-3.82715 2.126189,-1.40913 6.232021,-0.63785 12.544585,-0.63785 7.163045,0 11.694119,-2.04699 13.395066,0.63785 z"
       id="path2680"
       inkscape:connector-curvature="0"
       sodipodi:nodetypes="cscsc" />
    <path
       style="fill:#ef965a;fill-opacity:1;stroke:none;stroke-width:0.73421043px;stroke-linecap:butt;stroke-linejoin:miter;stroke-opacity:1"
       d="m 42.215754,93.737021 c -1.128639,-0.696595 -0.738169,-1.836426 -1.734337,-1.975134 -1.116182,-0.06046 -2.701534,2.161892 -2.551437,2.748769 0.09919,0.778089 1.030873,1.111573 1.700958,1.616924 -1.350576,0.266342 -1.681222,1.46221 -1.514916,2.26372 0.2974,0.845136 1.183054,1.78163 2.889933,-0.03978 z"
       id="path2683"
       inkscape:connector-curvature="0"
       sodipodi:nodetypes="ccccccc" />
    <path
       sodipodi:nodetypes="ccccccc"
       inkscape:connector-curvature="0"
       id="path2685"
       d="m 118.80574,100.35221 c 1.12863,-0.696595 0.73816,-1.836426 1.73433,-1.975134 1.11618,-0.06046 2.70154,2.161894 2.55144,2.748764 -0.0992,0.77809 -1.03087,1.11158 -1.70096,1.61693 1.35058,0.26634 1.68122,1.46221 1.51492,2.26372 -0.2974,0.84513 -1.18306,1.78163 -2.88994,-0.0398 z"
       style="fill:#ef965a;fill-opacity:1;stroke:none;stroke-width:0.73421043px;stroke-linecap:butt;stroke-linejoin:miter;stroke-opacity:1" />
    <path
       style="fill:#9b8f85;fill-opacity:1;stroke:none;stroke-width:0.84193265px;stroke-linecap:butt;stroke-linejoin:miter;stroke-opacity:1"
       d="m 58.956874,71.48353 -9.922782,6.16415 -7.216566,4.811029 0.918748,-0.124421 8.082156,-5.588586 8.217393,-4.953832 z"
       id="path2687"
       inkscape:connector-curvature="0"
       sodipodi:nodetypes="ccccccc" />
    <path
       inkscape:connector-curvature="0"
       id="path2697"
       d="m 57.434147,75.377084 -7.03924,4.372859 -5.119445,3.412966 0.588159,-0.0525 6.372037,-4.266233 5.332411,-3.225537 z"
       style="fill:#9b8f85;fill-opacity:1;stroke:none;stroke-width:0.59726846px;stroke-linecap:butt;stroke-linejoin:miter;stroke-opacity:1"
       sodipodi:nodetypes="ccccccc" />
    <path
       style="fill:#9b8f85;fill-opacity:1;stroke:none;stroke-width:0.90541762px;stroke-linecap:butt;stroke-linejoin:miter;stroke-opacity:1"
       d="m 63.449241,76.252739 -11.687529,5.184297 -8.542709,4.111436 0.786254,-0.03373 10.056186,-4.937231 9.373532,-3.892914 z"
       id="path2699"
       inkscape:connector-curvature="0"
       sodipodi:nodetypes="ccccccc" />
  </g>
</svg>
