<?xml version="1.0" encoding="UTF-8" standalone="no"?>
<!-- Created with Inkscape (http://www.inkscape.org/) -->

<svg
   width="1000"
   height="800"
   viewBox="0 0 264.58333 211.66667"
   version="1.1"
   id="svg4443"
   xml:space="preserve"
   inkscape:version="1.2.1 (ef4d3fba62, 2022-07-19, custom)"
   sodipodi:docname="button2.svg"
   xmlns:inkscape="http://www.inkscape.org/namespaces/inkscape"
   xmlns:sodipodi="http://sodipodi.sourceforge.net/DTD/sodipodi-0.dtd"
   xmlns:xlink="http://www.w3.org/1999/xlink"
   xmlns="http://www.w3.org/2000/svg"
   xmlns:svg="http://www.w3.org/2000/svg"><sodipodi:namedview
     id="namedview4445"
     pagecolor="#ffffff"
     bordercolor="#eeeeee"
     borderopacity="1"
     inkscape:showpageshadow="0"
     inkscape:pageopacity="0"
     inkscape:pagecheckerboard="0"
     inkscape:deskcolor="#505050"
     inkscape:document-units="mm"
     showgrid="false"
     inkscape:zoom="1.6819304"
     inkscape:cx="242.57841"
     inkscape:cy="138.5313"
     inkscape:window-width="1140"
     inkscape:window-height="995"
     inkscape:window-x="2700"
     inkscape:window-y="0"
     inkscape:window-maximized="0"
     inkscape:current-layer="layer1" /><defs
     id="defs4440"><linearGradient
       inkscape:collect="always"
       id="linearGradient20241"><stop
         style="stop-color:#94f8aa;stop-opacity:1;"
         offset="0"
         id="stop20237" /><stop
         style="stop-color:#04d836;stop-opacity:1;"
         offset="1"
         id="stop20239" /></linearGradient><linearGradient
       inkscape:collect="always"
       xlink:href="#linearGradient20241"
       id="linearGradient20243"
       x1="55.662895"
       y1="2.9635329"
       x2="55.776184"
       y2="12.662683"
       gradientUnits="userSpaceOnUse" /></defs><g
     inkscape:label="Layer 1"
     inkscape:groupmode="layer"
     id="layer1"><rect
       style="fill:#59f783;fill-opacity:1;stroke:#000000;stroke-width:0.267962;stroke-linecap:square;stroke-miterlimit:3.5;stroke-dasharray:none;stroke-opacity:0.447709;paint-order:fill markers stroke"
       id="rect17643"
       width="32.6101"
       height="9.6473722"
       x="2.9772749"
       y="3.5232151"
       ry="4.8236861" /><path
       id="rect19257"
       style="fill:#ffffff;fill-opacity:0.571968;stroke:none;stroke-width:0.0846674;stroke-linecap:square;stroke-miterlimit:3.5;stroke-opacity:0.442646;paint-order:fill markers stroke"
       d="m 8.9191368,4.087354 c -2.40554,0 -4.34237,1.31905 -4.34237,2.95769 0,0.10492 0.008,0.20859 0.0236,0.31064 0.22669,-1.49145 2.06741,-2.64707 4.31877,-2.64707 H 29.589394 c 2.25135,0 4.09163,1.15562 4.31833,2.64707 0.0155,-0.10205 0.024,-0.20571 0.024,-0.31064 0,-1.63864 -1.93683,-2.95769 -4.34237,-2.95769 z" /><path
       id="rect19262"
       style="fill:#373737;fill-opacity:0.208067;stroke:none;stroke-width:0.113961;stroke-linecap:square;stroke-miterlimit:3.5;stroke-opacity:0.442646;paint-order:fill markers stroke"
       d="m 3.0169668,7.735614 c -0.0251,0.20024 -0.0398,0.40392 -0.0398,0.61119 0,2.67232 2.15156,4.82387 4.82388,4.82387 H 30.763684 c 2.67233,0 4.82388,-2.15155 4.82388,-4.82387 0,-0.20726 -0.0147,-0.41096 -0.0398,-0.61119 -0.29879,2.38147 -2.31903,4.21268 -4.78409,4.21268 H 7.8010368 c -2.46505,0 -4.48529,-1.83123 -4.78408,-4.21268 z" /><text
       xml:space="preserve"
       style="font-style:normal;font-weight:normal;font-size:5.59783px;line-height:1.25;font-family:sans-serif;fill:#000000;fill-opacity:1;stroke:none;stroke-width:0.139945"
       x="6.6004663"
       y="10.452651"
       id="text19321"><tspan
         sodipodi:role="line"
         id="tspan19319"
         style="fill:#000000;fill-opacity:1;stroke-width:0.139945"
         x="6.6004663"
         y="10.452651">Touch me</tspan></text><ellipse
       style="fill:#ffffff;fill-opacity:1;stroke:none;stroke-width:0.778045;stroke-linecap:square;stroke-miterlimit:3.5;stroke-dasharray:none;stroke-opacity:0.447709;paint-order:fill markers stroke"
       id="path19425"
       cx="31.787041"
       cy="-4.5263729"
       rx="1.1134696"
       ry="0.48711842"
       transform="matrix(0.95442601,0.29844764,-0.28917012,0.95727772,0,0)" /><text
       xml:space="preserve"
       style="font-style:normal;font-weight:normal;font-size:5.59783px;line-height:1.25;font-family:sans-serif;fill:#ffffff;fill-opacity:1;stroke:none;stroke-width:0.139945"
       x="6.5218072"
       y="10.316787"
       id="text19951"><tspan
         sodipodi:role="line"
         id="tspan19949"
         style="fill:#ffffff;fill-opacity:1;stroke-width:0.139945"
         x="6.5218072"
         y="10.316787">Touch me</tspan></text><rect
       style="fill:#f41e1e;fill-opacity:0.81491399;stroke:#000000;stroke-width:0.267962;stroke-linecap:square;stroke-miterlimit:3.5;stroke-dasharray:none;stroke-opacity:0.447709;paint-order:fill markers stroke"
       id="rect19953"
       width="32.6101"
       height="9.6473722"
       x="3.7672758"
       y="17.980268"
       ry="4.8236861" /><path
       id="path19955"
       style="fill:#ffffff;fill-opacity:0.571968;stroke:none;stroke-width:0.0846674;stroke-linecap:square;stroke-miterlimit:3.5;stroke-opacity:0.442646;paint-order:fill markers stroke"
       d="m 9.7091268,18.544424 c -2.40554,0 -4.34237,1.31905 -4.34237,2.95769 0,0.10492 0.008,0.20859 0.0236,0.31064 0.22669,-1.49145 2.06741,-2.64707 4.31877,-2.64707 H 30.379384 c 2.25135,0 4.09163,1.15562 4.31833,2.64707 0.0155,-0.10205 0.024,-0.20571 0.024,-0.31064 0,-1.63864 -1.93683,-2.95769 -4.34237,-2.95769 z" /><path
       id="path19957"
       style="fill:#373737;fill-opacity:0.208067;stroke:none;stroke-width:0.113961;stroke-linecap:square;stroke-miterlimit:3.5;stroke-opacity:0.442646;paint-order:fill markers stroke"
       d="m 3.8069568,22.192684 c -0.0251,0.20024 -0.0398,0.40392 -0.0398,0.61119 0,2.672317 2.15156,4.823867 4.82388,4.823867 H 31.553674 c 2.67233,0 4.82388,-2.15155 4.82388,-4.823867 0,-0.20726 -0.0147,-0.41096 -0.0398,-0.61119 -0.29879,2.381467 -2.31903,4.212677 -4.78409,4.212677 H 8.5910268 c -2.46505,0 -4.48529,-1.83123 -4.78408,-4.212677 z" /><text
       xml:space="preserve"
       style="font-style:normal;font-weight:normal;font-size:5.59783px;line-height:1.25;font-family:sans-serif;fill:#000000;fill-opacity:1;stroke:none;stroke-width:0.139945"
       x="7.3904595"
       y="24.909712"
       id="text19961"><tspan
         sodipodi:role="line"
         id="tspan19959"
         style="fill:#000000;fill-opacity:1;stroke-width:0.139945"
         x="7.3904595"
         y="24.909712">Touch me</tspan></text><ellipse
       style="fill:#ffffff;fill-opacity:1;stroke:none;stroke-width:0.778045;stroke-linecap:square;stroke-miterlimit:3.5;stroke-dasharray:none;stroke-opacity:0.447709;paint-order:fill markers stroke"
       id="ellipse19963"
       cx="36.724052"
       cy="9.0366955"
       rx="1.1134696"
       ry="0.48711842"
       transform="matrix(0.95442601,0.29844764,-0.28917012,0.95727772,0,0)" /><text
       xml:space="preserve"
       style="font-style:normal;font-weight:normal;font-size:5.59783px;line-height:1.25;font-family:sans-serif;fill:#ffffff;fill-opacity:1;stroke:none;stroke-width:0.139945"
       x="7.3118005"
       y="24.773848"
       id="text19967"><tspan
         sodipodi:role="line"
         id="tspan19965"
         style="fill:#ffffff;fill-opacity:1;stroke-width:0.139945"
         x="7.3118005"
         y="24.773848">Touch me</tspan></text><rect
       style="fill:#f4931e;fill-opacity:0.81491399;stroke:#000000;stroke-width:0.267962;stroke-linecap:square;stroke-miterlimit:3.5;stroke-dasharray:none;stroke-opacity:0.447709;paint-order:fill markers stroke"
       id="rect19969"
       width="32.6101"
       height="9.6473722"
       x="4.3427296"
       y="31.690536"
       ry="4.8236861" /><path
       id="path19971"
       style="fill:#ffffff;fill-opacity:0.571968;stroke:none;stroke-width:0.0846674;stroke-linecap:square;stroke-miterlimit:3.5;stroke-opacity:0.442646;paint-order:fill markers stroke"
       d="m 10.284581,32.254693 c -2.4055404,0 -4.3423704,1.31905 -4.3423704,2.95769 0,0.10492 0.008,0.20859 0.0236,0.31064 0.22669,-1.49145 2.06741,-2.64707 4.3187704,-2.64707 h 20.670257 c 2.25135,0 4.09163,1.15562 4.31833,2.64707 0.0155,-0.10205 0.024,-0.20571 0.024,-0.31064 0,-1.63864 -1.93683,-2.95769 -4.34237,-2.95769 z" /><path
       id="path19973"
       style="fill:#373737;fill-opacity:0.208067;stroke:none;stroke-width:0.113961;stroke-linecap:square;stroke-miterlimit:3.5;stroke-opacity:0.442646;paint-order:fill markers stroke"
       d="m 4.3824106,35.902953 c -0.0251,0.20024 -0.0398,0.40392 -0.0398,0.61119 0,2.672317 2.15156,4.823867 4.82388,4.823867 H 32.129128 c 2.67233,0 4.82388,-2.15155 4.82388,-4.823867 0,-0.20726 -0.0147,-0.41096 -0.0398,-0.61119 -0.29879,2.381467 -2.31903,4.212677 -4.78409,4.212677 H 9.1664806 c -2.46505,0 -4.48529,-1.83123 -4.78408,-4.212677 z" /><text
       xml:space="preserve"
       style="font-style:normal;font-weight:normal;font-size:5.59783px;line-height:1.25;font-family:sans-serif;fill:#000000;fill-opacity:1;stroke:none;stroke-width:0.139945"
       x="7.9659133"
       y="38.61998"
       id="text19977"><tspan
         sodipodi:role="line"
         id="tspan19975"
         style="fill:#000000;fill-opacity:1;stroke-width:0.139945"
         x="7.9659133"
         y="38.61998">Touch me</tspan></text><ellipse
       style="fill:#ffffff;fill-opacity:1;stroke:none;stroke-width:0.778045;stroke-linecap:square;stroke-miterlimit:3.5;stroke-dasharray:none;stroke-opacity:0.447709;paint-order:fill markers stroke"
       id="ellipse19979"
       cx="41.239735"
       cy="21.950998"
       rx="1.1134696"
       ry="0.48711842"
       transform="matrix(0.95442601,0.29844764,-0.28917012,0.95727772,0,0)" /><text
       xml:space="preserve"
       style="font-style:normal;font-weight:normal;font-size:5.59783px;line-height:1.25;font-family:sans-serif;fill:#ffffff;fill-opacity:1;stroke:none;stroke-width:0.139945"
       x="7.8872542"
       y="38.484116"
       id="text19983"><tspan
         sodipodi:role="line"
         id="tspan19981"
         style="fill:#ffffff;fill-opacity:1;stroke-width:0.139945"
         x="7.8872542"
         y="38.484116">Touch me</tspan></text><rect
       style="fill:#f4e01e;fill-opacity:0.81491399;stroke:#000000;stroke-width:0.267962;stroke-linecap:square;stroke-miterlimit:3.5;stroke-dasharray:none;stroke-opacity:0.447709;paint-order:fill markers stroke"
       id="rect19985"
       width="32.6101"
       height="9.6473722"
       x="4.1804132"
       y="44.382858"
       ry="4.8236861" /><path
       id="path19987"
       style="fill:#ffffff;fill-opacity:0.571968;stroke:none;stroke-width:0.0846674;stroke-linecap:square;stroke-miterlimit:3.5;stroke-opacity:0.442646;paint-order:fill markers stroke"
       d="m 10.122264,44.947014 c -2.4055399,0 -4.3423699,1.31905 -4.3423699,2.95769 0,0.10492 0.008,0.20859 0.0236,0.31064 0.22669,-1.49145 2.06741,-2.64707 4.3187699,-2.64707 h 20.670257 c 2.25135,0 4.09163,1.15562 4.31833,2.64707 0.0155,-0.10205 0.024,-0.20571 0.024,-0.31064 0,-1.63864 -1.93683,-2.95769 -4.34237,-2.95769 z" /><path
       id="path19989"
       style="fill:#373737;fill-opacity:0.208067;stroke:none;stroke-width:0.113961;stroke-linecap:square;stroke-miterlimit:3.5;stroke-opacity:0.442646;paint-order:fill markers stroke"
       d="m 4.2200941,48.595274 c -0.0251,0.20024 -0.0398,0.40392 -0.0398,0.61119 0,2.672317 2.15156,4.823867 4.82388,4.823867 H 31.966811 c 2.67233,0 4.82388,-2.15155 4.82388,-4.823867 0,-0.20726 -0.0147,-0.41096 -0.0398,-0.61119 -0.29879,2.381467 -2.31903,4.212677 -4.78409,4.212677 H 9.0041641 c -2.46505,0 -4.48529,-1.83123 -4.78408,-4.212677 z" /><text
       xml:space="preserve"
       style="font-style:normal;font-weight:normal;font-size:5.59783px;line-height:1.25;font-family:sans-serif;fill:#000000;fill-opacity:1;stroke:none;stroke-width:0.139945"
       x="7.803597"
       y="51.312302"
       id="text19993"><tspan
         sodipodi:role="line"
         id="tspan19991"
         style="fill:#000000;fill-opacity:1;stroke-width:0.139945"
         x="7.803597"
         y="51.312302">Touch me</tspan></text><ellipse
       style="fill:#ffffff;fill-opacity:1;stroke:none;stroke-width:0.778045;stroke-linecap:square;stroke-miterlimit:3.5;stroke-dasharray:none;stroke-opacity:0.447709;paint-order:fill markers stroke"
       id="ellipse19995"
       cx="44.754757"
       cy="34.113895"
       rx="1.1134696"
       ry="0.48711842"
       transform="matrix(0.95442601,0.29844764,-0.28917012,0.95727772,0,0)" /><text
       xml:space="preserve"
       style="font-style:normal;font-weight:normal;font-size:5.59783px;line-height:1.25;font-family:sans-serif;fill:#ffffff;fill-opacity:1;stroke:none;stroke-width:0.139945"
       x="7.7249379"
       y="51.176437"
       id="text19999"><tspan
         sodipodi:role="line"
         id="tspan19997"
         style="fill:#ffffff;fill-opacity:1;stroke-width:0.139945"
         x="7.7249379"
         y="51.176437">Touch me</tspan></text><rect
       style="fill:#aaf41e;fill-opacity:0.81491399;stroke:#000000;stroke-width:0.267962;stroke-linecap:square;stroke-miterlimit:3.5;stroke-dasharray:none;stroke-opacity:0.447709;paint-order:fill markers stroke"
       id="rect20001"
       width="32.6101"
       height="9.6473722"
       x="4.1447563"
       y="57.619118"
       ry="4.8236861" /><path
       id="path20003"
       style="fill:#ffffff;fill-opacity:0.571968;stroke:none;stroke-width:0.0846674;stroke-linecap:square;stroke-miterlimit:3.5;stroke-opacity:0.442646;paint-order:fill markers stroke"
       d="m 10.086607,58.183273 c -2.4055399,0 -4.3423699,1.31905 -4.3423699,2.95769 0,0.10492 0.008,0.20859 0.0236,0.31064 0.22669,-1.49145 2.06741,-2.64707 4.3187699,-2.64707 h 20.670257 c 2.25135,0 4.09163,1.15562 4.31833,2.64707 0.0155,-0.10205 0.024,-0.20571 0.024,-0.31064 0,-1.63864 -1.93683,-2.95769 -4.34237,-2.95769 z" /><path
       id="path20005"
       style="fill:#373737;fill-opacity:0.208067;stroke:none;stroke-width:0.113961;stroke-linecap:square;stroke-miterlimit:3.5;stroke-opacity:0.442646;paint-order:fill markers stroke"
       d="m 4.1844371,61.831533 c -0.0251,0.20024 -0.0398,0.40392 -0.0398,0.61119 0,2.672317 2.15156,4.823867 4.82388,4.823867 H 31.931154 c 2.67233,0 4.82388,-2.15155 4.82388,-4.823867 0,-0.20726 -0.0147,-0.41096 -0.0398,-0.61119 -0.29879,2.381467 -2.31903,4.212677 -4.78409,4.212677 H 8.9685071 c -2.46505,0 -4.48529,-1.83123 -4.78408,-4.212677 z" /><text
       xml:space="preserve"
       style="font-style:normal;font-weight:normal;font-size:5.59783px;line-height:1.25;font-family:sans-serif;fill:#000000;fill-opacity:1;stroke:none;stroke-width:0.139945"
       x="7.76794"
       y="64.548561"
       id="text20009"><tspan
         sodipodi:role="line"
         id="tspan20007"
         style="fill:#000000;fill-opacity:1;stroke-width:0.139945"
         x="7.76794"
         y="64.548561">Touch me</tspan></text><ellipse
       style="fill:#ffffff;fill-opacity:1;stroke:none;stroke-width:0.778045;stroke-linecap:square;stroke-miterlimit:3.5;stroke-dasharray:none;stroke-opacity:0.447709;paint-order:fill markers stroke"
       id="ellipse20011"
       cx="48.548332"
       cy="46.758163"
       rx="1.1134696"
       ry="0.48711842"
       transform="matrix(0.95442601,0.29844764,-0.28917012,0.95727772,0,0)" /><text
       xml:space="preserve"
       style="font-style:normal;font-weight:normal;font-size:5.59783px;line-height:1.25;font-family:sans-serif;fill:#ffffff;fill-opacity:1;stroke:none;stroke-width:0.139945"
       x="7.689281"
       y="64.412697"
       id="text20015"><tspan
         sodipodi:role="line"
         id="tspan20013"
         style="fill:#ffffff;fill-opacity:1;stroke-width:0.139945"
         x="7.689281"
         y="64.412697">Touch me</tspan></text><rect
       style="fill:#1ef49c;fill-opacity:0.81491399;stroke:#000000;stroke-width:0.267962;stroke-linecap:square;stroke-miterlimit:3.5;stroke-dasharray:none;stroke-opacity:0.447709;paint-order:fill markers stroke"
       id="rect20017"
       width="32.6101"
       height="9.6473722"
       x="3.9247587"
       y="70.157959"
       ry="4.8236861" /><path
       id="path20019"
       style="fill:#ffffff;fill-opacity:0.571968;stroke:none;stroke-width:0.0846674;stroke-linecap:square;stroke-miterlimit:3.5;stroke-opacity:0.442646;paint-order:fill markers stroke"
       d="m 9.8666093,70.722117 c -2.4055399,0 -4.3423699,1.31905 -4.3423699,2.95769 0,0.10492 0.008,0.20859 0.0236,0.31064 0.22669,-1.49145 2.06741,-2.64707 4.3187699,-2.64707 H 30.536866 c 2.25135,0 4.09163,1.15562 4.31833,2.64707 0.0155,-0.10205 0.024,-0.20571 0.024,-0.31064 0,-1.63864 -1.93683,-2.95769 -4.34237,-2.95769 z" /><path
       id="path20021"
       style="fill:#373737;fill-opacity:0.208067;stroke:none;stroke-width:0.113961;stroke-linecap:square;stroke-miterlimit:3.5;stroke-opacity:0.442646;paint-order:fill markers stroke"
       d="m 3.9644394,74.370377 c -0.0251,0.20024 -0.0398,0.40392 -0.0398,0.61119 0,2.672317 2.15156,4.823867 4.82388,4.823867 H 31.711156 c 2.67233,0 4.82388,-2.15155 4.82388,-4.823867 0,-0.20726 -0.0147,-0.41096 -0.0398,-0.61119 -0.29879,2.381467 -2.31903,4.212677 -4.78409,4.212677 H 8.7485094 c -2.46505,0 -4.48529,-1.83123 -4.78408,-4.212677 z" /><text
       xml:space="preserve"
       style="font-style:normal;font-weight:normal;font-size:5.59783px;line-height:1.25;font-family:sans-serif;fill:#000000;fill-opacity:1;stroke:none;stroke-width:0.139945"
       x="7.5479422"
       y="77.087402"
       id="text20025"><tspan
         sodipodi:role="line"
         id="tspan20023"
         style="fill:#000000;fill-opacity:1;stroke-width:0.139945"
         x="7.5479422"
         y="77.087402">Touch me</tspan></text><ellipse
       style="fill:#ffffff;fill-opacity:1;stroke:none;stroke-width:0.778045;stroke-linecap:square;stroke-miterlimit:3.5;stroke-dasharray:none;stroke-opacity:0.447709;paint-order:fill markers stroke"
       id="ellipse20027"
       cx="51.963753"
       cy="58.791786"
       rx="1.1134696"
       ry="0.48711842"
       transform="matrix(0.95442601,0.29844764,-0.28917012,0.95727772,0,0)" /><text
       xml:space="preserve"
       style="font-style:normal;font-weight:normal;font-size:5.59783px;line-height:1.25;font-family:sans-serif;fill:#ffffff;fill-opacity:1;stroke:none;stroke-width:0.139945"
       x="7.4692831"
       y="76.951538"
       id="text20031"><tspan
         sodipodi:role="line"
         id="tspan20029"
         style="fill:#ffffff;fill-opacity:1;stroke-width:0.139945"
         x="7.4692831"
         y="76.951538">Touch me</tspan></text><rect
       style="fill:#1ee1f4;fill-opacity:0.81491399;stroke:#000000;stroke-width:0.267962;stroke-linecap:square;stroke-miterlimit:3.5;stroke-dasharray:none;stroke-opacity:0.447709;paint-order:fill markers stroke"
       id="rect20033"
       width="32.6101"
       height="9.6473722"
       x="3.841876"
       y="82.744118"
       ry="4.8236861" /><path
       id="path20035"
       style="fill:#ffffff;fill-opacity:0.571968;stroke:none;stroke-width:0.0846674;stroke-linecap:square;stroke-miterlimit:3.5;stroke-opacity:0.442646;paint-order:fill markers stroke"
       d="m 9.7837266,83.308275 c -2.4055399,0 -4.3423699,1.31905 -4.3423699,2.95769 0,0.10492 0.008,0.20859 0.0236,0.31064 0.22669,-1.49145 2.06741,-2.64707 4.3187699,-2.64707 H 30.453983 c 2.25135,0 4.09163,1.15562 4.31833,2.64707 0.0155,-0.10205 0.024,-0.20571 0.024,-0.31064 0,-1.63864 -1.93683,-2.95769 -4.34237,-2.95769 z" /><path
       id="path20037"
       style="fill:#373737;fill-opacity:0.208067;stroke:none;stroke-width:0.113961;stroke-linecap:square;stroke-miterlimit:3.5;stroke-opacity:0.442646;paint-order:fill markers stroke"
       d="m 3.8815567,86.956535 c -0.0251,0.20024 -0.0398,0.40392 -0.0398,0.61119 0,2.672317 2.15156,4.823867 4.82388,4.823867 H 31.628273 c 2.67233,0 4.82388,-2.15155 4.82388,-4.823867 0,-0.20726 -0.0147,-0.41096 -0.0398,-0.61119 -0.29879,2.381467 -2.31903,4.212677 -4.78409,4.212677 H 8.6656267 c -2.46505,0 -4.48529,-1.83123 -4.78408,-4.212677 z" /><text
       xml:space="preserve"
       style="font-style:normal;font-weight:normal;font-size:5.59783px;line-height:1.25;font-family:sans-serif;fill:#000000;fill-opacity:1;stroke:none;stroke-width:0.139945"
       x="7.4650593"
       y="89.673561"
       id="text20041"><tspan
         sodipodi:role="line"
         id="tspan20039"
         style="fill:#000000;fill-opacity:1;stroke-width:0.139945"
         x="7.4650593"
         y="89.673561">Touch me</tspan></text><ellipse
       style="fill:#ffffff;fill-opacity:1;stroke:none;stroke-width:0.778045;stroke-linecap:square;stroke-miterlimit:3.5;stroke-dasharray:none;stroke-opacity:0.447709;paint-order:fill markers stroke"
       id="ellipse20043"
       cx="55.52412"
       cy="70.829643"
       rx="1.1134696"
       ry="0.48711842"
       transform="matrix(0.95442601,0.29844764,-0.28917012,0.95727772,0,0)" /><text
       xml:space="preserve"
       style="font-style:normal;font-weight:normal;font-size:5.59783px;line-height:1.25;font-family:sans-serif;fill:#ffffff;fill-opacity:1;stroke:none;stroke-width:0.139945"
       x="7.3864002"
       y="89.537697"
       id="text20047"><tspan
         sodipodi:role="line"
         id="tspan20045"
         style="fill:#ffffff;fill-opacity:1;stroke-width:0.139945"
         x="7.3864002"
         y="89.537697">Touch me</tspan></text><rect
       style="fill:#1e94f4;fill-opacity:0.81491399;stroke:#000000;stroke-width:0.267962;stroke-linecap:square;stroke-miterlimit:3.5;stroke-dasharray:none;stroke-opacity:0.447709;paint-order:fill markers stroke"
       id="rect20049"
       width="32.6101"
       height="9.6473722"
       x="3.9115877"
       y="95.014709"
       ry="4.8236861" /><path
       id="path20051"
       style="fill:#ffffff;fill-opacity:0.571968;stroke:none;stroke-width:0.0846674;stroke-linecap:square;stroke-miterlimit:3.5;stroke-opacity:0.442646;paint-order:fill markers stroke"
       d="m 9.8534383,95.57887 c -2.4055399,0 -4.3423699,1.31905 -4.3423699,2.95769 0,0.10492 0.008,0.20859 0.0236,0.31064 0.22669,-1.49145 2.06741,-2.64707 4.3187699,-2.64707 H 30.523695 c 2.25135,0 4.09163,1.15562 4.31833,2.64707 0.0155,-0.10205 0.024,-0.20571 0.024,-0.31064 0,-1.63864 -1.93683,-2.95769 -4.34237,-2.95769 z" /><path
       id="path20053"
       style="fill:#373737;fill-opacity:0.208067;stroke:none;stroke-width:0.113961;stroke-linecap:square;stroke-miterlimit:3.5;stroke-opacity:0.442646;paint-order:fill markers stroke"
       d="m 3.9512684,99.22713 c -0.0251,0.20024 -0.0398,0.40392 -0.0398,0.61119 0,2.67232 2.15156,4.82387 4.82388,4.82387 H 31.697985 c 2.67233,0 4.82388,-2.15155 4.82388,-4.82387 0,-0.20726 -0.0147,-0.41096 -0.0398,-0.61119 -0.29879,2.38147 -2.31903,4.21268 -4.78409,4.21268 H 8.7353384 c -2.46505,0 -4.48529,-1.83123 -4.78408,-4.21268 z" /><text
       xml:space="preserve"
       style="font-style:normal;font-weight:normal;font-size:5.59783px;line-height:1.25;font-family:sans-serif;fill:#000000;fill-opacity:1;stroke:none;stroke-width:0.139945"
       x="7.534771"
       y="101.94415"
       id="text20057"><tspan
         sodipodi:role="line"
         id="tspan20055"
         style="fill:#000000;fill-opacity:1;stroke-width:0.139945"
         x="7.534771"
         y="101.94415">Touch me</tspan></text><ellipse
       style="fill:#ffffff;fill-opacity:1;stroke:none;stroke-width:0.778045;stroke-linecap:square;stroke-miterlimit:3.5;stroke-dasharray:none;stroke-opacity:0.447709;paint-order:fill markers stroke"
       id="ellipse20059"
       cx="59.139313"
       cy="82.520767"
       rx="1.1134696"
       ry="0.48711842"
       transform="matrix(0.95442601,0.29844764,-0.28917012,0.95727772,0,0)" /><text
       xml:space="preserve"
       style="font-style:normal;font-weight:normal;font-size:5.59783px;line-height:1.25;font-family:sans-serif;fill:#ffffff;fill-opacity:1;stroke:none;stroke-width:0.139945"
       x="7.4561119"
       y="101.80829"
       id="text20063"><tspan
         sodipodi:role="line"
         id="tspan20061"
         style="fill:#ffffff;fill-opacity:1;stroke-width:0.139945"
         x="7.4561119"
         y="101.80829">Touch me</tspan></text><rect
       style="fill:#8a1ef4;fill-opacity:0.81491399;stroke:#000000;stroke-width:0.267962;stroke-linecap:square;stroke-miterlimit:3.5;stroke-dasharray:none;stroke-opacity:0.447709;paint-order:fill markers stroke"
       id="rect20065"
       width="32.6101"
       height="9.6473722"
       x="3.8225946"
       y="107.33632"
       ry="4.8236861" /><path
       id="path20067"
       style="fill:#ffffff;fill-opacity:0.571968;stroke:none;stroke-width:0.0846674;stroke-linecap:square;stroke-miterlimit:3.5;stroke-opacity:0.442646;paint-order:fill markers stroke"
       d="m 9.7644453,107.90048 c -2.4055399,0 -4.3423699,1.31905 -4.3423699,2.95769 0,0.10492 0.008,0.20859 0.0236,0.31064 0.22669,-1.49145 2.06741,-2.64707 4.3187699,-2.64707 H 30.434702 c 2.25135,0 4.09163,1.15562 4.31833,2.64707 0.0155,-0.10205 0.024,-0.20571 0.024,-0.31064 0,-1.63864 -1.93683,-2.95769 -4.34237,-2.95769 z" /><path
       id="path20069"
       style="fill:#373737;fill-opacity:0.208067;stroke:none;stroke-width:0.113961;stroke-linecap:square;stroke-miterlimit:3.5;stroke-opacity:0.442646;paint-order:fill markers stroke"
       d="m 3.8622754,111.54874 c -0.0251,0.20024 -0.0398,0.40392 -0.0398,0.61119 0,2.67232 2.15156,4.82387 4.82388,4.82387 H 31.608992 c 2.67233,0 4.82388,-2.15155 4.82388,-4.82387 0,-0.20726 -0.0147,-0.41096 -0.0398,-0.61119 -0.29879,2.38147 -2.31903,4.21268 -4.78409,4.21268 H 8.6463454 c -2.46505,0 -4.48529,-1.83123 -4.78408,-4.21268 z" /><text
       xml:space="preserve"
       style="font-style:normal;font-weight:normal;font-size:5.59783px;line-height:1.25;font-family:sans-serif;fill:#000000;fill-opacity:1;stroke:none;stroke-width:0.139945"
       x="7.4457779"
       y="114.26576"
       id="text20073"><tspan
         sodipodi:role="line"
         id="tspan20071"
         style="fill:#000000;fill-opacity:1;stroke-width:0.139945"
         x="7.4457779"
         y="114.26576">Touch me</tspan></text><ellipse
       style="fill:#ffffff;fill-opacity:1;stroke:none;stroke-width:0.778045;stroke-linecap:square;stroke-miterlimit:3.5;stroke-dasharray:none;stroke-opacity:0.447709;paint-order:fill markers stroke"
       id="ellipse20075"
       cx="62.617329"
       cy="94.307945"
       rx="1.1134696"
       ry="0.48711842"
       transform="matrix(0.95442601,0.29844764,-0.28917012,0.95727772,0,0)" /><text
       xml:space="preserve"
       style="font-style:normal;font-weight:normal;font-size:5.59783px;line-height:1.25;font-family:sans-serif;fill:#ffffff;fill-opacity:1;stroke:none;stroke-width:0.139945"
       x="7.3671188"
       y="114.1299"
       id="text20079"><tspan
         sodipodi:role="line"
         id="tspan20077"
         style="fill:#ffffff;fill-opacity:1;stroke-width:0.139945"
         x="7.3671188"
         y="114.1299">Touch me</tspan></text><rect
       style="fill:#cc1ef4;fill-opacity:0.81491399;stroke:#000000;stroke-width:0.267962;stroke-linecap:square;stroke-miterlimit:3.5;stroke-dasharray:none;stroke-opacity:0.447709;paint-order:fill markers stroke"
       id="rect20081"
       width="32.6101"
       height="9.6473722"
       x="3.9654398"
       y="119.73536"
       ry="4.8236861" /><path
       id="path20083"
       style="fill:#ffffff;fill-opacity:0.571968;stroke:none;stroke-width:0.0846674;stroke-linecap:square;stroke-miterlimit:3.5;stroke-opacity:0.442646;paint-order:fill markers stroke"
       d="m 9.9072904,120.29952 c -2.4055399,0 -4.3423699,1.31905 -4.3423699,2.95769 0,0.10492 0.008,0.20859 0.0236,0.31064 0.22669,-1.49145 2.06741,-2.64707 4.3187699,-2.64707 H 30.577547 c 2.25135,0 4.09163,1.15562 4.31833,2.64707 0.0155,-0.10205 0.024,-0.20571 0.024,-0.31064 0,-1.63864 -1.93683,-2.95769 -4.34237,-2.95769 z" /><path
       id="path20085"
       style="fill:#373737;fill-opacity:0.208067;stroke:none;stroke-width:0.113961;stroke-linecap:square;stroke-miterlimit:3.5;stroke-opacity:0.442646;paint-order:fill markers stroke"
       d="m 4.0051205,123.94778 c -0.0251,0.20024 -0.0398,0.40392 -0.0398,0.61119 0,2.67232 2.15156,4.82387 4.82388,4.82387 H 31.751837 c 2.67233,0 4.82388,-2.15155 4.82388,-4.82387 0,-0.20726 -0.0147,-0.41096 -0.0398,-0.61119 -0.29879,2.38147 -2.31903,4.21268 -4.78409,4.21268 H 8.7891905 c -2.46505,0 -4.48529,-1.83123 -4.78408,-4.21268 z" /><text
       xml:space="preserve"
       style="font-style:normal;font-weight:normal;font-size:5.59783px;line-height:1.25;font-family:sans-serif;fill:#000000;fill-opacity:1;stroke:none;stroke-width:0.139945"
       x="7.588623"
       y="126.6648"
       id="text20089"><tspan
         sodipodi:role="line"
         id="tspan20087"
         style="fill:#000000;fill-opacity:1;stroke-width:0.139945"
         x="7.588623"
         y="126.6648">Touch me</tspan></text><ellipse
       style="fill:#ffffff;fill-opacity:1;stroke:none;stroke-width:0.778045;stroke-linecap:square;stroke-miterlimit:3.5;stroke-dasharray:none;stroke-opacity:0.447709;paint-order:fill markers stroke"
       id="ellipse20091"
       cx="66.339676"
       cy="106.09984"
       rx="1.1134696"
       ry="0.48711842"
       transform="matrix(0.95442601,0.29844764,-0.28917012,0.95727772,0,0)" /><text
       xml:space="preserve"
       style="font-style:normal;font-weight:normal;font-size:5.59783px;line-height:1.25;font-family:sans-serif;fill:#ffffff;fill-opacity:1;stroke:none;stroke-width:0.139945"
       x="7.509964"
       y="126.52894"
       id="text20095"><tspan
         sodipodi:role="line"
         id="tspan20093"
         style="fill:#ffffff;fill-opacity:1;stroke-width:0.139945"
         x="7.509964"
         y="126.52894">Touch me</tspan></text><rect
       style="fill:#f41eb6;fill-opacity:0.81491399;stroke:#000000;stroke-width:0.267962;stroke-linecap:square;stroke-miterlimit:3.5;stroke-dasharray:none;stroke-opacity:0.447709;paint-order:fill markers stroke"
       id="rect20097"
       width="32.6101"
       height="9.6473722"
       x="3.9900982"
       y="131.99066"
       ry="4.8236861" /><path
       id="path20099"
       style="fill:#ffffff;fill-opacity:0.571968;stroke:none;stroke-width:0.0846674;stroke-linecap:square;stroke-miterlimit:3.5;stroke-opacity:0.442646;paint-order:fill markers stroke"
       d="m 9.9319488,132.55482 c -2.4055399,0 -4.3423699,1.31905 -4.3423699,2.95769 0,0.10492 0.008,0.20859 0.0236,0.31064 0.22669,-1.49145 2.06741,-2.64707 4.3187699,-2.64707 H 30.602205 c 2.25135,0 4.09163,1.15562 4.31833,2.64707 0.0155,-0.10205 0.024,-0.20571 0.024,-0.31064 0,-1.63864 -1.93683,-2.95769 -4.34237,-2.95769 z" /><path
       id="path20101"
       style="fill:#373737;fill-opacity:0.208067;stroke:none;stroke-width:0.113961;stroke-linecap:square;stroke-miterlimit:3.5;stroke-opacity:0.442646;paint-order:fill markers stroke"
       d="m 4.0297789,136.20308 c -0.0251,0.20024 -0.0398,0.40392 -0.0398,0.61119 0,2.67232 2.15156,4.82387 4.82388,4.82387 H 31.776495 c 2.67233,0 4.82388,-2.15155 4.82388,-4.82387 0,-0.20726 -0.0147,-0.41096 -0.0398,-0.61119 -0.29879,2.38147 -2.31903,4.21268 -4.78409,4.21268 H 8.8138489 c -2.46505,0 -4.48529,-1.83123 -4.78408,-4.21268 z" /><text
       xml:space="preserve"
       style="font-style:normal;font-weight:normal;font-size:5.59783px;line-height:1.25;font-family:sans-serif;fill:#000000;fill-opacity:1;stroke:none;stroke-width:0.139945"
       x="7.6132812"
       y="138.9201"
       id="text20105"><tspan
         sodipodi:role="line"
         id="tspan20103"
         style="fill:#000000;fill-opacity:1;stroke-width:0.139945"
         x="7.6132812"
         y="138.9201">Touch me</tspan></text><ellipse
       style="fill:#ffffff;fill-opacity:1;stroke:none;stroke-width:0.778045;stroke-linecap:square;stroke-miterlimit:3.5;stroke-dasharray:none;stroke-opacity:0.447709;paint-order:fill markers stroke"
       id="ellipse20107"
       cx="69.907318"
       cy="117.78981"
       rx="1.1134696"
       ry="0.48711842"
       transform="matrix(0.95442601,0.29844764,-0.28917012,0.95727772,0,0)" /><text
       xml:space="preserve"
       style="font-style:normal;font-weight:normal;font-size:5.59783px;line-height:1.25;font-family:sans-serif;fill:#ffffff;fill-opacity:1;stroke:none;stroke-width:0.139945"
       x="7.5346222"
       y="138.78424"
       id="text20111"><tspan
         sodipodi:role="line"
         id="tspan20109"
         style="fill:#ffffff;fill-opacity:1;stroke-width:0.139945"
         x="7.5346222"
         y="138.78424">Touch me</tspan></text><rect
       style="fill:url(#linearGradient20243);fill-opacity:1;stroke:#000000;stroke-width:0.267962;stroke-linecap:square;stroke-miterlimit:3.5;stroke-dasharray:none;stroke-opacity:0.447709;paint-order:fill markers stroke"
       id="rect20221"
       width="32.6101"
       height="9.6473722"
       x="40.314533"
       y="2.9411283"
       ry="4.8236861" /><path
       id="path20223"
       style="fill:#ffffff;fill-opacity:0.571968;stroke:none;stroke-width:0.0846674;stroke-linecap:square;stroke-miterlimit:3.5;stroke-opacity:0.442646;paint-order:fill markers stroke"
       d="m 46.256394,3.5052671 c -2.40554,0 -4.34237,1.31905 -4.34237,2.95769 0,0.10492 0.008,0.20859 0.0236,0.31064 0.22669,-1.49145 2.06741,-2.64707 4.31877,-2.64707 h 20.670257 c 2.25135,0 4.09163,1.15562 4.31833,2.64707 0.0155,-0.10205 0.024,-0.20571 0.024,-0.31064 0,-1.63864 -1.93683,-2.95769 -4.34237,-2.95769 z" /><path
       id="path20225"
       style="fill:#373737;fill-opacity:0.208067;stroke:none;stroke-width:0.113961;stroke-linecap:square;stroke-miterlimit:3.5;stroke-opacity:0.442646;paint-order:fill markers stroke"
       d="m 40.354224,7.1535271 c -0.0251,0.20024 -0.0398,0.40392 -0.0398,0.61119 0,2.6723199 2.15156,4.8238699 4.82388,4.8238699 h 22.962637 c 2.67233,0 4.82388,-2.15155 4.82388,-4.8238699 0,-0.20726 -0.0147,-0.41096 -0.0398,-0.61119 -0.29879,2.38147 -2.31903,4.2126799 -4.78409,4.2126799 H 45.138294 c -2.46505,0 -4.48529,-1.8312299 -4.78408,-4.2126799 z" /><text
       xml:space="preserve"
       style="font-style:normal;font-weight:normal;font-size:5.59783px;line-height:1.25;font-family:sans-serif;fill:#000000;fill-opacity:1;stroke:none;stroke-width:0.139945"
       x="43.937725"
       y="9.8705645"
       id="text20229"><tspan
         sodipodi:role="line"
         id="tspan20227"
         style="fill:#000000;fill-opacity:1;stroke-width:0.139945"
         x="43.937725"
         y="9.8705645">Touch me</tspan></text><ellipse
       style="fill:#ffffff;fill-opacity:1;stroke:none;stroke-width:0.778045;stroke-linecap:square;stroke-miterlimit:3.5;stroke-dasharray:none;stroke-opacity:0.447709;paint-order:fill markers stroke"
       id="ellipse20231"
       cx="67.362518"
       cy="-16.225698"
       rx="1.1134696"
       ry="0.48711842"
       transform="matrix(0.95442601,0.29844764,-0.28917012,0.95727772,0,0)" /><text
       xml:space="preserve"
       style="font-style:normal;font-weight:normal;font-size:5.59783px;line-height:1.25;font-family:sans-serif;fill:#ffffff;fill-opacity:1;stroke:none;stroke-width:0.139945"
       x="43.859066"
       y="9.7347002"
       id="text20235"><tspan
         sodipodi:role="line"
         id="tspan20233"
         style="fill:#ffffff;fill-opacity:1;stroke-width:0.139945"
         x="43.859066"
         y="9.7347002">Touch me</tspan></text></g></svg>
