<?xml version="1.0" encoding="UTF-8" standalone="no"?>
<!-- Created with Inkscape (http://www.inkscape.org/) -->

<svg
   xmlns:dc="http://purl.org/dc/elements/1.1/"
   xmlns:cc="http://creativecommons.org/ns#"
   xmlns:rdf="http://www.w3.org/1999/02/22-rdf-syntax-ns#"
   xmlns:svg="http://www.w3.org/2000/svg"
   xmlns="http://www.w3.org/2000/svg"
   xmlns:sodipodi="http://sodipodi.sourceforge.net/DTD/sodipodi-0.dtd"
   xmlns:inkscape="http://www.inkscape.org/namespaces/inkscape"
   width="250"
   height="100"
   viewBox="0 0 66.145832 26.458334"
   version="1.1"
   id="svg8"
   inkscape:version="0.92.4 (f8dce91, 2019-08-02)"
   sodipodi:docname="apple.svg">
  <defs
     id="defs2" />
  <sodipodi:namedview
     id="base"
     pagecolor="#ffffff"
     bordercolor="#666666"
     borderopacity="1.0"
     inkscape:pageopacity="0.0"
     inkscape:pageshadow="2"
     inkscape:zoom="2.8"
     inkscape:cx="152.17397"
     inkscape:cy="29.003117"
     inkscape:document-units="mm"
     inkscape:current-layer="layer1"
     showgrid="false"
     inkscape:window-width="1920"
     inkscape:window-height="1025"
     inkscape:window-x="1920"
     inkscape:window-y="27"
     inkscape:window-maximized="1"
     inkscape:snap-global="false"
     units="px" />
  <metadata
     id="metadata5">
    <rdf:RDF>
      <cc:Work
         rdf:about="">
        <dc:format>image/svg+xml</dc:format>
        <dc:type
           rdf:resource="http://purl.org/dc/dcmitype/StillImage" />
        <dc:title></dc:title>
      </cc:Work>
    </rdf:RDF>
  </metadata>
  <g
     inkscape:groupmode="layer"
     id="layer3"
     inkscape:label="shadow"
     style="display:inline"
     transform="translate(0,-270.54164)">
    <path
       style="opacity:1;fill:#000000;fill-opacity:0.17204303;stroke:none;stroke-width:0.04871694;stroke-opacity:1"
       id="path4577"
       sodipodi:type="arc"
       sodipodi:cx="12.103942"
       sodipodi:cy="291.28946"
       sodipodi:rx="8.1110039"
       sodipodi:ry="0.99557436"
       sodipodi:start="0"
       sodipodi:end="6.2821754"
       d="m 20.214946,291.28946 a 8.1110039,0.99557436 0 0 1 -8.108956,0.99557 8.1110039,0.99557436 0 0 1 -8.1130509,-0.99507 8.1110039,0.99557436 0 0 1 8.1048589,-0.99607 8.1110039,0.99557436 0 0 1 8.117144,0.99456 l -8.111,0.001 z" />
    <path
       d="m 57.966766,291.4899 a 8.1110039,0.99557436 0 0 1 -8.108956,0.99557 8.1110039,0.99557436 0 0 1 -8.11305,-0.99507 8.1110039,0.99557436 0 0 1 8.104859,-0.99608 8.1110039,0.99557436 0 0 1 8.117143,0.99457 l -8.111,0.001 z"
       sodipodi:end="6.2821754"
       sodipodi:start="0"
       sodipodi:ry="0.99557436"
       sodipodi:rx="8.1110039"
       sodipodi:cy="291.4899"
       sodipodi:cx="49.855762"
       sodipodi:type="arc"
       id="path4675"
       style="opacity:1;fill:#000000;fill-opacity:0.17204303;stroke:none;stroke-width:0.04871694;stroke-opacity:1" />
  </g>
  <g
     inkscape:label="base"
     inkscape:groupmode="layer"
     id="layer1"
     transform="translate(0,-270.54164)">
    <path
       style="fill:#bb1517;fill-opacity:1;stroke:none;stroke-width:0.08198849px;stroke-linecap:butt;stroke-linejoin:miter;stroke-opacity:1"
       d="m 11.61067,276.83756 c -0.62047,-0.064 -1.151104,-0.49558 -1.756901,-0.6442 -0.4397472,-0.10788 -0.8951561,-0.20565 -1.346951,-0.17569 -0.8268537,0.0548 -1.6654668,0.26269 -2.401092,0.6442 -0.4060369,0.21058 -0.7278752,0.55789 -1.054138,0.87845 -0.4047708,0.3977 -0.8300899,0.79632 -1.112701,1.28839 -0.359718,0.62633 -0.5708511,1.33958 -0.702759,2.04971 -0.096323,0.51856 -0.1180262,1.05714 -0.05856,1.5812 0.059263,0.52227 0.1887881,1.04582 0.409943,1.52265 0.3895976,0.84001 1.0474377,1.52732 1.581206,2.28396 0.4434529,0.62861 0.924201,1.2313 1.346953,1.87402 0.4378623,0.66569 0.6961912,1.45802 1.229827,2.04971 0.3922207,0.43489 0.8918917,0.7728 1.405515,1.05415 0.2925582,0.16026 0.6057252,0.31236 0.937012,0.35137 0.625217,0.0736 1.252021,-0.13715 1.874025,-0.23425 0.313978,-0.049 0.61938,-0.166 0.937012,-0.17569 0.314622,-0.01 0.622256,0.11436 0.937012,0.11713 0.549696,0.005 1.122883,0.0115 1.639766,-0.17569 0.397083,-0.14376 0.772863,-0.38776 1.054141,-0.70276 0.511725,-0.57308 0.697661,-1.36912 1.054136,-2.04971 0.307952,-0.58795 0.601482,-1.18424 0.937012,-1.7569 0.457159,-0.78025 1.094435,-1.45865 1.464081,-2.28397 0.356224,-0.79535 0.600543,-1.65275 0.702759,-2.51821 0.06186,-0.52379 0.05238,-1.06558 -0.05857,-1.58121 -0.119726,-0.5564 -0.368253,-1.08345 -0.644191,-1.58121 -0.210147,-0.37908 -0.46563,-0.73722 -0.761321,-1.05413 -0.208025,-0.22295 -0.42993,-0.44945 -0.70276,-0.58564 -0.954585,-0.47649 -2.049602,-0.68798 -3.115533,-0.73346 -1.277403,-0.0545 -2.523102,0.68893 -3.794923,0.55778 z"
       id="path4550"
       inkscape:connector-curvature="0"
       sodipodi:nodetypes="aaaaaaaaaaaaaaaaaaaaaaaaaaaaa" />
    <path
       style="fill:#2c2000;fill-opacity:0.38709675;stroke:none;stroke-width:0.06658208px;stroke-linecap:butt;stroke-linejoin:miter;stroke-opacity:1"
       d="m 12.742715,277.17518 c -0.359869,-0.13784 -0.880318,-0.50392 -1.125135,-0.1568 -0.137991,0.19566 0.0033,0.58703 0.173096,0.74219 0.183999,0.16828 0.464132,0.0412 0.692395,0 0.253614,-0.0458 0.709744,0.0363 0.735663,-0.27179 0.01828,-0.21718 -0.303735,-0.2476 -0.476019,-0.3136 z"
       id="path4615"
       inkscape:connector-curvature="0"
       sodipodi:nodetypes="aaaaaa" />
    <path
       style="display:inline;fill:#664408;fill-opacity:0.16129031;stroke:none;stroke-width:0.08198849px;stroke-linecap:butt;stroke-linejoin:miter;stroke-opacity:1"
       d="m 14.989125,289.0942 c 0.409483,-0.38532 0.826196,-0.76407 1.263021,-1.11808 0.180164,-0.14602 0.327514,-0.42725 0.559038,-0.41411 0.141387,0.008 0.269197,0.15444 0.310582,0.28988 0.08072,0.26418 -0.09467,0.54691 -0.18635,0.8075 -0.07376,0.20965 -0.185683,0.40413 -0.28987,0.60045 -0.115984,0.21854 -0.224506,0.44375 -0.3727,0.64186 -0.216392,0.28929 -0.413512,0.64405 -0.745383,0.7868 -0.253603,0.10908 -0.55242,-0.0123 -0.828213,0 -0.539955,0.0242 -1.075381,0.11418 -1.615003,0.14494 -0.282595,0.0161 -0.570008,0.069 -0.848919,0.0207 -0.09472,-0.0164 -0.196853,-0.0402 -0.269164,-0.10353 -0.06506,-0.057 -0.133884,-0.14182 -0.124231,-0.22775 0.01745,-0.1555 0.17643,-0.27144 0.310576,-0.35199 0.255459,-0.1534 0.578405,-0.14393 0.86962,-0.20706 0.316155,-0.0685 0.647465,-0.0784 0.952444,-0.18634 0.250308,-0.0886 0.490396,-0.21496 0.703971,-0.3727 0.117768,-0.087 0.203955,-0.21024 0.310581,-0.31057 z"
       id="path4595"
       inkscape:connector-curvature="0"
       sodipodi:nodetypes="aaaaaaaaaaaaaaaaaa" />
    <path
       style="fill:#734939;fill-opacity:1;stroke:none;stroke-width:0.08198849px;stroke-linecap:butt;stroke-linejoin:miter;stroke-opacity:1"
       d="m 12.265477,277.32095 0.175691,-1.49336 0.351377,-1.9033 0.14641,-0.76133 0.263534,-0.23425 0.292815,0.11713 0.117123,0.32209 v 0.38066 l -0.08784,0.38067 -0.322096,1.05413 -0.292821,0.99558 -0.234247,0.7906 -0.08785,0.40994 z"
       id="path4552"
       inkscape:connector-curvature="0" />
    <path
       sodipodi:nodetypes="aaaaaaaaaaaaaaaaaaaaaaaaaaaaa"
       inkscape:connector-curvature="0"
       id="path4677"
       d="m 49.362491,277.03801 c -0.622677,-0.0367 -1.151104,-0.49558 -1.756901,-0.6442 -0.439747,-0.10788 -0.895156,-0.20565 -1.346951,-0.17569 -0.826854,0.0548 -1.665467,0.26269 -2.401092,0.6442 -0.406037,0.21058 -0.727875,0.55789 -1.054138,0.87845 -0.404771,0.3977 -0.83009,0.79632 -1.112701,1.28839 -0.359718,0.62633 -0.570851,1.33958 -0.702759,2.04971 -0.09632,0.51856 -0.118026,1.05714 -0.05856,1.5812 0.05926,0.52227 0.188788,1.04582 0.409943,1.52265 0.389598,0.84001 1.047438,1.52732 1.581206,2.28396 0.443453,0.62861 0.924201,1.2313 1.346953,1.87402 0.437862,0.66569 0.696191,1.45802 1.229827,2.04971 0.392221,0.43489 0.891892,0.7728 1.405515,1.05415 0.292558,0.16026 0.605725,0.31236 0.937012,0.35137 0.625217,0.0736 1.252021,-0.13715 1.874025,-0.23425 0.313978,-0.049 0.61938,-0.166 0.937012,-0.17569 0.314622,-0.01 0.622256,0.11436 0.937012,0.11713 0.549696,0.005 1.122883,0.0114 1.639766,-0.17569 0.397083,-0.14376 0.772863,-0.38776 1.054141,-0.70276 0.511725,-0.57308 0.697661,-1.36912 1.054136,-2.04971 0.307952,-0.58795 0.601482,-1.18424 0.937012,-1.7569 0.457159,-0.78025 1.094435,-1.45865 1.464081,-2.28397 0.356224,-0.79535 0.600543,-1.65275 0.702759,-2.51821 0.06186,-0.52379 0.05238,-1.06558 -0.05857,-1.58121 -0.119726,-0.5564 -0.368253,-1.08345 -0.644191,-1.58121 -0.210147,-0.37908 -0.46563,-0.73722 -0.761321,-1.05413 -0.208025,-0.22295 -0.434417,-0.44081 -0.70276,-0.58564 -1.029589,-0.55568 -2.188801,-0.98472 -3.358217,-1.02071 -1.216546,-0.0374 -2.337232,0.91674 -3.552239,0.84503 z"
       style="fill:#bb1517;fill-opacity:1;stroke:none;stroke-width:0.08198849px;stroke-linecap:butt;stroke-linejoin:miter;stroke-opacity:1" />
    <path
       style="fill:#2c2000;fill-opacity:0.38709675;stroke:none;stroke-width:0.25164881px;stroke-linecap:butt;stroke-linejoin:miter;stroke-opacity:1"
       d="M 185.75586 24.222656 C 185.70822 24.406901 185.67131 24.592329 185.66992 24.773438 C 185.66463 25.485954 186.61126 25.921447 187.27148 26.189453 C 188.10016 26.525831 189.09531 26.574031 189.95117 26.314453 C 190.5029 26.14702 191.20016 25.847941 191.3418 25.289062 C 191.39006 25.098634 191.41334 24.890015 191.41992 24.675781 L 186.56641 24.552734 C 186.56641 24.552734 185.963 24.309945 185.75586 24.222656 z "
       transform="matrix(0.26458333,0,0,0.26458333,0,270.54164)"
       id="path4679" />
    <path
       sodipodi:nodetypes="aaaaaaaaaaaaaaaaaaaaaaaa"
       inkscape:connector-curvature="0"
       id="path4681"
       d="m 55.230013,270.98437 c 0.508112,-0.017 1.022682,-0.004 1.522642,0.0878 0.412862,0.0761 0.795598,0.26993 1.200552,0.38066 0.251219,0.0687 0.503366,0.13977 0.761321,0.17569 0.387171,0.0539 0.782611,0.0166 1.17126,0.0586 0.177086,0.0191 0.439719,-0.0674 0.527068,0.0879 0.02578,0.0458 -0.02862,0.10321 -0.05856,0.14641 -0.255804,0.36912 -0.670783,0.59758 -0.995579,0.90773 -0.818605,0.7817 -1.522142,1.68792 -2.401093,2.40109 -0.208123,0.16887 -0.433473,0.31994 -0.673472,0.43923 -0.362175,0.18001 -0.746484,0.32534 -1.141985,0.40994 -0.373339,0.0799 -0.760209,0.091 -1.141984,0.0878 -0.313694,-0.002 -0.625325,-0.0522 -0.937012,-0.0878 -0.508818,-0.0581 -1.016442,-0.12729 -1.522642,-0.20498 -0.283907,-0.0436 -0.569953,-0.079 -0.849164,-0.1464 -0.159053,-0.0384 -0.414757,0.008 -0.468506,-0.14641 -0.08539,-0.24547 0.321784,-0.41235 0.439225,-0.6442 0.159019,-0.31394 0.205805,-0.67517 0.351377,-0.99557 0.180781,-0.3979 0.382558,-0.7919 0.644197,-1.14198 0.268591,-0.35939 0.57506,-0.70116 0.937012,-0.96629 0.264101,-0.19346 0.574549,-0.31747 0.878445,-0.43923 0.246468,-0.0987 0.503689,-0.17005 0.761321,-0.23425 0.250758,-0.0625 0.506084,-0.10596 0.761321,-0.14641 0.07772,-0.0123 0.155607,-0.0267 0.234253,-0.0293 z"
       style="fill:#7d9b1f;fill-opacity:1;stroke:none;stroke-width:0.08198849px;stroke-linecap:butt;stroke-linejoin:miter;stroke-opacity:1" />
    <path
       sodipodi:nodetypes="aaaaaaaaaaaaaaaaaa"
       inkscape:connector-curvature="0"
       id="path4683"
       d="m 52.740946,289.29465 c 0.409483,-0.38532 0.826196,-0.76407 1.263021,-1.11808 0.180164,-0.14602 0.327514,-0.42725 0.559038,-0.41411 0.141387,0.008 0.269197,0.15444 0.310582,0.28988 0.08072,0.26418 -0.09467,0.54691 -0.18635,0.8075 -0.07376,0.20965 -0.185683,0.40413 -0.28987,0.60045 -0.115984,0.21854 -0.224506,0.44375 -0.3727,0.64186 -0.216392,0.28929 -0.413512,0.64405 -0.745383,0.7868 -0.253603,0.10908 -0.55242,-0.0123 -0.828213,0 -0.539955,0.0242 -1.075381,0.11418 -1.615003,0.14494 -0.282595,0.0161 -0.570008,0.069 -0.848919,0.0207 -0.09472,-0.0164 -0.196853,-0.0402 -0.269164,-0.10353 -0.06506,-0.057 -0.133884,-0.14182 -0.124231,-0.22775 0.01745,-0.1555 0.17643,-0.27144 0.310576,-0.35199 0.255459,-0.1534 0.578405,-0.14393 0.86962,-0.20706 0.316155,-0.0685 0.647465,-0.0784 0.952444,-0.18634 0.250308,-0.0886 0.490396,-0.21496 0.703971,-0.3727 0.117768,-0.087 0.203955,-0.21024 0.310581,-0.31057 z"
       style="display:inline;fill:#664408;fill-opacity:0.16129031;stroke:none;stroke-width:0.08198849px;stroke-linecap:butt;stroke-linejoin:miter;stroke-opacity:1" />
    <path
       style="fill:#516b00;fill-opacity:0.24731182;stroke:none;stroke-width:0.08179503px;stroke-linecap:butt;stroke-linejoin:miter;stroke-opacity:1"
       d="m 60.392155,271.77497 c 0.02578,0.0456 -0.02862,0.10272 -0.05856,0.14572 -0.255804,0.36738 -0.670783,0.59476 -0.99558,0.90345 -0.818604,0.77802 -1.522142,1.67996 -2.401092,2.38978 -0.208123,0.16807 -0.433468,0.31842 -0.673473,0.43715 -0.362174,0.17917 -0.746483,0.32382 -1.141984,0.40801 -0.373339,0.0795 -0.76021,0.0906 -1.141984,0.0874 -0.313694,-0.002 -0.625325,-0.052 -0.937013,-0.0874 -0.508818,-0.0578 -1.016441,-0.12669 -1.522642,-0.204 -0.283906,-0.0433 -0.569947,-0.0786 -0.849163,-0.14572 -0.159048,-0.0382 -0.414752,0.008 -0.468507,-0.14573 z"
       id="path4685"
       inkscape:connector-curvature="0"
       sodipodi:nodetypes="caaaaaaaaacc" />
    <path
       inkscape:connector-curvature="0"
       id="path4687"
       d="m 49.583969,277.07661 0.175691,-1.49336 0.351377,-1.9033 0.14641,-0.76133 0.263534,-0.23425 0.292815,0.11713 0.117123,0.32209 v 0.38066 l -0.08784,0.38067 -0.322096,1.05413 -0.292821,0.99558 -0.234247,0.7906 -0.08785,0.40994 z"
       style="fill:#734939;fill-opacity:1;stroke:none;stroke-width:0.08198849px;stroke-linecap:butt;stroke-linejoin:miter;stroke-opacity:1" />
  </g>
  <g
     inkscape:groupmode="layer"
     id="layer4"
     inkscape:label="shade"
     transform="translate(0,-270.54164)" />
  <g
     inkscape:groupmode="layer"
     id="layer2"
     inkscape:label="highlight"
     transform="translate(0,-270.54164)">
    <path
       style="opacity:1;fill:#ffffff;fill-opacity:0.17204303;stroke:none;stroke-width:0.08198849;stroke-opacity:1"
       d="m 8.610827,279.87994 c -0.732952,0.54076 -1.185147,1.35453 -1.633131,2.12852 -0.306751,0.52997 -0.194237,1.36055 -0.706766,1.69564 -0.318607,0.20831 -0.844432,0.21732 -1.141797,-0.0203 -0.880604,-0.70376 -0.937923,-2.16546 -0.804269,-3.28478 0.07144,-0.59831 0.409324,-1.17504 0.831237,-1.60523 0.768135,-0.78322 1.814958,-1.36413 2.892514,-1.56987 0.460415,-0.0879 1.00585,-0.0914 1.396099,0.16824 0.26409,0.1757 0.445227,0.5112 0.469995,0.82743 0.02423,0.30883 -0.146315,0.61847 -0.327603,0.86966 -0.245073,0.33957 -0.629348,0.50512 -0.976279,0.79071 z"
       id="path4556"
       inkscape:connector-curvature="0"
       sodipodi:nodetypes="saaaaaaaaass" />
    <path
       sodipodi:nodetypes="saaaaaaaaass"
       inkscape:connector-curvature="0"
       id="path4689"
       d="m 46.362648,280.08039 c -0.732952,0.54076 -1.185147,1.35453 -1.633131,2.12852 -0.306751,0.52997 -0.194237,1.36055 -0.706766,1.69564 -0.318607,0.20831 -0.844432,0.21732 -1.141797,-0.0203 -0.880604,-0.70376 -0.937923,-2.16546 -0.804269,-3.28478 0.07144,-0.59831 0.409324,-1.17504 0.831237,-1.60523 0.768135,-0.78322 1.814958,-1.36413 2.892514,-1.56987 0.460415,-0.0879 1.00585,-0.0914 1.396099,0.16824 0.26409,0.1757 0.445227,0.5112 0.469995,0.82743 0.02423,0.30883 -0.146315,0.61847 -0.327603,0.86966 -0.245073,0.33957 -0.629348,0.50512 -0.976279,0.79071 z"
       style="opacity:1;fill:#ffffff;fill-opacity:0.17204303;stroke:none;stroke-width:0.08198849;stroke-opacity:1" />
  </g>
</svg>
