<?xml version="1.0" encoding="UTF-8" standalone="no"?>
<!-- Created with Inkscape (http://www.inkscape.org/) -->

<svg
   xmlns:dc="http://purl.org/dc/elements/1.1/"
   xmlns:cc="http://creativecommons.org/ns#"
   xmlns:rdf="http://www.w3.org/1999/02/22-rdf-syntax-ns#"
   xmlns:svg="http://www.w3.org/2000/svg"
   xmlns="http://www.w3.org/2000/svg"
   xmlns:sodipodi="http://sodipodi.sourceforge.net/DTD/sodipodi-0.dtd"
   xmlns:inkscape="http://www.inkscape.org/namespaces/inkscape"
   width="250"
   height="100"
   viewBox="0 0 66.145832 26.458334"
   version="1.1"
   id="svg8"
   inkscape:version="0.92.4 (f8dce91, 2019-08-02)"
   sodipodi:docname="apple.svg">
  <defs
     id="defs2">
    <clipPath
       clipPathUnits="userSpaceOnUse"
       id="clipPath5336">
      <path
         style="fill:#000000;fill-opacity:1;stroke:none;stroke-width:0.26458332px;stroke-linecap:butt;stroke-linejoin:miter;stroke-opacity:1"
         d="m 17.953868,274.7939 9.307664,-6.99256 2.740326,0.56697 -1.55915,7.18154 -6.283854,1.46466 z"
         id="path5338"
         inkscape:connector-curvature="0"
         sodipodi:nodetypes="cccccc" />
    </clipPath>
  </defs>
  <sodipodi:namedview
     id="base"
     pagecolor="#ffffff"
     bordercolor="#666666"
     borderopacity="1.0"
     inkscape:pageopacity="0.0"
     inkscape:pageshadow="2"
     inkscape:zoom="2.8"
     inkscape:cx="108.8779"
     inkscape:cy="43.06818"
     inkscape:document-units="mm"
     inkscape:current-layer="layer1"
     showgrid="false"
     inkscape:window-width="1920"
     inkscape:window-height="1025"
     inkscape:window-x="1920"
     inkscape:window-y="27"
     inkscape:window-maximized="1"
     inkscape:snap-global="false"
     units="px" />
  <metadata
     id="metadata5">
    <rdf:RDF>
      <cc:Work
         rdf:about="">
        <dc:format>image/svg+xml</dc:format>
        <dc:type
           rdf:resource="http://purl.org/dc/dcmitype/StillImage" />
        <dc:title></dc:title>
      </cc:Work>
    </rdf:RDF>
  </metadata>
  <g
     inkscape:groupmode="layer"
     id="layer3"
     inkscape:label="shadow"
     style="display:inline"
     transform="translate(0,-270.54164)">
    <path
       style="opacity:1;fill:#000000;fill-opacity:0.17204303;stroke:none;stroke-width:0.04871694;stroke-opacity:1"
       id="path4577"
       sodipodi:type="arc"
       sodipodi:cx="11.820459"
       sodipodi:cy="292.32889"
       sodipodi:rx="8.1110039"
       sodipodi:ry="0.99557436"
       sodipodi:start="0"
       sodipodi:end="6.2821754"
       d="m 19.931463,292.32889 a 8.1110039,0.99557436 0 0 1 -8.108956,0.99557 8.1110039,0.99557436 0 0 1 -8.1130505,-0.99507 8.1110039,0.99557436 0 0 1 8.1048595,-0.99608 8.1110039,0.99557436 0 0 1 8.117143,0.99457 l -8.111,0.001 z" />
    <path
       d="m 41.335815,292.34033 a 8.1110039,0.99557436 0 0 1 -8.108956,0.99558 8.1110039,0.99557436 0 0 1 -8.11305,-0.99508 8.1110039,0.99557436 0 0 1 8.104859,-0.99607 8.1110039,0.99557436 0 0 1 8.117143,0.99457 l -8.110999,10e-4 z"
       sodipodi:end="6.2821754"
       sodipodi:start="0"
       sodipodi:ry="0.99557436"
       sodipodi:rx="8.1110039"
       sodipodi:cy="292.34033"
       sodipodi:cx="33.224812"
       sodipodi:type="arc"
       id="path4675"
       style="opacity:1;fill:#000000;fill-opacity:0.17204303;stroke:none;stroke-width:0.04871694;stroke-opacity:1" />
  </g>
  <g
     inkscape:label="base"
     inkscape:groupmode="layer"
     id="layer1"
     transform="translate(0,-270.54164)">
    <path
       style="fill:#bb1517;fill-opacity:1;stroke:none;stroke-width:0.08198849px;stroke-linecap:butt;stroke-linejoin:miter;stroke-opacity:1"
       d="m 11.327188,277.87699 c -0.62047,-0.064 -1.151104,-0.49558 -1.7569011,-0.6442 -0.4397472,-0.10788 -0.8951561,-0.20565 -1.346951,-0.17569 -0.8268537,0.0548 -1.6654668,0.26269 -2.401092,0.6442 -0.4060369,0.21058 -0.7278752,0.55789 -1.054138,0.87845 -0.4047708,0.3977 -0.8300899,0.79632 -1.112701,1.28839 -0.359718,0.62633 -0.5708511,1.33958 -0.702759,2.04971 -0.096323,0.51856 -0.1180262,1.05714 -0.05856,1.5812 0.059263,0.52227 0.1887881,1.04582 0.409943,1.52265 0.3895976,0.84001 1.0474377,1.52732 1.581206,2.28396 0.4434529,0.62861 0.924201,1.2313 1.346953,1.87402 0.4378623,0.66569 0.6961912,1.45802 1.229827,2.04971 0.3922207,0.43489 0.8918917,0.7728 1.405515,1.05415 0.2925582,0.16026 0.6057252,0.31236 0.937012,0.35137 0.6252171,0.0736 1.2520211,-0.13715 1.8740251,-0.23425 0.313978,-0.049 0.61938,-0.166 0.937012,-0.17569 0.314622,-0.01 0.622256,0.11436 0.937012,0.11713 0.549696,0.005 1.122883,0.0115 1.639766,-0.17569 0.397083,-0.14376 0.772863,-0.38776 1.054141,-0.70276 0.511725,-0.57308 0.697661,-1.36912 1.054136,-2.04971 0.307952,-0.58795 0.601482,-1.18424 0.937012,-1.7569 0.457159,-0.78025 1.094435,-1.45865 1.464081,-2.28397 0.356224,-0.79535 0.600543,-1.65275 0.702759,-2.51821 0.06186,-0.52379 0.05238,-1.06558 -0.05857,-1.58121 -0.119726,-0.5564 -0.368253,-1.08345 -0.644191,-1.58121 -0.210147,-0.37908 -0.46563,-0.73722 -0.761321,-1.05413 -0.208025,-0.22295 -0.42993,-0.44945 -0.70276,-0.58564 -0.954585,-0.47649 -2.049602,-0.68798 -3.115533,-0.73346 -1.277403,-0.0545 -2.523102,0.68893 -3.794923,0.55778 z"
       id="path4550"
       inkscape:connector-curvature="0"
       sodipodi:nodetypes="aaaaaaaaaaaaaaaaaaaaaaaaaaaaa" />
    <path
       style="fill:#2c2000;fill-opacity:0.38709675;stroke:none;stroke-width:0.06658208px;stroke-linecap:butt;stroke-linejoin:miter;stroke-opacity:1"
       d="m 12.459233,278.21461 c -0.359869,-0.13784 -0.880318,-0.50392 -1.125135,-0.1568 -0.137991,0.19566 0.0033,0.58703 0.173096,0.74219 0.183999,0.16828 0.464132,0.0412 0.692395,0 0.253614,-0.0458 0.709744,0.0363 0.735663,-0.27179 0.01828,-0.21718 -0.303735,-0.2476 -0.476019,-0.3136 z"
       id="path4615"
       inkscape:connector-curvature="0"
       sodipodi:nodetypes="aaaaaa" />
    <path
       style="display:inline;fill:#664408;fill-opacity:0.16129031;stroke:none;stroke-width:0.08198849px;stroke-linecap:butt;stroke-linejoin:miter;stroke-opacity:1"
       d="m 14.705643,290.13363 c 0.409483,-0.38532 0.826196,-0.76407 1.263021,-1.11808 0.180164,-0.14602 0.327514,-0.42725 0.559038,-0.41411 0.141387,0.008 0.269197,0.15444 0.310582,0.28988 0.08072,0.26418 -0.09467,0.54691 -0.18635,0.8075 -0.07376,0.20965 -0.185683,0.40413 -0.28987,0.60045 -0.115984,0.21854 -0.224506,0.44375 -0.3727,0.64186 -0.216392,0.28929 -0.413512,0.64405 -0.745383,0.7868 -0.253603,0.10908 -0.55242,-0.0123 -0.828213,0 -0.539955,0.0242 -1.075381,0.11418 -1.615003,0.14494 -0.282595,0.0161 -0.570008,0.069 -0.848919,0.0207 -0.09472,-0.0164 -0.196853,-0.0402 -0.269164,-0.10353 -0.06506,-0.057 -0.133884,-0.14182 -0.124231,-0.22775 0.01745,-0.1555 0.17643,-0.27144 0.310576,-0.35199 0.255459,-0.1534 0.578405,-0.14393 0.86962,-0.20706 0.316155,-0.0685 0.647465,-0.0784 0.952444,-0.18634 0.250308,-0.0886 0.490396,-0.21496 0.703971,-0.3727 0.117768,-0.087 0.203955,-0.21024 0.310581,-0.31057 z"
       id="path4595"
       inkscape:connector-curvature="0"
       sodipodi:nodetypes="aaaaaaaaaaaaaaaaaa" />
    <path
       style="fill:#734939;fill-opacity:1;stroke:none;stroke-width:0.08198849px;stroke-linecap:butt;stroke-linejoin:miter;stroke-opacity:1"
       d="m 11.981995,278.36038 0.175691,-1.49336 0.351377,-1.9033 0.14641,-0.76133 0.263534,-0.23425 0.292815,0.11713 0.117123,0.32209 v 0.38066 l -0.08784,0.38067 -0.322096,1.05413 -0.292821,0.99558 -0.234247,0.7906 -0.08785,0.40994 z"
       id="path4552"
       inkscape:connector-curvature="0" />
    <path
       sodipodi:nodetypes="aaaaaaaaaaaaaaaaaaaaaaaaaaaaa"
       inkscape:connector-curvature="0"
       id="path4677"
       d="m 32.731539,277.88845 c -0.622677,-0.0367 -1.151104,-0.49558 -1.756901,-0.6442 -0.439747,-0.10788 -0.895156,-0.20565 -1.346951,-0.17569 -0.826854,0.0548 -1.665467,0.26269 -2.401092,0.6442 -0.406037,0.21058 -0.727875,0.55789 -1.054138,0.87845 -0.404771,0.3977 -0.83009,0.79632 -1.112701,1.28839 -0.359718,0.62633 -0.570851,1.33958 -0.702759,2.04971 -0.09632,0.51856 -0.118026,1.05714 -0.05856,1.5812 0.05926,0.52227 0.188788,1.04582 0.409943,1.52265 0.389598,0.84001 1.047438,1.52732 1.581206,2.28396 0.443453,0.62861 0.924201,1.2313 1.346953,1.87402 0.437862,0.66569 0.696191,1.45802 1.229827,2.04971 0.392221,0.43489 0.891892,0.7728 1.405515,1.05415 0.292558,0.16026 0.605725,0.31236 0.937012,0.35137 0.625217,0.0736 1.252021,-0.13715 1.874025,-0.23425 0.313978,-0.049 0.61938,-0.166 0.937012,-0.17569 0.314622,-0.01 0.622256,0.11436 0.937012,0.11713 0.549696,0.005 1.122883,0.0114 1.639766,-0.17569 0.397083,-0.14376 0.772863,-0.38776 1.054141,-0.70276 0.511725,-0.57308 0.697661,-1.36912 1.054136,-2.04971 0.307952,-0.58795 0.601482,-1.18424 0.937012,-1.7569 0.457159,-0.78025 1.094435,-1.45865 1.464081,-2.28397 0.356224,-0.79535 0.600543,-1.65275 0.702759,-2.51821 0.06186,-0.52379 0.05238,-1.06558 -0.05857,-1.58121 -0.119726,-0.5564 -0.368253,-1.08345 -0.644191,-1.58121 -0.210147,-0.37908 -0.46563,-0.73722 -0.761321,-1.05413 -0.208025,-0.22295 -0.434417,-0.44081 -0.70276,-0.58564 -1.029589,-0.55568 -2.188801,-0.98472 -3.358217,-1.02071 -1.216546,-0.0374 -2.337232,0.91674 -3.552239,0.84503 z"
       style="fill:#bb1517;fill-opacity:1;stroke:none;stroke-width:0.08198849px;stroke-linecap:butt;stroke-linejoin:miter;stroke-opacity:1" />
    <path
       style="fill:#2c2000;fill-opacity:0.38709675;stroke:none;stroke-width:0.06658208px;stroke-linecap:butt;stroke-linejoin:miter;stroke-opacity:1"
       d="m 32.516952,277.80099 c -0.01261,0.0488 -0.02237,0.0978 -0.02274,0.14573 -0.0014,0.18852 0.249063,0.30374 0.423747,0.37465 0.219254,0.089 0.482555,0.10176 0.709001,0.0331 0.145978,-0.0443 0.330462,-0.12343 0.367937,-0.2713 0.01277,-0.0504 0.01893,-0.10559 0.02067,-0.16227 l -1.284158,-0.0325 c 0,0 -0.159652,-0.0642 -0.214458,-0.0873 z"
       id="path4679"
       inkscape:connector-curvature="0" />
    <path
       sodipodi:nodetypes="aaaaaaaaaaaaaaaaaaaaaaaa"
       inkscape:connector-curvature="0"
       id="path4681"
       d="m 38.599061,271.83481 c 0.508112,-0.017 1.022682,-0.004 1.522642,0.0878 0.412862,0.0761 0.795598,0.26993 1.200552,0.38066 0.251219,0.0687 0.503366,0.13977 0.761321,0.17569 0.387171,0.0539 0.782611,0.0166 1.17126,0.0586 0.177086,0.0191 0.439719,-0.0674 0.527068,0.0879 0.02578,0.0458 -0.02862,0.10321 -0.05856,0.14641 -0.255804,0.36912 -0.670783,0.59758 -0.995579,0.90773 -0.818605,0.7817 -1.522142,1.68792 -2.401093,2.40109 -0.208123,0.16887 -0.433473,0.31994 -0.673472,0.43923 -0.362175,0.18001 -0.746484,0.32534 -1.141985,0.40994 -0.373339,0.0799 -0.760209,0.091 -1.141984,0.0878 -0.313694,-0.002 -0.625325,-0.0522 -0.937012,-0.0878 -0.508818,-0.0581 -1.016442,-0.12729 -1.522642,-0.20498 -0.283907,-0.0436 -0.569953,-0.079 -0.849164,-0.1464 -0.159053,-0.0384 -0.414757,0.008 -0.468506,-0.14641 -0.08539,-0.24547 0.321784,-0.41235 0.439225,-0.6442 0.159019,-0.31394 0.205805,-0.67517 0.351377,-0.99557 0.180781,-0.3979 0.382558,-0.7919 0.644197,-1.14198 0.268591,-0.35939 0.57506,-0.70116 0.937012,-0.96629 0.264101,-0.19346 0.574549,-0.31747 0.878445,-0.43923 0.246468,-0.0987 0.503689,-0.17005 0.761321,-0.23425 0.250758,-0.0625 0.506084,-0.10596 0.761321,-0.14641 0.07772,-0.0123 0.155607,-0.0267 0.234253,-0.0293 z"
       style="fill:#7d9b1f;fill-opacity:1;stroke:none;stroke-width:0.08198849px;stroke-linecap:butt;stroke-linejoin:miter;stroke-opacity:1" />
    <path
       sodipodi:nodetypes="aaaaaaaaaaaaaaaaaa"
       inkscape:connector-curvature="0"
       id="path4683"
       d="m 36.109994,290.14509 c 0.409483,-0.38532 0.826196,-0.76407 1.263021,-1.11808 0.180164,-0.14602 0.327514,-0.42725 0.559038,-0.41411 0.141387,0.008 0.269197,0.15444 0.310582,0.28988 0.08072,0.26418 -0.09467,0.54691 -0.18635,0.8075 -0.07376,0.20965 -0.185683,0.40413 -0.28987,0.60045 -0.115984,0.21854 -0.224506,0.44375 -0.3727,0.64186 -0.216392,0.28929 -0.413512,0.64405 -0.745383,0.7868 -0.253603,0.10908 -0.55242,-0.0123 -0.828213,0 -0.539955,0.0242 -1.075381,0.11418 -1.615003,0.14494 -0.282595,0.0161 -0.570008,0.069 -0.848919,0.0207 -0.09472,-0.0164 -0.196853,-0.0402 -0.269164,-0.10353 -0.06506,-0.057 -0.133884,-0.14182 -0.124231,-0.22775 0.01745,-0.1555 0.17643,-0.27144 0.310576,-0.35199 0.255459,-0.1534 0.578405,-0.14393 0.86962,-0.20706 0.316155,-0.0685 0.647465,-0.0784 0.952444,-0.18634 0.250308,-0.0886 0.490396,-0.21496 0.703971,-0.3727 0.117768,-0.087 0.203955,-0.21024 0.310581,-0.31057 z"
       style="display:inline;fill:#664408;fill-opacity:0.16129031;stroke:none;stroke-width:0.08198849px;stroke-linecap:butt;stroke-linejoin:miter;stroke-opacity:1" />
    <path
       style="fill:#516b00;fill-opacity:0.24731182;stroke:none;stroke-width:0.08179503px;stroke-linecap:butt;stroke-linejoin:miter;stroke-opacity:1"
       d="m 43.761203,272.62541 c 0.02578,0.0456 -0.02862,0.10272 -0.05856,0.14572 -0.255804,0.36738 -0.670783,0.59476 -0.99558,0.90345 -0.818604,0.77802 -1.522142,1.67996 -2.401092,2.38978 -0.208123,0.16807 -0.433468,0.31842 -0.673473,0.43715 -0.362174,0.17917 -0.746483,0.32382 -1.141984,0.40801 -0.373339,0.0795 -0.76021,0.0906 -1.141984,0.0874 -0.313694,-0.002 -0.625325,-0.052 -0.937013,-0.0874 -0.508818,-0.0578 -1.016441,-0.12669 -1.522642,-0.204 -0.283906,-0.0433 -0.569947,-0.0786 -0.849163,-0.14572 -0.159048,-0.0382 -0.414752,0.008 -0.468507,-0.14573 z"
       id="path4685"
       inkscape:connector-curvature="0"
       sodipodi:nodetypes="caaaaaaaaacc" />
    <path
       inkscape:connector-curvature="0"
       id="path4687"
       d="m 32.953017,277.92705 0.175691,-1.49336 0.351377,-1.9033 0.14641,-0.76133 0.263534,-0.23425 0.292815,0.11713 0.117123,0.32209 v 0.38066 l -0.08784,0.38067 -0.322096,1.05413 -0.292821,0.99558 -0.234247,0.7906 -0.08785,0.40994 z"
       style="fill:#734939;fill-opacity:1;stroke:none;stroke-width:0.08198849px;stroke-linecap:butt;stroke-linejoin:miter;stroke-opacity:1" />
    <path
       style="opacity:1;fill:#000000;fill-opacity:0.18817204;stroke:none;stroke-width:0.26555037;stroke-opacity:1"
       id="path5280"
       sodipodi:type="arc"
       sodipodi:cx="53.706234"
       sodipodi:cy="292.1134"
       sodipodi:rx="7.8242512"
       sodipodi:ry="0.92468441"
       sodipodi:start="0"
       sodipodi:end="6.282173"
       d="m 61.530485,292.1134 a 7.8242512,0.92468441 0 0 1 -7.822271,0.92469 7.8242512,0.92468441 0 0 1 -7.82623,-0.92422 7.8242512,0.92468441 0 0 1 7.81831,-0.92515 7.8242512,0.92468441 0 0 1 7.830187,0.92375 l -7.824247,9.3e-4 z" />
    <path
       style="fill:#a25300;fill-opacity:1;stroke:none;stroke-width:0.29601508px;stroke-linecap:butt;stroke-linejoin:miter;stroke-opacity:1"
       d="m 53.221971,279.04017 c -0.168943,-0.63533 0.05623,-1.46822 0.10689,-2.19587 0.05503,-0.79056 0.03396,-1.65775 0.213779,-2.35274 0.07906,-0.30562 0.196588,-0.69561 0.356288,-0.70582 0.07604,-0.007 0.152126,0.15642 0.17815,0.31371 0.02067,0.12518 -0.0209,0.26277 -0.03563,0.39211 -0.06001,0.52962 -0.14407,1.04464 -0.213779,1.5685 -0.0729,0.54793 -0.152667,1.09203 -0.213779,1.64692 -0.05707,0.51814 0.07187,1.32025 -0.142519,1.56846 -0.08004,0.0925 -0.203704,-0.0634 -0.249399,-0.23527 z"
       id="path5274"
       inkscape:connector-curvature="0"
       sodipodi:nodetypes="aaaaaaaaaa" />
    <path
       inkscape:connector-curvature="0"
       style="fill:#654124;fill-opacity:0.51209675;stroke:none;stroke-width:0.62142938px;stroke-linecap:butt;stroke-linejoin:miter;stroke-opacity:1"
       d="m 53.919989,273.79454 -0.140782,1.01711 -0.274304,2.39348 -0.246386,1.90555 c 0.05679,0.13459 0.145338,0.2426 0.212394,0.16512 0.21439,-0.24822 0.08615,-1.05121 0.143224,-1.56937 0.06112,-0.55488 0.140712,-1.09788 0.213615,-1.6458 0.06971,-0.52386 0.153606,-1.03976 0.213615,-1.56937 0.0148,-0.12941 0.05588,-0.26683 0.0352,-0.39202 -0.02363,-0.14281 -0.08794,-0.28382 -0.156564,-0.30465 z"
       id="path5348" />
    <path
       style="fill:#7d9b1f;fill-opacity:1;stroke:none;stroke-width:0.26555037px;stroke-linecap:butt;stroke-linejoin:miter;stroke-opacity:1"
       d="m 53.692805,276.36908 c 0.374772,-0.92913 0.955364,-2.22421 1.771956,-3.0836 0.616108,-0.64841 1.408601,-1.16552 2.255262,-1.45392 1.040936,-0.35459 2.198392,-0.4297 3.287364,-0.27673 1.429923,0.20082 1.900668,0.24554 3.417279,0.19377 -0.932889,1.35196 -1.09188,1.66587 -1.753848,2.40492 -0.585,0.65311 -1.233443,1.2578 -1.942424,1.7737 -0.56549,0.41146 -1.149492,0.84973 -1.822759,1.0389 -0.785829,0.22078 -1.635846,0.15784 -2.447692,0.0731 -0.943291,-0.0984 -1.599147,-0.15548 -2.765144,-0.67011 z"
       id="path5282"
       inkscape:connector-curvature="0"
       sodipodi:nodetypes="caascaaaacc" />
    <path
       sodipodi:nodetypes="caascaaaacc"
       inkscape:connector-curvature="0"
       id="path5284"
       d="m 17.953868,274.7939 c 0.144867,-0.98766 0.403136,-2.37797 0.992188,-3.40178 0.44443,-0.77245 1.090467,-1.45918 1.842634,-1.93713 0.924752,-0.58763 2.027923,-0.932 3.118303,-1.03943 1.431758,-0.14107 1.898088,-0.20819 3.354539,-0.61422 -0.58607,1.52807 -0.66636,1.86934 -1.133928,2.74033 -0.4132,0.76971 -0.899198,1.50744 -1.464657,2.17336 -0.451017,0.53115 -0.913672,1.09257 -1.521223,1.43376 -0.709117,0.39824 -1.547014,0.53663 -2.353033,0.64511 -0.936496,0.12605 -1.585001,0.22459 -2.834823,10e-6 z"
       style="fill:#000000;fill-opacity:0.07526882;stroke:none;stroke-width:0.26458332px;stroke-linecap:butt;stroke-linejoin:miter;stroke-opacity:1"
       clip-path="url(#clipPath5336)"
       transform="matrix(0.97541855,0.23639345,-0.23639345,0.97541855,101.13975,4.085833)" />
    <path
       style="fill:#bb1517;fill-opacity:1;stroke:none;stroke-width:0.4663538px;stroke-linecap:butt;stroke-linejoin:miter;stroke-opacity:1"
       d="m 53.365642,278.88952 c 0.770162,0.002 1.422348,-0.59441 2.15177,-0.84158 0.645188,-0.21867 1.282518,-0.5627 1.963735,-0.566 1.46676,-0.007 3.167398,0.17709 4.239797,1.17772 1.031396,0.96242 1.411312,2.57899 1.411711,3.98968 3.78e-4,1.33735 -0.712827,2.59981 -1.336175,3.783 -0.577943,1.09701 -1.481295,1.9893 -2.192247,3.00517 -0.694601,0.99253 -0.888069,2.59954 -2.024977,3.01783 -0.969692,0.35678 -1.952784,-0.91261 -2.983527,-0.84077 -0.708733,0.0493 -1.24436,0.78774 -1.951416,0.85713 -1.045235,0.10263 -2.273419,-0.005 -3.076048,-0.68209 -0.746947,-0.63038 -0.73348,-1.81199 -1.106873,-2.71523 -0.353426,-0.85498 -0.620096,-1.7529 -1.07285,-2.55965 -0.328376,-0.58513 -0.868534,-1.03665 -1.179227,-1.63137 -0.649668,-1.24357 -1.485542,-2.57257 -1.391591,-3.97247 0.06965,-1.03801 0.610777,-2.12271 1.416184,-2.78122 0.85166,-0.69632 2.082372,-0.95895 3.179849,-0.88328 0.74064,0.051 1.358152,0.60035 2.043833,0.88494 0.632105,0.26236 1.223663,0.75634 1.908052,0.75819 z"
       id="path4729"
       inkscape:connector-curvature="0"
       sodipodi:nodetypes="aaaaaaaaaaaaaaaaaaa" />
    <path
       style="fill:#ffe7ad;fill-opacity:0.20967742;stroke:none;stroke-width:0.26555037px;stroke-linecap:butt;stroke-linejoin:miter;stroke-opacity:1"
       d="m 46.972634,283.69642 c -0.292826,-0.30885 -0.515551,-0.69175 -0.663875,-1.09067 -0.201049,-0.5407 -0.363885,-1.1357 -0.284519,-1.70709 0.08657,-0.62332 0.371157,-1.25235 0.806136,-1.70712 0.444749,-0.46497 1.082558,-0.74627 1.70711,-0.90099 0.537,-0.13293 1.138659,-0.18601 1.65969,0 0.423155,0.15102 0.859693,0.44348 1.043233,0.85357 0.14865,0.33217 0.15283,0.78683 -0.04742,1.09066 -0.260676,0.39549 -0.894016,0.34236 -1.280333,0.61646 -0.455786,0.32337 -0.920167,0.69364 -1.185493,1.18549 -0.222235,0.41199 -0.109286,0.9411 -0.284518,1.37516 -0.132961,0.32938 -0.221178,0.82912 -0.569035,0.90097 -0.356371,0.0737 -0.650603,-0.35238 -0.900976,-0.61644 z"
       id="path5276"
       inkscape:connector-curvature="0"
       sodipodi:nodetypes="aaaaaaaaaaaaa" />
    <path
       style="fill:#000000;fill-opacity:0.13978493;stroke:none;stroke-width:0.26555037px;stroke-linecap:butt;stroke-linejoin:miter;stroke-opacity:1"
       d="m 59.471674,288.65431 c 0.244982,0.64634 -0.737589,1.17016 -1.07089,1.77569 -0.272689,0.49541 -0.253066,1.26422 -0.758715,1.51743 -0.4665,0.2337 -1.04247,-0.12189 -1.540291,-0.27803 -0.439848,-0.13787 -1.196311,-0.11862 -1.257472,-0.57551 -0.04211,-0.31456 0.463824,-0.43878 0.731061,-0.60998 0.392888,-0.25168 0.859408,-0.369 1.263962,-0.60148 0.300958,-0.17287 0.590778,-0.36804 0.860044,-0.58708 0.336397,-0.27368 0.514748,-0.80313 0.936814,-0.90271 0.284038,-0.067 0.732052,-0.0117 0.835487,0.26167 z"
       id="path5278"
       inkscape:connector-curvature="0"
       sodipodi:nodetypes="aaaaaaaaaa" />
    <path
       inkscape:connector-curvature="0"
       style="fill:#000000;fill-opacity:0.36021507;stroke:none;stroke-width:0.62142938px;stroke-linecap:butt;stroke-linejoin:miter;stroke-opacity:1"
       d="m 52.747525,278.75749 c -0.04592,0.0353 -0.03042,0.12001 -0.0084,0.17356 0.04375,0.1071 0.151398,0.1839 0.254885,0.23546 0.130987,0.0655 0.285703,0.0818 0.432087,0.0789 0.120606,-0.002 0.255391,-0.01 0.353194,-0.0789 0.09254,-0.067 0.141416,-0.18484 0.175989,-0.29373 0.0096,-0.0305 0.03117,-0.0745 0.0073,-0.0959 -0.193369,0.0674 -0.390567,0.11344 -0.597155,0.11298 -0.21425,-5.9e-4 -0.417648,-0.0575 -0.617789,-0.13223 z"
       id="path5340" />
    <path
       style="fill:#a36c33;fill-opacity:0.58602139;stroke:none;stroke-width:0.62142938px;stroke-linecap:butt;stroke-linejoin:miter;stroke-opacity:1"
       d="m 53.842679,274.70389 c -0.02877,0.0336 -0.06461,0.0615 -0.102991,0.0834 -0.04091,0.0235 -0.08607,0.0408 -0.132421,0.049 -0.02896,0.005 -0.06322,-0.0164 -0.08827,0 -0.01244,0.007 -0.0264,0.026 -0.01973,0.0392 0.01362,0.0265 0.05857,0.0164 0.08827,0.0141 0.06185,-0.005 0.12265,-0.0281 0.176552,-0.059 0.02818,-0.0164 0.05035,-0.0411 0.07356,-0.0636 0.03477,-0.0339 0.100668,-0.0591 0.09808,-0.1078 -0.001,-0.0188 -0.02468,-0.0423 -0.04413,-0.0392 -0.03196,0.005 -0.02786,0.0591 -0.04892,0.0839 z"
       id="path5353"
       inkscape:connector-curvature="0"
       sodipodi:nodetypes="aaaaaaaaaaa" />
    <path
       style="fill:#a36c33;fill-opacity:0.58602139;stroke:none;stroke-width:0.52077907px;stroke-linecap:butt;stroke-linejoin:miter;stroke-opacity:1"
       d="m 53.725471,275.82 c -0.0362,0.007 -0.07431,0.007 -0.110977,0.005 -0.03904,-0.007 -0.07856,-0.0164 -0.113372,-0.0341 -0.02184,-0.0117 -0.03392,-0.0429 -0.05863,-0.0456 -0.01221,-8.2e-4 -0.03093,0.005 -0.03299,0.0164 -0.0043,0.0246 0.03081,0.0406 0.05188,0.054 0.04352,0.0287 0.09595,0.0439 0.147617,0.0505 0.02734,0.002 0.05445,-0.002 0.08136,-0.007 0.04038,-0.007 0.09719,0.0117 0.120066,-0.0236 0.0089,-0.0141 0.005,-0.0408 -0.0096,-0.0484 -0.02325,-0.0141 -0.04857,0.0257 -0.07516,0.0312 z"
       id="path5353-3"
       inkscape:connector-curvature="0"
       sodipodi:nodetypes="aaaaaaaaaaa" />
    <path
       sodipodi:nodetypes="aaaaaaaaaaa"
       inkscape:connector-curvature="0"
       id="path5370"
       d="m 53.661961,276.18563 c -0.02231,0.026 -0.05014,0.0477 -0.07996,0.0649 -0.03175,0.0188 -0.06682,0.0317 -0.102779,0.038 -0.02254,0.005 -0.04907,-0.0117 -0.06851,0 -0.0096,0.005 -0.02043,0.0212 -0.01527,0.0305 0.01057,0.0212 0.04547,0.0117 0.06851,0.0117 0.04802,-0.005 0.09519,-0.0212 0.137048,-0.0458 0.02184,-0.0117 0.03909,-0.032 0.05709,-0.0493 0.02701,-0.0262 0.07814,-0.046 0.07612,-0.0836 -8.08e-4,-0.0141 -0.01926,-0.0329 -0.03427,-0.0305 -0.0248,0.005 -0.02161,0.046 -0.03798,0.0651 z"
       style="fill:#a36c33;fill-opacity:0.58602139;stroke:none;stroke-width:0.48235163px;stroke-linecap:butt;stroke-linejoin:miter;stroke-opacity:1" />
    <path
       style="fill:#a36c33;fill-opacity:0.58602139;stroke:none;stroke-width:0.62142938px;stroke-linecap:butt;stroke-linejoin:miter;stroke-opacity:1"
       d="m 53.795134,275.17979 c -0.02326,0.0378 -0.05413,0.071 -0.08864,0.0984 -0.03671,0.0296 -0.07864,0.054 -0.123096,0.069 -0.02765,0.01 -0.06485,-0.007 -0.08716,0.0141 -0.01104,0.01 -0.02208,0.0301 -0.01338,0.0418 0.01738,0.0246 0.06062,0.005 0.08939,4e-5 0.06031,-0.0141 0.116706,-0.047 0.165089,-0.0858 0.02532,-0.0212 0.04329,-0.0485 0.06267,-0.0741 0.02911,-0.0387 0.09015,-0.0745 0.07996,-0.1219 -0.0043,-0.0188 -0.031,-0.0378 -0.04982,-0.0315 -0.03102,0.01 -0.01832,0.0627 -0.03511,0.0907 z"
       id="path5372"
       inkscape:connector-curvature="0"
       sodipodi:nodetypes="aaaaaaaaaaa" />
    <path
       style="fill:#a36c33;fill-opacity:0.58602139;stroke:none;stroke-width:0.48235163px;stroke-linecap:butt;stroke-linejoin:miter;stroke-opacity:1"
       d="m 53.642344,276.60738 c -0.02231,0.026 -0.05014,0.0476 -0.07996,0.0649 -0.03176,0.0188 -0.06682,0.0317 -0.10278,0.0381 -0.02254,0.005 -0.04907,-0.0117 -0.06851,0 -0.0096,0.005 -0.02043,0.0212 -0.01526,0.0305 0.01057,0.0212 0.04547,0.0117 0.06852,0.0117 0.04802,-0.005 0.09519,-0.0212 0.137047,-0.0458 0.02185,-0.0117 0.03909,-0.032 0.05709,-0.0493 0.02701,-0.0263 0.07814,-0.046 0.07612,-0.0836 -8.07e-4,-0.0141 -0.01925,-0.0329 -0.03427,-0.0305 -0.02481,0.005 -0.02161,0.046 -0.03798,0.0651 z"
       id="path5374"
       inkscape:connector-curvature="0"
       sodipodi:nodetypes="aaaaaaaaaaa" />
    <path
       sodipodi:nodetypes="aaaaaaaaaaa"
       inkscape:connector-curvature="0"
       id="path5376"
       d="m 53.583494,277.00952 c -0.02231,0.026 -0.05015,0.0476 -0.07996,0.0649 -0.03175,0.0189 -0.06682,0.0318 -0.10278,0.0381 -0.02254,0.005 -0.04907,-0.0117 -0.06852,0 -0.0096,0.005 -0.02043,0.0212 -0.01526,0.0305 0.01057,0.0212 0.04547,0.0117 0.06851,0.0117 0.04801,-0.005 0.09519,-0.0212 0.137048,-0.0458 0.02184,-0.0117 0.03909,-0.032 0.05709,-0.0493 0.02701,-0.0263 0.07814,-0.046 0.07612,-0.0836 -8.09e-4,-0.0141 -0.01926,-0.0329 -0.03427,-0.0305 -0.0248,0.005 -0.02161,0.046 -0.03798,0.0651 z"
       style="fill:#a36c33;fill-opacity:0.58602139;stroke:none;stroke-width:0.48235163px;stroke-linecap:butt;stroke-linejoin:miter;stroke-opacity:1" />
    <path
       style="fill:#a36c33;fill-opacity:0.58602139;stroke:none;stroke-width:0.48235163px;stroke-linecap:butt;stroke-linejoin:miter;stroke-opacity:1"
       d="m 53.622727,276.76432 c -0.02231,0.026 -0.05015,0.0477 -0.07996,0.0649 -0.03176,0.0187 -0.06682,0.0317 -0.10278,0.038 -0.02254,0.005 -0.04907,-0.0117 -0.06851,0 -0.0096,0.005 -0.02043,0.0212 -0.01526,0.0305 0.01057,0.0212 0.04547,0.0117 0.06852,0.0117 0.048,-0.005 0.09519,-0.0212 0.137048,-0.0458 0.02184,-0.0117 0.03909,-0.032 0.05709,-0.0493 0.02701,-0.0263 0.07814,-0.046 0.07612,-0.0836 -8.07e-4,-0.0141 -0.01925,-0.0328 -0.03427,-0.0305 -0.02481,0.005 -0.02161,0.046 -0.03798,0.0651 z"
       id="path5378"
       inkscape:connector-curvature="0"
       sodipodi:nodetypes="aaaaaaaaaaa" />
    <path
       sodipodi:nodetypes="aaaaaaaaaaa"
       inkscape:connector-curvature="0"
       id="path5380"
       d="m 53.505026,277.55879 c -0.02231,0.026 -0.05014,0.0477 -0.07996,0.0649 -0.03176,0.0188 -0.06682,0.0318 -0.102779,0.0381 -0.02254,0.005 -0.04907,-0.0117 -0.06852,0 -0.0096,0.005 -0.02043,0.0212 -0.01528,0.0305 0.01057,0.0212 0.04547,0.0117 0.06852,0.0117 0.04801,-0.005 0.09519,-0.0212 0.137047,-0.0458 0.02184,-0.0117 0.03909,-0.032 0.05709,-0.0493 0.02701,-0.0263 0.07814,-0.046 0.07612,-0.0836 -8.07e-4,-0.0141 -0.01925,-0.0328 -0.03426,-0.0305 -0.02481,0.005 -0.02161,0.046 -0.03798,0.0651 z"
       style="fill:#a36c33;fill-opacity:0.58602139;stroke:none;stroke-width:0.48235163px;stroke-linecap:butt;stroke-linejoin:miter;stroke-opacity:1" />
    <path
       style="fill:#a36c33;fill-opacity:0.58602139;stroke:none;stroke-width:0.48235163px;stroke-linecap:butt;stroke-linejoin:miter;stroke-opacity:1"
       d="m 53.524642,278.0198 c -0.02231,0.026 -0.05014,0.0476 -0.07996,0.0649 -0.03176,0.0189 -0.06682,0.0318 -0.102779,0.0381 -0.02254,0.005 -0.04907,-0.0117 -0.06851,0 -0.0096,0.005 -0.02043,0.0212 -0.01526,0.0305 0.01057,0.0212 0.04547,0.0117 0.06851,0.0117 0.04802,-0.005 0.09519,-0.0212 0.137047,-0.0458 0.02184,-0.0117 0.03909,-0.032 0.05709,-0.0493 0.02701,-0.0263 0.07814,-0.046 0.07612,-0.0836 -8.07e-4,-0.0141 -0.01925,-0.0328 -0.03427,-0.0305 -0.02481,0.005 -0.0216,0.046 -0.03798,0.0651 z"
       id="path5382"
       inkscape:connector-curvature="0"
       sodipodi:nodetypes="aaaaaaaaaaa" />
    <path
       sodipodi:nodetypes="aaaaaaaaaaa"
       inkscape:connector-curvature="0"
       id="path5384"
       d="m 53.495217,278.58868 c -0.02231,0.026 -0.05014,0.0477 -0.07996,0.0649 -0.03176,0.0188 -0.06682,0.0317 -0.10278,0.0381 -0.02254,0.005 -0.04907,-0.0117 -0.06852,0 -0.0096,0.005 -0.02043,0.0212 -0.01526,0.0305 0.01057,0.0212 0.04547,0.0117 0.06851,0.0117 0.04801,-0.005 0.09519,-0.0212 0.137048,-0.0458 0.02185,-0.0117 0.03909,-0.032 0.05709,-0.0493 0.02701,-0.0263 0.07814,-0.046 0.07612,-0.0836 -8.09e-4,-0.0141 -0.01926,-0.0328 -0.03427,-0.0305 -0.02481,0.005 -0.02161,0.046 -0.03798,0.0651 z"
       style="fill:#a36c33;fill-opacity:0.58602139;stroke:none;stroke-width:0.48235163px;stroke-linecap:butt;stroke-linejoin:miter;stroke-opacity:1" />
  </g>
  <g
     inkscape:groupmode="layer"
     id="layer4"
     inkscape:label="shade"
     transform="translate(0,-270.54164)" />
  <g
     inkscape:groupmode="layer"
     id="layer2"
     inkscape:label="highlight"
     transform="translate(0,-270.54164)">
    <path
       style="opacity:1;fill:#ffffff;fill-opacity:0.17204303;stroke:none;stroke-width:0.08198849;stroke-opacity:1"
       d="m 8.3273449,280.91937 c -0.732952,0.54076 -1.185147,1.35453 -1.633131,2.12852 -0.306751,0.52997 -0.194237,1.36055 -0.706766,1.69564 -0.318607,0.20831 -0.844432,0.21732 -1.141797,-0.0203 -0.880604,-0.70376 -0.937923,-2.16546 -0.804269,-3.28478 0.07144,-0.59831 0.409324,-1.17504 0.831237,-1.60523 0.768135,-0.78322 1.814958,-1.36413 2.892514,-1.56987 0.460415,-0.0879 1.00585,-0.0914 1.396099,0.16824 0.26409,0.1757 0.445227,0.5112 0.469995,0.82743 0.02423,0.30883 -0.146315,0.61847 -0.327603,0.86966 -0.245073,0.33957 -0.629348,0.50512 -0.976279,0.79071 z"
       id="path4556"
       inkscape:connector-curvature="0"
       sodipodi:nodetypes="saaaaaaaaass" />
    <path
       sodipodi:nodetypes="saaaaaaaaass"
       inkscape:connector-curvature="0"
       id="path4689"
       d="m 29.731696,280.93083 c -0.732952,0.54076 -1.185147,1.35453 -1.633131,2.12852 -0.306751,0.52997 -0.194237,1.36055 -0.706766,1.69564 -0.318607,0.20831 -0.844432,0.21732 -1.141797,-0.0203 -0.880604,-0.70376 -0.937923,-2.16546 -0.804269,-3.28478 0.07144,-0.59831 0.409324,-1.17504 0.831237,-1.60523 0.768135,-0.78322 1.814958,-1.36413 2.892514,-1.56987 0.460415,-0.0879 1.00585,-0.0914 1.396099,0.16824 0.26409,0.1757 0.445227,0.5112 0.469995,0.82743 0.02423,0.30883 -0.146315,0.61847 -0.327603,0.86966 -0.245073,0.33957 -0.629348,0.50512 -0.976279,0.79071 z"
       style="opacity:1;fill:#ffffff;fill-opacity:0.17204303;stroke:none;stroke-width:0.08198849;stroke-opacity:1" />
  </g>
</svg>
