<?xml version="1.0" encoding="UTF-8" standalone="no"?>
<!-- Created with Inkscape (http://www.inkscape.org/) -->

<svg
   width="566.43311"
   height="327.23471"
   viewBox="0 0 566.43311 327.23471"
   version="1.1"
   id="SVGRoot"
   sodipodi:docname="wooden_panel.svg"
   inkscape:version="1.2 (56b05e47e7, 2022-06-09, custom)"
   xmlns:inkscape="http://www.inkscape.org/namespaces/inkscape"
   xmlns:sodipodi="http://sodipodi.sourceforge.net/DTD/sodipodi-0.dtd"
   xmlns="http://www.w3.org/2000/svg"
   xmlns:svg="http://www.w3.org/2000/svg">
  <sodipodi:namedview
     id="namedview7196"
     pagecolor="#ffffff"
     bordercolor="#666666"
     borderopacity="1.0"
     inkscape:showpageshadow="2"
     inkscape:pageopacity="0.0"
     inkscape:pagecheckerboard="true"
     inkscape:deskcolor="#d1d1d1"
     inkscape:document-units="px"
     showgrid="false"
     inkscape:zoom="0.5946522"
     inkscape:cx="236.27256"
     inkscape:cy="80.719452"
     inkscape:window-width="1920"
     inkscape:window-height="995"
     inkscape:window-x="1920"
     inkscape:window-y="0"
     inkscape:window-maximized="1"
     inkscape:current-layer="layer1" />
  <defs
     id="defs7191">
    <filter
       inkscape:collect="always"
       style="color-interpolation-filters:sRGB"
       id="filter11832"
       x="-0.12703742"
       y="-0.12703742"
       width="1.2540748"
       height="1.2540748">
      <feGaussianBlur
         inkscape:collect="always"
         stdDeviation="3.5808066"
         id="feGaussianBlur11834" />
    </filter>
    <filter
       inkscape:collect="always"
       style="color-interpolation-filters:sRGB"
       id="filter11853"
       x="-0.030761308"
       y="-0.03221533"
       width="1.0615226"
       height="1.0644307">
      <feGaussianBlur
         inkscape:collect="always"
         stdDeviation="0.33375956"
         id="feGaussianBlur11855" />
    </filter>
    <filter
       inkscape:collect="always"
       style="color-interpolation-filters:sRGB"
       id="filter14986"
       x="-0.025773342"
       y="-0.069086667"
       width="1.0515467"
       height="1.1381733">
      <feGaussianBlur
         inkscape:collect="always"
         stdDeviation="1.1081159"
         id="feGaussianBlur14988" />
    </filter>
    <filter
       inkscape:collect="always"
       style="color-interpolation-filters:sRGB"
       id="filter14990"
       x="-0.0083276262"
       y="-0.061267542"
       width="1.0166553"
       height="1.1225351">
      <feGaussianBlur
         inkscape:collect="always"
         stdDeviation="1.1081159"
         id="feGaussianBlur14992" />
    </filter>
    <filter
       inkscape:collect="always"
       style="color-interpolation-filters:sRGB"
       id="filter14994"
       x="-0.019604045"
       y="-0.10927297"
       width="1.0392081"
       height="1.2185459">
      <feGaussianBlur
         inkscape:collect="always"
         stdDeviation="1.1081159"
         id="feGaussianBlur14996" />
    </filter>
    <filter
       inkscape:collect="always"
       style="color-interpolation-filters:sRGB"
       id="filter14998"
       x="-0.0066560486"
       y="-0.11283394"
       width="1.0133121"
       height="1.2256679">
      <feGaussianBlur
         inkscape:collect="always"
         stdDeviation="1.1081159"
         id="feGaussianBlur15000" />
    </filter>
    <filter
       inkscape:collect="always"
       style="color-interpolation-filters:sRGB"
       id="filter15002"
       x="-0.032991517"
       y="-0.10916542"
       width="1.065983"
       height="1.2183308">
      <feGaussianBlur
         inkscape:collect="always"
         stdDeviation="1.1081159"
         id="feGaussianBlur15004" />
    </filter>
    <filter
       inkscape:collect="always"
       style="color-interpolation-filters:sRGB"
       id="filter15006"
       x="-0.028801417"
       y="-0.084812362"
       width="1.0576028"
       height="1.1696247">
      <feGaussianBlur
         inkscape:collect="always"
         stdDeviation="1.1081159"
         id="feGaussianBlur15008" />
    </filter>
    <filter
       inkscape:collect="always"
       style="color-interpolation-filters:sRGB"
       id="filter15010"
       x="-0.023875214"
       y="-0.18086927"
       width="1.0477504"
       height="1.3617385">
      <feGaussianBlur
         inkscape:collect="always"
         stdDeviation="1.1081159"
         id="feGaussianBlur15012" />
    </filter>
    <filter
       inkscape:collect="always"
       style="color-interpolation-filters:sRGB"
       id="filter15014"
       x="-0.006833699"
       y="-0.074223119"
       width="1.0136674"
       height="1.1484462">
      <feGaussianBlur
         inkscape:collect="always"
         stdDeviation="1.1081159"
         id="feGaussianBlur15016" />
    </filter>
    <filter
       inkscape:collect="always"
       style="color-interpolation-filters:sRGB"
       id="filter15018"
       x="-0.012756022"
       y="-0.07689146"
       width="1.025512"
       height="1.1537829">
      <feGaussianBlur
         inkscape:collect="always"
         stdDeviation="1.1081159"
         id="feGaussianBlur15020" />
    </filter>
    <filter
       inkscape:collect="always"
       style="color-interpolation-filters:sRGB"
       id="filter15022"
       x="-0.012756022"
       y="-0.07689146"
       width="1.025512"
       height="1.1537829">
      <feGaussianBlur
         inkscape:collect="always"
         stdDeviation="1.1081159"
         id="feGaussianBlur15024" />
    </filter>
  </defs>
  <g
     inkscape:label="Layer 1"
     inkscape:groupmode="layer"
     id="layer1"
     transform="translate(-79.117622,-125.42189)">
    <path
       id="path11768"
       style="fill:#7a3a00;fill-opacity:1;stroke-width:1.55717;stroke-linejoin:round"
       d="m 111.04809,127.13802 471.04875,20.14912 c 17.6733,0.75598 33.37112,14.29975 31.93046,31.93047 l -18.98226,232.30406 c -1.44066,17.63072 -14.24465,31.57063 -31.93046,31.93047 l -452.06649,9.19794 C 93.36227,453.00992 79.117622,438.40909 79.117622,420.71961 V 159.06849 c 0,-17.68948 14.257158,-32.68645 31.930468,-31.93047 z"
       sodipodi:nodetypes="sssssssss"
       sodipodi:insensitive="true" />
    <path
       id="rect8464"
       style="fill:#b05500;stroke-width:1.55717;stroke-linejoin:round"
       d="m 119.04809,127.13802 471.04875,20.14912 c 17.6733,0.75598 33.37112,14.29975 31.93046,31.93047 l -18.98226,232.30406 c -1.44066,17.63072 -14.24465,31.57063 -31.93046,31.93047 l -452.06649,9.19794 C 101.36227,453.00992 87.117622,438.40909 87.117622,420.71961 V 159.06849 c 0,-17.68948 14.257158,-32.68645 31.930468,-31.93047 z"
       sodipodi:nodetypes="sssssssss"
       sodipodi:insensitive="true" />
    <path
       id="path11772"
       style="fill:#ffa048;fill-opacity:1;stroke-width:1.36385;stroke-linejoin:round"
       d="m 142.51112,156.58524 428.82756,16.97844 c 16.0892,0.63701 30.37999,12.04953 29.06846,26.90586 L 583.1263,396.21803 c -1.31153,14.85635 -12.96787,26.60266 -29.06846,26.90585 l -411.54672,7.75055 c -16.10059,0.30323 -29.06845,-12 -29.06845,-26.90586 V 183.49111 c 0,-14.90585 12.97925,-27.54289 29.06845,-26.90587 z"
       sodipodi:nodetypes="sssssssss"
       sodipodi:insensitive="true" />
    <path
       id="path11770"
       style="fill:#7d3c00;fill-opacity:1;stroke-width:1.36385;stroke-linejoin:round"
       d="m 138.51112,147.89041 428.82756,16.97843 c 16.0892,0.63702 30.37999,12.04954 29.06846,26.90587 L 579.1263,387.5232 c -1.31153,14.85634 -12.96787,26.60266 -29.06846,26.90585 l -411.54672,7.75054 c -16.10059,0.30324 -29.06845,-12 -29.06845,-26.90586 V 174.79627 c 0,-14.90584 12.97925,-27.54289 29.06845,-26.90586 z"
       sodipodi:nodetypes="sssssssss"
       sodipodi:insensitive="true" />
    <circle
       style="opacity:1;mix-blend-mode:normal;fill:#000000;fill-opacity:0.480911;stroke:none;stroke-width:1.55717;stroke-linejoin:round;filter:url(#filter11832)"
       id="circle11830"
       cx="614.30719"
       cy="156.68883"
       r="33.824425"
       transform="matrix(0.73655653,0,0,0.73655653,161.83522,41.255235)"
       sodipodi:insensitive="true" />
    <circle
       style="fill:#904600;fill-opacity:1;stroke:none;stroke-width:1.14694;stroke-linejoin:round"
       id="path11826"
       cx="617.25342"
       cy="152.24608"
       r="24.913601"
       sodipodi:insensitive="true" />
    <circle
       style="fill:#531a00;fill-opacity:1;stroke:none;stroke-width:0.95593;stroke-linejoin:round"
       id="circle11828"
       cx="617.25342"
       cy="152.24608"
       r="20.764412"
       sodipodi:insensitive="true" />
    <path
       id="path11847"
       style="color:#000000;opacity:0.337857;mix-blend-mode:normal;fill:#000000;fill-opacity:1;stroke-width:0.484499;-inkscape-stroke:none;filter:url(#filter11853)"
       d="m 608.37307,142.36476 c -1.14982,1.23376 -2.30401,2.46702 -3.4568,3.70092 2.87846,2.68605 5.75724,5.37175 8.63583,8.05765 -2.77519,2.60163 -5.55005,5.20357 -8.32545,7.80499 1.37661,1.46512 2.75291,2.93051 4.12866,4.39643 2.87121,-2.69329 5.7434,-5.38556 8.615,-8.07844 2.95711,2.75846 5.91456,5.51658 8.87144,8.27528 1.37222,-1.46891 2.74381,-2.93839 4.11447,-4.40875 -2.85743,-2.66836 -5.71699,-5.33439 -8.57526,-8.00182 2.78086,-2.60665 5.56135,-5.21372 8.34247,-7.82011 -1.37272,-1.46931 -2.74522,-2.93884 -4.1173,-4.40875 -2.88123,2.70121 -5.76157,5.40337 -8.64245,8.10495 -2.97649,-2.77661 -5.95203,-5.55424 -8.92916,-8.33017 -0.22049,0.23593 -0.44098,0.47188 -0.66145,0.70782 z"
       sodipodi:insensitive="true" />
    <path
       id="path11836"
       style="color:#000000;fill:#ffd44e;fill-opacity:1;stroke-width:0.484499"
       d="m 607.64846,140.36476 c -1.14982,1.23376 -2.30401,2.46702 -3.4568,3.70092 2.87846,2.68605 5.75724,5.37175 8.63583,8.05765 -2.77519,2.60163 -5.55005,5.20357 -8.32545,7.80499 1.37661,1.46512 2.75291,2.93051 4.12866,4.39643 2.87121,-2.69329 5.7434,-5.38556 8.615,-8.07844 2.95711,2.75846 5.91456,5.51658 8.87144,8.27528 1.37222,-1.46891 2.74381,-2.93839 4.11447,-4.40875 -2.85743,-2.66836 -5.71699,-5.33439 -8.57526,-8.00182 2.78086,-2.60665 5.56135,-5.21372 8.34247,-7.82011 -1.37272,-1.46931 -2.74522,-2.93884 -4.1173,-4.40875 -2.88123,2.70121 -5.76157,5.40337 -8.64245,8.10495 -2.97649,-2.77661 -5.95203,-5.55424 -8.92916,-8.33017 -0.22049,0.23593 -0.44098,0.47188 -0.66145,0.70782 z"
       sodipodi:insensitive="true" />
    <path
       id="path12591"
       style="color:#000000;opacity:0.179652;mix-blend-mode:hard-light;fill:#000000;fill-opacity:1;filter:url(#filter14986)"
       d="m 563.79772,211.7037 c -13.59647,4.06832 -27.9902,8.74524 -38.0306,19.7664 -10.88556,7.59428 -34.98911,9.36914 -35.12662,8.99776 0.26899,-1.01266 20.97145,3.88073 38.42154,-0.33955 9.79722,-10.20031 18.29502,-20.24157 31.88631,-24.19366 9.99894,-2.9075 20.01331,-6.06517 32.87932,-3.47822 -0.42526,-2.97106 0.27276,-6.10772 -0.1575,-9.07806 -15.06264,6.41025 -24.36414,7.64505 -29.87245,8.32533 z"
       sodipodi:nodetypes="ccccsccc" />
    <path
       id="path12603"
       style="color:#000000;opacity:0.179652;mix-blend-mode:hard-light;fill:#000000;fill-opacity:1;stroke-width:1.20427;filter:url(#filter14990)"
       d="m 109.69068,199.49777 c 20.67953,-4.16457 56.56635,-2.90933 71.99557,-2.16629 45.30379,5.30987 89.06252,13.57424 135.2978,23.14393 27.14387,-6.68673 33.33102,-6.98958 60.53416,-2.89008 12.26566,1.84843 51.06285,-5.83232 51.06285,-5.83232 0,0 -31.9227,1.3436 -41.13413,-0.71314 -18.51593,-0.60362 -24.41026,-3.41828 -42.94634,-3.64139 -27.60605,0.1236 -55.88314,1.23503 -82.55973,-4.62875 -33.56998,-6.38268 -66.69065,-15.2184 -101.85806,-16.1996 -15.62729,2.31869 -37.16403,-4.19813 -50.0938,-9.50234 -1.18848,10.20208 -0.74639,17.86662 -0.29832,22.42998 z"
       sodipodi:nodetypes="cccsccccccc" />
    <path
       id="path12605"
       style="color:#000000;opacity:0.179652;mix-blend-mode:hard-light;fill:#000000;fill-opacity:1;-inkscape-stroke:none;filter:url(#filter14994)"
       d="m 244.96758,223.26953 c -8.1709,-0.27164 -45.07229,3.24168 -53.27379,2.5808 -7.85036,0.264 -29.78526,0.53896 -37.36749,2.9072 -7.16585,-0.71264 -7.33935,-9.46372 -14.07336,-8.25234 -11.06182,4.81382 -30.07374,12.36459 -30.07374,12.36459 l 0.22583,11.85845 29.06471,-11.86742 c 9.43332,-4.33786 11.63705,7.01113 20.46823,0.99607 8.69455,-1.7529 15.63662,-1.50411 24.56135,-0.83887 8.98776,-0.17832 52.39924,0.16204 61.26548,-0.97443 1.90859,-0.90127 -33.77214,-3.83438 -26.12382,-4.49469 9.96439,-0.86026 28.48336,-1.1665 25.3266,-4.27936 z"
       sodipodi:nodetypes="ccccccccccsc" />
    <path
       id="path12607"
       style="color:#000000;opacity:0.179652;mix-blend-mode:hard-light;fill:#000000;fill-opacity:1;-inkscape-stroke:none;filter:url(#filter14998)"
       d="m 110.24677,291.79065 0.15289,15.26254 c 0,0 21.95293,-10.92595 52.93778,-10.31829 74.47997,1.46067 172.15422,10.52615 246.3299,9.71684 18.33281,-5.4298 100.13754,-11.43231 100.13754,-11.43231 0,0 -156.38141,2.50808 -185.17685,-0.42262 -99.77013,-0.79076 -65.7554,-9.68676 -165.43673,-11.10293 12.58902,-0.35326 -48.94453,8.29677 -48.94453,8.29677 z"
       sodipodi:nodetypes="ccsccccc" />
    <path
       id="path12609"
       style="color:#000000;opacity:0.179652;mix-blend-mode:hard-light;fill:#000000;fill-opacity:1;filter:url(#filter15002)"
       d="m 549.03686,262.0045 c -9.33739,4.73807 -38.10802,24.36117 -38.10802,24.36117 0,0 37.86058,-19.58129 49.16375,-14.93721 12.14755,-0.005 18.11962,2.15706 30.26731,2.15806 1.15113,-5.04494 1.17991,-11.31936 1.17991,-11.31936 0,0 -13.09631,6.03238 -24.21394,2.85315 -2.32385,0.014 -15.96538,-3.15853 -18.28901,-3.11613 z"
       sodipodi:nodetypes="cccccccc" />
    <path
       id="path12611"
       style="color:#000000;opacity:0.179652;mix-blend-mode:hard-light;fill:#000000;fill-opacity:1;-inkscape-stroke:none;filter:url(#filter15006)"
       d="m 583.50447,333.24046 c -11.41224,10.84163 -33.95506,17.06663 -55.68264,23.62977 l -36.65581,0.40377 33.0996,7.32366 c 20.34418,-9.85664 38.38912,-12.10271 58.97932,-17.84716 z"
       sodipodi:nodetypes="cccccc" />
    <path
       id="path12613"
       style="color:#000000;opacity:0.179652;mix-blend-mode:hard-light;fill:#000000;fill-opacity:1;-inkscape-stroke:none;filter:url(#filter15010)"
       d="m 179.36223,370.17936 c -18.38519,5.23766 -36.16059,2.40339 -55.59669,2.62984 -5.95074,0.10942 -14.03119,-0.2945 -14.03119,-0.2945 l -0.0459,12.36853 c 0.46821,-4.8271 30.32671,-7.05758 45.32616,-6.57069 16.91656,-3.69019 66.0646,-5.08522 66.0646,-5.08522 0,0 -23.24025,-2.8065 -41.71698,-3.04796 z"
       sodipodi:nodetypes="ccccccc" />
    <path
       id="path12615"
       style="color:#000000;opacity:0.179652;mix-blend-mode:hard-light;fill:#000000;fill-opacity:1;-inkscape-stroke:none;filter:url(#filter15014)"
       d="m 522.57758,377.78522 c -29.80053,0.92594 -58.91337,-2.84666 -88.59032,0.201 -27.20615,6.82054 -49.65041,13.91432 -77.21934,19.02188 -24.2426,0.0854 -72.44524,-0.15839 -72.44524,-0.15839 l -55.35324,7.66264 -38.18426,-2.83605 38.79281,6.794 c 0,0 32.66283,-8.98397 59.65417,-7.67194 27.4187,-0.12244 51.89323,0.37511 91.0087,-0.97093 19.11057,-6.85413 54.56951,-20.76271 79.32231,-17.52704 28.88476,1.4551 62.38755,-1.33488 91.13909,-1.16269 11.84009,-0.38555 17.3826,-4.81337 28.79827,2.5924 0.65615,-5.52941 0.41086,-11.09066 0.41086,-11.09066 -19.99693,3.49319 -21.14603,4.82835 -39.55763,4.59345 z"
       sodipodi:nodetypes="scccccccccccccs" />
    <path
       id="path14982"
       style="color:#000000;opacity:0.179652;mix-blend-mode:hard-light;fill:#000000;fill-opacity:1;filter:url(#filter15018)"
       d="m 308.53491,267.56713 c 31.23837,-5.30987 61.41137,-13.57424 93.29203,-23.14393 18.71654,6.68673 22.98277,6.98958 41.74018,2.89008 8.45755,-1.84843 35.20942,5.83232 35.20942,5.83232 0,0 -22.01169,-1.3436 -28.36326,0.71314 -12.76731,0.60362 -16.83163,3.41828 -29.61283,3.64139 -19.03523,-0.1236 -38.53316,-1.23503 -56.9275,4.62875 -23.14754,6.38268 -45.98527,15.2184 -70.23429,16.1996 -10.7755,-2.31869 -25.62575,4.19813 -23.05675,-2.28247 2.569,-6.4806 27.31407,-7.73584 37.953,-8.47888 z"
       sodipodi:nodetypes="ccsccccccc" />
    <path
       id="path14984"
       style="color:#000000;opacity:0.179652;mix-blend-mode:hard-light;fill:#000000;fill-opacity:1;filter:url(#filter15022)"
       d="m 255.1405,342.00647 c 31.23837,5.30987 61.41137,13.57424 93.29203,23.14393 18.71654,-6.68673 22.98277,-6.98958 41.74018,-2.89008 8.45755,1.84843 35.20942,-5.83232 35.20942,-5.83232 0,0 -22.01169,1.3436 -28.36326,-0.71314 -12.76731,-0.60362 -16.83163,-3.41828 -29.61283,-3.64139 -19.03523,0.1236 -38.53316,1.23503 -56.9275,-4.62875 -23.14754,-6.38268 -45.98527,-15.2184 -70.23429,-16.1996 -10.7755,2.31869 -25.62575,-4.19813 -23.05675,2.28247 2.569,6.4806 27.31407,7.73584 37.953,8.47888 z"
       sodipodi:nodetypes="ccsccccccc" />
    <text
       xml:space="preserve"
       style="font-style:normal;font-weight:normal;font-size:40px;line-height:1.25;font-family:sans-serif;fill:#ffa33a;fill-opacity:1;stroke:none"
       x="121.51315"
       y="232.55542"
       id="text36283"><tspan
         sodipodi:role="line"
         id="tspan36281"
         x="121.51315"
         y="232.55542"
         style="font-style:normal;font-variant:normal;font-weight:normal;font-stretch:normal;font-family:Nasalization;-inkscape-font-specification:Nasalization;fill:#ffa33a;fill-opacity:1">Resolution</tspan></text>
    <text
       xml:space="preserve"
       style="font-style:normal;font-weight:normal;font-size:28px;line-height:1.25;font-family:sans-serif;fill:#ffa33a;fill-opacity:1;stroke:none"
       x="389.78644"
       y="232.27542"
       id="text41258"><tspan
         sodipodi:role="line"
         id="tspan41256"
         x="389.78644"
         y="232.27542"
         style="font-style:normal;font-variant:normal;font-weight:normal;font-stretch:normal;font-size:28px;font-family:Nasalization;-inkscape-font-specification:Nasalization;fill:#ffa33a;fill-opacity:1">1280 X 720</tspan></text>
    <text
       xml:space="preserve"
       style="font-style:normal;font-weight:normal;font-size:40px;line-height:1.25;font-family:sans-serif;fill:#ffa33a;fill-opacity:1;stroke:none"
       x="121.51315"
       y="294.54419"
       id="text41274"><tspan
         sodipodi:role="line"
         id="tspan41272"
         x="121.51315"
         y="294.54419"
         style="font-style:normal;font-variant:normal;font-weight:normal;font-stretch:normal;font-family:Nasalization;-inkscape-font-specification:Nasalization;fill:#ffa33a;fill-opacity:1">Resolution</tspan></text>
    <text
       xml:space="preserve"
       style="font-style:normal;font-weight:normal;font-size:28px;line-height:1.25;font-family:sans-serif;fill:#ffa33a;fill-opacity:1;stroke:none"
       x="389.78644"
       y="294.26419"
       id="text41278"><tspan
         sodipodi:role="line"
         id="tspan41276"
         x="389.78644"
         y="294.26419"
         style="font-style:normal;font-variant:normal;font-weight:normal;font-stretch:normal;font-size:28px;font-family:Nasalization;-inkscape-font-specification:Nasalization;fill:#ffa33a;fill-opacity:1">1280 X 720</tspan></text>
    <text
       xml:space="preserve"
       style="font-style:normal;font-weight:normal;font-size:40px;line-height:1.25;font-family:sans-serif;fill:#ffa33a;fill-opacity:1;stroke:none"
       x="121.51315"
       y="352.91315"
       id="text41282"><tspan
         sodipodi:role="line"
         id="tspan41280"
         x="121.51315"
         y="352.91315"
         style="font-style:normal;font-variant:normal;font-weight:normal;font-stretch:normal;font-family:Nasalization;-inkscape-font-specification:Nasalization;fill:#ffa33a;fill-opacity:1">Resolution</tspan></text>
    <text
       xml:space="preserve"
       style="font-style:normal;font-weight:normal;font-size:28px;line-height:1.25;font-family:sans-serif;fill:#ffa33a;fill-opacity:1;stroke:none"
       x="389.78644"
       y="352.63315"
       id="text41286"><tspan
         sodipodi:role="line"
         id="tspan41284"
         x="389.78644"
         y="352.63315"
         style="font-style:normal;font-variant:normal;font-weight:normal;font-stretch:normal;font-size:28px;font-family:Nasalization;-inkscape-font-specification:Nasalization;fill:#ffa33a;fill-opacity:1">1280 X 720</tspan></text>
  </g>
</svg>
