<?xml version="1.0" encoding="UTF-8" standalone="no"?>
<!-- Created with Inkscape (http://www.inkscape.org/) -->

<svg
   width="795.63995"
   height="475.88577"
   viewBox="0 0 210.51306 125.91144"
   version="1.1"
   id="svg5"
   inkscape:version="1.2 (56b05e47e7, 2022-06-09, custom)"
   sodipodi:docname="crown1.svg"
   xmlns:inkscape="http://www.inkscape.org/namespaces/inkscape"
   xmlns:sodipodi="http://sodipodi.sourceforge.net/DTD/sodipodi-0.dtd"
   xmlns="http://www.w3.org/2000/svg"
   xmlns:svg="http://www.w3.org/2000/svg">
  <sodipodi:namedview
     id="namedview7"
     pagecolor="#828282"
     bordercolor="#666666"
     borderopacity="1.0"
     inkscape:showpageshadow="2"
     inkscape:pageopacity="0"
     inkscape:pagecheckerboard="0"
     inkscape:deskcolor="#d1d1d1"
     inkscape:document-units="mm"
     showgrid="false"
     showguides="false"
     inkscape:lockguides="false"
     inkscape:zoom="0.4204826"
     inkscape:cx="453.05085"
     inkscape:cy="696.81836"
     inkscape:window-width="1364"
     inkscape:window-height="995"
     inkscape:window-x="2476"
     inkscape:window-y="0"
     inkscape:window-maximized="0"
     inkscape:current-layer="layer1">
    <sodipodi:guide
       position="60.713672,-57.556522"
       orientation="0,-1"
       id="guide1003"
       inkscape:locked="false" />
    <sodipodi:guide
       position="114.08483,11.880761"
       orientation="0,-1"
       id="guide1007"
       inkscape:locked="false" />
    <sodipodi:guide
       position="47.194664,83.903722"
       orientation="1,0"
       id="guide1009"
       inkscape:locked="false" />
    <sodipodi:guide
       position="246.76589,-15.253257"
       orientation="1,0"
       id="guide1011"
       inkscape:locked="false" />
    <sodipodi:guide
       position="147.26982,47.504843"
       orientation="1,0"
       id="guide2465"
       inkscape:locked="false" />
    <sodipodi:guide
       position="96.206349,-86.356933"
       orientation="1,0"
       id="guide2467"
       inkscape:locked="false" />
    <sodipodi:guide
       position="196.11082,-28.958121"
       orientation="1,0"
       id="guide2469"
       inkscape:locked="false" />
    <sodipodi:guide
       position="27.713204,47.508073"
       orientation="0,-1"
       id="guide2471"
       inkscape:locked="false" />
    <sodipodi:guide
       position="236.70938,146.00971"
       orientation="1,0"
       id="guide2473"
       inkscape:locked="false" />
    <sodipodi:guide
       position="56.42015,113.2495"
       orientation="1,0"
       id="guide2475"
       inkscape:locked="false" />
    <sodipodi:guide
       position="-131.09256,-12.597952"
       orientation="0,-1"
       id="guide2477"
       inkscape:locked="false" />
    <sodipodi:guide
       position="30.902831,-19.736798"
       orientation="0,-1"
       id="guide2483"
       inkscape:locked="false" />
    <sodipodi:guide
       position="-45.626493,-28.635557"
       orientation="0,-1"
       id="guide2487"
       inkscape:locked="false" />
    <sodipodi:guide
       position="17.104996,-33.404337"
       orientation="0,-1"
       id="guide2489"
       inkscape:locked="false" />
    <sodipodi:guide
       position="252.03699,42.109573"
       orientation="1,0"
       id="guide2491"
       inkscape:locked="false" />
    <sodipodi:guide
       position="41.581341,167.58207"
       orientation="1,0"
       id="guide2493"
       inkscape:locked="false" />
    <sodipodi:guide
       position="242.90941,-16.184756"
       orientation="0,-1"
       id="guide2545"
       inkscape:locked="false" />
    <sodipodi:guide
       position="18.506455,-31.132588"
       orientation="0,-1"
       id="guide2547"
       inkscape:locked="false" />
    <sodipodi:guide
       position="16.664817,83.933742"
       orientation="0,-1"
       id="guide4001"
       inkscape:locked="false" />
    <sodipodi:guide
       position="71.521844,59.135092"
       orientation="1,0"
       id="guide4962"
       inkscape:locked="false" />
    <sodipodi:guide
       position="121.78286,129.87187"
       orientation="1,0"
       id="guide4964"
       inkscape:locked="false" />
    <sodipodi:guide
       position="221.78121,35.880444"
       orientation="1,0"
       id="guide4968"
       inkscape:locked="false" />
    <sodipodi:guide
       position="171.79189,29.511129"
       orientation="1,0"
       id="guide4970"
       inkscape:locked="false" />
    <sodipodi:guide
       position="164.23654,71.087132"
       orientation="0,-1"
       id="guide4972"
       inkscape:locked="false" />
  </sodipodi:namedview>
  <defs
     id="defs2">
    <filter
       inkscape:collect="always"
       style="color-interpolation-filters:sRGB"
       id="filter7945"
       x="-0.10076018"
       y="-0.10047855"
       width="1.2015204"
       height="1.2009571">
      <feGaussianBlur
         inkscape:collect="always"
         stdDeviation="2.4335683"
         id="feGaussianBlur7947" />
    </filter>
    <filter
       inkscape:collect="always"
       style="color-interpolation-filters:sRGB"
       id="filter7959"
       x="-0.1013705"
       y="-0.10108716"
       width="1.202741"
       height="1.2021743">
      <feGaussianBlur
         inkscape:collect="always"
         stdDeviation="2.4483087"
         id="feGaussianBlur7961" />
    </filter>
    <filter
       inkscape:collect="always"
       style="color-interpolation-filters:sRGB"
       id="filter7965"
       x="-0.17019133"
       y="-0.16971563"
       width="1.3403827"
       height="1.3394313">
      <feGaussianBlur
         inkscape:collect="always"
         stdDeviation="4.1104752"
         id="feGaussianBlur7963" />
    </filter>
    <filter
       inkscape:collect="always"
       style="color-interpolation-filters:sRGB"
       id="filter7990"
       x="-0.074070359"
       y="-0.073863327"
       width="1.1481407"
       height="1.1477267">
      <feGaussianBlur
         inkscape:collect="always"
         stdDeviation="1.7889534"
         id="feGaussianBlur7992" />
    </filter>
  </defs>
  <g
     inkscape:label="Layer 1"
     inkscape:groupmode="layer"
     id="layer1"
     transform="translate(-3.3573899,-1.1812814)">
    <path
       style="fill:#c08913;fill-opacity:1;stroke:none;stroke-width:0.264583px;stroke-linecap:butt;stroke-linejoin:miter;stroke-opacity:1"
       d="m 138.84202,64.067523 c 0.48501,0.0778 13.05476,-8.345347 21.94359,-21.408015 9.61611,11.305402 25.846,21.86255 26.25109,20.769878 l 0.87698,20.892285 -35.33386,1.46518 z"
       id="path5145"
       sodipodi:nodetypes="cccccc" />
    <path
       style="fill:#c08913;fill-opacity:1;stroke:none;stroke-width:0.264583px;stroke-linecap:butt;stroke-linejoin:miter;stroke-opacity:1"
       d="m 29.688246,64.536292 c 0.485013,0.0778 13.054767,-8.345347 21.943599,-21.408015 9.61611,11.305402 25.846,21.86255 26.25109,20.769878 l 0.87698,20.892286 -35.333869,1.46518 z"
       id="path4966"
       sodipodi:nodetypes="cccccc" />
    <path
       style="fill:#fad58c;fill-opacity:1;stroke:none;stroke-width:0.47115;stroke-linecap:butt;stroke-linejoin:miter;stroke-dasharray:none;stroke-opacity:1"
       d="M 9.0273109,40.082082 C 19.341045,82.132811 17.270109,86.278471 18.252797,100.18808 H 198.54203 c -0.077,-7.635809 -0.0602,-22.263329 10.05651,-60.105998 0,0 -26.7043,37.880519 -50.65508,35.627279 -28.92808,-2.72147 -48.841,-74.5280796 -48.841,-74.5280796 0,0 -24.562595,72.5358596 -51.063462,74.5280796 C 31.538122,77.701601 9.0273109,40.082082 9.0273109,40.082082 Z"
       id="path4003"
       sodipodi:nodetypes="ccccsczc" />
    <path
       style="fill:#f3b431;fill-opacity:1;stroke:none;stroke-width:0.47115;stroke-linecap:butt;stroke-linejoin:miter;stroke-dasharray:none;stroke-opacity:1"
       d="M 9.0273109,45.902919 C 19.341045,87.953681 17.270109,92.099341 18.252797,106.00895 H 198.54203 c -0.077,-7.635809 -0.0602,-22.263329 10.05651,-60.106031 0,0 -26.7043,37.880552 -50.65508,35.627312 -28.92808,-2.72147 -48.841,-72.0529826 -48.841,-72.0529826 0,0 -24.562595,70.0607626 -51.063462,72.0529826 C 31.538122,83.522471 9.0273109,45.902919 9.0273109,45.902919 Z"
       id="path186"
       sodipodi:nodetypes="ccccsczc" />
    <path
       style="fill:#c3870b;fill-opacity:1;stroke:none;stroke-width:0.465;stroke-linecap:butt;stroke-linejoin:miter;stroke-dasharray:none;stroke-opacity:1"
       d="M 18.252797,112.08945 H 198.54203 v 8.89876 H 18.252797 Z"
       id="path190"
       sodipodi:nodetypes="ccccc" />
    <path
       style="fill:#f3b431;fill-opacity:1;stroke:none;stroke-width:0.465;stroke-linecap:butt;stroke-linejoin:miter;stroke-dasharray:none;stroke-opacity:1"
       d="M 18.252797,114.20613 H 198.54203 v 8.89876 H 18.252797 Z"
       id="path4063"
       sodipodi:nodetypes="ccccc" />
    <path
       style="fill:#f3b431;fill-opacity:1;stroke:none;stroke-width:0.465;stroke-linecap:butt;stroke-linejoin:miter;stroke-dasharray:none;stroke-opacity:1"
       d="M 9.0273109,105.47978 H 208.60737 c 7.5684,0.38036 6.44402,7.55593 0,7.13884 H 9.0273109 c -7.641335,-0.28176 -7.273183,-7.24122 0,-7.13884 z"
       id="path188"
       sodipodi:nodetypes="ccccc" />
    <path
       style="fill:#f3b431;fill-opacity:1;stroke:none;stroke-width:0.548296;stroke-linecap:butt;stroke-linejoin:miter;stroke-dasharray:none;stroke-opacity:1"
       d="M 9.0273109,120.45904 H 208.60737 c 6.53787,0.0234 7.08142,6.72688 -0.009,6.63028 H 9.0273109 c -7.479666,0.17737 -7.436821,-6.62718 0,-6.63028 z"
       id="path192"
       sodipodi:nodetypes="ccccc" />
    <path
       id="path4403"
       style="opacity:0.995382;fill:#c28e21;fill-opacity:1;stroke:none;stroke-width:0.499849;stroke-linejoin:round;stroke-dasharray:none"
       d="m 208.59848,45.903074 c 0,0 -23.02589,32.656847 -45.49179,35.518247 a 47.016171,91.668694 0 0 0 -2.06551,24.587639 h 37.50107 c -0.077,-7.635799 -0.0605,-22.263219 10.05623,-60.105886 z m -47.49736,68.302806 a 47.016171,91.668694 0 0 0 0.53382,8.8992 h 36.90731 v -8.8992 z" />
    <path
       id="path4492"
       style="fill:#fcd782;fill-opacity:1;stroke:none;stroke-width:0.465;stroke-linecap:butt;stroke-linejoin:miter;stroke-dasharray:none;stroke-opacity:1"
       d="m 29.820771,70.244221 a 47.016171,91.668694 0 0 1 3.595129,35.109489 47.016171,91.668694 0 0 1 -0.01137,0.65525 h 34.594783 a 47.016171,91.668694 0 0 0 0.09147,-5.45651 47.016171,91.668694 0 0 0 -1.37356,-21.989359 c -2.84885,1.69427 -5.75142,2.74726 -8.678021,2.96727 -10.395284,0.78148 -20.168909,-4.53899 -28.218433,-11.28614 z m 3.347082,43.961659 a 47.016171,91.668694 0 0 1 -0.651639,8.8992 h 34.112651 a 47.016171,91.668694 0 0 0 0.91674,-8.8992 z" />
    <path
       id="path4065"
       style="fill:#f9d384;fill-opacity:1;stroke:none;stroke-width:0.548296;stroke-linecap:butt;stroke-linejoin:miter;stroke-dasharray:none;stroke-opacity:1"
       d="m 9.0272079,120.45925 c -4.587096,0.002 -6.356726,2.59038 -5.287532,4.53305 0.658232,-1.23702 2.422686,-2.25448 5.296317,-2.25567 H 208.61605 c 2.56762,0.009 4.20583,1.04942 4.82503,2.3027 0.99672,-1.94234 -0.74795,-4.56546 -4.83381,-4.58008 z" />
    <path
       id="path4070"
       style="fill:#f8d182;fill-opacity:1;stroke:none;stroke-width:0.465;stroke-linecap:butt;stroke-linejoin:miter;stroke-dasharray:none;stroke-opacity:1"
       d="m 9.0272079,105.4798 c -4.414248,-0.0621 -6.279532,2.4762 -5.359879,4.54494 0.611422,-1.35797 2.421364,-2.46964 5.359879,-2.42828 H 208.60727 c 2.88298,0.14489 4.50154,1.27615 5.04827,2.59778 0.80354,-1.98568 -0.65626,-4.49372 -5.04827,-4.71444 z" />
    <ellipse
       style="display:none;opacity:0.995382;fill:#f9d384;fill-opacity:1;stroke:none;stroke-width:0.499849;stroke-linejoin:round;stroke-dasharray:none"
       id="ellipse4408"
       cx="249.54033"
       cy="142.60078"
       rx="47.016171"
       ry="91.668694"
       inkscape:label="shadow_mask" />
    <path
       id="ellipse4485"
       style="display:none;opacity:0.995382;fill:#f9d384;fill-opacity:0.36526;stroke:none;stroke-width:0.499849;stroke-linejoin:round;stroke-dasharray:none"
       inkscape:label="highlight_mask"
       d="m 62.59928,43.094527 a 47.016171,91.668694 0 0 0 -20.398755,9.13536 47.016171,91.668694 0 0 1 32.74012,87.334723 47.016171,91.668694 0 0 1 -26.58494,82.50349 47.016171,91.668694 0 0 0 14.243575,4.36356 47.016171,91.668694 0 0 0 47.01625,-91.66831 47.016171,91.668694 0 0 0 -47.01625,-91.668823 z" />
    <circle
       style="opacity:0.995382;fill:#f33131;fill-opacity:1;stroke:none;stroke-width:0.465;stroke-linejoin:round;stroke-dasharray:none"
       id="path4057"
       cx="9.1210527"
       cy="44.895569"
       r="5.7636628" />
    <path
       id="circle4928"
       style="opacity:0.995382;fill:#ffffff;fill-opacity:0.514749;stroke:none;stroke-width:0.465;stroke-linejoin:round;stroke-dasharray:none"
       d="m 9.5687759,39.346885 a 5.7636628,5.7636628 0 0 0 -5.763989,5.763473 5.7636628,5.7636628 0 0 0 5.763989,5.763989 5.7636628,5.7636628 0 0 0 1.0583331,-0.10232 5.7636628,5.7636628 0 0 1 -4.7056561,-5.661669 5.7636628,5.7636628 0 0 1 4.7149581,-5.663221 5.7636628,5.7636628 0 0 0 -1.0676351,-0.100252 z" />
    <path
       id="path4933"
       style="opacity:0.995382;fill:#000000;fill-opacity:0.205223;stroke:none;stroke-width:0.465;stroke-linejoin:round;stroke-dasharray:none"
       d="m 9.1057579,39.346885 a 5.7636628,5.7636628 0 0 1 5.7639891,5.763473 5.7636628,5.7636628 0 0 1 -5.7639891,5.763989 5.7636628,5.7636628 0 0 1 -1.058333,-0.10232 5.7636628,5.7636628 0 0 0 4.7056561,-5.661669 5.7636628,5.7636628 0 0 0 -4.7149581,-5.663221 5.7636628,5.7636628 0 0 1 1.067635,-0.100252 z" />
    <g
       id="g7275"
       transform="translate(58.655255,-72.049542)">
      <circle
         style="opacity:0.995382;fill:#31f365;fill-opacity:1;stroke:none;stroke-width:0.465;stroke-linejoin:round;stroke-dasharray:none"
         id="circle7269"
         cx="50.645798"
         cy="79.106468"
         r="5.7636628" />
      <path
         id="path7271"
         style="opacity:0.995382;fill:#ffffff;fill-opacity:0.514749;stroke:none;stroke-width:0.465;stroke-linejoin:round;stroke-dasharray:none"
         d="m 51.093521,73.557784 a 5.7636628,5.7636628 0 0 0 -5.763989,5.763473 5.7636628,5.7636628 0 0 0 5.763989,5.763989 5.7636628,5.7636628 0 0 0 1.058333,-0.10232 5.7636628,5.7636628 0 0 1 -4.705656,-5.661669 5.7636628,5.7636628 0 0 1 4.714958,-5.663221 5.7636628,5.7636628 0 0 0 -1.067635,-0.100252 z" />
      <path
         id="path7273"
         style="opacity:0.995382;fill:#000000;fill-opacity:0.205223;stroke:none;stroke-width:0.465;stroke-linejoin:round;stroke-dasharray:none"
         d="m 50.630503,73.557784 a 5.7636628,5.7636628 0 0 1 5.763989,5.763473 5.7636628,5.7636628 0 0 1 -5.763989,5.763989 5.7636628,5.7636628 0 0 1 -1.058333,-0.10232 5.7636628,5.7636628 0 0 0 4.705656,-5.661669 5.7636628,5.7636628 0 0 0 -4.714958,-5.663221 5.7636628,5.7636628 0 0 1 1.067635,-0.100252 z" />
    </g>
    <circle
       style="opacity:0.995382;fill:#f33131;fill-opacity:1;stroke:none;stroke-width:0.465;stroke-linejoin:round;stroke-dasharray:none"
       id="circle7343"
       cx="206.94666"
       cy="43.569305"
       r="5.7636628" />
    <path
       id="path7345"
       style="opacity:0.995382;fill:#ffffff;fill-opacity:0.514749;stroke:none;stroke-width:0.465;stroke-linejoin:round;stroke-dasharray:none"
       d="m 207.39438,38.020625 a 5.7636628,5.7636628 0 0 0 -5.76398,5.763473 5.7636628,5.7636628 0 0 0 5.76398,5.763989 5.7636628,5.7636628 0 0 0 1.05834,-0.10232 5.7636628,5.7636628 0 0 1 -4.70566,-5.661669 5.7636628,5.7636628 0 0 1 4.71496,-5.663221 5.7636628,5.7636628 0 0 0 -1.06764,-0.100252 z" />
    <path
       id="path7347"
       style="opacity:0.995382;fill:#000000;fill-opacity:0.205223;stroke:none;stroke-width:0.465;stroke-linejoin:round;stroke-dasharray:none"
       d="m 206.93137,38.020625 a 5.7636628,5.7636628 0 0 1 5.76399,5.763473 5.7636628,5.7636628 0 0 1 -5.76399,5.763989 5.7636628,5.7636628 0 0 1 -1.05834,-0.10232 5.7636628,5.7636628 0 0 0 4.70566,-5.661669 5.7636628,5.7636628 0 0 0 -4.71496,-5.663221 5.7636628,5.7636628 0 0 1 1.06764,-0.100252 z" />
    <g
       id="g7358"
       transform="translate(-41.869781,-34.875815)">
      <circle
         style="opacity:0.995382;fill:#f33131;fill-opacity:1;stroke:none;stroke-width:0.344841;stroke-linejoin:round;stroke-dasharray:none"
         id="circle7349"
         cx="202.93512"
         cy="77.2911"
         r="4.2742939" />
      <path
         id="path7351"
         style="opacity:0.995382;fill:#ffffff;fill-opacity:0.514749;stroke:none;stroke-width:0.344841;stroke-linejoin:round;stroke-dasharray:none"
         d="m 203.26715,73.176233 a 4.2742938,4.2742938 0 0 0 -4.27453,4.274154 4.2742938,4.2742938 0 0 0 4.27453,4.274535 4.2742938,4.2742938 0 0 0 0.78485,-0.07588 4.2742938,4.2742938 0 0 1 -3.48968,-4.198655 4.2742938,4.2742938 0 0 1 3.49658,-4.199807 4.2742938,4.2742938 0 0 0 -0.79175,-0.07435 z" />
      <path
         id="path7353"
         style="opacity:0.995382;fill:#000000;fill-opacity:0.205223;stroke:none;stroke-width:0.344841;stroke-linejoin:round;stroke-dasharray:none"
         d="m 202.92378,73.176233 a 4.2742938,4.2742938 0 0 1 4.27454,4.274154 4.2742938,4.2742938 0 0 1 -4.27454,4.274535 4.2742938,4.2742938 0 0 1 -0.78486,-0.07588 4.2742938,4.2742938 0 0 0 3.48969,-4.198655 4.2742938,4.2742938 0 0 0 -3.49658,-4.199807 4.2742938,4.2742938 0 0 1 0.79175,-0.07435 z" />
    </g>
    <g
       id="g7366"
       transform="translate(-151.07057,-34.721213)">
      <circle
         style="opacity:0.995382;fill:#f33131;fill-opacity:1;stroke:none;stroke-width:0.344841;stroke-linejoin:round;stroke-dasharray:none"
         id="circle7360"
         cx="202.93512"
         cy="77.2911"
         r="4.2742939" />
      <path
         id="path7362"
         style="opacity:0.995382;fill:#ffffff;fill-opacity:0.514749;stroke:none;stroke-width:0.344841;stroke-linejoin:round;stroke-dasharray:none"
         d="m 203.26715,73.176233 a 4.2742938,4.2742938 0 0 0 -4.27453,4.274154 4.2742938,4.2742938 0 0 0 4.27453,4.274535 4.2742938,4.2742938 0 0 0 0.78485,-0.07588 4.2742938,4.2742938 0 0 1 -3.48968,-4.198655 4.2742938,4.2742938 0 0 1 3.49658,-4.199807 4.2742938,4.2742938 0 0 0 -0.79175,-0.07435 z" />
      <path
         id="path7364"
         style="opacity:0.995382;fill:#000000;fill-opacity:0.205223;stroke:none;stroke-width:0.344841;stroke-linejoin:round;stroke-dasharray:none"
         d="m 202.92378,73.176233 a 4.2742938,4.2742938 0 0 1 4.27454,4.274154 4.2742938,4.2742938 0 0 1 -4.27454,4.274535 4.2742938,4.2742938 0 0 1 -0.78486,-0.07588 4.2742938,4.2742938 0 0 0 3.48969,-4.198655 4.2742938,4.2742938 0 0 0 -3.49658,-4.199807 4.2742938,4.2742938 0 0 1 0.79175,-0.07435 z" />
    </g>
    <g
       id="g7982"
       transform="matrix(2.4398023,0,0,2.4398023,-199.48744,-420.13735)">
      <path
         sodipodi:type="star"
         style="opacity:0.0612498;fill:#000000;fill-opacity:1;stroke:none;stroke-width:0.465;stroke-linejoin:round;stroke-dasharray:none;stroke-opacity:1"
         id="path7984"
         inkscape:flatsided="false"
         sodipodi:sides="5"
         sodipodi:cx="55.466743"
         sodipodi:cy="15.803115"
         sodipodi:r1="11.902117"
         sodipodi:r2="30.898312"
         sodipodi:arg1="0.77656237"
         sodipodi:arg2="1.4048809"
         inkscape:rounded="0"
         inkscape:randomized="0"
         d="M 63.956844,24.144492 60.569762,46.277118 50.157208,26.455308 28.061164,30.073359 43.695169,14.045155 33.426145,-5.8513924 53.501046,4.064443 69.250484,-11.850351 66.02345,10.306177 86.026162,20.366841 Z"
         transform="matrix(0.29581041,-0.15539528,0.14918363,0.30812725,107.46994,209.27762)" />
      <path
         sodipodi:type="star"
         style="opacity:0.503035;fill:#020001;fill-opacity:1;stroke:none;stroke-width:0.465;stroke-linejoin:round;stroke-dasharray:none;stroke-opacity:1;filter:url(#filter7990)"
         id="path7919"
         inkscape:flatsided="false"
         sodipodi:sides="5"
         sodipodi:cx="55.466743"
         sodipodi:cy="15.803115"
         sodipodi:r1="11.902117"
         sodipodi:r2="30.898312"
         sodipodi:arg1="0.77656237"
         sodipodi:arg2="1.4048809"
         inkscape:rounded="0"
         inkscape:randomized="0"
         d="M 63.956844,24.144492 60.569762,46.277118 50.157208,26.455308 28.061164,30.073359 43.695169,14.045155 33.426145,-5.8513924 53.501046,4.064443 69.250484,-11.850351 66.02345,10.306177 86.026162,20.366841 Z"
         transform="matrix(0.29581041,-0.14918363,0.14918363,0.29581041,107.46994,208.7015)" />
      <path
         sodipodi:type="star"
         style="opacity:1;fill:#ffb6eb;fill-opacity:1;stroke:none;stroke-width:0.465;stroke-linejoin:round;stroke-dasharray:none;stroke-opacity:1"
         id="path7921"
         inkscape:flatsided="false"
         sodipodi:sides="5"
         sodipodi:cx="55.466743"
         sodipodi:cy="15.803115"
         sodipodi:r1="11.902117"
         sodipodi:r2="30.898312"
         sodipodi:arg1="0.77656237"
         sodipodi:arg2="1.4048809"
         inkscape:rounded="0"
         inkscape:randomized="0"
         d="M 63.956844,24.144492 60.569762,46.277118 50.157208,26.455308 28.061164,30.073359 43.695169,14.045155 33.426145,-5.8513924 53.501046,4.064443 69.250484,-11.850351 66.02345,10.306177 86.026162,20.366841 Z"
         transform="matrix(0.20232734,-0.10203809,0.10203809,0.20232734,113.39549,207.25936)" />
      <path
         style="fill:#fa89dd;fill-opacity:1;stroke:none;stroke-width:0.0797353px;stroke-linecap:butt;stroke-linejoin:miter;stroke-opacity:1"
         d="m 120.38807,202.84763 -3.90326,-0.86367 7.41764,-0.0616 0.9293,0.88839 z"
         id="path7923" />
      <path
         style="fill:#ef7bd0;fill-opacity:1;stroke:none;stroke-width:0.0797353px;stroke-linecap:butt;stroke-linejoin:miter;stroke-opacity:1"
         d="m 123.90245,201.92232 2.28462,-7.05732 0.0133,3.71789 -1.36865,4.22782 z"
         id="path7925" />
      <path
         style="fill:#dd20a9;fill-opacity:1;stroke:none;stroke-width:0.0797353px;stroke-linecap:butt;stroke-linejoin:miter;stroke-opacity:1"
         d="m 126.18707,194.865 0.0133,3.71789 1.40828,4.21478 0.9292,-0.89712 z"
         id="path7927" />
      <path
         style="fill:#f961d1;fill-opacity:1;stroke:none;stroke-width:0.0797353px;stroke-linecap:butt;stroke-linejoin:miter;stroke-opacity:1"
         d="m 128.53787,201.90055 -0.92919,0.89712 4.44382,-0.005 3.90327,-0.90034 z"
         id="path7929" />
      <path
         style="fill:#4c0a39;fill-opacity:1;stroke:none;stroke-width:0.0797353px;stroke-linecap:butt;stroke-linejoin:miter;stroke-opacity:1"
         d="m 132.0525,202.79286 -3.5733,2.64179 1.5118,0.86773 5.96477,-4.40985 z"
         id="path7931" />
      <path
         style="fill:#6b0e50;fill-opacity:1;stroke:none;stroke-width:0.0797353px;stroke-linecap:butt;stroke-linejoin:miter;stroke-opacity:1"
         d="m 128.4792,205.43465 1.5118,0.86773 2.29989,7.05236 -2.4339,-3.69524 z"
         id="path7933" />
      <path
         style="fill:#91136d;fill-opacity:1;stroke:none;stroke-width:0.0797353px;stroke-linecap:butt;stroke-linejoin:miter;stroke-opacity:1"
         d="m 126.24028,207.07744 0.0134,1.96718 6.03722,4.31012 -2.4339,-3.69524 z"
         id="path7935" />
      <path
         sodipodi:type="star"
         style="opacity:0.762143;fill:#ffffff;fill-opacity:0.691583;stroke:none;stroke-width:0.465;stroke-linejoin:round;stroke-dasharray:none;stroke-opacity:1;filter:url(#filter7945)"
         id="path7943"
         inkscape:flatsided="false"
         sodipodi:sides="5"
         sodipodi:cx="55.466743"
         sodipodi:cy="15.803115"
         sodipodi:r1="11.902117"
         sodipodi:r2="30.898312"
         sodipodi:arg1="0.77656237"
         sodipodi:arg2="1.4048809"
         inkscape:rounded="0"
         inkscape:randomized="0"
         d="M 63.956844,24.144492 60.569762,46.277118 50.157208,26.455308 28.061164,30.073359 43.695169,14.045155 33.426145,-5.8513924 53.501046,4.064443 69.250484,-11.850351 66.02345,10.306177 86.026162,20.366841 Z"
         transform="matrix(0.1772105,-0.08937112,0.08937112,0.1772105,114.98756,206.87189)" />
      <path
         style="fill:#bd1d8f;fill-opacity:1;stroke:none;stroke-width:0.0797353px;stroke-linecap:butt;stroke-linejoin:miter;stroke-opacity:1"
         d="m 116.48481,201.98396 3.90326,0.86367 3.59796,2.60812 -1.4953,0.88185 z"
         id="path7937" />
      <path
         style="fill:#de2aa9;fill-opacity:1;stroke:none;stroke-width:0.0797353px;stroke-linecap:butt;stroke-linejoin:miter;stroke-opacity:1"
         d="m 123.98603,205.45575 -1.4953,0.88185 -2.23356,7.07364 2.39081,-3.71789 z"
         id="path7939" />
      <path
         style="fill:#720f57;fill-opacity:1;stroke:none;stroke-width:0.0797353px;stroke-linecap:butt;stroke-linejoin:miter;stroke-opacity:1"
         d="m 122.64798,209.69335 3.5923,-2.61591 0.0134,1.96718 -5.99649,4.36662 z"
         id="path7941" />
      <path
         sodipodi:type="star"
         style="opacity:0.69608;mix-blend-mode:normal;fill:#ffffff;fill-opacity:0.807163;stroke:none;stroke-width:0.465;stroke-linejoin:round;stroke-dasharray:none;stroke-opacity:1;filter:url(#filter7965)"
         id="path7955"
         inkscape:flatsided="false"
         sodipodi:sides="5"
         sodipodi:cx="55.466743"
         sodipodi:cy="15.803115"
         sodipodi:r1="11.902117"
         sodipodi:r2="30.898312"
         sodipodi:arg1="0.77656237"
         sodipodi:arg2="1.4048809"
         inkscape:rounded="0"
         inkscape:randomized="0"
         d="M 63.956844,24.144492 60.569762,46.277118 50.157208,26.455308 28.061164,30.073359 43.695169,14.045155 33.426145,-5.8513924 53.501046,4.064443 69.250484,-11.850351 66.02345,10.306177 86.026162,20.366841 Z"
         transform="matrix(0.12844978,-0.06478002,0.06478002,0.12844978,118.19234,206.30846)" />
      <path
         sodipodi:type="star"
         style="opacity:1;fill:#ffe4f9;fill-opacity:1;stroke:none;stroke-width:0.465;stroke-linejoin:round;stroke-dasharray:none;stroke-opacity:1;filter:url(#filter7959)"
         id="path7957"
         inkscape:flatsided="false"
         sodipodi:sides="5"
         sodipodi:cx="55.466743"
         sodipodi:cy="15.803115"
         sodipodi:r1="11.902117"
         sodipodi:r2="30.898312"
         sodipodi:arg1="0.77656237"
         sodipodi:arg2="1.4048809"
         inkscape:rounded="0"
         inkscape:randomized="0"
         d="M 63.956844,24.144492 60.569762,46.277118 50.157208,26.455308 28.061164,30.073359 43.695169,14.045155 33.426145,-5.8513924 53.501046,4.064443 69.250484,-11.850351 66.02345,10.306177 86.026162,20.366841 Z"
         transform="matrix(0.08900506,-0.04488719,0.04488719,0.08900506,120.57858,205.51118)" />
    </g>
  </g>
</svg>
