<?xml version="1.0" encoding="UTF-8" standalone="no"?>
<!-- Created with Inkscape (http://www.inkscape.org/) -->

<svg
   width="300"
   height="300"
   viewBox="0 0 79.374998 79.375"
   version="1.1"
   id="svg1"
   inkscape:version="1.3.2 (1:1.3.2+202404261509+091e20ef0f)"
   sodipodi:docname="ribbon2.svg"
   xmlns:inkscape="http://www.inkscape.org/namespaces/inkscape"
   xmlns:sodipodi="http://sodipodi.sourceforge.net/DTD/sodipodi-0.dtd"
   xmlns:xlink="http://www.w3.org/1999/xlink"
   xmlns="http://www.w3.org/2000/svg"
   xmlns:svg="http://www.w3.org/2000/svg">
  <sodipodi:namedview
     id="namedview1"
     pagecolor="#1e4072"
     bordercolor="#000000"
     borderopacity="0.25"
     inkscape:showpageshadow="2"
     inkscape:pageopacity="0.0"
     inkscape:pagecheckerboard="0"
     inkscape:deskcolor="#1f4273"
     inkscape:document-units="px"
     inkscape:zoom="3.8089485"
     inkscape:cx="108.2976"
     inkscape:cy="45.156819"
     inkscape:window-width="1920"
     inkscape:window-height="1011"
     inkscape:window-x="1920"
     inkscape:window-y="32"
     inkscape:window-maximized="1"
     inkscape:current-layer="layer1" />
  <defs
     id="defs1">
    <linearGradient
       id="linearGradient6"
       inkscape:collect="always">
      <stop
         style="stop-color:#971c1c;stop-opacity:1;"
         offset="0"
         id="stop6" />
      <stop
         style="stop-color:#e00303;stop-opacity:1;"
         offset="0.49836937"
         id="stop8" />
      <stop
         style="stop-color:#981c1c;stop-opacity:1;"
         offset="1"
         id="stop7" />
    </linearGradient>
    <linearGradient
       id="linearGradient1"
       inkscape:collect="always">
      <stop
         style="stop-color:#da3636;stop-opacity:1;"
         offset="0"
         id="stop1" />
      <stop
         style="stop-color:#e51010;stop-opacity:1;"
         offset="0.19437777"
         id="stop3" />
      <stop
         style="stop-color:#d21d1d;stop-opacity:1;"
         offset="0.8022095"
         id="stop4" />
      <stop
         style="stop-color:#cb2f2f;stop-opacity:1;"
         offset="1"
         id="stop2" />
    </linearGradient>
    <linearGradient
       inkscape:collect="always"
       xlink:href="#linearGradient1"
       id="linearGradient2"
       x1="29.180752"
       y1="12.231195"
       x2="29.180752"
       y2="18.155306"
       gradientUnits="userSpaceOnUse"
       gradientTransform="matrix(0.98558932,0,0,1.1920787,0.45502996,-2.9044861)" />
    <linearGradient
       inkscape:collect="always"
       xlink:href="#linearGradient1"
       id="linearGradient5"
       gradientUnits="userSpaceOnUse"
       x1="29.180752"
       y1="12.231195"
       x2="29.180752"
       y2="18.155306"
       gradientTransform="matrix(1.1437585,0,0,0.74082568,-4.5393047,3.9197973)" />
    <linearGradient
       inkscape:collect="always"
       xlink:href="#linearGradient6"
       id="linearGradient7"
       x1="11.898676"
       y1="15.122673"
       x2="51.255654"
       y2="15.122673"
       gradientUnits="userSpaceOnUse"
       gradientTransform="matrix(0.99925178,0,0,1.1915972,0.02362686,-2.8972033)" />
    <filter
       inkscape:collect="always"
       style="color-interpolation-filters:sRGB"
       id="filter8"
       x="-0.07057099"
       y="-0.71109634"
       width="1.141142"
       height="2.4221927">
      <feGaussianBlur
         inkscape:collect="always"
         stdDeviation="0.75072278"
         id="feGaussianBlur8" />
    </filter>
    <filter
       inkscape:collect="always"
       style="color-interpolation-filters:sRGB"
       id="filter21"
       x="-0.022003694"
       y="-0.10390307"
       width="1.0437789"
       height="1.2075048">
      <feGaussianBlur
         inkscape:collect="always"
         stdDeviation="0.22862358"
         id="feGaussianBlur21" />
    </filter>
  </defs>
  <g
     inkscape:label="Layer 1"
     inkscape:groupmode="layer"
     id="layer1"
     style="display:inline">
    <path
       id="path4"
       style="fill:#b12020;fill-opacity:1;stroke:#000000;stroke-width:0.219195;stroke-opacity:0.139472"
       d="M 9.2749683,12.070608 C 24.246583,13.324803 39.274441,13.192097 54.024525,11.907799 l -2.037971,3.163873 1.774225,2.871809 C 39.131218,17.405945 24.528635,17.298141 9.2945029,18.242336 L 11.38188,15.025112 Z"
       sodipodi:nodetypes="ccccccc" />
    <path
       id="path5"
       style="fill:url(#linearGradient5);fill-opacity:1;stroke:#e5a600;stroke-width:0.262059;stroke-dasharray:none;stroke-opacity:1"
       d="m 10.49869,12.648643 c 14.205925,1.351865 28.446503,1.071771 42.23646,-0.03355 l -1.959118,2.467605 1.768557,2.199716 C 38.366532,16.558891 24.06109,17.022917 10.311739,17.670086 l 2.114299,-2.707374 z"
       sodipodi:nodetypes="ccccccc" />
    <path
       id="path23"
       style="display:inline;fill:#000000;fill-opacity:0.2415265;stroke:none;stroke-width:0.219195;stroke-opacity:0.139472"
       d="M 9.2749683,12.070608 C 24.246583,13.324803 39.274441,13.192097 54.024525,11.907799 l -2.037971,3.163873 1.774225,2.871809 C 39.131218,17.405945 24.528635,17.298141 9.2945029,18.242336 L 11.38188,15.025112 Z"
       sodipodi:nodetypes="ccccccc" />
    <path
       id="rect1"
       style="display:inline;fill:url(#linearGradient7);fill-opacity:1;stroke:#000000;stroke-width:0.259841;stroke-opacity:0.139472"
       d="m 12.10962,10.730853 c 2.116186,0.153543 4.231934,0.289523 6.347464,0.404287 0.135367,0.0073 0.192043,0.215232 0.341339,0.33753 0.166669,0.136527 0.426136,0.0015 0.57725,0.0093 0.166503,0.0086 0.273861,-0.284337 0.440361,-0.276033 2.404012,0.119902 4.807802,0.211394 7.211693,0.269114 0.17626,0.0042 0.516506,0.214706 0.516506,0.214706 0,0 0.328879,-0.195759 0.487179,-0.192584 6.276328,0.125883 12.553645,0.01646 18.837688,-0.42368 0.225649,-0.0158 0.503725,0.403955 0.729391,0.387293 0.279524,-0.02064 0.506643,-0.47793 0.786194,-0.499899 0.888406,-0.06982 1.776955,-0.146395 2.665664,-0.230004 l -1.642551,4.30942 1.642551,4.478312 c -2.868231,-0.177206 -5.744958,-0.328867 -8.631309,-0.441889 -0.12805,-0.005 -0.372032,-0.233706 -0.372032,-0.233706 0,0 -0.376369,0.20523 -0.558524,0.198636 -3.117122,-0.112848 -6.245595,-0.179036 -9.386841,-0.182171 -3.129385,-0.0031 -6.271335,0.05515 -9.424431,0.159617 -0.20194,0.0067 -0.118469,-0.326223 -0.3205,-0.319158 -0.239388,0.0084 -0.764298,0.356798 -1.003814,0.365684 -3.071163,0.113942 -6.152691,0.269607 -9.243278,0.452987 l 1.68056,-4.722588 z"
       sodipodi:nodetypes="cssssscsssscccscsssssccc" />
    <path
       id="path1"
       style="display:inline;fill:url(#linearGradient2);fill-opacity:1;stroke:none;stroke-width:0.203423;stroke-dasharray:none;stroke-opacity:1"
       d="m 13.515003,11.651855 c 12.012248,0.731011 24.051036,0.83688 36.129849,0 l -1.523985,3.406118 1.523985,3.53961 c -11.81271,-0.640921 -23.807136,-0.776723 -36.129849,0 l 1.559249,-3.732682 z"
       sodipodi:nodetypes="ccccccc" />
    <ellipse
       style="display:inline;opacity:1;mix-blend-mode:overlay;fill:#ffffff;fill-opacity:1;stroke:none;stroke-width:0.284692;stroke-dasharray:none;stroke-opacity:1;filter:url(#filter8)"
       id="path8"
       cx="30.950567"
       cy="15.398352"
       rx="12.765406"
       ry="1.266871"
       transform="matrix(1.2793199,0,0,1.3192815,-8.6451081,-4.9164097)" />
    <text
       xml:space="preserve"
       style="font-size:4.58611px;font-family:Ubuntu;-inkscape-font-specification:Ubuntu;display:inline;fill:#ffffff;fill-opacity:1;stroke:none;stroke-width:0.284692;stroke-dasharray:none;stroke-opacity:0.375079"
       x="25.962805"
       y="17.037262"
       id="text8"><tspan
         sodipodi:role="line"
         id="tspan8"
         style="font-size:4.58611px;fill:#ffffff;fill-opacity:1;stroke:none;stroke-width:0.284692;stroke-dasharray:none;stroke-opacity:0.375079"
         x="0"
         y="0">Trade</tspan></text>
    <g
       id="g21"
       inkscape:label="g21"
       style="display:inline">
      <path
         style="display:inline;opacity:1;fill:#000000;fill-opacity:0.236011;stroke:none;stroke-width:0.277099;stroke-dasharray:none;stroke-opacity:1"
         d="m 18.087709,13.633807 0.370008,-0.358272 0.780493,-0.113053 0.618631,0.113053 -0.347368,1.242655 -0.659882,0.445552 -0.783747,-0.407033 z"
         id="path9"
         sodipodi:nodetypes="cccccccc" />
      <path
         style="opacity:1;fill:#ffffff;fill-opacity:1;stroke:none;stroke-width:0.277099;stroke-dasharray:none;stroke-opacity:1"
         d="m 18.457717,14.760226 0.391874,0.203516 0.659882,-0.445552 0.347368,-1.242655 -0.460598,1.167437 -0.553187,0.372383 z"
         id="path10" />
      <path
         style="opacity:1;fill:#000000;fill-opacity:0.250872;stroke:none;stroke-width:0.277099;stroke-dasharray:none;stroke-opacity:1"
         d="m 18.065844,14.556709 0.02186,-0.922902 0.370008,-0.358272 0.780493,-0.113053 -0.743212,0.26099 -0.279577,0.26875 z"
         id="path11" />
    </g>
    <g
       id="g22"
       style="display:inline">
      <path
         style="display:inline;opacity:1;fill:#000000;fill-opacity:0.236011;stroke:none;stroke-width:0.226253;stroke-dasharray:none;stroke-opacity:1"
         d="m 43.014074,12.682872 0.404989,-0.113269 0.604285,0.222445 0.400132,0.321802 -0.732753,0.756967 -0.64704,0.06316 -0.404311,-0.597076 z"
         id="path14"
         sodipodi:nodetypes="cccccccc" />
      <path
         style="opacity:1;fill:#ffffff;fill-opacity:1;stroke:none;stroke-width:0.226253;stroke-dasharray:none;stroke-opacity:1"
         d="m 42.84153,13.635448 0.202157,0.298538 0.64704,-0.06316 0.732753,-0.756968 -0.784781,0.658924 -0.541982,0.05214 z"
         id="path15" />
      <path
         style="opacity:1;fill:#000000;fill-opacity:0.250872;stroke:none;stroke-width:0.226253;stroke-dasharray:none;stroke-opacity:1"
         d="m 42.639376,13.33691 0.374694,-0.654039 0.404991,-0.11327 0.604285,0.222445 -0.635069,-0.10174 -0.305247,0.08418 z"
         id="path16" />
    </g>
    <path
       id="path21"
       style="display:inline;fill:none;fill-opacity:1;stroke:#fff000;stroke-width:0.310654;stroke-dasharray:none;stroke-opacity:1;filter:url(#filter21)"
       d="m 13.26464,11.653258 c 12.178765,0.730715 24.384437,0.836541 36.630689,0 l -1.545111,3.404742 1.545111,3.53818 c -11.97646,-0.640662 -24.137156,-0.77641 -36.630689,0 l 1.580864,-3.731174 z"
       sodipodi:nodetypes="ccccccc"
       transform="matrix(0.98632731,0,0,1.0004041,0.43172614,-0.00611204)" />
    <path
       id="path22"
       style="display:inline;fill:none;fill-opacity:1;stroke:#fff904;stroke-width:0.0982952;stroke-dasharray:none;stroke-opacity:1"
       d="m 13.515003,11.651855 c 6.631195,0.403544 13.270477,0.616581 19.920117,0.585678 0.09915,-4.61e-4 0.1983,-9.76e-4 0.297454,-0.0015 5.297118,-0.03042 10.600828,-0.216129 15.912278,-0.584133 l -1.523985,3.406118 1.523985,3.53961 c -11.81271,-0.640921 -23.807136,-0.776723 -36.129849,0 l 1.559249,-3.732682 z"
       sodipodi:nodetypes="csscccccc" />
  </g>
</svg>
