<?xml version="1.0" encoding="UTF-8" standalone="no"?>
<!-- Created with Inkscape (http://www.inkscape.org/) -->

<svg
   xmlns:dc="http://purl.org/dc/elements/1.1/"
   xmlns:cc="http://creativecommons.org/ns#"
   xmlns:rdf="http://www.w3.org/1999/02/22-rdf-syntax-ns#"
   xmlns:svg="http://www.w3.org/2000/svg"
   xmlns="http://www.w3.org/2000/svg"
   xmlns:sodipodi="http://sodipodi.sourceforge.net/DTD/sodipodi-0.dtd"
   xmlns:inkscape="http://www.inkscape.org/namespaces/inkscape"
   width="32"
   height="32"
   viewBox="0 0 8.4666665 8.4666669"
   version="1.1"
   id="svg8"
   inkscape:version="0.92.4 (5da689c313, 2019-01-14)"
   sodipodi:docname="fit.svg">
  <defs
     id="defs2" />
  <sodipodi:namedview
     id="base"
     pagecolor="#bebebe"
     bordercolor="#666666"
     borderopacity="1.0"
     inkscape:pageopacity="0"
     inkscape:pageshadow="2"
     inkscape:zoom="7.9195959"
     inkscape:cx="30.949963"
     inkscape:cy="38.794637"
     inkscape:document-units="mm"
     inkscape:current-layer="layer1"
     showgrid="false"
     units="px"
     inkscape:showpageshadow="false"
     inkscape:window-width="1920"
     inkscape:window-height="1016"
     inkscape:window-x="0"
     inkscape:window-y="27"
     inkscape:window-maximized="1"
     inkscape:snap-global="false" />
  <metadata
     id="metadata5">
    <rdf:RDF>
      <cc:Work
         rdf:about="">
        <dc:format>image/svg+xml</dc:format>
        <dc:type
           rdf:resource="http://purl.org/dc/dcmitype/StillImage" />
        <dc:title></dc:title>
      </cc:Work>
    </rdf:RDF>
  </metadata>
  <g
     inkscape:label="Layer 1"
     inkscape:groupmode="layer"
     id="layer1"
     transform="translate(0,-288.53332)">
    <path
       style="opacity:1;fill:none;fill-opacity:1;stroke:#ffffff;stroke-width:0.84416556;stroke-linecap:square;stroke-linejoin:miter;stroke-miterlimit:4;stroke-dasharray:none;stroke-opacity:1"
       d="m 6.2189566,291.97956 a 2.868343,2.868343 0 0 1 -2.8683498,2.86835 2.868343,2.868343 0 0 1 -2.8683337,-2.86835 2.868343,2.868343 0 0 1 2.8683337,-2.86834 2.868343,2.868343 0 0 1 2.8683498,2.86834 z"
       id="path815"
       inkscape:connector-curvature="0" />
    <path
       style="opacity:1;fill:#ffffff;fill-opacity:0.9948454;stroke:none;stroke-width:0.26894891;stroke-linecap:square;stroke-linejoin:miter;stroke-miterlimit:4;stroke-dasharray:none;stroke-opacity:1"
       d="m 5.1571359,293.88725 c 0.1721894,-0.20202 0.4523258,-0.23028 0.6281185,-0.0634 l 2.268972,2.15416 c 0.175795,0.1669 0.1786912,0.46389 0.00651,0.6659 -0.1721905,0.20201 -0.4523362,0.23027 -0.6281279,0.0634 L 5.163645,294.55315 c -0.175795,-0.1669 -0.1787005,-0.46389 -0.00651,-0.66589 z"
       id="rect817"
       inkscape:connector-curvature="0" />
    <path
       style="opacity:1;fill:#ffffff;fill-opacity:1;stroke:none;stroke-width:70.51495361;stroke-linecap:square;stroke-linejoin:miter;stroke-miterlimit:4;stroke-dasharray:none;stroke-opacity:1"
       d="m 1.5990203,290.83689 v 2.36388 h 0.616452 l 0.450597,-0.96344 0.3845488,0.45189 0.4975646,-0.93808 0.794049,1.43322 0.7441453,0.0146 v -2.36238 z m 0.5283875,0.31322 a 0.25501476,0.2591231 0 0 1 0.2553872,0.25946 0.25501476,0.2591231 0 0 1 -0.2553872,0.25945 0.25501476,0.2591231 0 0 1 -0.2553874,-0.25945 0.25501476,0.2591231 0 0 1 0.2553874,-0.25946 z"
       id="rect3295"
       inkscape:connector-curvature="0" />
  </g>
</svg>
