<?xml version="1.0" encoding="UTF-8" standalone="no"?>
<!-- Created with Inkscape (http://www.inkscape.org/) -->

<svg
   width="400"
   height="400"
   viewBox="0 0 105.83333 105.83333"
   version="1.1"
   id="svg5"
   inkscape:version="1.2 (56b05e47e7, 2022-06-09, custom)"
   sodipodi:docname="flat_metallic.svg"
   xmlns:inkscape="http://www.inkscape.org/namespaces/inkscape"
   xmlns:sodipodi="http://sodipodi.sourceforge.net/DTD/sodipodi-0.dtd"
   xmlns:xlink="http://www.w3.org/1999/xlink"
   xmlns="http://www.w3.org/2000/svg"
   xmlns:svg="http://www.w3.org/2000/svg">
  <sodipodi:namedview
     id="namedview7"
     pagecolor="#818181"
     bordercolor="#666666"
     borderopacity="1.0"
     inkscape:showpageshadow="2"
     inkscape:pageopacity="0"
     inkscape:pagecheckerboard="0"
     inkscape:deskcolor="#d1d1d1"
     inkscape:document-units="mm"
     showgrid="false"
     inkscape:zoom="2.8284271"
     inkscape:cx="103.41437"
     inkscape:cy="237.94143"
     inkscape:window-width="1920"
     inkscape:window-height="995"
     inkscape:window-x="1920"
     inkscape:window-y="0"
     inkscape:window-maximized="1"
     inkscape:current-layer="layer1" />
  <defs
     id="defs2">
    <linearGradient
       inkscape:collect="always"
       id="linearGradient47761">
      <stop
         style="stop-color:#a49fbb;stop-opacity:1;"
         offset="0"
         id="stop47757" />
      <stop
         style="stop-color:#666088;stop-opacity:1;"
         offset="1"
         id="stop47759" />
    </linearGradient>
    <linearGradient
       inkscape:collect="always"
       id="linearGradient47611">
      <stop
         style="stop-color:#645572;stop-opacity:1;"
         offset="0"
         id="stop47607" />
      <stop
         style="stop-color:#645572;stop-opacity:0;"
         offset="1"
         id="stop47609" />
    </linearGradient>
    <linearGradient
       inkscape:collect="always"
       id="linearGradient46002">
      <stop
         style="stop-color:#9d9d9d;stop-opacity:1;"
         offset="0"
         id="stop45998" />
      <stop
         style="stop-color:#646464;stop-opacity:1;"
         offset="1"
         id="stop46000" />
    </linearGradient>
    <radialGradient
       inkscape:collect="always"
       xlink:href="#linearGradient46002"
       id="radialGradient46300"
       gradientUnits="userSpaceOnUse"
       gradientTransform="matrix(0.27708162,0,0,0.27708162,37.924482,4.0999098)"
       cx="71.409119"
       cy="11.512208"
       fx="71.409119"
       fy="11.512208"
       r="1.3468907" />
    <radialGradient
       inkscape:collect="always"
       xlink:href="#linearGradient46002"
       id="radialGradient46336"
       gradientUnits="userSpaceOnUse"
       gradientTransform="matrix(0.27708162,0,0,0.27708162,46.471763,4.0999099)"
       cx="71.409119"
       cy="11.512208"
       fx="71.409119"
       fy="11.512208"
       r="1.3468907" />
    <radialGradient
       inkscape:collect="always"
       xlink:href="#linearGradient46002"
       id="radialGradient46358"
       gradientUnits="userSpaceOnUse"
       gradientTransform="matrix(0.27708162,0,0,0.27708162,46.4904,12.946808)"
       cx="71.409119"
       cy="11.512208"
       fx="71.409119"
       fy="11.512208"
       r="1.3468907" />
    <radialGradient
       inkscape:collect="always"
       xlink:href="#linearGradient46002"
       id="radialGradient46360"
       gradientUnits="userSpaceOnUse"
       gradientTransform="matrix(0.27708162,0,0,0.27708162,37.943119,12.946808)"
       cx="71.409119"
       cy="11.512208"
       fx="71.409119"
       fy="11.512208"
       r="1.3468907" />
    <linearGradient
       inkscape:collect="always"
       xlink:href="#linearGradient47611"
       id="linearGradient47613"
       x1="49.614738"
       y1="84.454475"
       x2="49.627197"
       y2="82.624794"
       gradientUnits="userSpaceOnUse" />
    <linearGradient
       inkscape:collect="always"
       xlink:href="#linearGradient47611"
       id="linearGradient47755"
       gradientUnits="userSpaceOnUse"
       x1="49.614738"
       y1="84.454475"
       x2="49.627197"
       y2="82.624794"
       gradientTransform="translate(0.26331717,14.438972)" />
    <linearGradient
       inkscape:collect="always"
       xlink:href="#linearGradient47761"
       id="linearGradient47765"
       x1="45.38168"
       y1="85.99691"
       x2="51.155071"
       y2="95.728073"
       gradientUnits="userSpaceOnUse"
       gradientTransform="translate(0.52603378,0.92534726)" />
  </defs>
  <g
     inkscape:label="Layer 1"
     inkscape:groupmode="layer"
     id="layer1">
    <path
       id="path46684"
       style="opacity:0.995382;fill:#474157;fill-opacity:1;stroke-width:0.10043;stroke-opacity:0"
       d="m 45.257985,79.416195 h 8.121069 c 0.72158,0 1.072228,0.613357 1.302491,1.291373 l 0.914865,2.693841 c 0.230263,0.678017 -0.580934,1.296889 -1.302491,1.291373 l -9.995969,-0.07642 c -0.721558,-0.0055 -1.549098,-0.61903 -1.302491,-1.291373 l 0.960035,-2.617417 c 0.246607,-0.672343 0.580911,-1.291373 1.302491,-1.291373 z"
       sodipodi:nodetypes="ssssssssss" />
    <path
       id="rect46681"
       style="opacity:0.995382;fill:url(#linearGradient47613);fill-opacity:1;stroke-width:0.1;stroke-opacity:0"
       d="m 45.29243,79.101996 h 8.051755 c 0.715421,0 1.063076,0.613357 1.291374,1.291373 l 0.907056,2.693841 c 0.228298,0.678017 -0.575975,1.296889 -1.291374,1.291373 l -9.910652,-0.07642 c -0.7154,-0.0055 -1.535876,-0.61903 -1.291374,-1.291373 l 0.951841,-2.617417 C 44.245558,79.72103 44.577009,79.102 45.29243,79.102 Z"
       sodipodi:nodetypes="ssssssssss" />
    <path
       id="rect46421"
       style="opacity:0.995382;fill:#343146;fill-opacity:1;stroke:none;stroke-width:0.1;stroke-linejoin:miter;stroke-dasharray:none;stroke-opacity:0"
       d="m 42.952987,65.784467 v 2.079459 c 0,0.71542 0.575974,1.291394 1.291394,1.291394 h 8.15144 c 0.71542,0 1.291394,-0.575974 1.291394,-1.291394 v -2.079459 z" />
    <rect
       style="opacity:0.995382;fill:#474157;fill-opacity:1;stroke-width:0.0479671;stroke-linejoin:round"
       id="rect9347"
       width="10.734258"
       height="10.814444"
       x="-15.838306"
       y="-18.564941"
       rx="1.2913735"
       transform="scale(-1)" />
    <rect
       style="opacity:0.995382;fill:#ac93ab;fill-opacity:1;stroke:#000000;stroke-width:0.148;stroke-linejoin:round;stroke-dasharray:none;stroke-opacity:0.40978068"
       id="rect184"
       width="10.734258"
       height="10.814444"
       x="-15.838306"
       y="-17.506607"
       rx="1.2913735"
       transform="scale(-1)" />
    <rect
       style="opacity:0.995382;fill:#474157;fill-opacity:1;stroke-width:0.0479671;stroke-linejoin:round"
       id="rect16674"
       width="10.734258"
       height="10.814444"
       x="-33.062149"
       y="-18.806414"
       rx="1.2913735"
       transform="scale(-1)" />
    <rect
       style="opacity:0.995382;fill:#645572;fill-opacity:1;stroke:#000000;stroke-width:0.148;stroke-linejoin:round;stroke-dasharray:none;stroke-opacity:0.31399032"
       id="rect16676"
       width="10.734258"
       height="10.814444"
       x="-33.062149"
       y="-17.748079"
       rx="1.2913735"
       transform="scale(-1)" />
    <rect
       style="opacity:0.995382;fill:#474157;fill-opacity:1;stroke-width:0.0479671;stroke-linejoin:round"
       id="rect22486"
       width="10.734258"
       height="10.814444"
       x="-49.745388"
       y="-18.64127"
       rx="1.2913735"
       transform="scale(-1)" />
    <rect
       style="opacity:0.995382;fill:#666088;fill-opacity:1;stroke:#000000;stroke-width:0.148;stroke-linejoin:round;stroke-dasharray:none;stroke-opacity:0.50034022"
       id="rect22488"
       width="10.734258"
       height="10.814444"
       x="-49.745388"
       y="-17.582935"
       rx="1.2913735"
       transform="scale(-1)" />
    <rect
       style="opacity:0.995382;fill:#474157;fill-opacity:1;stroke-width:0.0479671;stroke-linejoin:round"
       id="rect35040"
       width="10.734258"
       height="10.814444"
       x="-16.466932"
       y="-34.48616"
       rx="1.2913735"
       transform="scale(-1)" />
    <rect
       style="opacity:0.995382;fill:#ac93ab;fill-opacity:1;stroke:#000000;stroke-width:0.148;stroke-linejoin:round;stroke-dasharray:none;stroke-opacity:0.55290103"
       id="rect35042"
       width="10.734258"
       height="10.814444"
       x="-16.466932"
       y="-33.427826"
       rx="1.2913735"
       transform="scale(-1)" />
    <g
       id="g43053">
      <path
         id="path38862"
         style="opacity:0.995382;fill:#87df06;fill-opacity:1;stroke:#000000;stroke-width:0.0321846;stroke-linejoin:round;stroke-dasharray:none;stroke-opacity:0.479569"
         inkscape:transform-center-x="-0.097266732"
         inkscape:transform-center-y="-0.53578087"
         d="m 11.147687,23.728891 c -0.01347,-1.12e-4 -0.02679,6.7e-5 -0.04015,7.02e-4 -0.911432,0.04787 -1.9251277,1.791975 -2.3722157,2.587658 -0.419697,0.746937 -1.334644,2.460486 -0.867923,3.178983 0.277564,0.427302 1.028886,0.617713 1.79726,0.700841 v 1.580792 c 0,0.460923 0.3709247,0.831849 0.8318467,0.831848 h 1.316221 c 0.460922,0 0.832099,-0.370925 0.832099,-0.831848 V 30.1807 c 0.791013,-0.09232 1.600396,-0.297892 1.83667,-0.761739 0.414255,-0.813251 -0.589433,-2.563077 -1.054971,-3.348107 -0.430189,-0.725425 -1.43152,-2.334773 -2.278816,-2.342019 z" />
      <path
         id="path41791"
         style="opacity:0.995382;fill:#ffffff;fill-opacity:0.248257;stroke:none;stroke-width:0.0321846;stroke-linejoin:round;stroke-dasharray:none;stroke-opacity:0.479569"
         inkscape:transform-center-x="-0.097254385"
         inkscape:transform-center-y="-0.53577121"
         d="m 11.147713,23.72884 c -0.01347,-1.12e-4 -0.02677,1.29e-4 -0.04015,7.72e-4 -0.911432,0.04787 -1.9251947,1.791928 -2.3722827,2.58761 -0.419696,0.746937 -1.334587,2.460574 -0.867866,3.179071 0.277564,0.427301 1.028898,0.617606 1.797271,0.700734 v 1.580794 c 0,0.460922 0.3709407,0.831864 0.8318637,0.831863 h 1.316119 c 0.07512,0 0.147805,-0.01004 0.216938,-0.02853 H 11.04959 c -0.460922,1e-6 -0.831863,-0.370941 -0.831863,-0.831863 v -1.580794 c -0.7683737,-0.08313 -1.5197067,-0.273549 -1.7972707,-0.70085 -0.466721,-0.718496 0.44817,-2.432018 0.867866,-3.178956 0.401051,-0.713751 1.2580577,-2.190444 2.0881697,-2.521586 -0.07713,-0.02415 -0.153575,-0.03766 -0.228785,-0.0383 z" />
      <path
         id="path42159"
         style="opacity:0.995382;fill:#000000;fill-opacity:0.0834569;stroke:none;stroke-width:0.0321846;stroke-linejoin:round;stroke-dasharray:none;stroke-opacity:0.479569"
         inkscape:transform-center-x="-0.097259391"
         inkscape:transform-center-y="-0.53574592"
         d="m 11.220293,23.733442 c 0.734329,0.389361 1.493162,1.613138 1.852829,2.219644 0.465537,0.785029 1.469267,2.534899 1.055013,3.348158 -0.236274,0.463845 -1.045714,0.66938 -1.836725,0.761698 v 1.597127 c 0,0.460923 -0.371172,0.831863 -0.832093,0.831863 h -1.316121 c -0.0274,0 -0.05451,-0.0013 -0.08121,-0.0039 0.126316,0.07721 0.275046,0.121697 0.434566,0.121697 h 1.31612 c 0.460922,0 0.832093,-0.370941 0.832093,-0.831863 v -1.597127 c 0.791012,-0.09232 1.600451,-0.297853 1.836725,-0.761698 0.414255,-0.81326 -0.589475,-2.563129 -1.055012,-3.348158 -0.417962,-0.704807 -1.375034,-2.243862 -2.206187,-2.33743 z m -2.7677387,6.19308 c 0.249336,0.102703 0.546572,0.17393 0.858779,0.223494 v -0.07074 c -0.297814,-0.03222 -0.592682,-0.08075 -0.858779,-0.152754 z" />
      <path
         id="path42273"
         style="opacity:0.995382;fill:#ffffff;fill-opacity:0.216776;stroke:none;stroke-width:0.0144682;stroke-linejoin:round;stroke-opacity:0.479569"
         d="m 11.147713,23.72884 c -0.01347,-1.12e-4 -0.02677,1.29e-4 -0.04015,7.72e-4 -0.911432,0.04787 -1.9251947,1.791927 -2.3722827,2.587609 -0.419696,0.746937 -1.334587,2.460574 -0.867866,3.179071 0.206686,0.318186 0.676111,0.504896 1.219614,0.61389 A 4.1316279,11.165829 58.788026 0 0 12.423684,28.371804 4.1316279,11.165829 58.788026 0 0 14.08649,27.28723 C 13.86061,26.811685 13.604336,26.370768 13.426474,26.070842 12.996286,25.345418 11.995001,23.736057 11.147707,23.72881 Z" />
    </g>
    <path
       id="path35044"
       style="opacity:0.995382;fill:#ffffff;fill-opacity:0.0889476;stroke:none;stroke-width:0.348001;stroke-linejoin:round;stroke-dasharray:none;stroke-opacity:1"
       d="m 7.0242626,22.613282 c -0.71542,0 -1.291394,0.575974 -1.291394,1.291395 v 4.898408 a 3.4009073,13.569508 72.627453 0 0 4.4121344,-1.171505 3.4009073,13.569508 72.627453 0 0 6.322095,-2.452564 v -1.27434 c -1e-6,-0.71542 -0.575974,-1.291394 -1.291394,-1.291394 z" />
    <rect
       style="opacity:0.995382;fill:#474157;fill-opacity:1;stroke-width:0.0479671;stroke-linejoin:round"
       id="rect35685"
       width="10.734258"
       height="10.814444"
       x="-33.448353"
       y="-33.269962"
       rx="1.2913735"
       transform="scale(-1)" />
    <rect
       style="opacity:0.995382;fill:#645572;fill-opacity:1;stroke:#000000;stroke-width:0.148;stroke-linejoin:round;stroke-dasharray:none;stroke-opacity:0.552901"
       id="rect35687"
       width="10.734258"
       height="10.814444"
       x="-33.448353"
       y="-32.211628"
       rx="1.2913735"
       transform="scale(-1)" />
    <g
       id="g43063"
       transform="translate(16.80799,-1.2850956)">
      <path
         id="path43055"
         style="opacity:0.995382;fill:#87df06;fill-opacity:1;stroke:#000000;stroke-width:0.0321846;stroke-linejoin:round;stroke-dasharray:none;stroke-opacity:0.479569"
         inkscape:transform-center-x="-0.097266732"
         inkscape:transform-center-y="-0.53578087"
         d="m 11.147687,23.728891 c -0.01347,-1.12e-4 -0.02679,6.7e-5 -0.04015,7.02e-4 -0.911432,0.04787 -1.9251277,1.791975 -2.3722157,2.587658 -0.419697,0.746937 -1.334644,2.460486 -0.867923,3.178983 0.277564,0.427302 1.028886,0.617713 1.79726,0.700841 v 1.580792 c 0,0.460923 0.3709247,0.831849 0.8318467,0.831848 h 1.316221 c 0.460922,0 0.832099,-0.370925 0.832099,-0.831848 V 30.1807 c 0.791013,-0.09232 1.600396,-0.297892 1.83667,-0.761739 0.414255,-0.813251 -0.589433,-2.563077 -1.054971,-3.348107 -0.430189,-0.725425 -1.43152,-2.334773 -2.278816,-2.342019 z" />
      <path
         id="path43057"
         style="opacity:0.995382;fill:#ffffff;fill-opacity:0.248257;stroke:none;stroke-width:0.0321846;stroke-linejoin:round;stroke-dasharray:none;stroke-opacity:0.479569"
         inkscape:transform-center-x="-0.097254385"
         inkscape:transform-center-y="-0.53577121"
         d="m 11.147713,23.72884 c -0.01347,-1.12e-4 -0.02677,1.29e-4 -0.04015,7.72e-4 -0.911432,0.04787 -1.9251947,1.791928 -2.3722827,2.58761 -0.419696,0.746937 -1.334587,2.460574 -0.867866,3.179071 0.277564,0.427301 1.028898,0.617606 1.797271,0.700734 v 1.580794 c 0,0.460922 0.3709407,0.831864 0.8318637,0.831863 h 1.316119 c 0.07512,0 0.147805,-0.01004 0.216938,-0.02853 H 11.04959 c -0.460922,1e-6 -0.831863,-0.370941 -0.831863,-0.831863 v -1.580794 c -0.7683737,-0.08313 -1.5197067,-0.273549 -1.7972707,-0.70085 -0.466721,-0.718496 0.44817,-2.432018 0.867866,-3.178956 0.401051,-0.713751 1.2580577,-2.190444 2.0881697,-2.521586 -0.07713,-0.02415 -0.153575,-0.03766 -0.228785,-0.0383 z" />
      <path
         id="path43059"
         style="opacity:0.995382;fill:#000000;fill-opacity:0.0834569;stroke:none;stroke-width:0.0321846;stroke-linejoin:round;stroke-dasharray:none;stroke-opacity:0.479569"
         inkscape:transform-center-x="-0.097259391"
         inkscape:transform-center-y="-0.53574592"
         d="m 11.220293,23.733442 c 0.734329,0.389361 1.493162,1.613138 1.852829,2.219644 0.465537,0.785029 1.469267,2.534899 1.055013,3.348158 -0.236274,0.463845 -1.045714,0.66938 -1.836725,0.761698 v 1.597127 c 0,0.460923 -0.371172,0.831863 -0.832093,0.831863 h -1.316121 c -0.0274,0 -0.05451,-0.0013 -0.08121,-0.0039 0.126316,0.07721 0.275046,0.121697 0.434566,0.121697 h 1.31612 c 0.460922,0 0.832093,-0.370941 0.832093,-0.831863 v -1.597127 c 0.791012,-0.09232 1.600451,-0.297853 1.836725,-0.761698 0.414255,-0.81326 -0.589475,-2.563129 -1.055012,-3.348158 -0.417962,-0.704807 -1.375034,-2.243862 -2.206187,-2.33743 z m -2.7677387,6.19308 c 0.249336,0.102703 0.546572,0.17393 0.858779,0.223494 v -0.07074 c -0.297814,-0.03222 -0.592682,-0.08075 -0.858779,-0.152754 z" />
      <path
         id="path43061"
         style="opacity:0.995382;fill:#ffffff;fill-opacity:0.216776;stroke:none;stroke-width:0.0144682;stroke-linejoin:round;stroke-opacity:0.479569"
         d="m 11.147713,23.72884 c -0.01347,-1.12e-4 -0.02677,1.29e-4 -0.04015,7.72e-4 -0.911432,0.04787 -1.9251947,1.791927 -2.3722827,2.587609 -0.419696,0.746937 -1.334587,2.460574 -0.867866,3.179071 0.206686,0.318186 0.676111,0.504896 1.219614,0.61389 A 4.1316279,11.165829 58.788026 0 0 12.423684,28.371804 4.1316279,11.165829 58.788026 0 0 14.08649,27.28723 C 13.86061,26.811685 13.604336,26.370768 13.426474,26.070842 12.996286,25.345418 11.995001,23.736057 11.147707,23.72881 Z" />
    </g>
    <path
       id="path35689"
       style="opacity:0.995382;fill:#ffffff;fill-opacity:0.0889476;stroke:none;stroke-width:0.348001;stroke-linejoin:round;stroke-dasharray:none;stroke-opacity:1"
       d="m 24.005682,21.397085 c -0.71542,0 -1.291394,0.575974 -1.291394,1.291395 v 4.898408 a 3.4009073,13.569508 72.627453 0 0 4.412134,-1.171505 3.4009073,13.569508 72.627453 0 0 6.322095,-2.452564 v -1.27434 c -1e-6,-0.71542 -0.575974,-1.291394 -1.291394,-1.291394 z" />
    <rect
       style="opacity:0.995382;fill:#474157;fill-opacity:1;stroke-width:0.0479671;stroke-linejoin:round"
       id="rect35691"
       width="10.734258"
       height="10.814444"
       x="-50.350273"
       y="-33.130779"
       rx="1.2913735"
       transform="scale(-1)" />
    <rect
       style="opacity:0.995382;fill:#666088;fill-opacity:1;stroke:#000000;stroke-width:0.148;stroke-linejoin:round;stroke-dasharray:none;stroke-opacity:0.552901"
       id="rect35693"
       width="10.734258"
       height="10.814444"
       x="-50.350273"
       y="-32.072445"
       rx="1.2913735"
       transform="scale(-1)" />
    <path
       id="path35695"
       style="opacity:0.995382;fill:#ffffff;fill-opacity:0.0889476;stroke:none;stroke-width:0.348001;stroke-linejoin:round;stroke-dasharray:none;stroke-opacity:1"
       d="m 40.907603,21.257903 c -0.71542,0 -1.291394,0.575974 -1.291394,1.291395 v 4.898408 a 3.4009073,13.569508 72.627453 0 0 4.412134,-1.171505 3.4009073,13.569508 72.627453 0 0 6.322095,-2.452564 v -1.27434 c -10e-7,-0.71542 -0.575974,-1.291394 -1.291394,-1.291394 z" />
    <path
       id="path35766"
       style="opacity:0.995382;mix-blend-mode:normal;fill:#474157;fill-opacity:1;stroke:none;stroke-width:0.348;stroke-linejoin:round"
       d="m 16.566158,52.936518 -7.9445683,0.427668 c -0.714387,0.03846 -1.13822,-0.592537 -1.291374,-1.291373 l -1.97804,-9.025748 c -0.153154,-0.698836 0.578514,-1.35185 1.291374,-1.291373 l 10.9434113,0.928404 c 0.712859,0.06048 1.38576,0.582206 1.291373,1.291373 l -1.020803,7.669676 c -0.09439,0.709167 -0.576987,1.252916 -1.291373,1.291373 z"
       sodipodi:nodetypes="sssssssss" />
    <path
       id="path35768"
       style="opacity:0.995382;fill:#ac93ab;stroke:#000000;stroke-width:0.348;stroke-linejoin:round;stroke-opacity:0.413413"
       d="m 16.566158,52.100908 -7.9445683,0.427668 c -0.714387,0.03846 -1.13822,-0.592537 -1.291374,-1.291373 l -1.97804,-9.025748 c -0.153154,-0.698836 0.578514,-1.35185 1.291374,-1.291373 l 10.9434113,0.928404 c 0.712859,0.06048 1.38576,0.582206 1.291373,1.291373 l -1.020803,7.669676 c -0.09439,0.709167 -0.576987,1.252916 -1.291373,1.291373 z"
       sodipodi:nodetypes="sssssssss" />
    <g
       id="g43808"
       transform="translate(-13.766175,-22.29819)">
      <path
         id="path43065"
         style="opacity:0.995382;fill:#87df06;fill-opacity:1;stroke:#000000;stroke-width:0.0321846;stroke-linejoin:round;stroke-dasharray:none;stroke-opacity:0.479569"
         inkscape:transform-center-x="-0.097266732"
         inkscape:transform-center-y="-0.53578087"
         d="m 26.191105,64.857999 c -0.01347,-1.12e-4 -0.02679,6.7e-5 -0.04015,7.02e-4 -0.911432,0.04787 -1.925128,1.791975 -2.372216,2.587658 -0.419697,0.746937 -1.334644,2.460486 -0.867923,3.178983 0.277564,0.427302 1.028886,0.617713 1.79726,0.700841 v 1.580792 c 0,0.460923 0.370925,0.831849 0.831847,0.831848 h 1.316221 c 0.460922,0 0.832099,-0.370925 0.832099,-0.831848 v -1.597167 c 0.791013,-0.09232 1.600396,-0.297892 1.83667,-0.761739 0.414255,-0.813251 -0.589433,-2.563077 -1.054971,-3.348107 -0.430189,-0.725425 -1.43152,-2.334773 -2.278816,-2.342019 z" />
      <path
         id="path43067"
         style="opacity:0.995382;fill:#ffffff;fill-opacity:0.248257;stroke:none;stroke-width:0.0321846;stroke-linejoin:round;stroke-dasharray:none;stroke-opacity:0.479569"
         inkscape:transform-center-x="-0.097254385"
         inkscape:transform-center-y="-0.53577121"
         d="m 26.191131,64.857948 c -0.01347,-1.12e-4 -0.02677,1.29e-4 -0.04015,7.72e-4 -0.911432,0.04787 -1.925195,1.791928 -2.372283,2.58761 -0.419696,0.746937 -1.334587,2.460574 -0.867866,3.179071 0.277564,0.427301 1.028898,0.617606 1.797271,0.700734 v 1.580794 c 0,0.460922 0.370941,0.831864 0.831864,0.831863 h 1.316119 c 0.07512,0 0.147805,-0.01004 0.216938,-0.02853 h -0.980016 c -0.460922,10e-7 -0.831863,-0.370941 -0.831863,-0.831863 v -1.580794 c -0.768374,-0.08313 -1.519707,-0.273549 -1.797271,-0.70085 -0.466721,-0.718496 0.44817,-2.432018 0.867866,-3.178956 0.401051,-0.713751 1.258058,-2.190444 2.08817,-2.521586 -0.07713,-0.02415 -0.153575,-0.03766 -0.228785,-0.0383 z" />
      <path
         id="path43069"
         style="opacity:0.995382;fill:#000000;fill-opacity:0.0834569;stroke:none;stroke-width:0.0321846;stroke-linejoin:round;stroke-dasharray:none;stroke-opacity:0.479569"
         inkscape:transform-center-x="-0.097259391"
         inkscape:transform-center-y="-0.53574592"
         d="m 26.263711,64.86255 c 0.734329,0.389361 1.493162,1.613138 1.852829,2.219644 0.465537,0.785029 1.469267,2.534899 1.055013,3.348158 -0.236274,0.463845 -1.045714,0.66938 -1.836725,0.761698 v 1.597127 c 0,0.460923 -0.371172,0.831863 -0.832093,0.831863 h -1.316121 c -0.0274,0 -0.05451,-0.0013 -0.08121,-0.0039 0.126316,0.07721 0.275046,0.121697 0.434566,0.121697 h 1.31612 c 0.460922,0 0.832093,-0.370941 0.832093,-0.831863 v -1.597127 c 0.791012,-0.09232 1.600451,-0.297853 1.836725,-0.761698 0.414255,-0.81326 -0.589475,-2.563129 -1.055012,-3.348158 -0.417962,-0.704807 -1.375034,-2.243862 -2.206187,-2.33743 z m -2.767739,6.19308 c 0.249336,0.102703 0.546572,0.17393 0.858779,0.223494 v -0.07074 c -0.297814,-0.03222 -0.592682,-0.08075 -0.858779,-0.152754 z" />
    </g>
    <path
       id="path35770"
       style="opacity:0.995382;fill:#ffffff;fill-opacity:0.0889476;stroke:none;stroke-width:0.348001;stroke-linejoin:round;stroke-dasharray:none;stroke-opacity:1"
       d="M 6.5766692,40.916644 C 5.885803,40.900624 5.20357,41.534658 5.351938,42.211656 l 1.4422892,6.580477 a 4.2493753,14.571904 71.428757 0 0 5.2162188,-1.431438 4.2493753,14.571904 71.428757 0 0 6.683829,-2.838587 l 0.183969,-1.382343 c 0.09439,-0.709167 -0.578536,-1.230915 -1.291395,-1.291394 L 6.6433318,40.920261 c -0.022277,-0.0019 -0.044376,-0.0031 -0.066663,-0.0036 z" />
    <g
       id="g38932" />
    <rect
       style="opacity:0.995382;fill:#474157;fill-opacity:1;stroke-width:0.0479671;stroke-linejoin:round"
       id="rect41422"
       width="10.734258"
       height="10.814444"
       x="-67.509979"
       y="-32.878853"
       rx="1.2913735"
       transform="scale(-1)" />
    <rect
       style="opacity:0.995382;fill:#d3b4cd;fill-opacity:1;stroke:#000000;stroke-width:0.148;stroke-linejoin:round;stroke-dasharray:none;stroke-opacity:0.552901"
       id="rect41424"
       width="10.734258"
       height="10.814444"
       x="-67.509979"
       y="-31.820517"
       rx="1.2913735"
       transform="scale(-1)" />
    <g
       id="g43827"
       transform="translate(36.040261,-43.079259)">
      <path
         id="path43821"
         style="opacity:0.995382;fill:#87df06;fill-opacity:1;stroke:#000000;stroke-width:0.0321846;stroke-linejoin:round;stroke-dasharray:none;stroke-opacity:0.479569"
         inkscape:transform-center-x="-0.097266732"
         inkscape:transform-center-y="-0.53578087"
         d="m 26.191105,64.857999 c -0.01347,-1.12e-4 -0.02679,6.7e-5 -0.04015,7.02e-4 -0.911432,0.04787 -1.925128,1.791975 -2.372216,2.587658 -0.419697,0.746937 -1.334644,2.460486 -0.867923,3.178983 0.277564,0.427302 1.028886,0.617713 1.79726,0.700841 v 1.580792 c 0,0.460923 0.370925,0.831849 0.831847,0.831848 h 1.316221 c 0.460922,0 0.832099,-0.370925 0.832099,-0.831848 v -1.597167 c 0.791013,-0.09232 1.600396,-0.297892 1.83667,-0.761739 0.414255,-0.813251 -0.589433,-2.563077 -1.054971,-3.348107 -0.430189,-0.725425 -1.43152,-2.334773 -2.278816,-2.342019 z" />
      <path
         id="path43823"
         style="opacity:0.995382;fill:#ffffff;fill-opacity:0.248257;stroke:none;stroke-width:0.0321846;stroke-linejoin:round;stroke-dasharray:none;stroke-opacity:0.479569"
         inkscape:transform-center-x="-0.097254385"
         inkscape:transform-center-y="-0.53577121"
         d="m 26.191131,64.857948 c -0.01347,-1.12e-4 -0.02677,1.29e-4 -0.04015,7.72e-4 -0.911432,0.04787 -1.925195,1.791928 -2.372283,2.58761 -0.419696,0.746937 -1.334587,2.460574 -0.867866,3.179071 0.277564,0.427301 1.028898,0.617606 1.797271,0.700734 v 1.580794 c 0,0.460922 0.370941,0.831864 0.831864,0.831863 h 1.316119 c 0.07512,0 0.147805,-0.01004 0.216938,-0.02853 h -0.980016 c -0.460922,10e-7 -0.831863,-0.370941 -0.831863,-0.831863 v -1.580794 c -0.768374,-0.08313 -1.519707,-0.273549 -1.797271,-0.70085 -0.466721,-0.718496 0.44817,-2.432018 0.867866,-3.178956 0.401051,-0.713751 1.258058,-2.190444 2.08817,-2.521586 -0.07713,-0.02415 -0.153575,-0.03766 -0.228785,-0.0383 z" />
      <path
         id="path43825"
         style="opacity:0.995382;fill:#000000;fill-opacity:0.0834569;stroke:none;stroke-width:0.0321846;stroke-linejoin:round;stroke-dasharray:none;stroke-opacity:0.479569"
         inkscape:transform-center-x="-0.097259391"
         inkscape:transform-center-y="-0.53574592"
         d="m 26.263711,64.86255 c 0.734329,0.389361 1.493162,1.613138 1.852829,2.219644 0.465537,0.785029 1.469267,2.534899 1.055013,3.348158 -0.236274,0.463845 -1.045714,0.66938 -1.836725,0.761698 v 1.597127 c 0,0.460923 -0.371172,0.831863 -0.832093,0.831863 h -1.316121 c -0.0274,0 -0.05451,-0.0013 -0.08121,-0.0039 0.126316,0.07721 0.275046,0.121697 0.434566,0.121697 h 1.31612 c 0.460922,0 0.832093,-0.370941 0.832093,-0.831863 v -1.597127 c 0.791012,-0.09232 1.600451,-0.297853 1.836725,-0.761698 0.414255,-0.81326 -0.589475,-2.563129 -1.055012,-3.348158 -0.417962,-0.704807 -1.375034,-2.243862 -2.206187,-2.33743 z m -2.767739,6.19308 c 0.249336,0.102703 0.546572,0.17393 0.858779,0.223494 v -0.07074 c -0.297814,-0.03222 -0.592682,-0.08075 -0.858779,-0.152754 z" />
    </g>
    <path
       id="path41426"
       style="opacity:0.995382;fill:#ffffff;fill-opacity:0.0889476;stroke:none;stroke-width:0.348001;stroke-linejoin:round;stroke-dasharray:none;stroke-opacity:1"
       d="m 58.067313,21.005973 c -0.71542,0 -1.291394,0.575974 -1.291394,1.291395 v 4.898408 a 3.4009073,13.569508 72.627453 0 0 4.412134,-1.171505 3.4009073,13.569508 72.627453 0 0 6.322095,-2.452564 v -1.27434 c -10e-7,-0.71542 -0.575974,-1.291394 -1.291394,-1.291394 z" />
    <path
       id="path44555"
       style="opacity:0.995382;mix-blend-mode:normal;fill:#474157;fill-opacity:1;stroke:none;stroke-width:0.348;stroke-linejoin:round"
       d="m 34.829929,52.606054 -7.944568,0.427668 c -0.714387,0.03846 -1.13822,-0.592537 -1.291374,-1.291373 l -1.97804,-9.025748 c -0.153154,-0.698836 0.578514,-1.35185 1.291374,-1.291373 l 10.943411,0.928404 c 0.712859,0.06048 1.38576,0.582206 1.291373,1.291373 l -1.020803,7.669676 c -0.09439,0.709167 -0.576987,1.252916 -1.291373,1.291373 z"
       sodipodi:nodetypes="sssssssss" />
    <path
       id="path44557"
       style="opacity:0.995382;fill:#645572;stroke:#000000;stroke-width:0.348;stroke-linejoin:round;stroke-opacity:0.413413;fill-opacity:1"
       d="m 34.829929,51.770444 -7.944568,0.427668 c -0.714387,0.03846 -1.13822,-0.592537 -1.291374,-1.291373 l -1.97804,-9.025748 c -0.153154,-0.698836 0.578514,-1.35185 1.291374,-1.291373 l 10.943411,0.928404 c 0.712859,0.06048 1.38576,0.582206 1.291373,1.291373 l -1.020803,7.669676 c -0.09439,0.709167 -0.576987,1.252916 -1.291373,1.291373 z"
       sodipodi:nodetypes="sssssssss" />
    <g
       id="g44565"
       transform="translate(4.4975962,-22.628654)">
      <path
         id="path44559"
         style="opacity:0.995382;fill:#87df06;fill-opacity:1;stroke:#000000;stroke-width:0.0321846;stroke-linejoin:round;stroke-dasharray:none;stroke-opacity:0.479569"
         inkscape:transform-center-x="-0.097266732"
         inkscape:transform-center-y="-0.53578087"
         d="m 26.191105,64.857999 c -0.01347,-1.12e-4 -0.02679,6.7e-5 -0.04015,7.02e-4 -0.911432,0.04787 -1.925128,1.791975 -2.372216,2.587658 -0.419697,0.746937 -1.334644,2.460486 -0.867923,3.178983 0.277564,0.427302 1.028886,0.617713 1.79726,0.700841 v 1.580792 c 0,0.460923 0.370925,0.831849 0.831847,0.831848 h 1.316221 c 0.460922,0 0.832099,-0.370925 0.832099,-0.831848 v -1.597167 c 0.791013,-0.09232 1.600396,-0.297892 1.83667,-0.761739 0.414255,-0.813251 -0.589433,-2.563077 -1.054971,-3.348107 -0.430189,-0.725425 -1.43152,-2.334773 -2.278816,-2.342019 z" />
      <path
         id="path44561"
         style="opacity:0.995382;fill:#ffffff;fill-opacity:0.248257;stroke:none;stroke-width:0.0321846;stroke-linejoin:round;stroke-dasharray:none;stroke-opacity:0.479569"
         inkscape:transform-center-x="-0.097254385"
         inkscape:transform-center-y="-0.53577121"
         d="m 26.191131,64.857948 c -0.01347,-1.12e-4 -0.02677,1.29e-4 -0.04015,7.72e-4 -0.911432,0.04787 -1.925195,1.791928 -2.372283,2.58761 -0.419696,0.746937 -1.334587,2.460574 -0.867866,3.179071 0.277564,0.427301 1.028898,0.617606 1.797271,0.700734 v 1.580794 c 0,0.460922 0.370941,0.831864 0.831864,0.831863 h 1.316119 c 0.07512,0 0.147805,-0.01004 0.216938,-0.02853 h -0.980016 c -0.460922,10e-7 -0.831863,-0.370941 -0.831863,-0.831863 v -1.580794 c -0.768374,-0.08313 -1.519707,-0.273549 -1.797271,-0.70085 -0.466721,-0.718496 0.44817,-2.432018 0.867866,-3.178956 0.401051,-0.713751 1.258058,-2.190444 2.08817,-2.521586 -0.07713,-0.02415 -0.153575,-0.03766 -0.228785,-0.0383 z" />
      <path
         id="path44563"
         style="opacity:0.995382;fill:#000000;fill-opacity:0.0834569;stroke:none;stroke-width:0.0321846;stroke-linejoin:round;stroke-dasharray:none;stroke-opacity:0.479569"
         inkscape:transform-center-x="-0.097259391"
         inkscape:transform-center-y="-0.53574592"
         d="m 26.263711,64.86255 c 0.734329,0.389361 1.493162,1.613138 1.852829,2.219644 0.465537,0.785029 1.469267,2.534899 1.055013,3.348158 -0.236274,0.463845 -1.045714,0.66938 -1.836725,0.761698 v 1.597127 c 0,0.460923 -0.371172,0.831863 -0.832093,0.831863 h -1.316121 c -0.0274,0 -0.05451,-0.0013 -0.08121,-0.0039 0.126316,0.07721 0.275046,0.121697 0.434566,0.121697 h 1.31612 c 0.460922,0 0.832093,-0.370941 0.832093,-0.831863 v -1.597127 c 0.791012,-0.09232 1.600451,-0.297853 1.836725,-0.761698 0.414255,-0.81326 -0.589475,-2.563129 -1.055012,-3.348158 -0.417962,-0.704807 -1.375034,-2.243862 -2.206187,-2.33743 z m -2.767739,6.19308 c 0.249336,0.102703 0.546572,0.17393 0.858779,0.223494 v -0.07074 c -0.297814,-0.03222 -0.592682,-0.08075 -0.858779,-0.152754 z" />
    </g>
    <path
       id="path44567"
       style="opacity:0.995382;fill:#ffffff;fill-opacity:0.0889476;stroke:none;stroke-width:0.348001;stroke-linejoin:round;stroke-dasharray:none;stroke-opacity:1"
       d="m 24.84044,40.58618 c -0.690866,-0.01602 -1.373099,0.618014 -1.224731,1.295012 l 1.442289,6.580477 a 4.2493753,14.571904 71.428757 0 0 5.216219,-1.431438 4.2493753,14.571904 71.428757 0 0 6.683829,-2.838587 l 0.183969,-1.382343 c 0.09439,-0.709167 -0.578536,-1.230915 -1.291395,-1.291394 l -10.943517,-0.92811 c -0.02228,-0.0019 -0.04438,-0.0031 -0.06666,-0.0036 z" />
    <path
       id="path44569"
       style="opacity:0.995382;mix-blend-mode:normal;fill:#474157;fill-opacity:1;stroke:none;stroke-width:0.348;stroke-linejoin:round"
       d="m 51.456734,52.847994 -7.944568,0.427668 c -0.714387,0.03846 -1.13822,-0.592537 -1.291374,-1.291373 l -1.97804,-9.025748 c -0.153154,-0.698836 0.578514,-1.35185 1.291374,-1.291373 l 10.943411,0.928404 c 0.712859,0.06048 1.38576,0.582206 1.291373,1.291373 l -1.020803,7.669676 c -0.09439,0.709167 -0.576987,1.252916 -1.291373,1.291373 z"
       sodipodi:nodetypes="sssssssss" />
    <path
       id="path44571"
       style="opacity:0.995382;fill:#666088;stroke:#000000;stroke-width:0.348;stroke-linejoin:round;stroke-opacity:0.413413;fill-opacity:1"
       d="m 51.456734,52.012384 -7.944568,0.427668 c -0.714387,0.03846 -1.13822,-0.592537 -1.291374,-1.291373 l -1.97804,-9.025748 c -0.153154,-0.698836 0.578514,-1.35185 1.291374,-1.291373 l 10.943411,0.928404 c 0.712859,0.06048 1.38576,0.582206 1.291373,1.291373 l -1.020803,7.669676 c -0.09439,0.709167 -0.576987,1.252916 -1.291373,1.291373 z"
       sodipodi:nodetypes="sssssssss" />
    <g
       id="g44579"
       transform="translate(21.124401,-22.386714)">
      <path
         id="path44573"
         style="opacity:0.995382;fill:#87df06;fill-opacity:1;stroke:#000000;stroke-width:0.0321846;stroke-linejoin:round;stroke-dasharray:none;stroke-opacity:0.479569"
         inkscape:transform-center-x="-0.097266732"
         inkscape:transform-center-y="-0.53578087"
         d="m 26.191105,64.857999 c -0.01347,-1.12e-4 -0.02679,6.7e-5 -0.04015,7.02e-4 -0.911432,0.04787 -1.925128,1.791975 -2.372216,2.587658 -0.419697,0.746937 -1.334644,2.460486 -0.867923,3.178983 0.277564,0.427302 1.028886,0.617713 1.79726,0.700841 v 1.580792 c 0,0.460923 0.370925,0.831849 0.831847,0.831848 h 1.316221 c 0.460922,0 0.832099,-0.370925 0.832099,-0.831848 v -1.597167 c 0.791013,-0.09232 1.600396,-0.297892 1.83667,-0.761739 0.414255,-0.813251 -0.589433,-2.563077 -1.054971,-3.348107 -0.430189,-0.725425 -1.43152,-2.334773 -2.278816,-2.342019 z" />
      <path
         id="path44575"
         style="opacity:0.995382;fill:#ffffff;fill-opacity:0.248257;stroke:none;stroke-width:0.0321846;stroke-linejoin:round;stroke-dasharray:none;stroke-opacity:0.479569"
         inkscape:transform-center-x="-0.097254385"
         inkscape:transform-center-y="-0.53577121"
         d="m 26.191131,64.857948 c -0.01347,-1.12e-4 -0.02677,1.29e-4 -0.04015,7.72e-4 -0.911432,0.04787 -1.925195,1.791928 -2.372283,2.58761 -0.419696,0.746937 -1.334587,2.460574 -0.867866,3.179071 0.277564,0.427301 1.028898,0.617606 1.797271,0.700734 v 1.580794 c 0,0.460922 0.370941,0.831864 0.831864,0.831863 h 1.316119 c 0.07512,0 0.147805,-0.01004 0.216938,-0.02853 h -0.980016 c -0.460922,10e-7 -0.831863,-0.370941 -0.831863,-0.831863 v -1.580794 c -0.768374,-0.08313 -1.519707,-0.273549 -1.797271,-0.70085 -0.466721,-0.718496 0.44817,-2.432018 0.867866,-3.178956 0.401051,-0.713751 1.258058,-2.190444 2.08817,-2.521586 -0.07713,-0.02415 -0.153575,-0.03766 -0.228785,-0.0383 z" />
      <path
         id="path44577"
         style="opacity:0.995382;fill:#000000;fill-opacity:0.0834569;stroke:none;stroke-width:0.0321846;stroke-linejoin:round;stroke-dasharray:none;stroke-opacity:0.479569"
         inkscape:transform-center-x="-0.097259391"
         inkscape:transform-center-y="-0.53574592"
         d="m 26.263711,64.86255 c 0.734329,0.389361 1.493162,1.613138 1.852829,2.219644 0.465537,0.785029 1.469267,2.534899 1.055013,3.348158 -0.236274,0.463845 -1.045714,0.66938 -1.836725,0.761698 v 1.597127 c 0,0.460923 -0.371172,0.831863 -0.832093,0.831863 h -1.316121 c -0.0274,0 -0.05451,-0.0013 -0.08121,-0.0039 0.126316,0.07721 0.275046,0.121697 0.434566,0.121697 h 1.31612 c 0.460922,0 0.832093,-0.370941 0.832093,-0.831863 v -1.597127 c 0.791012,-0.09232 1.600451,-0.297853 1.836725,-0.761698 0.414255,-0.81326 -0.589475,-2.563129 -1.055012,-3.348158 -0.417962,-0.704807 -1.375034,-2.243862 -2.206187,-2.33743 z m -2.767739,6.19308 c 0.249336,0.102703 0.546572,0.17393 0.858779,0.223494 v -0.07074 c -0.297814,-0.03222 -0.592682,-0.08075 -0.858779,-0.152754 z" />
    </g>
    <path
       id="path44581"
       style="opacity:0.995382;fill:#ffffff;fill-opacity:0.0889476;stroke:none;stroke-width:0.348001;stroke-linejoin:round;stroke-dasharray:none;stroke-opacity:1"
       d="m 41.467245,40.82812 c -0.690866,-0.01602 -1.373099,0.618014 -1.224731,1.295012 l 1.442289,6.580477 a 4.2493753,14.571904 71.428757 0 0 5.216219,-1.431438 4.2493753,14.571904 71.428757 0 0 6.683829,-2.838587 l 0.183969,-1.382343 c 0.09439,-0.709167 -0.578536,-1.230915 -1.291395,-1.291394 l -10.943517,-0.92811 c -0.02228,-0.0019 -0.04438,-0.0031 -0.06666,-0.0036 z" />
    <path
       id="path44583"
       style="opacity:0.995382;mix-blend-mode:normal;fill:#474157;fill-opacity:1;stroke:none;stroke-width:0.348;stroke-linejoin:round"
       d="m 69.894998,52.259454 -7.944568,0.427668 c -0.714387,0.03846 -1.13822,-0.592537 -1.291374,-1.291373 l -1.97804,-9.025748 c -0.153154,-0.698836 0.578514,-1.35185 1.291374,-1.291373 l 10.943411,0.928404 c 0.712859,0.06048 1.38576,0.582206 1.291373,1.291373 l -1.020803,7.669676 c -0.09439,0.709167 -0.576987,1.252916 -1.291373,1.291373 z"
       sodipodi:nodetypes="sssssssss" />
    <path
       id="path44585"
       style="opacity:0.995382;fill:#d3b4cd;stroke:#000000;stroke-width:0.348;stroke-linejoin:round;stroke-opacity:0.413413;fill-opacity:1"
       d="m 69.894998,51.423844 -7.944568,0.427668 c -0.714387,0.03846 -1.13822,-0.592537 -1.291374,-1.291373 l -1.97804,-9.025748 c -0.153154,-0.698836 0.578514,-1.35185 1.291374,-1.291373 l 10.943411,0.928404 c 0.712859,0.06048 1.38576,0.582206 1.291373,1.291373 l -1.020803,7.669676 c -0.09439,0.709167 -0.576987,1.252916 -1.291373,1.291373 z"
       sodipodi:nodetypes="sssssssss" />
    <g
       id="g44593"
       transform="translate(39.562665,-22.975254)">
      <path
         id="path44587"
         style="opacity:0.995382;fill:#87df06;fill-opacity:1;stroke:#000000;stroke-width:0.0321846;stroke-linejoin:round;stroke-dasharray:none;stroke-opacity:0.479569"
         inkscape:transform-center-x="-0.097266732"
         inkscape:transform-center-y="-0.53578087"
         d="m 26.191105,64.857999 c -0.01347,-1.12e-4 -0.02679,6.7e-5 -0.04015,7.02e-4 -0.911432,0.04787 -1.925128,1.791975 -2.372216,2.587658 -0.419697,0.746937 -1.334644,2.460486 -0.867923,3.178983 0.277564,0.427302 1.028886,0.617713 1.79726,0.700841 v 1.580792 c 0,0.460923 0.370925,0.831849 0.831847,0.831848 h 1.316221 c 0.460922,0 0.832099,-0.370925 0.832099,-0.831848 v -1.597167 c 0.791013,-0.09232 1.600396,-0.297892 1.83667,-0.761739 0.414255,-0.813251 -0.589433,-2.563077 -1.054971,-3.348107 -0.430189,-0.725425 -1.43152,-2.334773 -2.278816,-2.342019 z" />
      <path
         id="path44589"
         style="opacity:0.995382;fill:#ffffff;fill-opacity:0.248257;stroke:none;stroke-width:0.0321846;stroke-linejoin:round;stroke-dasharray:none;stroke-opacity:0.479569"
         inkscape:transform-center-x="-0.097254385"
         inkscape:transform-center-y="-0.53577121"
         d="m 26.191131,64.857948 c -0.01347,-1.12e-4 -0.02677,1.29e-4 -0.04015,7.72e-4 -0.911432,0.04787 -1.925195,1.791928 -2.372283,2.58761 -0.419696,0.746937 -1.334587,2.460574 -0.867866,3.179071 0.277564,0.427301 1.028898,0.617606 1.797271,0.700734 v 1.580794 c 0,0.460922 0.370941,0.831864 0.831864,0.831863 h 1.316119 c 0.07512,0 0.147805,-0.01004 0.216938,-0.02853 h -0.980016 c -0.460922,10e-7 -0.831863,-0.370941 -0.831863,-0.831863 v -1.580794 c -0.768374,-0.08313 -1.519707,-0.273549 -1.797271,-0.70085 -0.466721,-0.718496 0.44817,-2.432018 0.867866,-3.178956 0.401051,-0.713751 1.258058,-2.190444 2.08817,-2.521586 -0.07713,-0.02415 -0.153575,-0.03766 -0.228785,-0.0383 z" />
      <path
         id="path44591"
         style="opacity:0.995382;fill:#000000;fill-opacity:0.0834569;stroke:none;stroke-width:0.0321846;stroke-linejoin:round;stroke-dasharray:none;stroke-opacity:0.479569"
         inkscape:transform-center-x="-0.097259391"
         inkscape:transform-center-y="-0.53574592"
         d="m 26.263711,64.86255 c 0.734329,0.389361 1.493162,1.613138 1.852829,2.219644 0.465537,0.785029 1.469267,2.534899 1.055013,3.348158 -0.236274,0.463845 -1.045714,0.66938 -1.836725,0.761698 v 1.597127 c 0,0.460923 -0.371172,0.831863 -0.832093,0.831863 h -1.316121 c -0.0274,0 -0.05451,-0.0013 -0.08121,-0.0039 0.126316,0.07721 0.275046,0.121697 0.434566,0.121697 h 1.31612 c 0.460922,0 0.832093,-0.370941 0.832093,-0.831863 v -1.597127 c 0.791012,-0.09232 1.600451,-0.297853 1.836725,-0.761698 0.414255,-0.81326 -0.589475,-2.563129 -1.055012,-3.348158 -0.417962,-0.704807 -1.375034,-2.243862 -2.206187,-2.33743 z m -2.767739,6.19308 c 0.249336,0.102703 0.546572,0.17393 0.858779,0.223494 v -0.07074 c -0.297814,-0.03222 -0.592682,-0.08075 -0.858779,-0.152754 z" />
    </g>
    <path
       id="path44595"
       style="opacity:0.995382;fill:#ffffff;fill-opacity:0.0889476;stroke:none;stroke-width:0.348001;stroke-linejoin:round;stroke-dasharray:none;stroke-opacity:1"
       d="m 59.905509,40.23958 c -0.690866,-0.01602 -1.373099,0.618014 -1.224731,1.295012 l 1.442289,6.580477 a 4.2493753,14.571904 71.428757 0 0 5.216219,-1.431438 4.2493753,14.571904 71.428757 0 0 6.683829,-2.838587 l 0.183969,-1.382343 c 0.09439,-0.709167 -0.578536,-1.230915 -1.291395,-1.291394 l -10.943517,-0.92811 c -0.02228,-0.0019 -0.04438,-0.0031 -0.06666,-0.0036 z" />
    <rect
       style="opacity:0.995382;fill:#474157;fill-opacity:1;stroke-width:0.0479671;stroke-linejoin:round"
       id="rect46274"
       width="10.734258"
       height="10.814444"
       x="-67.409935"
       y="-18.33371"
       rx="1.2913735"
       transform="scale(-1)" />
    <rect
       style="opacity:0.995382;fill:#666088;fill-opacity:1;stroke:#000000;stroke-width:0.148;stroke-linejoin:round;stroke-dasharray:none;stroke-opacity:0.50034"
       id="rect46276"
       width="10.734258"
       height="10.814444"
       x="-67.409935"
       y="-17.275375"
       rx="1.2913735"
       transform="scale(-1)" />
    <g
       id="g50458"
       transform="matrix(1.4771595,0,0,1.3998864,-27.260512,-2.8144469)">
      <circle
         style="opacity:0.995382;fill:url(#radialGradient46300);fill-opacity:1;stroke:#000000;stroke-width:0.0132999;stroke-linejoin:round;stroke-dasharray:none;stroke-opacity:0.458015"
         id="circle46278"
         cx="57.736271"
         cy="7.3517628"
         r="0.35269463" />
      <g
         id="g46286"
         transform="matrix(0.26069159,0,0,0.26069159,39.100547,4.294057)">
        <path
           id="path46280"
           style="opacity:0.995382;fill:#424242;stroke-width:0.1;stroke-linejoin:round;stroke-opacity:0"
           d="m 71.636802,11.011938 v 1.444101 c 0,0.07944 -0.06396,0.1434 -0.1434,0.1434 -0.07944,0 -0.143399,-0.06396 -0.143399,-0.1434 v -1.444101 c 0,-0.07944 0.06396,-0.1434 0.143399,-0.1434 0.07944,0 0.1434,0.06396 0.1434,0.1434 z m -0.86545,0.578651 h 1.444101 c 0.07944,0 0.1434,0.06396 0.1434,0.1434 0,0.07944 -0.06396,0.1434 -0.1434,0.1434 h -1.444101 c -0.07944,0 -0.1434,-0.06396 -0.1434,-0.1434 0,-0.07944 0.06396,-0.1434 0.1434,-0.1434 z" />
        <path
           id="path46282"
           style="opacity:0.995382;fill:#272727;fill-opacity:1;stroke-width:0.1;stroke-linejoin:round;stroke-opacity:0"
           d="m 71.478166,10.857846 c -0.07944,0 -0.14366,0.06422 -0.14366,0.143661 v 0.578259 H 70.75573 c -0.07944,0 -0.143144,0.06422 -0.143144,0.143661 0,0.04416 0.01995,0.08329 0.05116,0.109554 -0.01973,-0.02456 -0.03152,-0.05582 -0.03152,-0.08992 0,-0.07944 0.06422,-0.143661 0.143661,-0.143661 h 0.578259 v -0.578259 c 0,-0.07944 0.06422,-0.143661 0.14366,-0.143661 0.0341,0 0.06536,0.01179 0.08992,0.03152 -0.02627,-0.03121 -0.06539,-0.05116 -0.109554,-0.05116 z m 0.162781,0.72192 v 0.01964 h 0.578776 c 0.03451,0 0.06626,0.01239 0.09095,0.03256 -0.02626,-0.03185 -0.0659,-0.05219 -0.110588,-0.05219 z m -0.306441,0.306441 v 0.559139 c 0,0.04468 0.02035,0.08433 0.05219,0.110588 -0.02016,-0.02469 -0.03256,-0.05644 -0.03256,-0.09095 v -0.578776 z" />
        <path
           id="path46284"
           style="opacity:0.995382;fill:#bababa;fill-opacity:1;stroke-width:0.1;stroke-linejoin:round;stroke-opacity:0"
           d="m 71.582832,10.902484 c 0.02016,0.02469 0.03256,0.05644 0.03256,0.09095 v 0.57826 h 0.01964 v -0.558623 c 0,-0.04469 -0.02035,-0.08433 -0.05219,-0.110587 z m 0.722953,0.722953 c 0.01973,0.02456 0.03152,0.05582 0.03152,0.08992 0,0.07944 -0.06422,0.143144 -0.143661,0.143144 h -0.578259 v 0.578776 c 0,0.07944 -0.06422,0.14366 -0.143661,0.14366 -0.0341,0 -0.06536,-0.01179 -0.08992,-0.03152 0.02627,0.03121 0.06539,0.05116 0.109554,0.05116 0.07944,0 0.143661,-0.06422 0.143661,-0.14366 v -0.578259 h 0.578259 c 0.07944,0 0.143661,-0.06422 0.143661,-0.143661 0,-0.04416 -0.01995,-0.08329 -0.05116,-0.109554 z m -1.646928,0.201021 c 0.02626,0.03185 0.0659,0.05219 0.110588,0.05219 h 0.559139 v -0.02015 h -0.578776 c -0.0345,0 -0.06626,-0.01188 -0.09095,-0.03204 z" />
      </g>
    </g>
    <g
       id="g50451"
       transform="matrix(1.4771595,0,0,1.3998864,-31.633246,-2.8144469)">
      <circle
         style="opacity:0.995382;fill:url(#radialGradient46336);fill-opacity:1;stroke:#000000;stroke-width:0.0132999;stroke-linejoin:round;stroke-dasharray:none;stroke-opacity:0.458015"
         id="circle46326"
         cx="66.283554"
         cy="7.3517628"
         r="0.35269463" />
      <g
         id="g46334"
         transform="matrix(0.26069159,0,0,0.26069159,47.647828,4.294057)">
        <path
           id="path46328"
           style="opacity:0.995382;fill:#424242;stroke-width:0.1;stroke-linejoin:round;stroke-opacity:0"
           d="m 71.636802,11.011938 v 1.444101 c 0,0.07944 -0.06396,0.1434 -0.1434,0.1434 -0.07944,0 -0.143399,-0.06396 -0.143399,-0.1434 v -1.444101 c 0,-0.07944 0.06396,-0.1434 0.143399,-0.1434 0.07944,0 0.1434,0.06396 0.1434,0.1434 z m -0.86545,0.578651 h 1.444101 c 0.07944,0 0.1434,0.06396 0.1434,0.1434 0,0.07944 -0.06396,0.1434 -0.1434,0.1434 h -1.444101 c -0.07944,0 -0.1434,-0.06396 -0.1434,-0.1434 0,-0.07944 0.06396,-0.1434 0.1434,-0.1434 z" />
        <path
           id="path46330"
           style="opacity:0.995382;fill:#272727;fill-opacity:1;stroke-width:0.1;stroke-linejoin:round;stroke-opacity:0"
           d="m 71.478166,10.857846 c -0.07944,0 -0.14366,0.06422 -0.14366,0.143661 v 0.578259 H 70.75573 c -0.07944,0 -0.143144,0.06422 -0.143144,0.143661 0,0.04416 0.01995,0.08329 0.05116,0.109554 -0.01973,-0.02456 -0.03152,-0.05582 -0.03152,-0.08992 0,-0.07944 0.06422,-0.143661 0.143661,-0.143661 h 0.578259 v -0.578259 c 0,-0.07944 0.06422,-0.143661 0.14366,-0.143661 0.0341,0 0.06536,0.01179 0.08992,0.03152 -0.02627,-0.03121 -0.06539,-0.05116 -0.109554,-0.05116 z m 0.162781,0.72192 v 0.01964 h 0.578776 c 0.03451,0 0.06626,0.01239 0.09095,0.03256 -0.02626,-0.03185 -0.0659,-0.05219 -0.110588,-0.05219 z m -0.306441,0.306441 v 0.559139 c 0,0.04468 0.02035,0.08433 0.05219,0.110588 -0.02016,-0.02469 -0.03256,-0.05644 -0.03256,-0.09095 v -0.578776 z" />
        <path
           id="path46332"
           style="opacity:0.995382;fill:#bababa;fill-opacity:1;stroke-width:0.1;stroke-linejoin:round;stroke-opacity:0"
           d="m 71.582832,10.902484 c 0.02016,0.02469 0.03256,0.05644 0.03256,0.09095 v 0.57826 h 0.01964 v -0.558623 c 0,-0.04469 -0.02035,-0.08433 -0.05219,-0.110587 z m 0.722953,0.722953 c 0.01973,0.02456 0.03152,0.05582 0.03152,0.08992 0,0.07944 -0.06422,0.143144 -0.143661,0.143144 h -0.578259 v 0.578776 c 0,0.07944 -0.06422,0.14366 -0.143661,0.14366 -0.0341,0 -0.06536,-0.01179 -0.08992,-0.03152 0.02627,0.03121 0.06539,0.05116 0.109554,0.05116 0.07944,0 0.143661,-0.06422 0.143661,-0.14366 v -0.578259 h 0.578259 c 0.07944,0 0.143661,-0.06422 0.143661,-0.143661 0,-0.04416 -0.01995,-0.08329 -0.05116,-0.109554 z m -1.646928,0.201021 c 0.02626,0.03185 0.0659,0.05219 0.110588,0.05219 h 0.559139 v -0.02015 h -0.578776 c -0.0345,0 -0.06626,-0.01188 -0.09095,-0.03204 z" />
      </g>
    </g>
    <g
       id="g50472"
       transform="matrix(1.4771595,0,0,1.3998864,-27.288044,-6.6110703)">
      <circle
         style="opacity:0.995382;fill:url(#radialGradient46360);fill-opacity:1;stroke:#000000;stroke-width:0.0132999;stroke-linejoin:round;stroke-dasharray:none;stroke-opacity:0.458015"
         id="circle46338"
         cx="57.75491"
         cy="16.19866"
         r="0.35269463" />
      <g
         id="g46346"
         transform="matrix(0.26069159,0,0,0.26069159,39.119184,13.140955)">
        <path
           id="path46340"
           style="opacity:0.995382;fill:#424242;stroke-width:0.1;stroke-linejoin:round;stroke-opacity:0"
           d="m 71.636802,11.011938 v 1.444101 c 0,0.07944 -0.06396,0.1434 -0.1434,0.1434 -0.07944,0 -0.143399,-0.06396 -0.143399,-0.1434 v -1.444101 c 0,-0.07944 0.06396,-0.1434 0.143399,-0.1434 0.07944,0 0.1434,0.06396 0.1434,0.1434 z m -0.86545,0.578651 h 1.444101 c 0.07944,0 0.1434,0.06396 0.1434,0.1434 0,0.07944 -0.06396,0.1434 -0.1434,0.1434 h -1.444101 c -0.07944,0 -0.1434,-0.06396 -0.1434,-0.1434 0,-0.07944 0.06396,-0.1434 0.1434,-0.1434 z" />
        <path
           id="path46342"
           style="opacity:0.995382;fill:#272727;fill-opacity:1;stroke-width:0.1;stroke-linejoin:round;stroke-opacity:0"
           d="m 71.478166,10.857846 c -0.07944,0 -0.14366,0.06422 -0.14366,0.143661 v 0.578259 H 70.75573 c -0.07944,0 -0.143144,0.06422 -0.143144,0.143661 0,0.04416 0.01995,0.08329 0.05116,0.109554 -0.01973,-0.02456 -0.03152,-0.05582 -0.03152,-0.08992 0,-0.07944 0.06422,-0.143661 0.143661,-0.143661 h 0.578259 v -0.578259 c 0,-0.07944 0.06422,-0.143661 0.14366,-0.143661 0.0341,0 0.06536,0.01179 0.08992,0.03152 -0.02627,-0.03121 -0.06539,-0.05116 -0.109554,-0.05116 z m 0.162781,0.72192 v 0.01964 h 0.578776 c 0.03451,0 0.06626,0.01239 0.09095,0.03256 -0.02626,-0.03185 -0.0659,-0.05219 -0.110588,-0.05219 z m -0.306441,0.306441 v 0.559139 c 0,0.04468 0.02035,0.08433 0.05219,0.110588 -0.02016,-0.02469 -0.03256,-0.05644 -0.03256,-0.09095 v -0.578776 z" />
        <path
           id="path46344"
           style="opacity:0.995382;fill:#bababa;fill-opacity:1;stroke-width:0.1;stroke-linejoin:round;stroke-opacity:0"
           d="m 71.582832,10.902484 c 0.02016,0.02469 0.03256,0.05644 0.03256,0.09095 v 0.57826 h 0.01964 v -0.558623 c 0,-0.04469 -0.02035,-0.08433 -0.05219,-0.110587 z m 0.722953,0.722953 c 0.01973,0.02456 0.03152,0.05582 0.03152,0.08992 0,0.07944 -0.06422,0.143144 -0.143661,0.143144 h -0.578259 v 0.578776 c 0,0.07944 -0.06422,0.14366 -0.143661,0.14366 -0.0341,0 -0.06536,-0.01179 -0.08992,-0.03152 0.02627,0.03121 0.06539,0.05116 0.109554,0.05116 0.07944,0 0.143661,-0.06422 0.143661,-0.14366 v -0.578259 h 0.578259 c 0.07944,0 0.143661,-0.06422 0.143661,-0.143661 0,-0.04416 -0.01995,-0.08329 -0.05116,-0.109554 z m -1.646928,0.201021 c 0.02626,0.03185 0.0659,0.05219 0.110588,0.05219 h 0.559139 v -0.02015 h -0.578776 c -0.0345,0 -0.06626,-0.01188 -0.09095,-0.03204 z" />
      </g>
    </g>
    <g
       id="g50465"
       transform="matrix(1.4771595,0,0,1.3998864,-31.660779,-6.6110703)">
      <circle
         style="opacity:0.995382;fill:url(#radialGradient46358);fill-opacity:1;stroke:#000000;stroke-width:0.0132999;stroke-linejoin:round;stroke-dasharray:none;stroke-opacity:0.458015"
         id="circle46348"
         cx="66.302193"
         cy="16.19866"
         r="0.35269463" />
      <g
         id="g46356"
         transform="matrix(0.26069159,0,0,0.26069159,47.666465,13.140955)">
        <path
           id="path46350"
           style="opacity:0.995382;fill:#424242;stroke-width:0.1;stroke-linejoin:round;stroke-opacity:0"
           d="m 71.636802,11.011938 v 1.444101 c 0,0.07944 -0.06396,0.1434 -0.1434,0.1434 -0.07944,0 -0.143399,-0.06396 -0.143399,-0.1434 v -1.444101 c 0,-0.07944 0.06396,-0.1434 0.143399,-0.1434 0.07944,0 0.1434,0.06396 0.1434,0.1434 z m -0.86545,0.578651 h 1.444101 c 0.07944,0 0.1434,0.06396 0.1434,0.1434 0,0.07944 -0.06396,0.1434 -0.1434,0.1434 h -1.444101 c -0.07944,0 -0.1434,-0.06396 -0.1434,-0.1434 0,-0.07944 0.06396,-0.1434 0.1434,-0.1434 z" />
        <path
           id="path46352"
           style="opacity:0.995382;fill:#272727;fill-opacity:1;stroke-width:0.1;stroke-linejoin:round;stroke-opacity:0"
           d="m 71.478166,10.857846 c -0.07944,0 -0.14366,0.06422 -0.14366,0.143661 v 0.578259 H 70.75573 c -0.07944,0 -0.143144,0.06422 -0.143144,0.143661 0,0.04416 0.01995,0.08329 0.05116,0.109554 -0.01973,-0.02456 -0.03152,-0.05582 -0.03152,-0.08992 0,-0.07944 0.06422,-0.143661 0.143661,-0.143661 h 0.578259 v -0.578259 c 0,-0.07944 0.06422,-0.143661 0.14366,-0.143661 0.0341,0 0.06536,0.01179 0.08992,0.03152 -0.02627,-0.03121 -0.06539,-0.05116 -0.109554,-0.05116 z m 0.162781,0.72192 v 0.01964 h 0.578776 c 0.03451,0 0.06626,0.01239 0.09095,0.03256 -0.02626,-0.03185 -0.0659,-0.05219 -0.110588,-0.05219 z m -0.306441,0.306441 v 0.559139 c 0,0.04468 0.02035,0.08433 0.05219,0.110588 -0.02016,-0.02469 -0.03256,-0.05644 -0.03256,-0.09095 v -0.578776 z" />
        <path
           id="path46354"
           style="opacity:0.995382;fill:#bababa;fill-opacity:1;stroke-width:0.1;stroke-linejoin:round;stroke-opacity:0"
           d="m 71.582832,10.902484 c 0.02016,0.02469 0.03256,0.05644 0.03256,0.09095 v 0.57826 h 0.01964 v -0.558623 c 0,-0.04469 -0.02035,-0.08433 -0.05219,-0.110587 z m 0.722953,0.722953 c 0.01973,0.02456 0.03152,0.05582 0.03152,0.08992 0,0.07944 -0.06422,0.143144 -0.143661,0.143144 h -0.578259 v 0.578776 c 0,0.07944 -0.06422,0.14366 -0.143661,0.14366 -0.0341,0 -0.06536,-0.01179 -0.08992,-0.03152 0.02627,0.03121 0.06539,0.05116 0.109554,0.05116 0.07944,0 0.143661,-0.06422 0.143661,-0.14366 v -0.578259 h 0.578259 c 0.07944,0 0.143661,-0.06422 0.143661,-0.143661 0,-0.04416 -0.01995,-0.08329 -0.05116,-0.109554 z m -1.646928,0.201021 c 0.02626,0.03185 0.0659,0.05219 0.110588,0.05219 h 0.559139 v -0.02015 h -0.578776 c -0.0345,0 -0.06626,-0.01188 -0.09095,-0.03204 z" />
      </g>
    </g>
    <path
       id="rect46364"
       style="opacity:0.995382;fill:#666088;stroke:#000000;stroke-width:0.148;stroke-linejoin:miter;stroke-opacity:0.552901"
       d="m 52.395841,68.626375 h -8.15151 c -0.373226,0 -0.708494,-0.156749 -0.943833,-0.408276 -0.01667,-0.01782 -0.03285,-0.03612 -0.0485,-0.05487 -0.01581,-0.01894 -0.03108,-0.03835 -0.0458,-0.05819 -0.159234,-0.214724 -0.253243,-0.480996 -0.253243,-0.770032 V 61.075773 L 43.192181,60.88869 42.952958,60.778768 V 59.10331 c 0,-0.715421 0.575953,-1.291373 1.291374,-1.291373 h 8.15151 c 0.715421,0 1.291374,0.575952 1.291374,1.291373 v 5.343526 l -0.335552,-0.124302 0.335552,0.566736 v 2.445737 c 0,0.715421 -0.575953,1.291373 -1.291374,1.291373 z"
       sodipodi:nodetypes="sssssscccsssscccsss" />
    <g
       id="g46556"
       transform="translate(22.457426,-6.093628)">
      <path
         id="path46550"
         style="opacity:0.995382;fill:#87df06;fill-opacity:1;stroke:#000000;stroke-width:0.0321846;stroke-linejoin:round;stroke-dasharray:none;stroke-opacity:0.479569"
         inkscape:transform-center-x="-0.097266732"
         inkscape:transform-center-y="-0.53578087"
         d="m 26.191105,64.857999 c -0.01347,-1.12e-4 -0.02679,6.7e-5 -0.04015,7.02e-4 -0.911432,0.04787 -1.925128,1.791975 -2.372216,2.587658 -0.419697,0.746937 -1.334644,2.460486 -0.867923,3.178983 0.277564,0.427302 1.028886,0.617713 1.79726,0.700841 v 1.580792 c 0,0.460923 0.370925,0.831849 0.831847,0.831848 h 1.316221 c 0.460922,0 0.832099,-0.370925 0.832099,-0.831848 v -1.597167 c 0.791013,-0.09232 1.600396,-0.297892 1.83667,-0.761739 0.414255,-0.813251 -0.589433,-2.563077 -1.054971,-3.348107 -0.430189,-0.725425 -1.43152,-2.334773 -2.278816,-2.342019 z" />
      <path
         id="path46552"
         style="opacity:0.995382;fill:#ffffff;fill-opacity:0.248257;stroke:none;stroke-width:0.0321846;stroke-linejoin:round;stroke-dasharray:none;stroke-opacity:0.479569"
         inkscape:transform-center-x="-0.097254385"
         inkscape:transform-center-y="-0.53577121"
         d="m 26.191131,64.857948 c -0.01347,-1.12e-4 -0.02677,1.29e-4 -0.04015,7.72e-4 -0.911432,0.04787 -1.925195,1.791928 -2.372283,2.58761 -0.419696,0.746937 -1.334587,2.460574 -0.867866,3.179071 0.277564,0.427301 1.028898,0.617606 1.797271,0.700734 v 1.580794 c 0,0.460922 0.370941,0.831864 0.831864,0.831863 h 1.316119 c 0.07512,0 0.147805,-0.01004 0.216938,-0.02853 h -0.980016 c -0.460922,10e-7 -0.831863,-0.370941 -0.831863,-0.831863 v -1.580794 c -0.768374,-0.08313 -1.519707,-0.273549 -1.797271,-0.70085 -0.466721,-0.718496 0.44817,-2.432018 0.867866,-3.178956 0.401051,-0.713751 1.258058,-2.190444 2.08817,-2.521586 -0.07713,-0.02415 -0.153575,-0.03766 -0.228785,-0.0383 z" />
      <path
         id="path46554"
         style="opacity:0.995382;fill:#000000;fill-opacity:0.0834569;stroke:none;stroke-width:0.0321846;stroke-linejoin:round;stroke-dasharray:none;stroke-opacity:0.479569"
         inkscape:transform-center-x="-0.097259391"
         inkscape:transform-center-y="-0.53574592"
         d="m 26.263711,64.86255 c 0.734329,0.389361 1.493162,1.613138 1.852829,2.219644 0.465537,0.785029 1.469267,2.534899 1.055013,3.348158 -0.236274,0.463845 -1.045714,0.66938 -1.836725,0.761698 v 1.597127 c 0,0.460923 -0.371172,0.831863 -0.832093,0.831863 h -1.316121 c -0.0274,0 -0.05451,-0.0013 -0.08121,-0.0039 0.126316,0.07721 0.275046,0.121697 0.434566,0.121697 h 1.31612 c 0.460922,0 0.832093,-0.370941 0.832093,-0.831863 v -1.597127 c 0.791012,-0.09232 1.600451,-0.297853 1.836725,-0.761698 0.414255,-0.81326 -0.589475,-2.563129 -1.055012,-3.348158 -0.417962,-0.704807 -1.375034,-2.243862 -2.206187,-2.33743 z m -2.767739,6.19308 c 0.249336,0.102703 0.546572,0.17393 0.858779,0.223494 v -0.07074 c -0.297814,-0.03222 -0.592682,-0.08075 -0.858779,-0.152754 z" />
    </g>
    <path
       id="path46610"
       style="opacity:0.995382;fill:#ffffff;fill-opacity:0.23323601;stroke:none;stroke-width:0.1;stroke-linejoin:miter;stroke-dasharray:none;stroke-opacity:0"
       d="M 24.946118 68.392077 C 24.263389 68.178282 23.541613 68.555814 23.327818 69.238542 L 22.82716 70.837335 L 23.022595 71.013876 L 22.738363 71.120896 L 21.787854 74.156236 A 15.27286 3.9434154 -180 0 0 26.743261 74.370482 A 15.27286 3.9434154 -180 0 0 33.08045 74.014555 L 33.571533 72.446337 C 33.785328 71.763609 33.407797 71.041832 32.725069 70.828037 L 24.946118 68.392077 z "
       transform="rotate(-17.387824)" />
    <path
       id="path46617"
       style="opacity:0.995382;fill:#666088;stroke:#000000;stroke-width:0.148;stroke-linejoin:miter;stroke-opacity:0.552901"
       d="m 53.298969,83.23916 h -8.15151 c -0.373226,0 -0.708494,-0.156749 -0.943833,-0.408276 -0.01667,-0.01782 -0.03285,-0.03612 -0.0485,-0.05487 -0.01581,-0.01894 -0.03108,-0.03835 -0.0458,-0.05819 -0.159234,-0.214724 -0.253243,-0.480996 -0.253243,-0.770032 v -6.259234 l 0.239226,-0.187083 -0.239223,-0.109922 v -1.675458 c 0,-0.715421 0.575953,-1.291373 1.291374,-1.291373 h 8.15151 c 0.715421,0 1.291374,0.575952 1.291374,1.291373 v 5.343526 l -0.335552,-0.124302 0.335552,0.566736 v 2.445737 c 0,0.715421 -0.575953,1.291373 -1.291374,1.291373 z"
       sodipodi:nodetypes="sssssscccsssscccsss" />
    <g
       id="g46625"
       transform="translate(23.360554,8.5191572)">
      <path
         id="path46619"
         style="opacity:0.995382;fill:#87df06;fill-opacity:1;stroke:#000000;stroke-width:0.0321846;stroke-linejoin:round;stroke-dasharray:none;stroke-opacity:0.479569"
         inkscape:transform-center-x="-0.097266732"
         inkscape:transform-center-y="-0.53578087"
         d="m 26.191105,64.857999 c -0.01347,-1.12e-4 -0.02679,6.7e-5 -0.04015,7.02e-4 -0.911432,0.04787 -1.925128,1.791975 -2.372216,2.587658 -0.419697,0.746937 -1.334644,2.460486 -0.867923,3.178983 0.277564,0.427302 1.028886,0.617713 1.79726,0.700841 v 1.580792 c 0,0.460923 0.370925,0.831849 0.831847,0.831848 h 1.316221 c 0.460922,0 0.832099,-0.370925 0.832099,-0.831848 v -1.597167 c 0.791013,-0.09232 1.600396,-0.297892 1.83667,-0.761739 0.414255,-0.813251 -0.589433,-2.563077 -1.054971,-3.348107 -0.430189,-0.725425 -1.43152,-2.334773 -2.278816,-2.342019 z" />
      <path
         id="path46621"
         style="opacity:0.995382;fill:#ffffff;fill-opacity:0.248257;stroke:none;stroke-width:0.0321846;stroke-linejoin:round;stroke-dasharray:none;stroke-opacity:0.479569"
         inkscape:transform-center-x="-0.097254385"
         inkscape:transform-center-y="-0.53577121"
         d="m 26.191131,64.857948 c -0.01347,-1.12e-4 -0.02677,1.29e-4 -0.04015,7.72e-4 -0.911432,0.04787 -1.925195,1.791928 -2.372283,2.58761 -0.419696,0.746937 -1.334587,2.460574 -0.867866,3.179071 0.277564,0.427301 1.028898,0.617606 1.797271,0.700734 v 1.580794 c 0,0.460922 0.370941,0.831864 0.831864,0.831863 h 1.316119 c 0.07512,0 0.147805,-0.01004 0.216938,-0.02853 h -0.980016 c -0.460922,10e-7 -0.831863,-0.370941 -0.831863,-0.831863 v -1.580794 c -0.768374,-0.08313 -1.519707,-0.273549 -1.797271,-0.70085 -0.466721,-0.718496 0.44817,-2.432018 0.867866,-3.178956 0.401051,-0.713751 1.258058,-2.190444 2.08817,-2.521586 -0.07713,-0.02415 -0.153575,-0.03766 -0.228785,-0.0383 z" />
      <path
         id="path46623"
         style="opacity:0.995382;fill:#000000;fill-opacity:0.0834569;stroke:none;stroke-width:0.0321846;stroke-linejoin:round;stroke-dasharray:none;stroke-opacity:0.479569"
         inkscape:transform-center-x="-0.097259391"
         inkscape:transform-center-y="-0.53574592"
         d="m 26.263711,64.86255 c 0.734329,0.389361 1.493162,1.613138 1.852829,2.219644 0.465537,0.785029 1.469267,2.534899 1.055013,3.348158 -0.236274,0.463845 -1.045714,0.66938 -1.836725,0.761698 v 1.597127 c 0,0.460923 -0.371172,0.831863 -0.832093,0.831863 h -1.316121 c -0.0274,0 -0.05451,-0.0013 -0.08121,-0.0039 0.126316,0.07721 0.275046,0.121697 0.434566,0.121697 h 1.31612 c 0.460922,0 0.832093,-0.370941 0.832093,-0.831863 v -1.597127 c 0.791012,-0.09232 1.600451,-0.297853 1.836725,-0.761698 0.414255,-0.81326 -0.589475,-2.563129 -1.055012,-3.348158 -0.417962,-0.704807 -1.375034,-2.243862 -2.206187,-2.33743 z m -2.767739,6.19308 c 0.249336,0.102703 0.546572,0.17393 0.858779,0.223494 v -0.07074 c -0.297814,-0.03222 -0.592682,-0.08075 -0.858779,-0.152754 z" />
    </g>
    <path
       id="path46627"
       style="opacity:0.995382;fill:#ffffff;fill-opacity:0.233236;stroke:none;stroke-width:0.1;stroke-linejoin:miter;stroke-dasharray:none;stroke-opacity:0"
       d="m 45.147456,72.42476 c -0.715421,0 -1.291394,0.575974 -1.291394,1.291394 l 0,1.67535 0.239261,0.110071 -0.239262,0.187069 1e-6,3.180684 a 3.9434154,15.27286 72.612176 0 0 4.792989,-1.276408 3.9434154,15.27286 72.612176 0 0 5.941239,-2.233455 l -1e-6,-1.643311 c 1e-6,-0.71542 -0.575973,-1.291394 -1.291393,-1.291394 z" />
    <path
       id="path47739"
       style="opacity:0.995382;fill:#474157;fill-opacity:1;stroke-width:0.10043;stroke-opacity:0"
       d="m 45.521302,93.855167 h 8.121069 c 0.72158,0 1.072228,0.613357 1.302491,1.291373 l 0.914865,2.693841 c 0.230263,0.678017 -0.580934,1.296889 -1.302491,1.291373 l -9.995969,-0.07642 c -0.721558,-0.0055 -1.549098,-0.61903 -1.302491,-1.291373 l 0.960035,-2.617417 c 0.246607,-0.672343 0.580911,-1.291373 1.302491,-1.291373 z"
       sodipodi:nodetypes="ssssssssss" />
    <path
       id="path47741"
       style="opacity:0.995382;fill:url(#linearGradient47755);fill-opacity:1;stroke:#645674;stroke-width:0.1;stroke-miterlimit:3.6;stroke-dasharray:none;stroke-opacity:1"
       d="m 45.555747,93.540968 h 8.051755 c 0.715421,0 1.063076,0.613357 1.291374,1.291373 l 0.907056,2.693841 c 0.228298,0.678017 -0.575975,1.296889 -1.291374,1.291373 l -9.910652,-0.07642 c -0.7154,-0.0055 -1.535876,-0.61903 -1.291374,-1.291373 l 0.951841,-2.617417 c 0.244502,-0.672343 0.575953,-1.291373 1.291374,-1.291373 z"
       sodipodi:nodetypes="ssssssssss" />
    <path
       id="path47743"
       style="opacity:0.995382;fill:url(#linearGradient47765);fill-opacity:1;stroke:#000000;stroke-width:0.148;stroke-linejoin:miter;stroke-opacity:0.552901"
       d="m 53.562286,97.678132 h -8.15151 c -0.373226,0 -0.708494,-0.156749 -0.943833,-0.408276 -0.01667,-0.01782 -0.03285,-0.03612 -0.0485,-0.05487 -0.01581,-0.01894 -0.03108,-0.03835 -0.0458,-0.05819 C 44.213409,96.942072 44.1194,96.6758 44.1194,96.386764 V 90.12753 l 0.239226,-0.187083 -0.239223,-0.109922 v -1.675458 c 0,-0.715421 0.575953,-1.291373 1.291374,-1.291373 h 8.15151 c 0.715421,0 1.291374,0.575952 1.291374,1.291373 v 5.343526 l -0.335552,-0.124302 0.335552,0.566736 v 2.445737 c 0,0.715421 -0.575953,1.291373 -1.291374,1.291373 z"
       sodipodi:nodetypes="sssssscccsssscccsss" />
    <g
       id="g47751"
       transform="translate(23.623871,22.958129)">
      <path
         id="path47745"
         style="opacity:0.995382;fill:#87df06;fill-opacity:1;stroke:#000000;stroke-width:0.0321846;stroke-linejoin:round;stroke-dasharray:none;stroke-opacity:0.479569"
         inkscape:transform-center-x="-0.097266732"
         inkscape:transform-center-y="-0.53578087"
         d="m 26.191105,64.857999 c -0.01347,-1.12e-4 -0.02679,6.7e-5 -0.04015,7.02e-4 -0.911432,0.04787 -1.925128,1.791975 -2.372216,2.587658 -0.419697,0.746937 -1.334644,2.460486 -0.867923,3.178983 0.277564,0.427302 1.028886,0.617713 1.79726,0.700841 v 1.580792 c 0,0.460923 0.370925,0.831849 0.831847,0.831848 h 1.316221 c 0.460922,0 0.832099,-0.370925 0.832099,-0.831848 v -1.597167 c 0.791013,-0.09232 1.600396,-0.297892 1.83667,-0.761739 0.414255,-0.813251 -0.589433,-2.563077 -1.054971,-3.348107 -0.430189,-0.725425 -1.43152,-2.334773 -2.278816,-2.342019 z" />
      <path
         id="path47747"
         style="opacity:0.995382;fill:#ffffff;fill-opacity:0.248257;stroke:none;stroke-width:0.0321846;stroke-linejoin:round;stroke-dasharray:none;stroke-opacity:0.479569"
         inkscape:transform-center-x="-0.097254385"
         inkscape:transform-center-y="-0.53577121"
         d="m 26.191131,64.857948 c -0.01347,-1.12e-4 -0.02677,1.29e-4 -0.04015,7.72e-4 -0.911432,0.04787 -1.925195,1.791928 -2.372283,2.58761 -0.419696,0.746937 -1.334587,2.460574 -0.867866,3.179071 0.277564,0.427301 1.028898,0.617606 1.797271,0.700734 v 1.580794 c 0,0.460922 0.370941,0.831864 0.831864,0.831863 h 1.316119 c 0.07512,0 0.147805,-0.01004 0.216938,-0.02853 h -0.980016 c -0.460922,10e-7 -0.831863,-0.370941 -0.831863,-0.831863 v -1.580794 c -0.768374,-0.08313 -1.519707,-0.273549 -1.797271,-0.70085 -0.466721,-0.718496 0.44817,-2.432018 0.867866,-3.178956 0.401051,-0.713751 1.258058,-2.190444 2.08817,-2.521586 -0.07713,-0.02415 -0.153575,-0.03766 -0.228785,-0.0383 z" />
      <path
         id="path47749"
         style="opacity:0.995382;fill:#000000;fill-opacity:0.0834569;stroke:none;stroke-width:0.0321846;stroke-linejoin:round;stroke-dasharray:none;stroke-opacity:0.479569"
         inkscape:transform-center-x="-0.097259391"
         inkscape:transform-center-y="-0.53574592"
         d="m 26.263711,64.86255 c 0.734329,0.389361 1.493162,1.613138 1.852829,2.219644 0.465537,0.785029 1.469267,2.534899 1.055013,3.348158 -0.236274,0.463845 -1.045714,0.66938 -1.836725,0.761698 v 1.597127 c 0,0.460923 -0.371172,0.831863 -0.832093,0.831863 h -1.316121 c -0.0274,0 -0.05451,-0.0013 -0.08121,-0.0039 0.126316,0.07721 0.275046,0.121697 0.434566,0.121697 h 1.31612 c 0.460922,0 0.832093,-0.370941 0.832093,-0.831863 v -1.597127 c 0.791012,-0.09232 1.600451,-0.297853 1.836725,-0.761698 0.414255,-0.81326 -0.589475,-2.563129 -1.055012,-3.348158 -0.417962,-0.704807 -1.375034,-2.243862 -2.206187,-2.33743 z m -2.767739,6.19308 c 0.249336,0.102703 0.546572,0.17393 0.858779,0.223494 v -0.07074 c -0.297814,-0.03222 -0.592682,-0.08075 -0.858779,-0.152754 z" />
    </g>
    <path
       id="path47753"
       style="opacity:0.995382;fill:#ffffff;fill-opacity:0.0347704;stroke:none;stroke-width:0.1;stroke-linejoin:miter;stroke-dasharray:none;stroke-opacity:0"
       d="m 45.410773,86.863732 c -0.715421,0 -1.291394,0.575974 -1.291394,1.291394 v 1.67535 l 0.239261,0.110071 -0.239262,0.187069 1e-6,3.180684 a 3.9434154,15.27286 72.612176 0 0 4.792989,-1.276408 3.9434154,15.27286 72.612176 0 0 5.941239,-2.233455 l -10e-7,-1.643311 c 10e-7,-0.71542 -0.575973,-1.291394 -1.291393,-1.291394 z" />
  </g>
</svg>
