<?xml version="1.0" encoding="UTF-8" standalone="no"?>
<!-- Created with Inkscape (http://www.inkscape.org/) -->

<svg
   xmlns:dc="http://purl.org/dc/elements/1.1/"
   xmlns:cc="http://creativecommons.org/ns#"
   xmlns:rdf="http://www.w3.org/1999/02/22-rdf-syntax-ns#"
   xmlns:svg="http://www.w3.org/2000/svg"
   xmlns="http://www.w3.org/2000/svg"
   xmlns:sodipodi="http://sodipodi.sourceforge.net/DTD/sodipodi-0.dtd"
   xmlns:inkscape="http://www.inkscape.org/namespaces/inkscape"
   width="210mm"
   height="297mm"
   viewBox="0 0 210 297"
   version="1.1"
   id="svg2153"
   inkscape:version="0.92.3 (2405546, 2018-03-11)"
   sodipodi:docname="wood_plank_first_try.svg">
  <defs
     id="defs2147" />
  <sodipodi:namedview
     id="base"
     pagecolor="#ffffff"
     bordercolor="#666666"
     borderopacity="1.0"
     inkscape:pageopacity="0.0"
     inkscape:pageshadow="2"
     inkscape:zoom="0.98994949"
     inkscape:cx="156.00244"
     inkscape:cy="546.33729"
     inkscape:document-units="mm"
     inkscape:current-layer="layer1"
     showgrid="false"
     inkscape:snap-global="true"
     inkscape:window-width="960"
     inkscape:window-height="1025"
     inkscape:window-x="0"
     inkscape:window-y="27"
     inkscape:window-maximized="0" />
  <metadata
     id="metadata2150">
    <rdf:RDF>
      <cc:Work
         rdf:about="">
        <dc:format>image/svg+xml</dc:format>
        <dc:type
           rdf:resource="http://purl.org/dc/dcmitype/StillImage" />
        <dc:title></dc:title>
      </cc:Work>
    </rdf:RDF>
  </metadata>
  <g
     inkscape:label="Layer 1"
     inkscape:groupmode="layer"
     id="layer1">
    <path
       inkscape:connector-curvature="0"
       id="path2700"
       d="m 60.402912,47.9048 -1.603617,1.603617 11.58756,50.424526 -10.518483,105.660877 33.141424,4.27631 1.603617,-1.60362 2.138156,-78.0427 -3.741775,3.74177 3.741775,-10.15624 1.603615,-70.559149 -9.087164,-9.621703 z"
       style="fill:#885613;fill-opacity:1;stroke:none;stroke-width:0.26458332px;stroke-linecap:butt;stroke-linejoin:miter;stroke-opacity:1"
       sodipodi:nodetypes="cccccccccccc" />
    <path
       style="fill:#a96b18;stroke:none;stroke-width:0.26458332px;stroke-linecap:butt;stroke-linejoin:miter;stroke-opacity:1;fill-opacity:1"
       d="m 58.799295,49.508417 -2.138156,53.988443 5.34539,-3.20723 -2.672696,7.48354 -1.069078,99.42427 34.745041,2.67269 2.138156,-78.0427 -3.741775,3.74177 3.741775,-10.15624 1.603615,-70.559152 -9.087164,-9.621703 z"
       id="path2698"
       inkscape:connector-curvature="0" />
    <path
       style="fill:#000000;stroke:none;stroke-width:0.26458332px;stroke-linecap:butt;stroke-linejoin:miter;stroke-opacity:1;fill-opacity:0.19774011"
       d="m 96.751567,123.80934 -1.603615,1.60362 -3.741775,10.15624 1.603616,-1.60362 z"
       id="path2719"
       inkscape:connector-curvature="0" />
    <path
       style="fill:#000000;stroke:none;stroke-width:0.26458332px;stroke-linecap:butt;stroke-linejoin:miter;stroke-opacity:1;fill-opacity:0.14689265"
       d="m 60.402911,47.904799 -1.603616,1.603618 28.865108,-4.276312 1.603615,-1.603618 z"
       id="path2721"
       inkscape:connector-curvature="0" />
    <path
       style="color:#000000;font-style:normal;font-variant:normal;font-weight:normal;font-stretch:normal;font-size:medium;line-height:normal;font-family:sans-serif;font-variant-ligatures:normal;font-variant-position:normal;font-variant-caps:normal;font-variant-numeric:normal;font-variant-alternates:normal;font-feature-settings:normal;text-indent:0;text-align:start;text-decoration:none;text-decoration-line:none;text-decoration-style:solid;text-decoration-color:#000000;letter-spacing:normal;word-spacing:normal;text-transform:none;writing-mode:lr-tb;direction:ltr;text-orientation:mixed;dominant-baseline:auto;baseline-shift:baseline;text-anchor:start;white-space:normal;shape-padding:0;clip-rule:nonzero;display:inline;overflow:visible;visibility:visible;opacity:1;isolation:auto;mix-blend-mode:normal;color-interpolation:sRGB;color-interpolation-filters:linearRGB;solid-color:#000000;solid-opacity:1;vector-effect:none;fill:#252525;fill-opacity:0.21468925;fill-rule:nonzero;stroke:none;stroke-width:2.83464575;stroke-linecap:butt;stroke-linejoin:miter;stroke-miterlimit:4;stroke-dasharray:none;stroke-dashoffset:0;stroke-opacity:1;color-rendering:auto;image-rendering:auto;shape-rendering:auto;text-rendering:auto;enable-background:accumulate"
       d="m 319.43945,172.7168 -3.06836,0.45508 c 4.42369,7.01367 8.63956,14.81234 12.66993,23.06835 13.06128,26.75543 24.21587,58.16701 35.0039,82.82032 l 0.15625,-6.81641 C 354.23502,248.69933 343.75421,219.92213 331.58789,195 c -3.86225,-7.91163 -7.89558,-15.43325 -12.14844,-22.2832 z m -83.21875,12.33008 -2.99414,0.44335 c -2.26639,11.10046 -5.64418,23.92667 -12.44726,38.34375 l -0.2793,7.06055 c 0.71113,-1.4415 1.51055,-3.02392 2.16797,-4.38086 7.61793,-15.72368 11.18423,-29.65637 13.55273,-41.46679 z m 125.32813,17.90624 c 0.96382,1.74186 1.93341,3.44358 2.91015,5.08985 0.38526,0.64932 0.77083,1.30879 1.15625,1.95898 l 0.0605,-2.67968 z m -85.88672,2.94922 c -16.42856,0.16878 -27.74739,5.52715 -35.44727,14.23243 -7.69988,8.70528 -11.7952,20.59982 -14.38867,33.81054 -4.16981,21.24033 -4.52313,46.03613 -8.89062,66.94922 l -0.55078,13.89844 c 3.68043,-13.19672 8.6432,-25.09886 15.22265,-34.75586 9.81437,-14.40505 23.09555,-23.85367 41.3457,-25.59375 18.17156,-1.73259 33.24723,6.51482 46.08399,20.97266 12.83676,14.45783 23.2728,35.12102 31.69141,57.76367 4.07384,10.95701 7.66987,22.37186 10.86523,33.77148 l 0.21484,-9.45312 c -2.56148,-8.55246 -5.3537,-17.05647 -8.42187,-25.3086 -8.4883,-22.8301 -19.00353,-43.76776 -32.22266,-58.65625 -13.21912,-14.88848 -29.30361,-23.73822 -48.47656,-21.91015 -19.09435,1.82057 -33.26289,11.90085 -43.42773,26.82031 -3.11218,4.5679 -5.74834,9.71233 -8.17188,15.0957 3.16502,-19.41141 3.92065,-40.70676 7.52149,-59.04883 2.54626,-12.97024 6.55248,-24.35742 13.73046,-32.47265 7.17799,-8.11524 17.51659,-13.11662 33.35157,-13.2793 15.50507,-0.15931 28.69467,9.98307 40.23047,26.47852 11.53578,16.49545 21.254,39.2211 29.61718,63.50586 6.27934,18.23374 11.79119,37.32458 16.80078,55.35742 l 0.22266,-9.78516 C 358.21594,328.95818 353.48034,313.07923 348.21875,297.80078 339.81316,273.39289 330.055,250.475 318.24805,233.5918 306.44109,216.70859 292.42057,205.73017 275.66211,205.90234 Z m 13.94531,151.18946 c -1.34001,-0.005 -2.70804,0.0769 -4.10547,0.25 -11.16232,1.38265 -19.46134,7.79086 -25.33398,17.01562 -5.87265,9.22478 -9.43964,21.26313 -11.52344,34.31055 -4.1676,26.09492 -2.35175,56.275 -0.0879,75.96094 2.27487,19.78155 8.61398,42.70056 17.73047,61.0039 4.55825,9.15171 9.80444,17.15085 15.65625,23.02344 5.8518,5.87263 12.36511,9.65241 19.36328,10.07617 6.7466,0.40849 11.90273,-0.75893 15.8418,-3.17383 3.93907,-2.41485 6.58254,-6.02677 8.45898,-10.21679 3.75287,-8.38005 4.66932,-19.17558 7.1543,-29.10742 5.21981,-20.86228 -2.68396,-55.28015 -10.05469,-73.72266 -3.5903,-8.98341 -6.06506,-18.60069 -9.73047,-25.82813 -1.8327,-3.61368 -3.97221,-6.66751 -6.84179,-8.66601 -2.86958,-1.9985 -6.46522,-2.8298 -10.70313,-2.08985 -4.38764,0.76611 -7.71501,3.56937 -10.05469,7.36719 -2.33967,3.79778 -3.79799,8.61318 -4.71093,13.79688 -1.82589,10.36739 -1.43932,22.25106 -0.68555,30.36132 0.78987,8.49873 5.89661,18.54963 10.75586,26.61915 4.85925,8.06955 9.52929,14.11523 9.52929,14.11523 l 2.24415,-1.73633 c 0,0 -4.57791,-5.92215 -9.34571,-13.83984 -4.7678,-7.91766 -9.66135,-17.87135 -10.36328,-25.42383 -0.73803,-7.94094 -1.09291,-19.67765 0.65625,-29.60938 0.87458,-4.96588 2.28421,-9.47159 4.33399,-12.79882 2.04977,-3.32723 4.63306,-5.4505 8.12695,-6.06055 3.64361,-0.63617 6.29822,0.0255 8.5918,1.62305 2.29358,1.59734 4.22671,4.24013 5.94335,7.625 3.4333,6.76974 5.93872,16.38485 9.61915,25.59375 7.17073,17.94209 14.81187,52.53002 9.94335,71.98828 -2.55917,10.22838 -3.55405,20.94445 -6.99804,28.63476 -1.722,3.84514 -4.00245,6.90654 -7.35352,8.96094 -3.35106,2.0544 -7.84991,3.14546 -14.1875,2.76172 -6.08602,-0.3685 -11.98568,-3.69058 -17.52539,-9.25 -5.53971,-5.55938 -10.66866,-13.32434 -15.13281,-22.28711 -8.92829,-17.9255 -15.21446,-40.63362 -17.44922,-60.06641 -2.24576,-19.5284 -4.02114,-49.55321 0.0723,-75.18359 2.0467,-12.81517 5.56744,-24.52269 11.11718,-33.24023 5.54974,-8.71755 13.00627,-14.45067 23.29102,-15.72461 10.26769,-1.27184 18.55961,2.67187 25.68164,10.02539 7.12204,7.35351 12.92496,18.14983 17.67969,30.21484 9.50944,24.12998 14.85389,53.22814 19.38476,70.14844 2.03817,7.61142 3.60175,14.31962 4.73047,20.52734 l 1.87891,-5.10156 c -1.03187,-5.00846 -2.31083,-10.32942 -3.8711,-16.15625 -4.46386,-16.67006 -9.82709,-45.94399 -19.48828,-70.45898 -4.83059,-12.2575 -10.72991,-23.3518 -18.27734,-31.14454 -6.60401,-6.81864 -14.58087,-11.08501 -23.96094,-11.11718 z m 67.90625,143.25586 -2.52539,2.52539 c 1.40809,15.47601 -0.65898,28.73325 -6.3789,46.8789 -4.68978,14.8777 -8.02833,36.96891 -15.92969,54.84766 -3.95068,8.93938 -9.01703,16.78156 -15.84961,22.18164 -6.83259,5.40004 -15.42462,8.43214 -26.78125,7.69922 -11.22558,-0.7245 -21.44188,-6.53369 -30.63477,-16.01172 -9.19288,-9.47803 -17.2974,-22.60292 -24.14648,-37.70508 -4.80194,-10.58824 -8.97297,-22.15346 -12.51172,-34.09375 l -0.0996,9.22656 c 2.96806,9.05619 6.30483,17.82509 10.02734,26.03321 6.94077,15.30433 15.17061,28.6936 24.69336,38.51172 9.52276,9.81815 20.40591,16.08705 32.49414,16.86718 11.95718,0.77171 21.37352,-2.49318 28.7168,-8.29687 7.34328,-5.80365 12.61911,-14.07262 16.68359,-23.26953 8.12898,-18.39379 11.47779,-40.66473 16.03907,-55.13477 6.05898,-19.2213 8.03723,-33.40375 6.20312,-50.25976 z m -135.45898,111.41015 -0.0566,5.40625 c 9.39149,15.32614 19.72227,29.05779 30.69922,39.66211 13.46282,13.00581 27.95276,21.35609 42.92578,21.90821 14.74765,0.54379 26.12852,-3.28388 34.96093,-9.91211 8.83242,-6.6282 15.10769,-15.98443 19.95313,-26.40625 2.06606,-4.44381 3.86607,-9.09258 5.50586,-13.81446 l 0.27734,-10.13867 c -2.36864,7.82029 -5.02582,15.58782 -8.35937,22.75781 -4.7243,10.16126 -10.75973,19.08858 -19.08203,25.33399 -8.32231,6.24536 -18.94346,9.87747 -33.15235,9.35351 -13.98352,-0.5156 -27.89141,-8.39891 -41.05859,-21.11914 -11.65238,-11.25682 -22.68438,-26.26638 -32.61328,-43.03125 z m -0.21485,20.00781 -0.0547,5.11719 c 6.74295,10.39426 13.73603,20.87704 20.82812,30.8086 11.11616,15.5667 22.39336,29.75654 33.09375,40.07031 12.69862,12.79489 34.48653,12.01965 39.69141,4.67187 7.45696,-10.42004 23.49934,-30.16364 39.77344,-52.03125 l 0.13476,-4.9375 c -0.16098,0.21822 -0.31946,0.44231 -0.48047,0.66016 -16.87484,22.83228 -33.8391,43.62722 -41.73047,54.6543 -7.30653,8.32466 -23.65426,6.13357 -35.41797,-5.05664 -10.48085,-10.10219 -21.69952,-24.18659 -32.76171,-39.67774 -7.87142,-11.02289 -15.65027,-22.74907 -23.07618,-34.2793 z m -0.9414,87.5586 -0.0566,5.34961 c 3.18687,5.1619 6.41838,10.22978 9.70898,15.10937 9.64712,14.30559 19.76575,27.07473 30.53906,36.38477 5.6068,4.84523 11.40942,8.74874 17.41602,11.42383 l 31.92383,2.45508 c 5.27173,-1.32415 9.80951,-3.44015 13.74609,-6.18555 7.21453,-5.03142 12.40491,-12.09668 16.7207,-19.96875 4.56384,-8.32453 8.19756,-17.57715 12.16602,-26.48438 l 0.19922,-7.26367 c -5.25142,10.84884 -9.39353,22.44575 -14.8457,32.39063 -4.19836,7.65785 -9.14068,14.31569 -15.85743,19 -6.71674,4.6843 -15.2369,7.45424 -26.85547,7.22656 -11.42574,-0.22413 -22.29402,-5.69602 -32.75976,-14.74024 -10.46574,-9.04422 -20.46671,-21.63235 -30.03711,-35.82421 -4.07897,-6.04867 -8.07613,-12.39586 -12.00781,-18.87305 z m -0.53711,49.91211 -0.0488,4.5625 c 2.57632,3.32782 5.18729,6.64561 7.84766,9.92187 l 3.91992,0.30078 c -3.99065,-4.85786 -7.91445,-9.81062 -11.71875,-14.78515 z m 131.58594,8.89453 c -2.01068,4.82123 -3.56239,9.79765 -4.97852,14.72656 l 2.94531,0.22656 c 0.57072,-1.96271 1.15482,-3.92142 1.78321,-5.86523 z"
       transform="scale(0.26458333)"
       id="path2728"
       inkscape:connector-curvature="0"
       sodipodi:nodetypes="ccsccscccccsccccccsssccssssccsssscsscssccsssccssscccccsscscccsccccssccccssccccssssccsscccsccccssccsscccccccscccsccccccccccccccccccccscccsccccscccscssccccccccccc" />
  </g>
</svg>
