<?xml version="1.0" encoding="UTF-8" standalone="no"?>
<!-- Created with Inkscape (http://www.inkscape.org/) -->

<svg
   xmlns:dc="http://purl.org/dc/elements/1.1/"
   xmlns:cc="http://creativecommons.org/ns#"
   xmlns:rdf="http://www.w3.org/1999/02/22-rdf-syntax-ns#"
   xmlns:svg="http://www.w3.org/2000/svg"
   xmlns="http://www.w3.org/2000/svg"
   xmlns:sodipodi="http://sodipodi.sourceforge.net/DTD/sodipodi-0.dtd"
   xmlns:inkscape="http://www.inkscape.org/namespaces/inkscape"
   width="64"
   height="64"
   viewBox="0 0 16.933333 16.933333"
   version="1.1"
   id="svg1194"
   sodipodi:docname="bigger_gap_filled.svg"
   inkscape:version="0.92.4 (33fec40, 2019-01-16)">
  <defs
     id="defs1188" />
  <sodipodi:namedview
     id="base"
     pagecolor="#ffffff"
     bordercolor="#666666"
     borderopacity="1.0"
     inkscape:pageopacity="0.0"
     inkscape:pageshadow="2"
     inkscape:zoom="4"
     inkscape:cx="132.77793"
     inkscape:cy="67.187939"
     inkscape:document-units="mm"
     inkscape:current-layer="layer1"
     showgrid="false"
     inkscape:object-nodes="false"
     units="px"
     inkscape:window-width="1920"
     inkscape:window-height="1025"
     inkscape:window-x="1920"
     inkscape:window-y="27"
     inkscape:window-maximized="1" />
  <metadata
     id="metadata1191">
    <rdf:RDF>
      <cc:Work
         rdf:about="">
        <dc:format>image/svg+xml</dc:format>
        <dc:type
           rdf:resource="http://purl.org/dc/dcmitype/StillImage" />
        <dc:title></dc:title>
      </cc:Work>
    </rdf:RDF>
  </metadata>
  <g
     inkscape:label="Layer 1"
     inkscape:groupmode="layer"
     id="layer1"
     transform="translate(0,-280.06667)">
    <g
       id="g2147"
       style="stroke:none;stroke-opacity:1;fill:#100000;fill-opacity:1">
      <path
         inkscape:connector-curvature="0"
         id="rect1755"
         d="m 11.299388,281.78964 c -1.3374226,0.0151 -2.765736,0.53438 -3.9723586,1.55453 l -0.4289475,0.36261 6.6866491,6.68665 c 2.268745,-2.04654 2.786926,-5.18651 1.141608,-7.13256 -0.842988,-0.99709 -2.08952,-1.48628 -3.426951,-1.47123 z"
         style="fill:#100000;fill-opacity:1;stroke:none;stroke-width:0.03544689;stroke-miterlimit:4;stroke-dasharray:none;stroke-opacity:1" />
      <rect
         transform="rotate(45.913003)"
         ry="1.6095363"
         rx="1.2205288"
         y="192.12532"
         x="205.93343"
         height="1.6095363"
         width="14.485827"
         id="rect1760"
         style="fill:#100000;fill-opacity:1;stroke:none;stroke-width:0.04030177;stroke-miterlimit:4;stroke-dasharray:none;stroke-opacity:1" />
      <rect
         transform="rotate(-43.610997)"
         ry="1.2576559"
         rx="1.027054"
         y="214.27896"
         x="-190.26361"
         height="1.2576559"
         width="8.0296488"
         id="rect1766"
         style="fill:#100000;fill-opacity:1;stroke:none;stroke-width:0.03391328;stroke-miterlimit:4;stroke-dasharray:none;stroke-opacity:1;paint-order:stroke fill markers" />
    </g>
    <g
       id="g2135"
       style="fill:#100000;stroke:none;stroke-opacity:1;fill-opacity:1"
       transform="translate(-0.26458333,0.396875)">
      <path
         inkscape:connector-curvature="0"
         style="fill:#100000;fill-opacity:1;stroke:none;stroke-width:0.03544689;stroke-miterlimit:4;stroke-dasharray:none;stroke-opacity:1"
         d="m 6.40632,294.96674 c 1.3374243,-0.0151 2.7657378,-0.53438 3.972364,-1.55452 l 0.428945,-0.36262 -6.6866353,-6.68665 c -2.2687451,2.04654 -2.7869227,5.18652 -1.1416082,7.13257 0.84299,0.99708 2.0895144,1.48628 3.4269345,1.47122 z"
         id="path1762" />
      <rect
         style="fill:#100000;fill-opacity:1;stroke:none;stroke-width:0.04030177;stroke-miterlimit:4;stroke-dasharray:none;stroke-opacity:1"
         id="rect1764"
         width="14.485827"
         height="1.6095363"
         x="-220.66032"
         y="-196.4351"
         rx="1.2205288"
         ry="1.6095363"
         transform="rotate(-134.087)" />
      <rect
         style="fill:#100000;fill-opacity:1;stroke:none;stroke-width:0.03391328;stroke-miterlimit:4;stroke-dasharray:none;stroke-opacity:1"
         id="rect1768"
         width="8.0296488"
         height="1.2576559"
         x="-203.02908"
         y="213.90311"
         rx="1.027054"
         ry="1.2576559"
         transform="rotate(-43.610997)" />
    </g>
    <path
       style="fill:#100000;fill-opacity:1;stroke:none;stroke-width:0.12817618;stroke-miterlimit:4;stroke-dasharray:none;stroke-opacity:1;paint-order:stroke fill markers"
       d="M 34.671875 15.400391 C 33.731858 15.42302 32.592297 15.938153 31.619141 16.865234 L 15.265625 32.443359 C 13.708574 33.926689 13.187514 35.888471 14.095703 36.841797 C 15.003892 37.795123 16.987871 37.368095 18.544922 35.884766 L 34.896484 20.306641 C 36.453535 18.823311 36.976548 16.861529 36.068359 15.908203 C 35.727789 15.550706 35.235885 15.386813 34.671875 15.400391 z M 46.921875 27.150391 C 45.981858 27.17302 44.842297 27.688153 43.869141 28.615234 L 27.515625 44.193359 C 25.958574 45.676689 25.437514 47.638471 26.345703 48.591797 C 27.253892 49.545123 29.237871 49.118095 30.794922 47.634766 L 47.146484 32.056641 C 48.703535 30.573311 49.226548 28.611529 48.318359 27.658203 C 47.977789 27.300706 47.485885 27.136813 46.921875 27.150391 z "
       transform="matrix(0.26458333,0,0,0.26458333,0,280.06667)"
       id="rect2140" />
  </g>
</svg>
